<svg xmlns="http://www.w3.org/2000/svg" width="23" height="22" viewBox="0 0 23 22" fill="none">
  <g clip-path="url(#clip0_1_379)">
    <path d="M11.4054 -0.0133386C11.4488 -0.0132466 11.4922 -0.0131547 11.537 -0.0130599C12.1602 -0.0109409 12.7717 -0.000237246 13.3838 0.127978C13.4254 0.136454 13.467 0.14493 13.5098 0.153663C15.1757 0.502136 16.7312 1.16845 18.0766 2.2184C18.1148 2.2476 18.153 2.2768 18.1924 2.30689C18.8561 2.82375 19.4811 3.4308 19.9964 4.09551C20.0294 4.13637 20.0625 4.17723 20.0965 4.21933C21.57 6.07106 22.3615 8.42355 22.3562 10.7818C22.3561 10.9072 22.3571 11.0325 22.3582 11.1579C22.3601 11.7285 22.3087 12.2786 22.2148 12.8412C22.2027 12.9139 22.2027 12.9139 22.1905 12.9881C21.8907 14.6567 21.1662 16.243 20.1244 17.5766C20.092 17.6181 20.0596 17.6595 20.0262 17.7022C19.5 18.3584 18.9112 18.9792 18.2473 19.4964C18.2073 19.529 18.1674 19.5616 18.1263 19.5952C16.7631 20.6868 15.0922 21.3911 13.3838 21.7148C13.3493 21.7218 13.3148 21.7287 13.2792 21.7359C11.9976 21.9864 10.5197 21.9397 9.24564 21.6721C9.18067 21.6587 9.18067 21.6587 9.11439 21.6451C7.52977 21.3084 6.04241 20.6214 4.76617 19.6244C4.7247 19.592 4.68324 19.5596 4.64051 19.5262C3.9844 19 3.36355 18.4112 2.84639 17.7472C2.79748 17.6874 2.79748 17.6874 2.74757 17.6263C1.65599 16.2631 0.951659 14.5922 0.627986 12.8838C0.621002 12.8493 0.614017 12.8148 0.606822 12.7792C0.373479 11.5852 0.378638 10.1494 0.627986 8.95894C0.636462 8.91735 0.644937 8.87576 0.65367 8.83291C1.084 6.77573 2.02413 4.87303 3.49561 3.36297C3.5713 3.28529 3.64629 3.20698 3.72129 3.12863C4.02425 2.8155 4.34055 2.53524 4.69005 2.27518C4.76739 2.21749 4.84395 2.15885 4.92048 2.10008C5.27912 1.82761 5.65205 1.5912 6.04485 1.3711C6.12433 1.32644 6.20318 1.28083 6.28199 1.23501C7.84342 0.357587 9.62903 -0.0201026 11.4054 -0.0133386ZM15.2219 7.67127C15.1868 7.7069 15.1517 7.74253 15.1155 7.77925C15.0573 7.83786 15.0573 7.83786 14.998 7.89765C14.9366 7.95986 14.8752 8.02211 14.8139 8.08437C14.7545 8.14451 14.695 8.20452 14.6355 8.26452C14.6 8.30049 14.5646 8.33646 14.528 8.37352C14.4374 8.46097 14.3464 8.54323 14.251 8.62505C14.0505 8.79897 13.8641 8.98577 13.6773 9.17418C13.6142 9.23783 13.551 9.30133 13.4877 9.36481C13.3534 9.49959 13.2193 9.63454 13.0852 9.76951C12.9296 9.92616 12.7738 10.0827 12.618 10.2391C12.5562 10.3011 12.4947 10.3632 12.4331 10.4254C12.2433 10.6158 12.0514 10.7993 11.8474 10.9743C11.6796 11.1229 11.5233 11.2835 11.3654 11.4425C11.3289 11.479 11.2925 11.5155 11.2549 11.5531C11.1397 11.6686 11.0246 11.7843 10.9094 11.8999C10.8309 11.9787 10.7523 12.0575 10.6736 12.1363C10.4819 12.3285 10.2904 12.5208 10.0989 12.7132C9.93337 12.6366 9.8314 12.5382 9.70425 12.4065C9.57559 12.2736 9.44712 12.147 9.3063 12.0271C9.02723 11.7858 8.77289 11.5175 8.51379 11.2552C8.15532 10.8924 8.15532 10.8924 7.77615 10.5515C7.69261 10.48 7.61527 10.4034 7.53917 10.3241C7.36326 10.3916 7.25812 10.5198 7.13656 10.6574C6.86839 10.9549 6.58719 11.2376 6.30199 11.5186C6.37032 11.6885 6.48894 11.8026 6.61695 11.9288C6.63969 11.9515 6.66244 11.9742 6.68587 11.9976C6.73404 12.0457 6.78231 12.0936 6.83067 12.1414C6.90366 12.2136 6.9763 12.2862 7.0489 12.3588C7.33166 12.6411 7.33166 12.6411 7.6285 12.9083C7.76875 13.0281 7.89896 13.1563 8.02812 13.2878C8.04863 13.3086 8.06914 13.3295 8.09027 13.3509C8.17497 13.4372 8.25955 13.5235 8.34371 13.6103C8.81499 14.0955 9.32486 14.5379 10.0349 14.561C10.9243 14.549 11.5074 13.872 12.0881 13.2868C12.1609 13.2135 12.2338 13.1403 12.3068 13.0672C12.4615 12.9119 12.616 12.7566 12.7706 12.6012C12.9502 12.4205 13.1299 12.24 13.3098 12.0596C13.3811 11.988 13.4522 11.9164 13.5233 11.8447C13.8816 11.4847 13.8816 11.4847 14.0649 11.3281C14.3147 11.1145 14.5426 10.8771 14.7743 10.6442C14.8255 10.593 14.8766 10.5418 14.9278 10.4906C15.0614 10.3568 15.1949 10.2229 15.3284 10.0889C15.465 9.95185 15.6018 9.8149 15.7385 9.67794C16.0061 9.40995 16.2735 9.14183 16.5408 8.87362C16.4601 8.69818 16.342 8.57792 16.206 8.44367C16.1816 8.41929 16.1572 8.39491 16.1321 8.36979C16.0806 8.31849 16.0291 8.2673 15.9775 8.2162C15.8981 8.13762 15.8191 8.0587 15.7401 7.97972C15.6901 7.92993 15.6401 7.88016 15.5901 7.83041C15.5663 7.80668 15.5425 7.78295 15.518 7.75851C15.3791 7.58419 15.3791 7.58419 15.2219 7.67127Z" fill="#95BF70"/>
  </g>
  <defs>
    <clipPath id="clip0_1_379">
      <rect width="21.8428" height="21.8428" fill="white" transform="translate(0.5)"/>
    </clipPath>
  </defs>
</svg>