<svg width="16" height="16" viewBox="0 0 16 16" fill="none" xmlns="http://www.w3.org/2000/svg">
<path d="M10.8334 15.0001C11.4777 15.0001 12 14.4777 12 13.8334C12 13.1891 11.4777 12.6667 10.8334 12.6667C10.189 12.6667 9.66669 13.1891 9.66669 13.8334C9.66669 14.4777 10.189 15.0001 10.8334 15.0001Z" fill="white"/>
<path d="M5.49998 15.0001C6.14431 15.0001 6.66665 14.4777 6.66665 13.8334C6.66665 13.1891 6.14431 12.6667 5.49998 12.6667C4.85565 12.6667 4.33331 13.1891 4.33331 13.8334C4.33331 14.4777 4.85565 15.0001 5.49998 15.0001Z" fill="white"/>
<path d="M3.22665 2.62659L3.09331 4.25992C3.06665 4.57325 3.31331 4.83325 3.62665 4.83325H13.8333C14.1133 4.83325 14.3466 4.61992 14.3666 4.33992C14.4533 3.15992 13.5533 2.19992 12.3733 2.19992H4.17998C4.11331 1.90659 3.97998 1.62659 3.77331 1.39325C3.43998 1.03992 2.97331 0.833252 2.49331 0.833252H1.33331C1.05998 0.833252 0.833313 1.05992 0.833313 1.33325C0.833313 1.60659 1.05998 1.83325 1.33331 1.83325H2.49331C2.69998 1.83325 2.89331 1.91992 3.03331 2.06659C3.17331 2.21992 3.23998 2.41992 3.22665 2.62659Z" fill="white"/>
<path d="M13.6733 5.83325H3.44666C3.16666 5.83325 2.93999 6.04658 2.91333 6.31992L2.67333 9.21992C2.57999 10.3599 3.47333 11.3333 4.61333 11.3333H12.0267C13.0267 11.3333 13.9067 10.5133 13.98 9.51325L14.2 6.39992C14.2267 6.09325 13.9867 5.83325 13.6733 5.83325Z" fill="white"/>
</svg>
