<svg width="154" height="153" viewBox="0 0 154 153" fill="none" xmlns="http://www.w3.org/2000/svg">
<path d="M130.956 123.543C130.864 122.64 130.688 121.75 130.462 120.871C130.202 119.857 129.88 118.858 129.56 117.862C129.481 117.618 129.095 117.722 129.174 117.968C129.777 119.838 130.393 121.732 130.571 123.699C130.603 124.056 130.63 124.42 130.617 124.779C130.61 124.978 130.611 125.32 130.453 125.474C130.028 125.886 129.429 124.586 129.371 124.309C129.316 124.055 128.94 124.165 128.984 124.415C129.121 125.184 129.225 125.956 129.292 126.733C129.307 126.926 129.332 127.12 129.335 127.312C129.336 127.485 129.211 127.556 129.055 127.49C128.898 127.426 128.776 127.271 128.684 127.136C128.302 126.58 128.052 125.817 127.97 125.116C127.97 125.103 127.967 125.09 127.966 125.077C127.956 124.981 127.947 124.888 127.944 124.796C127.933 124.539 127.534 124.537 127.544 124.796C127.565 125.281 127.669 125.757 127.72 126.238C127.763 126.643 127.834 127.464 127.417 127.717C127.081 127.921 126.978 127.522 126.903 127.276C126.818 126.992 126.742 126.705 126.678 126.415C126.544 125.817 126.455 125.212 126.409 124.602C126.389 124.348 125.995 124.342 126.008 124.602C126.044 125.27 125.972 125.932 125.78 126.573C125.7 126.84 125.612 127.219 125.386 127.408C125.124 127.63 124.92 127.325 124.829 127.097C124.586 126.488 124.516 125.761 124.484 125.112C124.467 124.774 124.466 124.441 124.427 124.105C124.387 123.762 124.339 123.421 124.345 123.075C124.347 122.976 124.252 122.863 124.145 122.876C123.83 122.91 123.512 122.956 123.195 122.97C122.939 122.982 122.548 123.022 122.342 122.835C121.934 122.468 122.889 121.994 123.134 121.844C123.422 121.671 123.781 121.465 123.919 121.142C123.995 120.961 123.954 120.792 123.927 120.603C123.875 120.249 123.824 119.895 123.773 119.541C123.736 119.286 123.351 119.394 123.387 119.647C123.443 120.035 123.518 120.425 123.557 120.816C123.578 121.029 123.455 121.138 123.291 121.263C122.94 121.53 122.511 121.692 122.188 121.994C121.804 122.353 121.682 122.934 122.208 123.23C122.699 123.506 123.391 123.377 123.953 123.301C123.97 123.676 124.032 124.046 124.061 124.421C124.094 124.849 124.085 125.276 124.135 125.704C124.187 126.147 124.263 126.594 124.387 127.025C124.463 127.289 124.578 127.568 124.798 127.744C125.345 128.181 125.827 127.601 126.018 127.117C126.117 126.867 126.195 126.608 126.257 126.347C126.297 126.542 126.343 126.738 126.393 126.932C126.518 127.414 126.665 128.296 127.357 128.171C127.897 128.073 128.087 127.495 128.137 126.999C128.267 127.263 128.43 127.51 128.647 127.696C129.093 128.078 129.763 127.947 129.738 127.278C129.718 126.702 129.655 126.122 129.573 125.546C129.682 125.663 129.801 125.765 129.929 125.833C130.387 126.078 130.802 125.85 130.942 125.378C131.111 124.806 131.019 124.122 130.962 123.543H130.956Z" fill="#7366AE"/>
<path d="M106.293 58.5121C105.761 60.1523 105.353 61.8556 105.28 63.5834C105.217 65.0685 105.419 66.6211 106.181 67.9223C107.712 70.5363 111.256 71.398 114.035 70.598C114.879 70.3553 115.684 69.9647 116.441 69.5223C117.034 69.1762 117.444 68.7065 117.774 68.1076C117.717 68.1406 117.659 68.1737 117.602 68.2067C118.752 68.2756 120.165 67.7313 120.562 66.5522C120.727 66.061 120.602 65.5209 120.194 65.1906C119.796 64.8689 119.26 64.8043 118.772 64.899C118.519 64.9493 118.627 65.3342 118.878 65.2854C119.256 65.2107 119.701 65.2682 119.992 65.5425C120.325 65.857 120.272 66.3295 120.058 66.6958C119.575 67.5231 118.508 67.8606 117.6 67.806C117.533 67.8017 117.459 67.8462 117.428 67.9051C117.149 68.4121 116.82 68.8243 116.322 69.1273C115.703 69.5036 115.032 69.8383 114.349 70.0781C112.947 70.5679 111.429 70.6153 109.997 70.2217C108.697 69.8641 107.46 69.1302 106.698 67.9941C105.911 66.8207 105.659 65.3874 105.669 63.9956C105.684 62.1644 106.116 60.3533 106.679 58.6198C106.759 58.3742 106.372 58.2693 106.293 58.5135V58.5121Z" fill="#7366AE"/>
<path d="M109.742 64.204C109.954 64.3519 110.155 64.0058 109.945 63.8578C109.826 63.7745 109.705 63.6898 109.586 63.6065C109.539 63.5735 109.292 63.4327 109.289 63.3939C109.286 63.3537 109.457 63.1972 109.494 63.1469C109.576 63.0421 109.653 62.9329 109.721 62.8166C109.984 62.3728 110.127 61.8672 110.15 61.353C110.162 61.0959 109.761 61.0959 109.75 61.353C109.725 61.9103 109.527 62.4561 109.184 62.8984C109.021 63.1067 108.769 63.3293 108.955 63.6108C109.042 63.7401 109.197 63.8219 109.32 63.9081C109.461 64.0072 109.602 64.1049 109.742 64.204Z" fill="#7366AE"/>
<path d="M112.829 63.2035C112.806 63.1676 112.779 63.1432 112.747 63.1231C112.727 63.1073 112.703 63.093 112.675 63.0843C112.596 63.0585 112.504 63.0728 112.433 63.1116C112.381 63.1389 112.341 63.182 112.303 63.2251C112.236 63.3055 112.177 63.3917 112.134 63.4894C112.094 63.5827 112.048 63.6904 112.056 63.7953C112.065 63.9202 112.125 64.038 112.24 64.0983C112.431 64.1989 112.671 64.1156 112.757 63.9202C112.807 63.8082 112.848 63.6904 112.866 63.5684C112.881 63.4779 112.888 63.396 112.871 63.3055C112.863 63.2696 112.849 63.2337 112.829 63.2035Z" fill="#7366AE"/>
<path d="M107.621 61.4454C107.519 61.4756 107.449 61.5517 107.389 61.635C107.301 61.7599 107.239 61.9093 107.218 62.0616C107.209 62.1276 107.205 62.1808 107.218 62.2468C107.229 62.3086 107.258 62.3632 107.3 62.4105C107.376 62.4982 107.507 62.5412 107.619 62.5025C107.721 62.4666 107.787 62.3861 107.834 62.2913C107.873 62.2167 107.906 62.1391 107.929 62.0587C107.953 61.9782 107.968 61.8935 107.972 61.8088C107.976 61.724 107.968 61.6336 107.922 61.5603C107.858 61.4569 107.735 61.4109 107.62 61.4454H107.621Z" fill="#7366AE"/>
<path d="M109.142 60.1505C109.171 60.1002 109.172 60.0356 109.154 59.9782C109.155 59.9408 109.148 59.9049 109.125 59.8748C108.937 59.6191 108.674 59.4324 108.384 59.3103C108.095 59.1882 107.759 59.1265 107.453 59.2241C107.377 59.2485 107.32 59.3103 107.309 59.3907C107.301 59.4626 107.332 59.5588 107.406 59.5904C107.893 59.8015 108.381 60.0112 108.868 60.2223C108.967 60.2654 109.083 60.251 109.142 60.1505ZM109.063 59.8733C109.063 59.8733 109.059 59.8704 109.056 59.869C109.055 59.8676 109.053 59.8661 109.052 59.8647C109.052 59.8604 109.057 59.8676 109.063 59.8733Z" fill="#7366AE"/>
<path d="M114.545 61.6481C114.542 61.6395 114.535 61.6309 114.532 61.6222C114.529 61.6151 114.529 61.6079 114.525 61.5993C114.522 61.5921 114.515 61.5878 114.509 61.5806C114.344 61.2804 113.918 61.167 113.61 61.1023C113.409 61.0592 113.201 61.0305 112.994 61.0262C112.833 61.0233 112.661 61.0305 112.516 61.1052C112.445 61.1411 112.41 61.2316 112.42 61.3048C112.433 61.3881 112.486 61.4427 112.563 61.4715C112.812 61.5648 113.063 61.6524 113.316 61.7343C113.487 61.7903 113.658 61.8434 113.831 61.8879C113.968 61.9239 114.114 61.9612 114.257 61.9641C114.42 61.9669 114.541 61.8707 114.55 61.7328C114.555 61.7041 114.555 61.6754 114.545 61.6467V61.6481ZM114.165 61.7702C114.17 61.7831 114.173 61.7917 114.165 61.7702V61.7702ZM114.169 61.7745C114.169 61.7745 114.17 61.7774 114.172 61.7802C114.175 61.7888 114.175 61.796 114.179 61.8047C114.175 61.796 114.172 61.786 114.169 61.7759V61.7745Z" fill="#7366AE"/>
<path d="M111.582 65.8134C111.582 65.8134 111.579 65.8134 111.577 65.8134C111.58 65.8134 111.583 65.8105 111.586 65.8105C111.582 65.8119 111.576 65.8134 111.571 65.8148C111.571 65.8148 111.571 65.8148 111.57 65.8148C111.517 65.8177 111.465 65.8191 111.412 65.8177C111.27 65.8163 111.128 65.8076 110.987 65.799C110.651 65.7789 110.315 65.7487 109.98 65.7243C109.867 65.7157 109.752 65.7057 109.638 65.7042C109.579 65.7042 109.518 65.7057 109.462 65.7243C109.295 65.7775 109.253 65.9326 109.255 66.0877C109.256 66.6349 109.621 67.1117 110.125 67.3013C110.652 67.4995 111.201 67.2798 111.514 66.8317C111.673 66.5918 111.788 66.3232 111.854 66.0432C111.897 65.8565 111.719 65.7602 111.584 65.8148L111.582 65.8134ZM110.269 66.9308C110.095 66.8733 109.93 66.7512 109.822 66.6033C109.757 66.5143 109.71 66.4137 109.681 66.3089C109.67 66.2644 109.66 66.2198 109.656 66.1753C109.653 66.1509 109.653 66.1265 109.653 66.1021C109.723 66.1021 109.799 66.115 109.859 66.1179C110.039 66.1308 110.217 66.1452 110.395 66.1581C110.721 66.1839 111.049 66.2126 111.376 66.2155C111.32 66.3591 111.251 66.4985 111.164 66.6292C110.958 66.9236 110.609 67.0428 110.267 66.9293L110.269 66.9308ZM111.573 65.8148C111.573 65.8148 111.574 65.8148 111.576 65.8148C111.528 65.8349 111.488 65.8737 111.464 65.9355C111.494 65.855 111.523 65.8335 111.571 65.8148H111.573Z" fill="#7366AE"/>
<path d="M126.609 75.9862C125.482 71.8527 125.643 67.5425 125.562 63.2999C125.542 62.2241 125.506 61.1484 125.429 60.0741C125.356 59.0543 125.246 58.0217 124.907 57.0508C124.353 55.4609 123.296 54.118 121.957 53.1141C120.694 52.1676 119.194 51.5012 117.643 51.201C116.89 51.0559 116.118 50.9927 115.351 51.0459C114.569 51.1004 113.853 51.2958 113.122 51.56C112.649 51.731 112.109 51.7108 111.614 51.7625C111.153 51.8114 110.694 51.8861 110.252 52.0283C109.383 52.3055 108.564 52.7607 107.868 53.3482C106.544 54.4612 105.693 56.1259 105.589 57.8551C105.563 58.2788 105.591 58.701 105.656 59.1204C105.672 59.221 105.81 59.2942 105.903 59.2597C106.239 59.1348 106.485 58.8877 106.732 58.6378C107.029 58.3377 107.358 58.0878 107.71 57.8536C108.484 57.3395 109.321 56.9115 110.195 56.5926C110.634 56.4318 111.082 56.2982 111.539 56.1905C111.978 56.0871 112.521 55.9176 112.971 56.0411C113.508 56.189 113.621 57.068 113.725 57.5219C114.09 59.1276 114.727 60.7089 115.444 62.1911C115.817 62.9638 116.274 63.7121 116.895 64.3124C117.183 64.5911 117.506 64.841 117.858 65.0334C118.114 65.1742 118.449 65.3738 118.746 65.3149C119.108 65.2431 119.468 65.223 119.804 65.4068C120.227 65.6381 120.324 66.1106 120.142 66.5357C119.737 67.4779 118.552 67.8643 117.603 67.8068C117.535 67.8025 117.462 67.847 117.43 67.9059C117.163 68.3899 116.85 68.7992 116.378 69.0951C115.789 69.4642 115.14 69.7831 114.49 70.0272C114.396 70.0631 114.309 70.1651 114.351 70.2743C114.449 70.5385 114.409 70.8631 114.403 71.1432C114.397 71.5037 114.38 71.8628 114.377 72.2233C114.373 72.8408 114.414 73.4728 114.64 74.0545C114.842 74.5787 115.173 75.1604 115.687 75.4304C116.169 75.6846 116.714 75.8225 117.236 75.9718C117.909 76.1629 118.565 76.397 119.24 76.5779C120.057 76.7977 120.882 76.9916 121.686 77.2515C122.368 77.4713 123.055 77.7212 123.658 78.1162C124.333 78.5571 124.772 79.1833 124.992 79.956C125.242 80.8335 125.297 81.7743 125.39 82.6791C125.493 83.6873 125.58 84.697 125.65 85.7081C125.654 85.7627 125.677 85.8029 125.707 85.8345C125.524 85.9968 125.801 86.2668 125.998 86.1103C127.276 85.0891 127.806 83.4317 127.842 81.8418C127.888 79.8253 127.135 77.9021 126.612 75.9862H126.609Z" fill="#7366AE"/>
<path d="M108.102 69.3746C107.436 68.925 106.878 68.3491 106.482 67.6468C106.287 67.3007 106.132 66.9358 106.014 66.5567C105.958 66.3771 105.909 66.1962 105.867 66.0124C105.834 65.8659 105.749 65.6346 105.771 65.4881C105.797 65.3129 105.583 65.1248 105.436 65.2928C102.815 68.3032 99.4903 71.0263 98.4031 75.0334C98.3715 75.1483 98.4634 75.3005 98.5956 75.2876C99.0393 75.2402 99.4271 74.9601 99.8494 74.8093C100.368 74.6226 100.906 74.4905 101.448 74.3943C102.595 74.1917 103.767 74.1515 104.931 74.1458C105.449 74.1429 105.997 74.2032 106.511 74.1515C106.733 74.1285 106.878 73.9763 106.999 73.7982C107.378 73.2381 107.552 72.5056 107.723 71.8607C107.895 71.2101 108.06 70.5451 108.151 69.8773C108.159 69.8126 108.141 69.7581 108.106 69.7164C108.203 69.6389 108.234 69.4665 108.099 69.376L108.102 69.3746Z" fill="#7366AE"/>
<path d="M76.5224 68.5296C77.0093 69.0495 77.5407 69.5263 78.1037 69.963C78.1885 70.029 78.3034 70.0463 78.3867 69.963C78.4556 69.894 78.4729 69.7461 78.3867 69.68C77.8237 69.2434 77.2923 68.7666 76.8054 68.2466C76.6287 68.0585 76.3458 68.3414 76.5224 68.5296Z" fill="#7366AE"/>
<path d="M48.6259 102.236C47.7728 102.559 46.9197 102.881 46.0651 103.204C46.0191 103.221 45.9732 103.24 45.9272 103.257C45.9157 103.241 45.8971 103.228 45.877 103.215C45.7836 103.129 45.6328 103.07 45.5064 103.009C44.9348 102.665 44.445 102.196 44.0759 101.644C44.0616 101.624 44.0486 101.603 44.0343 101.582C44.0055 101.538 43.9783 101.492 43.951 101.447C43.9237 101.401 43.8978 101.356 43.872 101.308C43.8576 101.282 43.8432 101.255 43.8303 101.229C43.7944 101.16 43.7599 101.091 43.7283 101.021C43.724 101.011 43.7197 101.002 43.7154 100.992C43.5976 100.728 43.5072 100.452 43.444 100.171C43.4411 100.161 43.4382 100.145 43.4339 100.129C43.4152 100.037 43.398 99.9437 43.3851 99.8489C43.3822 99.8302 43.3405 99.6105 43.3607 99.5846C43.3693 99.5746 43.3865 99.5717 43.4095 99.5731C43.4095 99.5731 43.4109 99.5731 43.4124 99.5731C43.4827 99.5817 43.5976 99.632 43.635 99.6435C43.7685 99.6837 43.9007 99.7239 44.0343 99.7642C44.3158 99.8489 44.7811 100.1 45.0511 99.8877C45.0727 99.8719 45.0942 99.8561 45.1129 99.8331C45.1158 99.8302 45.1186 99.8288 45.1215 99.8259C45.1473 99.7929 45.1675 99.757 45.1833 99.7182C45.3341 99.3807 45.2996 98.8866 45.3096 98.5247C45.314 98.3782 45.3096 98.2317 45.3082 98.0852C45.3082 98.0134 45.3096 97.9401 45.3082 97.8683C45.301 97.6615 45.2881 97.4547 45.2709 97.2479C46.2274 97.0812 47.1868 96.9261 48.1419 96.7509C48.3947 96.7049 48.2884 96.3186 48.0356 96.3646C47.0489 96.5455 46.0579 96.7049 45.0683 96.8773C44.9937 96.8902 44.9175 96.906 44.84 96.9218C44.8299 96.9218 44.8228 96.9204 44.8113 96.9218C44.5671 96.9692 44.3129 97.0209 44.0673 96.952C44.0156 96.9362 43.9667 96.9161 43.9194 96.8917C43.9122 96.8874 43.9036 96.8859 43.8949 96.8816C43.8375 96.8486 43.7844 96.8112 43.7327 96.7681C43.7169 96.7538 43.701 96.7394 43.6852 96.7251C43.6536 96.6963 43.6206 96.6676 43.5905 96.636C43.5675 96.613 43.5459 96.5901 43.5258 96.5685C43.5 96.5412 43.4741 96.5139 43.4497 96.4866C43.3966 96.4292 43.3449 96.3703 43.2932 96.3114C43.1553 96.1577 43.0174 96.0041 42.8781 95.8504C42.8206 95.7858 42.7632 95.7211 42.7043 95.6579C42.6354 95.5832 42.565 95.5114 42.4946 95.4382C42.463 95.4052 42.4329 95.3707 42.4013 95.3391C42.3783 95.3147 42.3539 95.2917 42.3309 95.2687C42.3079 95.2443 42.2835 95.2213 42.2591 95.1969C41.9962 94.9326 41.7205 94.677 41.4304 94.4386C41.4275 94.4357 41.4232 94.4328 41.4203 94.4299C40.9837 94.0723 40.514 93.7563 39.9999 93.5237C39.8591 93.4605 39.704 93.3959 39.5431 93.3384C38.6713 93.021 37.7162 92.9363 37.1963 93.64C36.9924 93.9 36.9048 94.2159 36.8875 94.5448C36.8861 94.5707 36.8846 94.5965 36.8846 94.6238C36.8846 94.6641 36.8846 94.7028 36.8846 94.743C36.8861 94.8134 36.8904 94.8824 36.8976 94.9527C36.8976 94.9599 36.899 94.9685 36.9004 94.9757C36.9177 95.1308 36.945 95.2845 36.9823 95.4353C36.9823 95.4411 36.9852 95.4454 36.9866 95.4497C37.0053 95.5244 37.0254 95.5991 37.0469 95.6723C37.057 95.7053 37.067 95.7384 37.0771 95.77C37.0814 95.7843 37.0857 95.7987 37.09 95.8116C37.0943 95.8231 37.0986 95.8332 37.1015 95.8446C37.1058 95.8576 37.1101 95.8691 37.1144 95.882C37.1231 95.9078 37.1331 95.9323 37.1432 95.9567C37.225 96.1937 37.3126 96.4292 37.406 96.6633C37.4189 96.6949 37.4319 96.7265 37.4448 96.7567C37.5295 96.9649 37.6171 97.1732 37.709 97.3785C37.7406 97.4518 37.7737 97.5236 37.8053 97.5968C37.8828 97.7663 37.9633 97.9358 38.0437 98.1038C38.1012 98.2216 38.1572 98.3394 38.216 98.4557C38.308 98.6381 38.3999 98.8205 38.4947 99.0015C38.5062 99.023 38.5162 99.0446 38.5277 99.0661C38.5536 99.1164 38.5823 99.1652 38.6096 99.2155C38.7029 99.3878 38.7963 99.5602 38.8925 99.7325C38.9356 99.8101 38.9787 99.8877 39.0232 99.9638C39.1266 100.146 39.2329 100.327 39.3392 100.507C39.3708 100.558 39.4009 100.612 39.4325 100.663C39.5704 100.894 39.7112 101.123 39.8519 101.351C39.8893 101.41 39.9266 101.469 39.9625 101.528C40.0717 101.702 40.1808 101.877 40.2914 102.049C40.3115 102.081 40.3302 102.112 40.3503 102.143C40.3675 102.17 40.3862 102.197 40.4034 102.224C40.5758 102.494 40.751 102.763 40.9262 103.03C41.1632 103.392 41.393 103.824 41.6917 104.159C41.8698 104.376 42.0795 104.561 42.3625 104.649C42.4659 104.68 42.5707 104.695 42.6756 104.702C42.6799 104.702 42.6842 104.702 42.6885 104.702C42.9212 104.716 43.1553 104.679 43.3836 104.616C43.3894 104.614 43.3951 104.613 43.4009 104.611C43.444 104.6 43.487 104.587 43.5287 104.574C43.5689 104.561 43.6106 104.548 43.6508 104.535C43.6637 104.531 43.6766 104.527 43.691 104.522C43.8763 104.459 44.0601 104.386 44.2411 104.317C44.7251 104.135 45.2105 103.951 45.6945 103.768C46.7071 103.386 47.7182 103.003 48.7308 102.621C48.9692 102.53 48.8658 102.143 48.6245 102.234L48.6259 102.236Z" fill="#7366AE"/>
<path d="M56.8545 128.465C56.1235 129.305 55.3623 130.121 54.6025 130.935C54.581 130.908 54.5494 130.89 54.5106 130.882C54.5106 130.882 54.5077 130.882 54.5063 130.88C54.3756 130.839 54.1975 130.865 54.0424 130.87C53.5282 130.845 53.0155 130.731 52.5358 130.533C52.5358 130.533 52.5357 130.533 52.5343 130.533C52.4754 130.508 52.418 130.481 52.3605 130.455C52.3146 130.434 52.2686 130.412 52.2227 130.389C52.1997 130.378 52.1767 130.365 52.1537 130.352C51.6166 130.065 51.1354 129.667 50.762 129.187C50.7563 129.18 50.7491 129.173 50.7433 129.164C50.6945 129.1 50.6471 129.033 50.6026 128.965C50.5925 128.949 50.5882 128.943 50.581 128.933C50.5738 128.901 50.5695 128.883 50.5667 128.87C50.5782 128.864 50.594 128.855 50.6198 128.837C50.6198 128.837 50.6227 128.837 50.6241 128.835C50.6385 128.832 50.65 128.831 50.6701 128.827C50.7634 128.806 50.8554 128.789 50.9487 128.771C51.0938 128.74 51.2403 128.712 51.3853 128.682C51.651 128.627 52.0618 128.62 52.181 128.344C52.1954 128.311 52.2054 128.274 52.2112 128.232C52.2112 128.228 52.214 128.225 52.214 128.222C52.2198 128.167 52.214 128.114 52.2026 128.063C52.1451 127.705 51.9009 127.306 51.743 126.991C51.6783 126.862 51.6065 126.737 51.5361 126.612C51.5031 126.552 51.4715 126.49 51.437 126.43C51.3351 126.254 51.2273 126.083 51.1167 125.914C51.8808 125.312 52.6521 124.72 53.4104 124.111C53.6115 123.951 53.3271 123.668 53.1275 123.829C52.3605 124.445 51.5792 125.044 50.8051 125.653C50.729 125.713 50.6529 125.776 50.5753 125.839C50.5681 125.844 50.5609 125.845 50.5552 125.851C50.4805 125.912 50.4029 125.976 50.3211 126.035C50.2622 126.075 50.2019 126.114 50.1401 126.147C50.0999 126.168 50.0597 126.184 50.0195 126.198C50.0195 126.198 50.018 126.198 50.0166 126.198C49.9836 126.21 49.9491 126.217 49.916 126.223C49.8988 126.226 49.8801 126.228 49.8629 126.231C49.7538 126.244 49.6446 126.239 49.5355 126.217C49.5182 126.214 49.5024 126.21 49.4852 126.207C49.4392 126.197 49.3947 126.185 49.3502 126.172C49.3215 126.164 49.2913 126.155 49.2626 126.147C49.2367 126.138 49.2109 126.129 49.1836 126.121C49.1017 126.093 49.0198 126.063 48.938 126.033C48.7082 125.951 48.4769 125.869 48.2457 125.788C48.1538 125.754 48.0633 125.72 47.9714 125.69C47.8177 125.64 47.664 125.591 47.5089 125.543C47.4974 125.541 47.4859 125.536 47.4744 125.532C47.4558 125.526 47.4371 125.522 47.4199 125.516C47.3236 125.487 47.2274 125.462 47.1312 125.434C47.1053 125.427 47.0795 125.42 47.0536 125.413C46.7894 125.344 46.5236 125.283 46.2551 125.237C46.2479 125.237 46.2407 125.235 46.235 125.235C46.1014 125.212 45.9678 125.191 45.8343 125.176C45.8328 125.176 45.8314 125.176 45.8299 125.176C45.6748 125.157 45.5183 125.141 45.3617 125.134C45.2569 125.128 45.1434 125.128 45.0242 125.131C44.7341 125.134 44.444 125.157 44.1553 125.207C43.6066 125.304 42.9804 125.526 42.6099 125.938C42.3169 126.247 42.1833 126.659 42.3399 127.196C42.5611 128.057 43.3998 128.706 44.0461 129.239C44.3018 129.45 44.5646 129.652 44.8289 129.852C44.8978 129.904 44.9668 129.954 45.0357 130.004C45.3043 130.201 45.5757 130.395 45.8515 130.582C45.8845 130.605 45.9161 130.629 45.9491 130.651C45.9621 130.659 45.9764 130.668 45.9894 130.676C46.235 130.842 46.4834 131.004 46.7333 131.162C46.8037 131.206 46.8741 131.248 46.9445 131.293C47.0192 131.339 47.0938 131.385 47.1685 131.431C47.4917 131.629 47.8163 131.823 48.1437 132.012C48.1452 132.012 48.1466 132.014 48.148 132.015C48.487 132.21 48.8274 132.401 49.1692 132.591C49.2482 132.636 49.3272 132.679 49.4076 132.723C49.468 132.756 49.5268 132.789 49.5872 132.822C49.9204 133.005 50.2536 133.19 50.5882 133.368C50.9186 133.555 51.2604 133.756 51.6324 133.816C51.8291 133.848 52.0201 133.829 52.1997 133.773C52.2327 133.763 52.2643 133.75 52.2973 133.737C52.3103 133.731 52.3232 133.727 52.3361 133.723C52.3505 133.717 52.3663 133.713 52.3806 133.706C52.4022 133.695 52.4209 133.684 52.4424 133.672C52.4553 133.665 52.4682 133.658 52.4812 133.652C52.8503 133.451 53.1404 133.127 53.4162 132.806C53.4348 132.783 53.455 132.762 53.4736 132.74C53.5196 132.687 53.5641 132.636 53.6086 132.584C53.995 132.146 54.3914 131.715 54.7921 131.29C55.5835 130.451 56.3791 129.619 57.136 128.751C57.3041 128.557 57.0226 128.272 56.8531 128.468L56.8545 128.465Z" fill="#7366AE"/>
<path d="M113.827 101.653C108.918 101.189 104.027 100.281 99.3493 98.7016C97.0312 97.9189 94.7677 96.9652 92.6148 95.799C92.2083 95.5792 91.8263 95.325 91.3839 95.1871C91.0823 95.0938 90.7778 95.0105 90.4734 94.9286C89.6533 94.7117 88.826 94.5178 87.9987 94.3254C84.085 93.4148 80.1884 92.5114 76.3551 91.2992C74.7839 90.8023 73.1781 90.2637 71.5437 90.0195C70.6705 89.8888 69.7886 90.0195 68.9226 90.1603C67.7578 90.3499 66.6174 90.6587 65.4914 91.0048C64.3208 91.3653 63.1589 91.7574 61.9797 92.0877C60.6771 92.4525 59.3615 92.7699 58.0574 93.1247C55.396 93.8485 52.7476 94.6227 50.115 95.4485C49.4615 95.6539 48.8109 95.8622 48.1588 96.0733C48.0755 96.1006 48.0094 96.1753 48.0123 96.2657C48.0626 99.0204 48.3685 101.765 48.92 104.464C48.943 104.576 49.0665 104.623 49.167 104.603C54.4582 103.558 59.8828 103.226 65.263 103.618C65.6091 103.644 65.9538 103.672 66.3 103.704C66.4809 103.721 66.6619 103.739 66.8429 103.757C66.9908 103.772 67.1387 103.787 67.2852 103.803C67.528 103.829 67.7707 103.858 68.0134 103.886C68.0823 103.895 68.1513 103.904 68.2202 103.912C68.5032 103.947 68.7861 103.984 69.0676 104.023C68.3481 104.346 67.6558 104.711 66.9865 105.113C66.9707 105.123 66.9535 105.132 66.9362 105.142C66.8027 105.222 66.6705 105.307 66.5384 105.39C66.4953 105.417 66.4522 105.443 66.4106 105.472C66.2914 105.55 66.1736 105.629 66.0572 105.708C66.0027 105.744 65.9481 105.781 65.8949 105.817C65.7858 105.891 65.6781 105.969 65.5704 106.047C65.51 106.09 65.4497 106.133 65.3894 106.177C65.2874 106.252 65.1869 106.328 65.0863 106.404C65.0217 106.453 64.9571 106.503 64.8925 106.552C64.7977 106.627 64.7029 106.701 64.6081 106.776C64.5391 106.831 64.4716 106.885 64.4041 106.941C64.3151 107.015 64.2246 107.089 64.137 107.164C64.0652 107.224 63.9948 107.286 63.923 107.346C63.8397 107.418 63.7564 107.491 63.6731 107.565C63.5984 107.632 63.5237 107.7 63.449 107.767C63.3715 107.838 63.2939 107.908 63.2178 107.98C63.1388 108.053 63.0612 108.128 62.9837 108.202C62.9119 108.271 62.8401 108.339 62.7697 108.408C62.6849 108.49 62.6031 108.573 62.5198 108.656C62.4566 108.719 62.3934 108.783 62.3302 108.846C62.2354 108.942 62.1435 109.04 62.0501 109.139C61.9999 109.192 61.9482 109.244 61.8979 109.298C61.7557 109.45 61.6149 109.604 61.4756 109.761C59.2782 112.214 57.4455 114.961 55.5655 117.657C54.4883 119.203 53.3939 120.736 52.2047 122.199C52.1314 122.288 52.1286 122.392 52.2047 122.481C54.2413 124.891 56.0883 127.454 57.7314 130.147C57.8161 130.285 57.9884 130.266 58.0775 130.147C61.0778 126.108 64.4716 122.364 68.1958 118.981C69.1078 118.153 70.0414 117.345 70.9922 116.563C71.9358 115.786 72.9928 114.953 74.2926 115.128C74.9303 115.214 75.5364 115.473 76.1325 115.707C76.763 115.954 77.3892 116.212 78.0125 116.477C79.2161 116.986 80.411 117.521 81.6103 118.045C86.156 120.033 90.8956 121.92 95.9411 121.848C98.3023 121.815 100.663 121.332 102.773 120.25C104.837 119.191 106.599 117.614 108.119 115.879C111.134 112.438 112.653 107.974 113.663 103.583C113.791 103.026 113.911 102.467 114.025 101.907C114.052 101.771 113.966 101.666 113.832 101.653H113.827Z" fill="#7366AE"/>
<path d="M70.0778 103.658C72.9287 102.576 75.9448 102.197 78.9767 102.467C81.8693 102.724 84.6944 103.441 87.5037 104.149C89.1812 104.573 90.8602 104.994 92.555 105.347C92.8063 105.4 92.914 105.014 92.6612 104.96C89.6595 104.333 86.7109 103.478 83.7149 102.826C80.8352 102.2 77.8665 101.763 74.9165 102.082C73.2232 102.266 71.5628 102.667 69.9701 103.27C69.7316 103.361 69.835 103.748 70.0763 103.656L70.0778 103.658Z" fill="#7366AE"/>
<path d="M130.599 116.985C129.781 113.253 129.118 109.49 128.555 105.711C127.993 101.939 127.531 98.1549 127.1 94.3661C126.669 90.583 126.27 86.7957 125.836 83.0126C125.736 82.1422 125.667 81.2589 125.506 80.3972C125.361 79.6259 125.082 78.8805 124.526 78.3089C124.018 77.7875 123.357 77.45 122.688 77.1843C121.868 76.8583 121.016 76.6271 120.163 76.4059C119.35 76.1947 118.553 75.9506 117.751 75.7036C117.176 75.5269 116.575 75.3991 116.024 75.1492C115.425 74.8777 115.08 74.2228 114.915 73.6081C114.728 72.9158 114.774 72.1905 114.794 71.481C114.806 71.1047 114.81 70.7284 114.791 70.3507C114.78 70.0936 114.379 70.0922 114.391 70.3507C114.457 71.741 114.136 73.2303 114.85 74.5072C114.941 74.6694 115.05 74.8432 115.175 74.9984C112.926 76.6543 110.658 78.2701 108.206 79.6173C107.501 77.845 106.983 76.0009 106.557 74.1438C106.557 74.1395 106.553 74.1366 106.552 74.1323C106.904 74.0576 107.08 73.6986 107.222 73.3783C107.502 72.742 107.683 72.0612 107.846 71.3876C107.966 70.8893 108.086 70.3823 108.154 69.8724C108.189 69.6196 107.803 69.5119 107.768 69.7661C107.629 70.7974 107.362 71.8559 107.01 72.8325C106.924 73.0709 106.83 73.3108 106.697 73.5276C106.592 73.6986 106.54 73.7474 106.389 73.746C105.523 73.7416 104.657 73.7302 103.791 73.7632C102.055 73.8278 100.221 74.0346 98.681 74.8978C97.0581 75.8084 96.0699 77.4443 94.8793 78.8116C94.0994 79.7078 93.2506 80.548 92.442 81.4184C92.1935 81.6855 91.9422 81.9526 91.6937 82.2183C89.2392 78.418 86.9369 74.5186 84.7753 70.546C84.1736 69.4387 83.5833 68.3256 83.0059 67.2039C82.9556 67.1048 82.8235 67.0832 82.7316 67.1321C81.4102 67.8416 80.0889 68.5482 78.7675 69.2591C78.2519 69.5363 77.913 69.8379 77.9977 70.4713C78.0939 71.1952 78.2878 71.9176 78.4415 72.6314C79.0591 75.5082 79.7456 78.3721 80.4982 81.2158C81.1919 83.8399 81.9072 86.5098 83.2701 88.8796C84.3459 90.7496 85.8784 92.5449 87.8992 93.4138C89.0094 93.8907 90.2532 94.053 91.4409 93.7988C91.9824 93.6824 92.488 93.388 92.9389 93.0778C92.9863 93.0462 93.0323 93.0103 93.0782 92.9772C92.5555 93.7858 92.0154 94.5858 91.461 95.3729C91.3993 95.4605 91.4452 95.5969 91.5329 95.6472C94.6538 97.4439 98.0232 98.784 101.479 99.7836C104.957 100.789 108.529 101.454 112.124 101.872C112.614 101.929 113.104 101.981 113.594 102.028C114.001 102.069 114.454 102.136 114.801 101.863C115.176 101.569 115.36 101.027 115.574 100.617C115.821 100.14 116.07 99.6644 116.317 99.1875C116.559 100.151 116.809 101.115 117.066 102.074C118.076 105.845 119.193 109.587 120.416 113.294C121.102 115.377 121.822 117.448 122.574 119.507C122.615 119.615 122.706 119.668 122.821 119.647C125.474 119.15 128.054 118.327 130.508 117.207C130.591 117.169 130.617 117.062 130.6 116.981L130.599 116.985ZM91.9221 95.4102C93.9702 92.4903 95.7999 89.4197 97.3841 86.224C97.8466 85.2919 98.2875 84.3483 98.7097 83.3961C98.8132 83.1619 98.4685 82.958 98.3636 83.1936C97.0624 86.1321 95.5644 88.9802 93.8782 91.7148C93.3138 92.4257 92.4319 93.072 91.5702 93.3521C90.5979 93.6695 89.446 93.5445 88.4938 93.2214C86.4917 92.5406 84.9506 90.8516 83.8633 89.0994C82.5233 86.9393 81.7894 84.4804 81.1316 82.0446C80.412 79.3846 79.7528 76.7075 79.1525 74.0174C78.9815 73.2548 78.8164 72.4921 78.6555 71.7266C78.5765 71.3532 78.4946 70.9812 78.4228 70.6063C78.3869 70.4139 78.3352 70.1956 78.43 70.0117C78.5076 69.8595 78.6598 69.7762 78.802 69.6957C80.1004 68.9633 81.4303 68.281 82.7459 67.5787C84.8242 71.6103 87.0719 75.5571 89.4489 79.4191C90.0909 80.4604 90.7429 81.4959 91.4079 82.5228C90.8765 83.0873 90.3422 83.6503 89.795 84.2004C89.6126 84.3828 89.8955 84.6671 90.0779 84.4833C91.6765 82.8747 93.1888 81.1828 94.7544 79.5426C96.0369 78.1997 96.9834 76.4605 98.5704 75.4335C100.112 74.4368 102.042 74.2271 103.833 74.1639C104.613 74.1366 105.393 74.1567 106.172 74.151C106.164 74.1811 106.161 74.2142 106.17 74.2501C106.615 76.189 107.156 78.115 107.91 79.9577C107.92 79.9821 107.936 80.0037 107.951 80.0238C106.16 85.0535 103.92 89.9209 101.258 94.5499C100.501 95.8655 99.7108 97.161 98.8879 98.4364C98.8678 98.468 98.8591 98.4996 98.8577 98.5297C98.2387 98.3129 97.6225 98.0888 97.0121 97.8461C95.2613 97.1509 93.5565 96.3409 91.9192 95.4102H91.9221ZM119.27 108.349C118.139 104.614 117.115 100.845 116.197 97.0504C115.683 94.919 115.202 92.7805 114.755 90.6333C114.702 90.3805 114.317 90.4882 114.369 90.7396C114.931 93.4354 115.548 96.1197 116.216 98.7911C116.144 98.7768 116.067 98.8012 116.022 98.8874C115.798 99.3182 115.574 99.7491 115.35 100.179C115.145 100.574 114.967 101.016 114.709 101.381C114.434 101.771 113.958 101.665 113.545 101.625C113.118 101.583 112.692 101.539 112.265 101.49C110.536 101.292 108.814 101.035 107.103 100.71C104.435 100.203 101.792 99.5322 99.2196 98.6547C99.2254 98.6489 99.2311 98.6446 99.2354 98.6375C102.164 94.0932 104.677 89.2875 106.741 84.2908C107.327 82.8733 107.874 81.4385 108.387 79.9922C108.39 79.985 108.387 79.9792 108.39 79.9721C110.878 78.6076 113.176 76.9646 115.456 75.2856C115.458 75.2856 115.459 75.2885 115.461 75.2899C115.663 75.4422 115.906 75.5384 116.141 75.6274C116.686 75.8328 117.255 75.9549 117.805 76.1416C119.482 76.7075 121.275 76.9717 122.893 77.7042C123.614 78.0303 124.289 78.4827 124.681 79.1879C125.105 79.952 125.183 80.8568 125.282 81.7085C125.725 85.4944 126.126 89.2846 126.551 93.072C126.974 96.8422 127.42 100.611 127.956 104.367C128.496 108.161 129.128 111.943 129.912 115.694C129.998 116.104 130.086 116.513 130.175 116.921C127.847 117.971 125.402 118.742 122.895 119.227C121.586 115.635 120.375 112.007 119.268 108.348L119.27 108.349Z" fill="#7366AE"/>
<path d="M108.891 83.299C108.766 83.3263 108.656 83.4125 108.578 83.5101C108.468 83.6509 108.412 83.8117 108.407 83.9913C108.399 84.3618 108.639 84.8272 109.071 84.7798C109.233 84.7597 109.383 84.7123 109.507 84.6017C109.597 84.5227 109.66 84.4049 109.683 84.2886C109.729 84.0545 109.667 83.7988 109.529 83.6049C109.383 83.3981 109.156 83.2401 108.893 83.299H108.891Z" fill="#7366AE"/>
<path d="M106.944 87.9102C106.819 87.9375 106.708 88.0237 106.63 88.1213C106.52 88.2621 106.464 88.4229 106.46 88.6025C106.451 88.973 106.691 89.4384 107.123 89.391C107.285 89.3709 107.435 89.3235 107.56 89.2129C107.649 89.1339 107.712 89.0161 107.735 88.8998C107.781 88.6657 107.719 88.41 107.581 88.2161C107.435 88.0093 107.208 87.8513 106.945 87.9102H106.944Z" fill="#7366AE"/>
<path d="M104.416 93.4716C104.291 93.4989 104.18 93.5851 104.103 93.6827C103.992 93.8235 103.936 93.9844 103.932 94.1639C103.923 94.5344 104.163 94.9998 104.595 94.9524C104.758 94.9323 104.907 94.8849 105.032 94.7743C105.121 94.6953 105.184 94.5775 105.207 94.4612C105.253 94.2271 105.191 93.9714 105.053 93.7775C104.907 93.5707 104.68 93.4127 104.417 93.4716H104.416Z" fill="#7366AE"/>
<path d="M82.7872 67.2202C82.6493 66.7232 82.5057 66.2292 82.3549 65.7365C82.2242 65.31 82.1064 64.8676 81.9298 64.4568C81.7574 64.0576 81.4702 63.7703 81.1585 63.4773C80.8038 63.1441 80.4576 62.7994 80.0914 62.4777C79.8142 62.235 79.4709 62.0081 79.0846 62.0655C79.0846 62.0655 79.0831 62.0655 79.0817 62.0655C79.0444 62.0023 79.0041 61.9377 78.9682 61.8745C77.6943 59.6684 76.4376 57.4509 75.1364 55.2606C74.4268 54.0656 73.6944 52.8836 72.9015 51.7418C72.7033 51.456 72.5023 51.1745 72.2969 50.8944C72.1116 50.6416 71.935 50.3515 71.7138 50.1275C71.5098 49.9221 70.875 49.9221 71.0718 50.3415C71.0761 50.3515 71.0833 50.3573 71.089 50.3659C71.0919 50.3731 71.0919 50.3802 71.0962 50.3874C72.5425 52.9554 73.9098 55.5679 75.3173 58.1589C75.0344 58.0182 74.783 58.0383 74.6451 58.383C74.5173 58.699 74.6638 59.0537 74.7916 59.3453C74.9367 59.6799 75.1134 60.0002 75.2986 60.3133C75.7094 61.0056 76.1676 61.6705 76.6444 62.3197C76.2207 62.3743 75.8343 62.5725 75.82 63.0795C75.82 63.1068 75.8243 63.1326 75.8257 63.1599C75.3949 63.1556 74.9985 63.5175 74.9037 63.9398C74.8261 64.2831 74.8994 64.6292 75.0315 64.9595C74.592 65.2683 74.5403 65.8198 74.6868 66.3039C74.8491 66.8367 75.132 67.3494 75.4494 67.8033C75.7037 68.1667 76.0843 68.7771 76.6142 68.6306C76.6157 68.6306 76.6171 68.6291 76.6185 68.6291C77.0796 69.1103 77.5765 69.5555 78.1022 69.9634C78.1869 70.0295 78.3018 70.0467 78.3851 69.9634C78.4541 69.8945 78.4713 69.7465 78.3851 69.6805C77.871 69.2812 77.3841 68.8474 76.9317 68.3778C77.0839 68.1308 77.1126 67.7631 77.0925 67.4615C77.3395 67.4988 77.578 67.404 77.7101 67.1254C77.8106 66.9143 77.8494 66.6557 77.8293 66.4058C78.0203 66.4101 78.1898 66.2708 78.2731 66.0856C78.3722 65.8644 78.3765 65.5929 78.3708 65.3545C78.3621 65.0141 78.2688 64.6981 78.1697 64.375C78.1496 64.3104 78.128 64.2472 78.1065 64.184C78.1639 64.25 78.2199 64.3175 78.2788 64.3836C78.4512 64.5761 78.7341 64.2917 78.5618 64.1007C77.6641 63.0982 76.857 61.9966 76.1187 60.8734C75.7611 60.3291 75.4035 59.7675 75.1435 59.1686C75.0947 59.0566 75.0473 58.9417 75.0186 58.8225C75.0056 58.7693 74.964 58.607 75.0056 58.5496C75.1148 58.3959 75.3661 58.6688 75.4408 58.7363C75.5873 58.8699 75.7252 59.0106 75.8588 59.1557C76.5625 60.4383 77.2792 61.7136 78.0261 62.9718C78.1812 63.2332 78.3392 63.4931 78.5 63.7517C78.6451 63.9843 78.7815 64.2443 78.9783 64.4382C79.1736 64.6292 79.4695 64.7254 79.705 64.612C79.6533 64.556 79.6045 64.4971 79.5542 64.4396C79.6476 64.5459 79.7395 64.6536 79.8372 64.7556C80.0167 64.9409 80.2996 64.6579 80.1201 64.4726C79.8645 64.2098 79.6246 63.9326 79.4092 63.6353C79.2311 63.3912 78.9912 63.1025 78.9395 62.7937C78.8576 62.2996 79.4293 62.4748 79.6648 62.6486C79.9592 62.8655 80.2149 63.1456 80.482 63.3955C80.7377 63.6353 81.0106 63.8666 81.2447 64.128C81.4989 64.4123 81.6167 64.7484 81.7316 65.106C81.9685 65.8414 82.1897 66.5825 82.3965 67.3279C82.4655 67.5764 82.8518 67.4701 82.7829 67.2216L82.7872 67.2202ZM76.3672 68.2327C76.2092 68.1695 76.0886 67.9857 75.9866 67.8579C75.8616 67.6999 75.7468 67.5347 75.639 67.3652C75.4293 67.0349 75.2426 66.6802 75.1119 66.311C75.0028 66.0066 74.9252 65.5699 75.2053 65.333C75.2886 65.4938 75.3791 65.6475 75.4638 65.794C75.7812 66.3383 76.1733 66.8927 76.6803 67.2791C76.6803 67.2891 76.6774 67.2963 76.6803 67.3064C76.7133 67.5031 76.7492 68.3864 76.3686 68.2342L76.3672 68.2327ZM77.328 66.9961C77.0954 67.348 76.4706 66.5322 76.3327 66.3642C75.9564 65.9003 75.616 65.3444 75.3977 64.7872C75.2871 64.5042 75.1981 64.1524 75.3561 63.8709C75.471 63.6655 75.6835 63.5161 75.9177 63.575C75.9622 63.6928 76.0139 63.8091 76.0685 63.9197C76.2107 64.2156 76.3557 64.5114 76.5108 64.8015C76.6702 65.0988 76.8426 65.3904 77.0365 65.6676C77.1313 65.8026 77.239 65.9721 77.3625 66.1157C77.364 66.1215 77.3639 66.1272 77.3668 66.1329C77.4745 66.3627 77.4731 66.7821 77.3295 66.9976L77.328 66.9961ZM76.9273 62.7018C77.0738 62.8985 77.2232 63.0939 77.374 63.2877C77.3769 63.2992 77.374 63.3093 77.3798 63.3222C77.509 63.6483 77.6282 63.98 77.7345 64.3147C77.825 64.599 77.9399 64.8992 77.9657 65.1994C77.9844 65.4163 78.0131 65.7351 77.9083 65.9333C77.825 66.0899 77.7201 65.8974 77.6483 65.8112C77.5406 65.6834 77.4401 65.5484 77.3453 65.4105C76.979 64.8791 76.6947 64.296 76.4146 63.7158C76.3069 63.4917 76.123 63.1441 76.2695 62.9C76.3974 62.6874 76.7076 62.696 76.9273 62.7003V62.7018Z" fill="#7366AE"/>
<path d="M46.4305 17.3883L61.4938 50.7134V14.1495C56.1237 14.1495 51.0236 15.3086 46.4305 17.3883Z" fill="#F4F2FF"/>
<path d="M22.9611 52.9935L59.4272 55.6606L44.3639 22.3354C32.4532 27.7285 23.9463 39.319 22.9611 52.9935Z" fill="#BBE992"/>
<path d="M58.057 93.1269C59.3625 92.7722 60.6781 92.4548 61.9794 92.09C63.16 91.7596 64.3204 91.3675 65.491 91.007C66.6184 90.6609 67.7574 90.3521 68.9222 90.1625C69.7882 90.0218 70.6701 89.8911 71.5433 90.0218C73.1778 90.2659 74.7835 90.8045 76.3547 91.3015C77.9346 91.8013 79.5245 92.2465 81.1216 92.663C82.2964 92.0828 83.4354 91.4422 84.5341 90.7428C84.0573 90.1539 83.6336 89.5234 83.2659 88.8843C81.9029 86.5145 81.1877 83.8445 80.494 81.2205C79.7414 78.3753 79.0563 75.5129 78.4373 72.6361C78.2836 71.9223 78.0897 71.1998 77.9935 70.476C77.9647 70.2562 77.9892 70.0781 78.0509 69.9245C77.5425 69.5266 77.0628 69.0957 76.6161 68.6304C76.6147 68.6304 76.6132 68.6304 76.6118 68.6318C76.0818 68.7783 75.7012 68.1665 75.447 67.8046C75.1296 67.3507 74.8452 66.8365 74.6844 66.3051C74.5379 65.8211 74.5896 65.2696 75.0276 64.9608C74.8955 64.6305 74.8222 64.2843 74.8998 63.9396C74.9946 63.5188 75.3881 63.1555 75.8176 63.1569C75.8176 63.131 75.8147 63.1052 75.8147 63.0793C75.8291 62.5738 76.214 62.3713 76.6377 62.3181C76.1623 61.6689 75.7041 61.0068 75.2948 60.3146C75.1095 60.0015 74.9328 59.6812 74.7863 59.3465C74.6599 59.055 74.5134 58.7002 74.6398 58.3843C74.7792 58.0396 75.0291 58.0209 75.312 58.1602C73.9045 55.5692 72.5372 52.9567 71.0909 50.3887C71.0866 50.3815 71.0866 50.3743 71.0837 50.3671C71.078 50.3585 71.0708 50.3528 71.0665 50.3427C70.8683 49.9233 71.5045 49.9219 71.7085 50.1287C71.9296 50.3513 72.1063 50.6429 72.2916 50.8957C72.497 51.1758 72.698 51.4587 72.8962 51.7431C73.6876 52.8849 74.4215 54.0669 75.131 55.2619C76.4323 57.4521 77.689 59.6697 78.9629 61.8758C79.0003 61.9389 79.039 62.0036 79.0764 62.0668C79.0764 62.0668 79.0778 62.0668 79.0793 62.0668C79.4656 62.0093 79.8089 62.2362 80.0861 62.479C80.4523 62.7993 80.7984 63.1454 81.1532 63.4786C81.4649 63.7716 81.7521 64.0588 81.9244 64.4581C82.1011 64.8689 82.2189 65.3112 82.3496 65.7378C82.4918 66.1988 82.6253 66.6628 82.7546 67.1281C82.8437 67.0965 82.9543 67.1195 83.0002 67.2085C83.5761 68.3302 84.1664 69.4433 84.7697 70.5507C86.9312 74.5233 89.2335 78.4241 91.6866 82.2244C91.9365 81.9573 92.1878 81.6916 92.4363 81.423C93.2449 80.5526 94.0952 79.7124 94.8736 78.8162C95.9178 77.617 96.8068 76.2109 98.1052 75.2687C100.281 70.5894 101.498 65.373 101.498 59.8722C101.498 39.6786 85.1273 23.3083 64.9337 23.3083V59.8722L28.4675 57.2051C28.4043 58.0855 28.3699 58.9746 28.3699 59.8722C28.3699 75.961 38.7611 89.6225 53.1982 94.5115C54.8111 94.0318 56.4283 93.5693 58.0512 93.1284L58.057 93.1269Z" fill="#95BF70"/>
<path d="M91.4972 138.85C82.5077 138.85 73.7538 134.188 68.9438 125.86L72.9883 123.524C78.8668 133.706 91.9309 137.206 102.112 131.327C108.652 127.551 112.637 120.784 112.774 113.224L117.444 113.307C117.282 122.382 112.303 130.838 104.449 135.372C100.367 137.729 95.9035 138.849 91.4972 138.849V138.85Z" fill="#F4F2FF"/>
</svg>
