<svg width="54" height="55" viewBox="0 0 54 55" fill="none" xmlns="http://www.w3.org/2000/svg">
<path d="M27 38.3406C26.1 38.3406 25.2 38.2731 24.345 38.1156C19.575 37.4181 15.2325 34.6731 12.4875 30.6006C10.575 27.7206 9.5625 24.3681 9.5625 20.9031C9.5625 11.2956 17.3925 3.46558 27 3.46558C36.6075 3.46558 44.4375 11.2956 44.4375 20.9031C44.4375 24.3681 43.425 27.7206 41.5125 30.6006C38.745 34.6956 34.4025 37.4181 29.5875 38.1381C28.8 38.2731 27.9 38.3406 27 38.3406ZM27 6.84058C19.2375 6.84058 12.9375 13.1406 12.9375 20.9031C12.9375 23.7156 13.7475 26.4156 15.2775 28.7106C17.505 31.9956 20.9925 34.2006 24.8625 34.7631C26.3025 35.0106 27.72 35.0106 29.0475 34.7631C32.985 34.2006 36.4725 31.9731 38.7 28.6881C40.23 26.3931 41.04 23.6931 41.04 20.8806C41.0625 13.1406 34.7625 6.84058 27 6.84058Z" fill="#7366AE"/>
<path d="M14.5571 51.4805C14.2421 51.4805 13.9496 51.4355 13.6346 51.368C12.1721 51.0305 11.0471 49.9055 10.7096 48.443L9.92209 45.1355C9.87709 44.933 9.71959 44.7755 9.49459 44.708L5.78209 43.8305C4.38709 43.493 3.28459 42.458 2.90209 41.0855C2.51959 39.713 2.90209 38.228 3.91459 37.2155L12.6896 28.4405C13.0496 28.0805 13.5446 27.9005 14.0396 27.9455C14.5346 27.9905 14.9846 28.2605 15.2771 28.688C17.5046 31.973 20.9921 34.2005 24.8846 34.763C26.3246 35.0105 27.7421 35.0105 29.0696 34.763C33.0071 34.2005 36.4946 31.973 38.7221 28.688C38.9921 28.2605 39.4646 27.9905 39.9596 27.9455C40.4546 27.9005 40.9496 28.0805 41.3096 28.4405L50.0846 37.2155C51.0971 38.228 51.4796 39.713 51.0971 41.0855C50.7146 42.458 49.5896 43.5155 48.2171 43.8305L44.5046 44.708C44.3021 44.753 44.1446 44.9105 44.0771 45.1355L43.2896 48.443C42.9521 49.9055 41.8271 51.0305 40.3646 51.368C38.9021 51.728 37.3946 51.2105 36.4496 50.063L26.9996 39.1955L17.5496 50.0855C16.7846 50.9855 15.7046 51.4805 14.5571 51.4805ZM13.7021 32.2205L6.29959 39.623C6.09709 39.8255 6.11959 40.0505 6.16459 40.1855C6.18709 40.298 6.29959 40.523 6.56959 40.568L10.2821 41.4455C11.7446 41.783 12.8696 42.908 13.2071 44.3705L13.9946 47.678C14.0621 47.9705 14.2871 48.0605 14.4221 48.1055C14.5571 48.128 14.7821 48.1505 14.9846 47.9255L23.6021 38.003C19.7771 37.2605 16.2671 35.213 13.7021 32.2205ZM30.3971 37.9805L39.0146 47.8805C39.2171 48.128 39.4646 48.128 39.5996 48.083C39.7346 48.0605 39.9371 47.948 40.0271 47.6555L40.8146 44.348C41.1521 42.8855 42.2771 41.7605 43.7396 41.423L47.4521 40.5455C47.7221 40.478 47.8346 40.2755 47.8571 40.163C47.9021 40.0505 47.9246 39.803 47.7221 39.6005L40.3196 32.198C37.7321 35.1905 34.2446 37.238 30.3971 37.9805Z" fill="#7366AE"/>
<path d="M31.2528 29.6557C30.6678 29.6557 29.9703 29.4982 29.1378 29.0032L27.0003 27.7206L24.8628 28.9806C22.9053 30.1506 21.6228 29.4756 21.1503 29.1381C20.6778 28.8006 19.6653 27.7882 20.1828 25.5607L20.7228 23.2432L18.9228 21.5781C17.9328 20.5881 17.5728 19.3957 17.9103 18.3157C18.2478 17.2357 19.2378 16.4706 20.6328 16.2456L23.0403 15.8406L24.1878 13.3206C24.8403 12.0381 25.8528 11.3181 27.0003 11.3181C28.1478 11.3181 29.1828 12.0607 29.8128 13.3432L31.1403 15.9982L33.3678 16.2681C34.7403 16.4931 35.7303 17.2581 36.0903 18.3381C36.4278 19.4181 36.0678 20.6106 35.0778 21.6006L33.2103 23.4682L33.7953 25.5607C34.3128 27.7882 33.3003 28.8006 32.8278 29.1381C32.5803 29.3406 32.0403 29.6557 31.2528 29.6557ZM21.6228 19.5307L23.1753 21.0831C23.8953 21.8031 24.2553 23.0181 24.0303 24.0081L23.6028 25.8081L25.4028 24.7506C26.3703 24.1881 27.6753 24.1881 28.6203 24.7506L30.4203 25.8081L30.0153 24.0081C29.7903 22.9956 30.1278 21.8031 30.8478 21.0831L32.4003 19.5307L30.4428 19.1931C29.4978 19.0356 28.5528 18.3382 28.1253 17.4832L27.0003 15.2781L25.8753 17.5281C25.4703 18.3606 24.5253 19.0807 23.5803 19.2382L21.6228 19.5307Z" fill="#7366AE"/>
</svg>
