<svg width="154" height="153" viewBox="0 0 154 153" fill="none" xmlns="http://www.w3.org/2000/svg">
<path d="M28.0161 30.9337H27.8983C26.4693 30.9337 25.3059 32.097 25.3059 33.5261C25.3059 34.9551 26.4678 36.1185 27.8983 36.1185H28.0161C29.4452 36.1185 30.6085 34.9551 30.6085 33.5261C30.6085 32.097 29.4466 30.9337 28.0161 30.9337Z" fill="#95BF70"/>
<path d="M87.9554 39.2685H35.4205C33.9915 39.2685 32.8281 40.4319 32.8281 41.8609C32.8281 43.29 33.99 44.4533 35.4205 44.4533H87.9554C89.3844 44.4533 90.5478 43.29 90.5478 41.8609C90.5478 40.4319 89.3859 39.2685 87.9554 39.2685Z" fill="#B3A8F2"/>
<path d="M28.0161 39.2685H27.8983C26.4693 39.2685 25.3059 40.4319 25.3059 41.8609C25.3059 43.29 26.4678 44.4533 27.8983 44.4533H28.0161C29.4452 44.4533 30.6085 43.29 30.6085 41.8609C30.6085 40.4319 29.4466 39.2685 28.0161 39.2685Z" fill="#95BF70"/>
<path d="M67.5475 50.6243H49.3805C47.9514 50.6243 46.7881 51.7876 46.7881 53.2167C46.7881 54.6457 47.95 55.8091 49.3805 55.8091H67.5475C68.9766 55.8091 70.1399 54.6457 70.1399 53.2167C70.1399 51.7876 68.978 50.6243 67.5475 50.6243Z" fill="#B3A8F2"/>
<path d="M84.7326 22.4505C84.7053 22.4232 84.678 22.3959 84.6507 22.3687C84.7081 22.2983 84.7699 22.2322 84.8216 22.1561C85.623 20.9856 85.4392 19.3813 84.4568 18.3788C83.5592 17.4998 82.2177 17.2657 81.0759 17.7899C79.9513 18.3055 79.2504 19.5464 79.3783 20.7744C79.5075 22.0139 80.4023 23.0796 81.6202 23.3812C82.5452 23.611 83.5089 23.3726 84.2285 22.7909C84.8087 23.3712 85.3875 23.95 85.9677 24.5302C86.0597 24.6221 86.1516 24.714 86.2435 24.806C86.5164 25.0788 86.9386 24.6552 86.6657 24.3837C86.0209 23.7388 85.376 23.094 84.7326 22.4505ZM82.1129 22.8642C81.1161 22.7794 80.2687 22.0182 80.0303 21.0559C79.7919 20.0936 80.1969 19.0452 81.0271 18.5009C81.9735 17.879 83.2288 18.0125 84.0345 18.8025C84.7211 19.5019 84.9408 20.5834 84.5186 21.4825C84.0848 22.406 83.1268 22.9503 82.1129 22.8642Z" fill="#B3A8F2"/>
<path d="M89.4797 17.5964C88.4944 16.5896 87.1458 16.0553 85.744 16.0496C85.4683 16.0496 85.1939 16.0496 84.9182 16.0496H33.0038C32.0602 16.0496 31.1166 16.0482 30.1729 16.0496C29.0699 16.051 27.9927 16.3426 27.0865 16.9889C25.4247 18.1738 24.6032 20.242 25.0068 22.2441C25.4104 24.2448 27.0563 25.8749 29.0613 26.2555C29.5137 26.3417 29.9618 26.3518 30.4171 26.3518H85.7986C86.5799 26.3431 87.3339 26.1607 88.0147 25.8347C88.3278 25.3737 88.73 24.9715 89.1637 24.6283C89.4711 24.3855 89.7957 24.1687 90.1332 23.969C90.2926 23.7206 90.4348 23.4592 90.5511 23.1805C91.3382 21.2933 90.9059 19.06 89.4768 17.5993L89.4797 17.5964ZM90.2179 22.303C89.7109 24.3252 87.8711 25.7284 85.8 25.7528H32.2713C31.5374 25.7528 30.802 25.7586 30.0681 25.7528C28.3317 25.7385 26.7418 24.7719 25.9633 23.2107C25.024 21.3263 25.5626 18.9752 27.1913 17.6553C28.0459 16.963 29.0929 16.6499 30.1816 16.6485C30.5047 16.6485 30.8264 16.6485 31.1496 16.6485H85.5731C86.3487 16.6485 87.107 16.7648 87.8093 17.1153C89.7052 18.0603 90.7321 20.242 90.2165 22.3044L90.2179 22.303Z" fill="#B3A8F2"/>
<path d="M87.875 35.5397C87.7902 34.6334 87.4513 33.7774 87.2775 32.8884C87.1511 32.2449 87.1224 31.5886 87.141 30.9337H35.4205C33.9915 30.9337 32.8281 32.097 32.8281 33.5261C32.8281 34.9551 33.99 36.1185 35.4205 36.1185H87.885C87.8951 35.9275 87.8936 35.735 87.875 35.5411V35.5397Z" fill="#B3A8F2"/>
<path d="M96.1258 15.9404C95.9233 14.0173 94.4368 12.423 92.5065 12.1559C92.212 12.1157 91.9248 12.1099 91.6303 12.1099H25.332C25.1481 12.1099 24.9629 12.1056 24.779 12.1171C22.8659 12.2349 21.1726 13.6697 20.848 15.5828C20.7058 16.4186 20.7777 17.3134 20.7777 18.1579V57.2855C20.7777 57.633 20.7748 57.972 20.8236 58.3181C21.0936 60.2671 22.7166 61.7651 24.6656 61.9432C25.1912 61.9906 25.7327 61.959 26.2598 61.959H91.7941C91.8731 61.6244 91.9506 61.2897 92.0296 60.9551C91.9908 60.9565 91.9535 60.9623 91.9147 60.9623H26.5054C26.0099 60.9623 25.5158 60.968 25.0203 60.9623C23.4376 60.9436 22.0588 59.8003 21.8118 58.2205C21.7644 57.9131 21.7758 57.5943 21.7758 57.284V18.4236C21.7758 17.7314 21.7672 17.0377 21.7758 16.3454C21.7988 14.563 23.2308 13.1311 25.0131 13.1081C25.1338 13.1067 25.253 13.1081 25.3736 13.1081H91.5054C91.6404 13.1081 91.7754 13.1067 91.9118 13.1081C93.5592 13.1282 95.0041 14.3878 95.1405 16.0553C95.2008 16.7863 95.152 17.5375 95.152 18.27V22.3331C95.4838 22.29 95.8156 22.2642 96.1488 22.2484V18.2886C96.1488 17.5159 96.2076 16.7116 96.1272 15.9404H96.1258Z" fill="#B3A8F2"/>
<path d="M116.858 124.509C125.906 115.461 125.906 100.792 116.858 91.7441C107.811 82.6965 93.1414 82.6965 84.0937 91.7441C75.046 100.792 75.046 115.461 84.0937 124.509C93.1414 133.556 107.811 133.556 116.858 124.509Z" fill="#F4F2FF"/>
<path d="M72.0227 114.58C71.8518 114.624 71.79 114.788 71.8145 114.948C72.0385 116.446 72.1764 117.948 72.1721 119.465C72.1721 119.849 72.7696 119.849 72.7696 119.465C72.7739 117.895 72.6231 116.341 72.3904 114.79C72.366 114.629 72.1649 114.543 72.0227 114.581V114.58Z" fill="#7366AE"/>
<path d="M79.1122 114.907C78.7819 116.908 78.6555 118.924 78.4659 120.941C78.43 121.324 79.0289 121.322 79.0634 120.941C79.2472 118.978 79.3664 117.013 79.6882 115.067C79.7499 114.69 79.174 114.528 79.1108 114.907H79.1122Z" fill="#7366AE"/>
<path d="M79.8099 122.972C79.8099 122.878 79.8099 122.785 79.8099 122.692C79.8099 122.666 79.8114 122.64 79.8114 122.614C79.8114 122.541 79.8114 122.468 79.8114 122.396C79.8114 122.262 79.8114 122.129 79.8099 121.995C79.8085 121.828 79.8027 121.662 79.7984 121.497C79.7956 121.408 79.7956 121.32 79.7927 121.231C79.7841 121.017 79.8042 120.705 79.7309 120.46C79.7309 120.454 79.7281 120.45 79.7266 120.444C79.718 120.415 79.708 120.386 79.695 120.359C79.685 120.336 79.672 120.315 79.6577 120.293C79.6491 120.28 79.6433 120.267 79.6347 120.256C79.6189 120.234 79.5988 120.217 79.5787 120.198C79.5744 120.195 79.5715 120.191 79.5686 120.188C79.5615 120.181 79.5557 120.174 79.5471 120.167C79.5255 120.151 79.5011 120.141 79.4753 120.134C79.3834 120.098 79.2958 120.116 79.2311 120.174C78.1669 120.81 76.9245 121.01 75.7253 121.093C75.2183 121.128 74.7098 121.159 74.2028 121.196C74.154 121.199 74.0951 121.201 74.0334 121.201C74.1899 120.918 74.3479 120.633 74.5044 120.351C74.615 120.149 74.4757 119.907 74.2459 119.901C74.3149 119.902 74.2991 119.892 74.2589 119.881C74.2043 119.859 74.0808 119.828 74.0362 119.812C73.9989 119.798 73.9616 119.785 73.9242 119.77C73.8079 119.727 73.6915 119.684 73.5752 119.64C73.4215 119.582 73.2679 119.523 73.1156 119.464C72.8872 119.378 72.6603 119.291 72.432 119.203C72.139 119.078 71.7497 118.868 71.3864 118.785C71.1652 118.71 70.9397 118.684 70.7329 118.838C70.483 119.023 70.3609 119.385 70.2259 119.681C70.2 119.736 70.1756 119.79 70.1469 119.841C70.0722 119.974 69.9918 120.105 69.907 120.233C69.8812 120.272 69.8553 120.309 69.8281 120.348C69.7476 120.463 69.6629 120.573 69.571 120.678C69.558 120.694 69.5451 120.71 69.5322 120.725C69.5035 120.757 69.4733 120.786 69.4431 120.816C69.4072 120.853 69.3699 120.888 69.3325 120.924C68.893 121.32 68.3573 121.564 67.7843 121.731C67.6364 121.774 67.4855 121.811 67.3347 121.847C67.1882 121.88 67.0432 121.912 66.8981 121.942C66.7861 121.965 66.6741 121.986 66.562 122.009C66.282 122.063 66.0005 122.114 65.7218 122.173C65.4446 122.231 65.1703 122.297 64.8946 122.36C64.8256 122.376 64.7581 122.39 64.6892 122.406C64.58 122.432 64.4709 122.457 64.3617 122.485C64.2497 122.512 64.1377 122.538 64.0256 122.567C62.5032 122.956 60.3733 123.319 59.6839 124.951C59.016 126.529 60.4436 127.624 61.7995 128.023C63.7226 128.589 65.8023 128.468 67.7828 128.485C69.9042 128.504 72.0269 128.521 74.1483 128.54C75.1953 128.549 76.2423 128.557 77.2893 128.567C78.0003 128.573 78.9281 128.702 79.2297 127.875C79.3862 127.443 79.3963 126.933 79.4494 126.476C79.5514 125.67 79.6649 124.868 79.7381 124.062C79.7755 123.701 79.8056 123.344 79.8085 122.975L79.8099 122.972ZM60.2512 125.133C60.5944 124.373 61.3801 123.986 62.1284 123.73C62.5133 123.598 62.9054 123.482 63.2989 123.372C63.3075 123.38 63.3147 123.388 63.3233 123.395C63.4052 123.48 63.4957 123.561 63.5804 123.642C63.8619 123.948 64.0888 124.302 64.2483 124.684C64.254 124.697 64.2597 124.71 64.2641 124.722C64.31 124.836 64.3473 124.952 64.3818 125.069C64.3962 125.117 64.4077 125.168 64.4192 125.217C64.435 125.284 64.4479 125.352 64.4608 125.42C64.4766 125.508 64.4881 125.596 64.4967 125.683C64.5025 125.751 64.5082 125.817 64.5111 125.884C64.514 126.022 64.501 126.162 64.4938 126.299C63.7484 126.233 63.0045 126.154 62.2634 126.052C61.8052 125.989 61.3456 125.919 60.8961 125.813C60.7467 125.777 60.5988 125.739 60.4537 125.688C60.3747 125.66 60.379 125.662 60.3244 125.636C60.2971 125.623 60.1837 125.545 60.2497 125.599C60.2095 125.567 60.1679 125.548 60.1248 125.538C60.1478 125.41 60.1894 125.275 60.2526 125.133H60.2512ZM77.3726 127.967C76.4362 127.958 75.4983 127.951 74.5619 127.943C72.6876 127.927 70.8147 127.911 68.9404 127.895C67.1049 127.879 65.2278 127.968 63.4023 127.74C62.4702 127.624 60.6447 127.234 60.1995 126.243C60.6246 126.427 61.1402 126.483 61.5639 126.551C62.6339 126.725 63.7154 126.828 64.7969 126.913C64.7983 126.913 64.7998 126.913 64.8026 126.913C64.8242 126.914 64.8457 126.916 64.8673 126.917C64.906 126.92 64.9448 126.924 64.9836 126.927C65.0411 126.931 65.0999 126.934 65.1574 126.939C69.3053 127.255 73.5206 127.374 77.68 127.124C78.0548 127.104 78.4297 127.078 78.8031 127.049C78.7816 127.27 78.7457 127.489 78.6624 127.672C78.4656 128.113 77.7705 127.968 77.3726 127.965V127.967Z" fill="#7366AE"/>
<path d="M65.9632 123.029C65.8842 122.894 65.6889 122.835 65.5539 122.921C65.4175 123.009 65.3629 123.185 65.4462 123.33C65.7277 123.816 65.979 124.317 66.2002 124.833C66.262 124.976 66.4846 125.019 66.6095 124.94C66.7589 124.844 66.7833 124.686 66.7173 124.531C66.4961 124.015 66.2433 123.514 65.9632 123.029Z" fill="#7366AE"/>
<path d="M67.9968 122.413C67.9221 122.275 67.721 122.219 67.5874 122.305C67.4481 122.394 67.3993 122.568 67.4797 122.715C67.7928 123.283 68.0226 123.816 68.2208 124.431C68.2682 124.579 68.4305 124.691 68.5885 124.639C68.7364 124.592 68.8484 124.431 68.7967 124.272C68.5885 123.628 68.3199 123.005 67.9953 122.413H67.9968Z" fill="#7366AE"/>
<path d="M71.1897 123.296C71.0101 122.956 70.8349 122.614 70.6482 122.278C70.4701 121.956 70.2662 121.643 70.0062 121.379C69.8971 121.267 69.6917 121.261 69.5839 121.379C69.4734 121.499 69.4662 121.682 69.5839 121.801C69.7132 121.932 69.785 122.022 69.8813 122.164C69.9775 122.307 70.0651 122.456 70.1484 122.607C70.3279 122.934 70.4988 123.267 70.6741 123.598C70.7473 123.736 70.9513 123.79 71.0834 123.705C71.2241 123.615 71.2687 123.444 71.1911 123.296H71.1897Z" fill="#7366AE"/>
<path d="M48.279 91.0474C47.7907 91.4898 47.311 91.9436 46.8097 92.3702C46.3272 92.7795 45.8159 93.1486 45.2888 93.4962C44.9685 93.7073 45.2687 94.2258 45.5904 94.0133C46.1491 93.6441 46.6905 93.252 47.2018 92.8197C47.716 92.386 48.2043 91.9235 48.7027 91.4711C48.9885 91.2126 48.5648 90.7903 48.2804 91.0488L48.279 91.0474Z" fill="#7366AE"/>
<path d="M52.8518 96.7879C51.0278 97.6094 49.3014 98.6091 47.5406 99.5541C47.2017 99.7365 47.5033 100.252 47.8422 100.071C49.6031 99.1261 51.3294 98.1265 53.1535 97.305C53.5039 97.147 53.1994 96.6314 52.8518 96.7879Z" fill="#7366AE"/>
<path d="M48.7182 100.222C48.7268 100.205 48.7368 100.189 48.7426 100.172C48.7512 100.149 48.7555 100.125 48.7598 100.1C48.7857 100.013 48.7684 99.9221 48.6966 99.8518C48.6823 99.8374 48.6679 99.8273 48.6507 99.8173C48.6406 99.8101 48.632 99.8015 48.6205 99.7957C47.506 99.2701 46.6327 98.3451 45.8902 97.3814C45.5728 96.9678 45.2568 96.5513 44.938 96.1391C44.9093 96.1017 44.8791 96.0601 44.8489 96.017C45.1678 95.9911 45.4866 95.9653 45.8069 95.9394C46.0209 95.9222 46.1947 95.6953 46.0654 95.4899C46.0999 95.5459 46.0985 95.543 46.0898 95.5215C46.1071 95.5301 46.0511 95.3937 46.0367 95.3391C46.0338 95.3247 46.0295 95.3118 46.0266 95.2974C46.0137 95.2472 46.0022 95.1969 45.9907 95.1466C45.962 95.026 45.9347 94.9053 45.906 94.7847C45.8687 94.6253 45.8342 94.4673 45.7983 94.3079C45.7437 94.0694 45.6906 93.831 45.6374 93.5926C45.58 93.2838 45.5354 92.83 45.399 92.4738C45.3372 92.254 45.2353 92.0573 45.017 91.9697C44.7182 91.8505 44.3218 91.9567 43.9857 92.0099C43.9226 92.0185 43.8608 92.0285 43.8005 92.0329C43.6827 92.0415 43.5635 92.0458 43.4443 92.0472C43.4227 92.0472 43.4026 92.0472 43.3811 92.0472C43.2705 92.0472 43.1599 92.0443 43.0493 92.0372C43.0393 92.0372 43.0292 92.0372 43.0206 92.0357C42.7894 92.0171 42.5624 91.9768 42.3398 91.9093C42.2867 91.8921 42.2335 91.8763 42.1818 91.8562C42.166 91.8505 42.1502 91.8447 42.1344 91.8375C41.7495 91.6867 41.3976 91.4627 41.073 91.2013C41.0687 91.1984 41.0659 91.1955 41.0616 91.1927C40.9984 91.1409 40.9352 91.0878 40.8734 91.0347C40.7643 90.9384 40.6594 90.8365 40.5531 90.7388C40.4397 90.6296 40.3262 90.5176 40.2171 90.407C39.5435 89.7263 38.8655 89.0527 38.1532 88.4121C36.9898 87.3651 35.5234 85.8154 33.7942 86.1385C32.0549 86.4631 31.9946 88.3532 32.4427 89.7176C33.0387 91.5302 34.2006 93.1072 35.2333 94.6885C36.3923 96.4651 37.5514 98.2432 38.7119 100.02C39.2835 100.897 39.8566 101.773 40.4282 102.651C40.8117 103.238 41.2282 104.199 42.087 104.054C42.5538 103.975 43.0048 103.684 43.4256 103.467C44.0762 103.144 44.7283 102.826 45.3689 102.489C45.7782 102.28 46.1746 102.069 46.5652 101.815C46.6543 101.758 46.7419 101.699 46.8295 101.64C46.841 101.633 46.8525 101.626 46.864 101.618C46.9243 101.578 46.9846 101.536 47.045 101.496C47.1555 101.422 47.2676 101.348 47.3782 101.274C47.516 101.18 47.6525 101.084 47.7889 100.988C47.8607 100.938 47.934 100.889 48.0058 100.837C48.1925 100.702 48.5358 100.512 48.6909 100.274C48.7024 100.257 48.711 100.238 48.7196 100.221L48.7182 100.222ZM33.8344 86.7403C34.6502 86.5522 35.4214 86.9543 36.0606 87.4268C36.4211 87.6925 36.7686 87.9798 37.1076 88.2771C37.0674 88.4308 37.0573 88.5959 37.0171 88.7539C36.9898 88.8559 36.9582 88.9579 36.9209 89.057C36.9008 89.1101 36.8778 89.1618 36.8548 89.2149C36.8261 89.2824 36.7945 89.35 36.7615 89.416C36.7399 89.4591 36.7184 89.5008 36.6954 89.5424C36.6336 89.6516 36.5676 89.7593 36.4943 89.8613C36.49 89.8684 36.4843 89.8742 36.4799 89.8814C36.2401 90.2103 35.9428 90.4961 35.6053 90.7259C35.5134 90.7819 35.42 90.835 35.3281 90.8896C34.9633 90.2189 34.6114 89.5438 34.2796 88.8573C34.0197 88.3216 33.5184 87.4512 33.5672 86.9127C33.5701 86.8825 33.5629 86.8581 33.5586 86.8322C33.6434 86.7963 33.7324 86.7647 33.8344 86.7403ZM41.7309 103.417C41.3862 103.238 41.1477 102.667 40.9424 102.351C40.4311 101.567 39.9183 100.781 39.407 99.9968C38.383 98.427 37.3589 96.8572 36.3363 95.2874C35.3841 93.8267 34.3356 92.389 33.5514 90.8279C33.1292 89.9891 32.4039 88.2354 32.9956 87.299C33.0818 87.773 33.3532 88.2713 33.5313 88.6606C33.9665 89.62 34.4678 90.5507 34.9791 91.4713C34.9791 91.4713 34.9791 91.4742 34.9791 91.4756C34.9906 91.4957 35.0021 91.5158 35.0136 91.5359C35.038 91.579 35.0609 91.6235 35.0854 91.6666C35.117 91.7241 35.1514 91.7815 35.1845 91.839C37.2182 95.4669 39.453 99.036 41.9635 102.359C42.1804 102.651 42.4016 102.938 42.6256 103.225C42.314 103.392 41.965 103.536 41.7323 103.415L41.7309 103.417Z" fill="#7366AE"/>
<path d="M38.748 89.9182C38.613 89.8464 38.4133 89.8751 38.3386 90.0259C38.0902 90.5286 37.8115 91.0155 37.5042 91.4866C37.418 91.6173 37.474 91.8227 37.6119 91.8959C37.7613 91.9749 37.9293 91.929 38.0212 91.7882C38.3271 91.3186 38.6058 90.8302 38.8557 90.3275C38.9246 90.1882 38.8973 89.9972 38.748 89.9182Z" fill="#7366AE"/>
<path d="M40.3864 91.2707C40.2485 91.1974 40.0546 91.2305 39.9771 91.3784C39.8292 91.6613 39.6683 91.9385 39.4945 92.2071C39.4069 92.3407 39.3179 92.4742 39.2245 92.6035C39.1785 92.6681 39.1311 92.7328 39.0823 92.7974C39.0766 92.806 39.0105 92.8922 39.0378 92.8563C39.0134 92.8879 38.989 92.9195 38.9631 92.9511C38.8654 93.0732 38.8353 93.2556 38.9631 93.3733C39.0708 93.4724 39.2819 93.504 39.3854 93.3733C39.8062 92.8434 40.1796 92.2804 40.4941 91.6814C40.566 91.5436 40.5344 91.3497 40.3864 91.2721V91.2707Z" fill="#7366AE"/>
<path d="M42.2651 92.4135C42.1157 92.379 41.9319 92.458 41.8974 92.6217C41.8242 92.9664 41.6949 93.2494 41.5341 93.5567C41.3631 93.8813 41.185 94.2016 41.0098 94.5248C40.9323 94.6669 40.9754 94.8508 41.1175 94.9341C41.254 95.0145 41.4493 94.9685 41.5269 94.8264C41.7078 94.4932 41.8931 94.1628 42.0683 93.8267C42.2407 93.495 42.3972 93.1488 42.4748 92.7812C42.5064 92.6289 42.4303 92.4508 42.2665 92.4135H42.2651Z" fill="#7366AE"/>
<path d="M111.66 72.251C111.622 71.3289 111.544 70.4097 111.435 69.4934C111.428 69.4331 111.403 69.3871 111.373 69.3455C111.373 69.3455 111.376 69.3426 111.377 69.3412C111.646 69.064 111.222 68.6417 110.955 68.9189C109.477 70.4442 107.263 71.0991 105.233 71.4826C102.924 71.9192 100.55 71.9996 98.2084 72.116C93.4703 72.3544 88.7178 72.432 83.9782 72.2007C81.6127 72.0858 79.2486 71.8977 76.9004 71.5846C75.8031 71.4381 74.7245 71.1221 73.62 71.0316C72.5572 70.944 71.6337 71.2356 70.7475 71.8115C68.8603 73.0395 67.0693 74.4542 65.3084 75.856C63.5218 77.2793 61.781 78.7629 60.1021 80.314C56.1897 83.9248 52.2832 87.5369 48.2789 91.0456C48.1482 91.1605 48.1841 91.3487 48.2789 91.4679C49.5629 93.088 50.8469 94.7081 52.1309 96.3281C52.4354 96.7116 52.7385 97.0951 53.043 97.4786C53.3087 97.8147 53.5614 98.2441 53.8788 98.5299C54.0354 98.6707 54.2293 98.7037 54.4332 98.6864C55.0207 98.6376 55.6038 98.2613 56.0935 97.9655C56.8878 97.4872 57.6418 96.9443 58.3858 96.3928C61.5785 94.0215 64.5056 91.3286 67.6438 88.8927C68.3188 88.3685 69.0097 87.8629 69.7163 87.3804C69.0858 88.5337 68.7052 89.8363 68.5572 91.1993C68.3619 92.9874 68.5271 94.7899 68.7052 96.5723C68.8919 98.438 69.1102 100.301 69.3601 102.159C69.9317 106.411 70.6714 110.637 71.5733 114.831C71.6021 114.966 71.7356 115.041 71.862 115.051C72.9938 115.134 74.1241 115.251 75.2559 115.331C76.0314 115.386 76.8084 115.434 77.5855 115.456C78.1183 115.47 78.6842 115.506 79.2113 115.404C79.3764 115.373 79.5632 115.32 79.6522 115.163C79.7628 114.968 79.7269 114.662 79.7456 114.445C79.7829 114.004 79.8202 113.564 79.859 113.124C80.2023 109.261 80.6217 105.407 81.12 101.562C81.3743 99.6013 81.65 97.6423 81.9459 95.6876C82.0593 94.9379 82.1828 94.1896 82.2748 93.437C82.3523 92.805 82.4313 92.1688 82.6152 91.5584C82.8378 90.8187 83.2371 90.125 84.0299 89.9139C84.4837 89.7932 84.9735 89.8076 85.4403 89.7918C86.0205 89.7703 86.6022 89.7502 87.1824 89.7286C87.2557 89.7257 87.3145 89.6956 87.3634 89.6568C87.4926 89.7042 87.6233 89.753 87.7526 89.8004C94.0304 92.0539 102.082 93.2747 107.597 88.548C109.651 86.7872 110.857 84.3068 111.357 81.677C111.623 80.2753 111.708 78.8491 111.696 77.4243C111.682 75.7008 111.732 73.9759 111.66 72.2539V72.251Z" fill="#7366AE"/>
<path d="M83.9449 73.3288C85.206 72.7199 86.5948 72.4183 87.9952 72.4355C88.3801 72.4398 88.3801 71.8423 87.9952 71.838C86.4871 71.8193 85.0006 72.1583 83.6433 72.8132C83.2972 72.9798 83.6002 73.4969 83.9449 73.3303V73.3288Z" fill="#7366AE"/>
<path d="M111.933 61.3846C111.567 59.8866 111.199 58.3944 110.748 56.9193C110.297 55.4429 109.777 53.988 109.295 52.5216C108.85 51.1701 108.429 49.7827 107.758 48.5216C106.583 46.3127 104.485 44.2589 101.793 44.5332C100.511 44.6639 99.3647 45.3217 98.3521 46.0843C97.3209 46.8613 96.4189 47.7906 95.6376 48.8175C94.8204 49.8932 94.2114 51.0422 93.8696 52.3535C93.512 53.7223 93.2894 55.1341 93.015 56.5215C92.5382 58.9329 91.9307 61.3099 91.3935 63.707C91.3447 63.707 91.2944 63.7156 91.2427 63.7487C89.9242 64.5716 88.399 65.0944 86.9742 65.7034C86.6209 65.8542 86.2676 66.0064 85.9143 66.1572C85.5609 66.308 85.1617 66.4301 84.8313 66.624C84.6475 66.7317 84.5671 66.8883 84.5498 67.0635C84.5355 67.0664 84.5225 67.0635 84.5067 67.0707C83.5976 67.4197 82.6482 67.7227 81.7808 68.1665C81.0583 68.5371 80.4278 69.0872 80.1305 69.8556C79.2731 70.4875 78.667 71.4498 78.0796 72.3187C77.8627 72.639 78.3812 72.9377 78.5966 72.6203C79.1438 71.8103 79.7126 70.8638 80.5312 70.2979C80.7524 70.1457 80.9879 70.0121 81.2278 69.89C81.087 70.0739 80.9535 70.2635 80.8228 70.4487C80.3675 71.095 79.9625 71.7744 79.602 72.4767C79.4267 72.8185 79.9424 73.1216 80.119 72.7783C80.4321 72.1679 80.7782 71.5747 81.1632 71.006C81.5466 70.4387 81.9545 69.7794 82.5664 69.4376C83.1682 69.1015 83.8963 68.9263 84.5613 68.7669C85.278 68.596 86.0062 68.4854 86.7415 68.4294C86.776 68.4265 86.8033 68.415 86.8306 68.4035C86.9871 68.9263 87.1423 69.4491 87.3002 69.9705C87.52 70.6986 87.6981 71.457 87.9666 72.1694C88.1706 72.7123 88.5828 72.9047 89.1401 72.9176C89.9228 72.9349 90.7099 72.9162 91.4941 72.9061C94.6768 72.8702 97.8609 72.7568 101.038 72.55C105.324 72.2713 112.74 71.4914 112.683 65.7278C112.669 64.2499 112.282 62.8051 111.933 61.3789V61.3846ZM84.4637 68.1809C84.0041 68.2886 83.5243 68.4121 83.0647 68.5759C83.0231 68.5687 82.9771 68.5701 82.9269 68.5874C82.3955 68.7655 81.8468 68.9522 81.3226 69.1848C81.5897 68.955 81.9028 68.7698 82.2159 68.619C83.003 68.2412 83.8461 67.964 84.659 67.6524C84.7222 67.8118 84.7997 67.964 84.8715 68.0933C84.7351 68.1206 84.5987 68.1479 84.4622 68.1795L84.4637 68.1809ZM85.4748 67.9841C85.469 67.9511 85.4618 67.9195 85.4417 67.885C85.3642 67.7486 85.2924 67.6122 85.2378 67.4642C85.222 67.4197 85.1171 67.1741 85.1329 67.1439C85.1674 67.0707 85.492 66.9874 85.5681 66.9544C85.7247 66.8869 85.8827 66.8194 86.0392 66.7533C86.6669 66.4847 87.2959 66.2161 87.9236 65.9476C89.0252 65.4765 90.1799 65.0556 91.224 64.4582C91.1005 65.0154 90.977 65.5713 90.8521 66.1285C90.8521 66.1285 90.8521 66.1285 90.8521 66.13C90.4269 66.275 90.0018 66.4186 89.5752 66.558C88.6618 66.8567 87.7526 67.0894 86.822 67.3163C86.6668 67.3536 86.5677 67.5332 86.6137 67.684C86.6295 67.7385 86.6467 67.7917 86.6625 67.8463C86.2647 67.8779 85.8697 67.9253 85.4748 67.9884V67.9841ZM110.264 69.5382C108.308 71.0103 105.677 71.5072 103.303 71.7686C100.448 72.0832 97.555 72.1694 94.6854 72.2512C93.2132 72.2929 91.7396 72.3173 90.2661 72.3245C89.9113 72.3259 89.5566 72.3316 89.2018 72.3259C88.7781 72.3202 88.5971 72.1938 88.4708 71.7974C88.2453 71.0879 88.0428 70.3712 87.8273 69.6588C87.6421 69.0441 87.4582 68.4294 87.2758 67.8132C90.6567 66.9644 93.9371 65.6976 97.2089 64.4984C98.7629 63.9282 100.361 63.4068 101.867 62.7117C102.289 62.5164 102.704 62.2492 102.856 61.7839C103.073 61.1203 102.741 60.2974 102.599 59.6482C102.164 57.659 101.687 55.6784 101.173 53.7065C101.075 53.3345 100.499 53.4925 100.596 53.8659C101.015 55.4745 101.408 57.0888 101.776 58.7089C101.961 59.5276 102.241 60.3893 102.316 61.2252C102.368 61.8026 101.937 62.0295 101.473 62.2363C100.011 62.8884 98.4742 63.3997 96.9719 63.9497C95.4093 64.5228 93.8423 65.0872 92.2711 65.6373C92.0197 65.7249 91.7684 65.8111 91.517 65.8987C91.9939 63.8076 92.4908 61.7207 92.9734 59.631C93.3023 58.2033 93.5709 56.7628 93.8595 55.328C94.1051 54.11 94.2832 52.8605 94.6954 51.6857C95.112 50.4965 95.8487 49.4408 96.6645 48.4915C97.4832 47.5407 98.4254 46.6876 99.4925 46.0254C100.578 45.3518 101.782 44.9296 103.07 45.1852C104.337 45.4366 105.358 46.2337 106.168 47.2075C107.923 49.3173 108.511 52.1726 109.391 54.7075C110.319 57.3832 111.041 60.1135 111.675 62.8726C111.979 64.1982 112.262 65.6431 111.976 66.9974C111.757 68.0416 111.105 68.9033 110.261 69.5367L110.264 69.5382Z" fill="#7366AE"/>
<path d="M83.1466 70.7493C83.273 70.6488 83.2515 70.4319 83.1466 70.3271C83.0217 70.2021 82.8507 70.2265 82.7244 70.3271C82.0048 70.9001 81.3987 71.6139 80.9449 72.4139C80.8644 72.5547 80.9118 72.7414 81.0526 72.8232C81.1905 72.9037 81.3815 72.8563 81.4619 72.7155C81.8957 71.9529 82.4544 71.3023 83.1481 70.7507L83.1466 70.7493Z" fill="#7366AE"/>
<path d="M83.6525 71.3628C83.0938 71.6931 82.6184 72.1355 82.2392 72.6597C82.1473 72.7876 82.2134 72.9987 82.3469 73.0691C82.502 73.1509 82.6572 73.0978 82.7563 72.9614C82.7778 72.9312 82.7993 72.9025 82.8209 72.8737C82.8324 72.8594 82.8439 72.845 82.8554 72.8307C82.9013 72.7732 82.9487 72.7186 82.9975 72.664C83.0923 72.5578 83.1943 72.4558 83.2992 72.3596C83.3509 72.3122 83.4026 72.2676 83.4572 72.2231C83.4844 72.2001 83.5117 72.1743 83.5419 72.1556C83.5419 72.1556 83.5419 72.1556 83.5433 72.1556C83.5577 72.1441 83.572 72.1341 83.5878 72.1226C83.7056 72.0364 83.8277 71.956 83.9541 71.8813C84.0891 71.8023 84.1494 71.6084 84.0618 71.472C83.9742 71.337 83.7961 71.2795 83.6525 71.3643V71.3628Z" fill="#7366AE"/>
<path d="M70.8751 86.7592C72.2022 86.0684 73.571 85.4579 74.9813 84.9581C75.6564 84.7183 76.3515 84.5043 77.0739 84.5043C77.7633 84.5043 78.4298 84.6867 79.0818 84.8978C81.4889 85.6748 83.5715 87.012 85.5794 88.5243C85.835 88.7168 86.0849 88.2845 85.8307 88.0934C83.7108 86.4978 81.5047 85.1176 78.9525 84.3348C78.2991 84.1337 77.6154 83.9844 76.9274 84.0088C76.2122 84.0346 75.5199 84.24 74.8492 84.477C73.3986 84.9912 71.9882 85.6174 70.6238 86.3283C70.3394 86.4762 70.5907 86.9071 70.8751 86.7592Z" fill="#7366AE"/>
<path d="M90.6835 33.0762C90.5743 32.9785 90.4365 32.9239 90.2957 32.8952C90.142 32.865 89.9841 32.8507 89.8275 32.8564C89.6781 32.8622 89.523 32.8794 89.3823 32.9325C89.2329 32.9885 89.1151 33.0733 89.0376 33.2025C89.0318 33.2112 89.0218 33.2169 89.0175 33.227C89.0117 33.2399 89.0074 33.2542 89.0031 33.2686C88.9988 33.2787 88.9916 33.2873 88.9873 33.2988C88.983 33.3117 88.9859 33.3261 88.983 33.339C88.9672 33.4165 88.9701 33.4955 89.0175 33.5702C89.0692 33.6506 89.1467 33.7081 89.2401 33.7325C89.3435 33.7598 89.4555 33.7569 89.5618 33.7483C89.8189 33.7268 90.0745 33.6779 90.3273 33.6248C90.402 33.609 90.4781 33.5932 90.5528 33.5745C90.7654 33.5243 90.8501 33.2241 90.6849 33.0747L90.6835 33.0762ZM89.5474 33.4855C89.5474 33.4855 89.5446 33.4941 89.5431 33.4998C89.5446 33.4955 89.546 33.4912 89.5474 33.4869C89.5474 33.4869 89.5474 33.4869 89.5474 33.4855ZM89.7356 33.4611C89.7327 33.4611 89.7298 33.4625 89.7255 33.4639C89.7284 33.4639 89.7327 33.4639 89.7356 33.4611Z" fill="#7366AE"/>
<path d="M90.3634 34.8747C90.3548 34.8575 90.3462 34.8403 90.3347 34.8245C90.3103 34.79 90.2844 34.7527 90.25 34.7254C90.1853 34.6737 90.1509 34.6521 90.0704 34.6234C90.0503 34.6162 90.0302 34.6148 90.0087 34.6119C89.9627 34.6062 89.9598 34.6062 89.9139 34.6119C89.8694 34.6177 89.8291 34.6291 89.7904 34.6521C89.7774 34.6593 89.7659 34.6694 89.7545 34.6794C89.7415 34.6895 89.7257 34.6995 89.7142 34.711C89.6769 34.7498 89.6553 34.7871 89.6352 34.8345C89.6252 34.8589 89.6137 34.8834 89.6065 34.9107C89.5979 34.948 89.5936 34.9868 89.5907 35.0256C89.5907 35.0414 89.5893 35.0571 89.5907 35.0744C89.595 35.1275 89.6008 35.1835 89.618 35.2338C89.6352 35.2855 89.6568 35.3372 89.6841 35.3846C89.7099 35.4306 89.7458 35.4737 89.7789 35.5153C89.8492 35.6015 89.9455 35.6589 90.0589 35.6618C90.0604 35.6618 90.0633 35.6618 90.0647 35.6618C90.0819 35.6618 90.1308 35.6546 90.148 35.6503C90.1494 35.6503 90.1523 35.6503 90.1537 35.6503C90.1738 35.6446 90.2126 35.6288 90.2298 35.6187C90.2586 35.6015 90.2873 35.5814 90.3088 35.5555C90.3318 35.5297 90.3562 35.5009 90.3706 35.4679C90.3864 35.4334 90.4036 35.3975 90.4137 35.3602C90.4237 35.32 90.4281 35.2783 90.4324 35.2381C90.4338 35.2209 90.4352 35.2036 90.4352 35.1864C90.4352 35.1692 90.4352 35.1505 90.4324 35.1333C90.4281 35.0902 90.4237 35.0457 90.4123 35.0026C90.4008 34.9595 90.3821 34.9178 90.3634 34.8776V34.8747ZM89.8564 35.1706C89.8564 35.1706 89.8564 35.1692 89.8579 35.1677C89.8751 35.1764 89.888 35.1907 89.9067 35.1965C89.9067 35.1965 89.9067 35.1965 89.9053 35.1965C89.8938 35.1922 89.8837 35.1864 89.8722 35.1821C89.8665 35.1778 89.8622 35.1735 89.8564 35.1706ZM89.9742 35.2036C89.9742 35.2036 89.967 35.2036 89.9627 35.2051C89.9555 35.2051 89.9483 35.2036 89.9412 35.2022C89.9527 35.2036 89.9627 35.2022 89.9742 35.2036Z" fill="#7366AE"/>
<path d="M113.659 47.6633C113.406 47.0198 113.131 46.3836 112.921 45.7243C112.7 45.0263 112.609 44.3355 112.566 43.6059C112.529 42.9883 112.467 42.3808 112.22 41.8077C111.984 41.2605 111.618 40.7837 111.23 40.3341C110.804 39.8386 110.337 39.3761 109.964 38.8361C109.613 38.3277 109.34 37.7747 109.123 37.1988C108.662 35.9708 108.293 34.7098 107.839 33.4789C107.328 32.0915 106.824 30.6912 106.257 29.3253C105.839 28.3199 105.323 27.3591 104.662 26.4916C103.285 24.6848 101.295 23.1409 99.0827 22.5463C97.329 22.0752 95.5323 22.18 93.7801 22.5807C92.1457 22.9556 90.4925 23.5789 89.1655 24.6259C88.5708 25.0956 88.0366 25.6758 87.7062 26.3667C87.3816 27.046 87.3127 27.7297 87.3543 28.4722C87.3572 28.5153 87.3673 28.5569 87.3773 28.5986C87.373 28.6488 87.3759 28.6991 87.3974 28.7494C87.3429 28.623 87.3601 28.8758 87.3443 28.9677C87.3242 29.0812 87.2955 29.1932 87.2739 29.3066C87.2093 29.6427 87.1906 29.9903 87.1676 30.3321C87.1088 31.1853 87.1087 32.0484 87.2739 32.8901C87.4477 33.7791 87.7867 34.6351 87.8714 35.5414C87.9145 36.0038 87.8786 36.4491 87.7666 36.9001C87.6919 37.2017 87.4994 37.5851 87.6904 37.881C87.8139 38.0735 88.0409 38.1367 88.2563 38.151C88.6786 38.1797 88.9816 38.1855 89.2961 38.5158C89.6925 38.9338 89.8405 39.5715 90.0301 40.0986C90.3776 41.0723 90.8588 42.161 91.9948 42.3535C92.2763 42.4009 92.5622 42.4009 92.8465 42.3721C93.0692 42.793 93.1194 43.366 93.1338 43.8127C93.1539 44.4173 93.0735 45.0177 92.9413 45.6066C92.6541 46.8862 92.1342 48.1027 91.8742 49.3896C91.4261 51.6172 91.9216 53.9526 93.2645 55.7895C93.4727 56.0739 93.9237 55.8412 93.8117 55.5568C94.1779 53.6897 94.4293 51.7551 95.4562 50.1135C95.538 49.9813 95.5021 49.8564 95.4174 49.7717C95.5194 49.7831 95.6271 49.7487 95.696 49.6366C96.2102 48.8065 96.723 47.9764 97.2371 47.1462C97.589 46.5775 98.208 45.9685 98.3287 45.2935C98.3818 44.9904 98.2755 44.7017 98.1621 44.4245C98.0084 44.0511 97.8849 43.6748 97.7628 43.2899C97.4583 42.3377 97.1524 41.3869 96.8479 40.4347C96.8292 40.3772 96.7919 40.3255 96.7445 40.2867C96.6799 40.2206 96.5908 40.1905 96.4931 40.2206C96.4644 40.2278 96.4357 40.2379 96.4084 40.2566C96.2705 40.3513 96.1312 40.4418 95.9876 40.5294C95.9187 40.5711 95.8483 40.6099 95.7793 40.6501C95.7061 40.6917 95.6343 40.7348 95.5596 40.7765C95.4748 40.8224 95.3887 40.867 95.3025 40.91C95.2393 40.9416 95.1761 40.9747 95.1129 41.0063C95.0339 41.045 94.9535 41.0824 94.8731 41.1183C94.7596 41.17 94.6462 41.2231 94.5313 41.2705C93.8605 41.552 93.1051 41.8235 92.3683 41.7905C91.2437 41.7416 90.8645 40.6889 90.5442 39.7654C91.08 39.412 91.5324 38.9352 91.8412 38.3722C91.9159 38.2343 91.88 38.0404 91.7335 37.9629C91.5941 37.8896 91.4045 37.9241 91.3241 38.0706C91.2509 38.2056 91.169 38.3349 91.0785 38.4598C91.0685 38.4742 91.057 38.49 91.0455 38.5043C91.0225 38.5345 91.0297 38.5302 91.0369 38.5201C91.0182 38.5446 90.9751 38.5905 90.9694 38.5977C90.9205 38.6566 90.8688 38.714 90.8157 38.77C90.7123 38.8792 90.6031 38.9812 90.4868 39.076C90.4724 39.0875 90.4581 39.0989 90.4437 39.1104C90.4394 39.1147 90.4408 39.1133 90.438 39.1162C90.4365 39.1162 90.438 39.1162 90.4351 39.1176C90.4064 39.1392 90.3762 39.1607 90.3475 39.1822C90.3432 39.1851 90.3388 39.188 90.3345 39.1909C90.1924 38.8117 90.0243 38.4383 89.7543 38.1338C89.5719 37.9284 89.3435 37.7575 89.0879 37.6555C88.95 37.6009 88.8093 37.565 88.6613 37.5521C88.5823 37.5449 88.2822 37.5851 88.2348 37.5248C88.1845 37.4616 88.3382 37.058 88.3583 36.9762C88.4014 36.7981 88.4344 36.6214 88.4559 36.4405C88.5062 36.0354 88.4875 35.6333 88.4301 35.2297C88.3181 34.4254 88.048 33.6599 87.8771 32.8685C87.6804 31.9608 87.7034 31.0201 87.778 30.0995C87.801 29.8223 87.8412 29.558 87.8886 29.288C87.9533 29.3411 88.0165 29.3943 88.0811 29.4431C88.8251 30.0894 89.7098 30.6064 90.471 31.2111C90.932 31.5817 91.3902 31.9565 91.8742 32.2969C92.2764 32.5784 92.6986 32.8254 93.1309 33.0567C93.2544 33.1227 93.3909 33.1012 93.4929 33.0093C93.9122 32.633 94.4063 32.2782 94.9722 32.5554C94.9894 32.564 95.0066 32.5727 95.0239 32.5813C95.0555 32.5985 95.0842 32.6186 95.1129 32.6373C95.1359 32.6531 95.1589 32.6675 95.179 32.6847C95.1977 32.699 95.2135 32.7148 95.2307 32.7306C95.281 32.7752 95.3269 32.824 95.37 32.8771C95.3829 32.8929 95.3973 32.9087 95.4102 32.926C95.426 32.9475 95.4389 32.9705 95.4533 32.992C95.4734 33.0236 95.4921 33.0538 95.5093 33.0868C95.5165 33.1012 95.5237 33.1156 95.5309 33.1314C95.5524 33.1759 95.5725 33.2218 95.5883 33.2692C95.5912 33.2764 95.5926 33.2836 95.5955 33.2893C95.6127 33.3439 95.6285 33.3985 95.6386 33.4545C95.6386 33.4588 95.6415 33.4646 95.6415 33.4689C95.6515 33.522 95.6573 33.5766 95.6616 33.6312C95.6616 33.6412 95.6644 33.6498 95.6644 33.6599C95.6673 33.7145 95.6644 33.7676 95.6616 33.8222C95.6587 33.8595 95.653 33.8969 95.6472 33.9342C95.6443 33.9529 95.6415 33.9716 95.6386 33.9917C95.6314 34.029 95.6228 34.0649 95.6142 34.1008C95.6084 34.1209 95.6041 34.1396 95.5984 34.1597C95.5883 34.1942 95.5768 34.2301 95.5639 34.2646C95.5567 34.2847 95.5481 34.3033 95.5395 34.3234C95.5251 34.3565 95.5108 34.3909 95.495 34.424C95.4892 34.434 95.4835 34.4441 95.4777 34.4556C95.4576 34.4929 95.4389 34.5303 95.416 34.5647C95.3657 34.6452 95.3083 34.7227 95.2465 34.7945C95.2364 34.806 95.2264 34.8189 95.2163 34.8304C95.156 34.8979 95.0914 34.9597 95.0224 35.0171C95.0052 35.0315 94.9865 35.0444 94.9679 35.0574C94.8486 35.1407 94.7022 35.1952 94.6031 35.2958C94.5844 35.3159 94.5715 35.336 94.5571 35.3561C94.5442 35.3748 94.5298 35.3934 94.5212 35.4135C94.5083 35.4394 94.4982 35.4667 94.491 35.4983C94.4882 35.5141 94.4882 35.5313 94.4853 35.5486C94.4853 35.5615 94.481 35.5744 94.481 35.5888C94.481 35.5916 94.481 35.5959 94.4824 35.5988C94.4824 35.6304 94.4882 35.6635 94.4968 35.6965C94.4997 35.7094 94.5011 35.7223 94.504 35.7367C94.5154 35.7755 94.5313 35.8128 94.5499 35.8516C94.5542 35.8602 94.5585 35.8688 94.5628 35.8775C94.7898 36.3241 95.4289 36.7966 95.6415 36.9819C95.6817 37.0164 95.7233 37.0494 95.7635 37.0839C95.8871 37.1902 96.0106 37.295 96.137 37.3984C96.2002 37.4501 96.2634 37.5018 96.3266 37.5535C96.4285 37.6368 96.5291 37.7216 96.6325 37.8035C97.049 38.1381 97.4727 38.4627 97.8892 38.7959C97.8964 38.8016 97.905 38.8088 97.9122 38.8146C98.4306 39.2325 98.7624 39.8084 99.0453 40.4031C99.2278 40.7865 99.3929 41.1815 99.5739 41.5664C99.7089 41.8608 99.8511 42.1481 100.021 42.4138C100.067 42.487 100.118 42.556 100.168 42.6264C100.183 42.6479 100.197 42.6694 100.213 42.691C100.227 42.7111 100.243 42.7298 100.259 42.7499C100.314 42.8231 100.368 42.8949 100.428 42.9653C101.116 43.761 102.049 44.3154 102.949 44.8353C104.009 45.4486 105.04 46.059 105.892 46.9552C106.724 47.8313 107.338 48.8812 107.778 50.0015C108.457 51.7709 109.017 53.5877 109.623 55.3816C110.242 57.2143 110.769 59.0771 111.212 60.96C111.271 61.2113 111.574 61.2271 111.72 61.0763C114.122 60.6383 114.973 58.0545 115.064 55.88C115.18 53.0822 114.676 50.26 113.653 47.6561L113.659 47.6633Z" fill="#7366AE"/>
<path d="M87.846 72.8281C85.7089 72.5049 83.5703 72.1832 81.4332 71.86C78.0293 71.3459 74.6268 70.8331 71.2229 70.319C71.0391 70.2917 70.8553 70.2629 70.6714 70.2357C70.0697 68.5667 69.4664 66.8978 68.8646 65.2304C67.8219 62.3435 66.7807 59.4567 65.7379 56.5698C65.4981 55.9048 65.2582 55.2399 65.0184 54.5763C64.9322 54.3379 64.6751 54.1311 64.4051 54.2287C63.8464 54.4298 63.2877 54.6323 62.729 54.8334C62.4906 54.9196 62.2838 55.1767 62.3815 55.4467C63.0349 57.2563 63.6884 59.0674 64.3419 60.8771C65.3846 63.764 66.4259 66.6508 67.4686 69.5376C67.6884 70.1452 67.9067 70.7513 68.1264 71.3588C68.0963 71.5972 68.1925 71.9132 68.4754 71.9548C70.6125 72.278 72.7511 72.5997 74.8882 72.9229C78.2921 73.437 81.6946 73.9498 85.0985 74.464C85.8755 74.5817 86.6511 74.6981 87.4281 74.8158C87.4711 74.823 87.5128 74.823 87.5516 74.8201C87.7728 74.856 87.9968 74.7569 88.0413 74.4683C88.093 74.1264 88.1448 73.7846 88.1965 73.4428C88.2324 73.2015 88.139 72.874 87.8489 72.8295L87.846 72.8281Z" fill="#95BF70"/>
</svg>
