<svg width="154" height="153" viewBox="0 0 154 153" fill="none" xmlns="http://www.w3.org/2000/svg">
<path d="M75.682 121.069H62.256V86.9986C62.256 85.6561 61.1676 84.5696 59.827 84.5696H15.4534C14.111 84.5696 13.0244 85.6579 13.0244 86.9986V122.643C13.0244 123.985 14.1127 125.072 15.4534 125.072H75.682C76.3759 125.072 76.9402 124.509 76.9402 123.814V122.326C76.9402 121.632 76.3777 121.067 75.682 121.067V121.069Z" fill="#F4F2FF"/>
<path d="M99.6772 84.464C99.5264 84.3343 99.3459 84.2326 99.1479 84.2028C98.906 84.1643 98.6519 84.1871 98.4434 84.329C98.3961 84.3606 98.3558 84.3991 98.3207 84.4412C98.2979 84.457 98.2734 84.4657 98.2541 84.4885C98.0999 84.6655 98.0193 84.8688 98.007 85.1019C97.9947 85.2982 98.0526 85.5015 98.1455 85.6732C98.3575 86.064 98.8394 86.2761 99.2653 86.1201C99.5019 86.0342 99.6929 85.8853 99.8331 85.6767C99.9733 85.4682 100.014 85.214 99.9716 84.9687C99.9383 84.7812 99.8226 84.5884 99.6772 84.4657V84.464Z" fill="#7366AE"/>
<path d="M99.5157 93.3808C99.3649 93.2511 99.1844 93.1495 98.9864 93.1197C98.7445 93.0811 98.4904 93.1039 98.2819 93.2458C98.2346 93.2774 98.1943 93.3159 98.1592 93.358C98.1364 93.3738 98.1119 93.3825 98.0926 93.4053C97.9384 93.5823 97.8578 93.7856 97.8455 94.0187C97.8332 94.215 97.8911 94.4183 97.984 94.59C98.196 94.9808 98.6779 95.1929 99.1038 95.0369C99.3404 94.951 99.5314 94.8021 99.6716 94.5935C99.8136 94.385 99.8521 94.1309 99.8101 93.8855C99.7768 93.698 99.6611 93.5052 99.5157 93.3825V93.3808Z" fill="#7366AE"/>
<path d="M99.284 103.285C99.1332 103.156 98.9527 103.054 98.7547 103.024C98.5129 102.986 98.2587 103.008 98.0502 103.15C98.0029 103.182 97.9626 103.221 97.9275 103.263C97.9047 103.278 97.8802 103.287 97.8609 103.31C97.7067 103.487 97.6261 103.69 97.6138 103.923C97.6015 104.12 97.6594 104.323 97.7523 104.495C97.9643 104.885 98.4462 105.097 98.8721 104.941C99.1087 104.856 99.2997 104.707 99.4399 104.498C99.5819 104.29 99.6204 104.035 99.5784 103.79C99.5451 103.603 99.4294 103.41 99.284 103.287V103.285Z" fill="#7366AE"/>
<path d="M133.435 110.755C133.381 108.443 132.964 106.153 132.71 103.857C132.198 99.2232 131.713 94.5843 131.143 89.9559C130.607 85.6027 129.93 81.2442 128.656 77.0364C127.598 73.5454 126.192 69.208 122.54 67.6517C120.821 66.9192 118.916 66.8526 117.081 66.6826C116.164 66.5967 115.279 66.4109 114.372 66.2707C113.583 66.1481 112.782 66.127 111.986 66.0815C111.133 66.0307 110.253 65.9763 109.438 65.6942C108.623 65.4138 107.95 64.7689 107.433 64.0959C106.42 62.7745 106.126 61.1184 105.858 59.5183C105.714 58.6561 105.567 57.7956 105.357 56.9456C105.237 56.4619 104.489 56.667 104.61 57.1507C105.015 58.7858 105.134 60.4857 105.611 62.1033C106.016 63.4755 106.757 64.711 107.847 65.6328C104.2 69.6198 100.504 73.5419 96.3592 77.0207C94.3509 73.9222 92.6754 70.6135 91.1665 67.2487C91.4031 67.1488 91.6134 67.0068 91.7676 66.7755C92.1304 66.2357 92.2496 65.5312 92.3407 64.9003C92.5422 63.5035 92.5756 62.0577 92.4879 60.6487C92.4564 60.1545 91.6818 60.151 91.7133 60.6487C91.7887 61.8527 91.7659 63.0794 91.6432 64.2799C91.5819 64.8793 91.5048 65.5312 91.2612 66.0903C90.9843 66.7264 90.3183 66.6458 89.698 66.772C87.8245 67.154 85.9598 67.6325 84.2652 68.5403C82.3917 69.5444 80.818 71.0376 79.4598 72.6569C76.5576 76.1199 74.5282 80.2961 72.7652 84.4268C70.9145 88.7607 69.4302 93.2524 68.3541 97.8422C67.7618 100.373 67.413 102.921 66.9801 105.478C66.917 105.846 66.8119 106.028 66.4526 106.165C66.1529 106.281 65.8305 106.354 65.5203 106.44C64.8596 106.621 64.1936 106.777 63.5259 106.924C63.1018 107.017 62.6777 107.11 62.2554 107.201V107.991C62.6146 107.912 62.9739 107.835 63.3331 107.758C64.5038 107.504 65.7849 107.304 66.8872 106.824C67.8651 106.4 67.774 105.269 67.9037 104.365C68.0702 103.2 68.2683 102.038 68.4926 100.883C69.4214 96.102 70.8076 91.4088 72.5899 86.8785C74.3091 82.506 76.3333 78.0669 79.1531 74.285C80.499 72.4799 82.099 70.7519 84.0303 69.5672C85.7776 68.4947 87.7474 67.9637 89.7383 67.5518C89.9661 67.5045 90.2132 67.4747 90.4568 67.4344C90.4533 67.4958 90.4621 67.5606 90.4918 67.6255C92.0393 71.0796 93.762 74.476 95.8405 77.6445C94.2334 86.5105 93.3063 95.4974 93.0925 104.505C93.033 107.046 93.0312 109.589 93.082 112.13C90.2587 112.684 87.4302 113.238 84.698 114.156C84.0934 114.36 83.0191 114.516 83.0226 115.331C83.0226 115.48 83.0314 115.632 83.0419 115.783C80.9845 115.46 78.9218 115.173 76.8538 114.926C76.5874 114.894 76.3175 114.859 76.0476 114.824C76.0143 111.31 76.2404 107.811 76.675 104.323C77.1114 100.82 77.6792 97.334 78.1103 93.8307C78.1717 93.3365 77.3953 93.3418 77.3357 93.8307C76.9029 97.334 76.3368 100.82 75.9004 104.323C75.4693 107.779 75.2467 111.245 75.273 114.728C73.8044 114.558 72.3095 114.481 70.9145 115.008C69.2742 115.628 67.8564 116.817 66.5963 118.008C65.9532 118.617 65.8515 119.261 65.8988 120.129C65.9532 121.142 66.1442 122.137 66.4544 123.101C66.6068 123.574 67.3552 123.371 67.201 122.896C66.9118 121.997 66.7225 121.074 66.6717 120.129C66.6489 119.696 66.5963 119.226 66.861 118.857C67.0695 118.566 67.385 118.338 67.6531 118.101C68.8641 117.032 70.182 115.951 71.7803 115.546C73.5363 115.103 75.5096 115.536 77.2744 115.751C79.2162 115.988 81.1545 116.261 83.0857 116.568C83.1015 116.57 83.1138 116.566 83.1278 116.568C83.2084 117.109 83.3171 117.653 83.3907 118.173C83.629 119.857 83.9076 121.534 84.2441 123.201C84.1775 123.17 84.1022 123.15 84.0145 123.162C82.9998 123.31 81.9781 123.408 80.9547 123.471C80.4552 123.501 79.954 123.524 79.4528 123.538C79.2074 123.545 78.9551 123.566 78.708 123.553C78.3347 123.536 78.2558 123.378 78.0315 123.085C77.6214 122.551 77.1097 121.526 76.3648 121.413C75.9916 121.357 75.6848 121.569 75.3799 121.753C74.9383 122.02 74.4967 122.288 74.0568 122.554C73.6309 122.812 74.02 123.481 74.4476 123.224C74.8629 122.973 75.2783 122.721 75.6936 122.47C75.8811 122.356 76.1142 122.13 76.3543 122.227C76.5453 122.304 76.7171 122.633 76.8345 122.786C77.2533 123.331 77.6897 124.282 78.4573 124.33C79.4002 124.389 80.3886 124.286 81.3315 124.221C82.2989 124.154 83.261 124.049 84.2214 123.911C84.2862 123.902 84.337 123.879 84.3791 123.849C84.4071 123.983 84.4334 124.116 84.4614 124.249C84.4965 124.41 84.6718 124.538 84.8347 124.533C86.0107 124.494 87.1743 124.645 88.3415 124.757C89.4929 124.868 90.6513 124.934 91.8062 125.003C94.1301 125.143 96.4574 125.241 98.7847 125.297C101.149 125.355 103.516 125.39 105.881 125.33C108.199 125.274 110.509 125.111 112.829 125.074C117.004 125.006 121.212 124.829 125.185 123.415C128.267 122.318 131.073 120.399 132.323 117.264C133.13 115.239 133.483 112.924 133.432 110.753L133.435 110.755ZM132.577 112.907C132.352 114.908 131.839 117.055 130.672 118.725C129.732 120.069 128.4 121.077 126.955 121.824C123.474 123.618 119.415 124.104 115.558 124.24C113.32 124.319 111.08 124.296 108.842 124.414C106.512 124.535 104.193 124.596 101.857 124.575C97.2898 124.536 92.6842 124.416 88.1382 123.963C87.1428 123.865 86.1508 123.755 85.1519 123.76C84.7926 122.081 84.4982 120.39 84.2459 118.694C84.1074 117.761 83.9813 116.827 83.8621 115.893C83.8463 115.776 83.7411 115.439 83.7955 115.334C83.8621 115.208 84.2844 115.12 84.4159 115.073C84.8347 114.924 85.2571 114.786 85.6812 114.654C89.0477 113.608 92.5352 113.061 95.9789 112.341C99.4524 111.613 102.91 110.763 106.32 109.782C108.034 109.29 109.75 108.773 111.426 108.161C112.651 107.714 113.322 106.934 113.7 105.699C114.109 104.369 114.175 102.928 114.251 101.547C114.365 99.4861 114.328 97.4216 114.152 95.3659C114.11 94.8735 113.336 94.8682 113.378 95.3659C113.532 97.178 113.581 98.9971 113.511 100.814C113.458 102.159 113.404 103.547 113.115 104.866C112.987 105.452 112.815 106.058 112.472 106.556C112.011 107.227 111.192 107.427 110.462 107.676C108.795 108.243 107.111 108.757 105.414 109.234C101.967 110.201 98.4762 111.047 94.9695 111.759C94.5962 111.834 94.2229 111.908 93.8496 111.981C93.6761 103.026 94.1879 94.0568 95.4094 85.1838C95.7476 82.7286 96.1402 80.2803 96.5836 77.8408C100.889 74.2727 104.701 70.2174 108.467 66.0972C109.712 66.8473 111.355 66.8193 112.756 66.8964C114.442 66.9893 116.091 67.3731 117.775 67.5186C119.687 67.6833 121.706 67.8445 123.334 68.9661C124.885 70.0351 125.849 71.7736 126.569 73.4701C128.248 77.436 129.159 81.7244 129.818 85.9637C130.509 90.4151 130.94 94.9085 131.437 99.3844C131.692 101.664 131.921 103.95 132.221 106.225C132.512 108.433 132.825 110.676 132.575 112.903L132.577 112.907Z" fill="#7366AE"/>
<path d="M70.6097 120.489C70.7446 120.351 70.8796 120.212 71.0163 120.076C71.3054 119.78 71.5963 119.483 71.8855 119.189C72.2343 118.833 71.6875 118.285 71.3387 118.642C71.0198 118.968 70.7008 119.292 70.3819 119.618C70.091 119.916 69.637 120.244 69.5652 120.68C69.4951 121.099 69.63 121.595 69.7124 122.005C69.8035 122.454 69.9245 122.894 70.0717 123.327C70.2312 123.796 70.9795 123.595 70.8183 123.122C70.6886 122.74 70.5781 122.352 70.4923 121.958C70.452 121.774 70.4169 121.59 70.3871 121.404C70.3608 121.238 70.2925 121.01 70.3223 120.843C70.3468 120.705 70.5133 120.593 70.6097 120.495V120.489Z" fill="#7366AE"/>
<path d="M72.6817 121.342C72.8166 121.228 72.9533 121.114 73.0883 121C73.3687 120.763 73.6473 120.529 73.9277 120.292C74.0872 120.157 74.0662 119.884 73.9277 119.745C73.77 119.587 73.5404 119.61 73.3809 119.745C73.0742 120.005 72.7675 120.262 72.4608 120.522C72.3066 120.651 72.1542 120.781 72 120.909C71.837 121.046 71.674 121.186 71.6091 121.398C71.5496 121.601 71.5863 121.803 71.6161 122.008C71.6442 122.193 71.6792 122.379 71.7213 122.563C71.8089 122.945 71.9298 123.317 72.0771 123.681C72.1559 123.876 72.3347 124.013 72.5537 123.951C72.7377 123.9 72.9025 123.671 72.8236 123.475C72.6974 123.163 72.5905 122.845 72.5082 122.519C72.4644 122.348 72.4258 122.174 72.396 121.999C72.382 121.92 72.3242 121.687 72.3399 121.641C72.3645 121.568 72.5975 121.415 72.6834 121.343L72.6817 121.342Z" fill="#7366AE"/>
<path d="M69.1617 119.453C69.4649 119.111 69.7681 118.768 70.0713 118.426C70.4008 118.054 69.854 117.504 69.5245 117.879C69.1898 118.258 68.8551 118.634 68.5203 119.013C68.2154 119.357 67.7878 119.707 67.7492 120.194C67.7124 120.648 67.8386 121.153 67.9227 121.598C68.0139 122.078 68.1348 122.551 68.2803 123.018C68.4275 123.492 69.1757 123.289 69.0268 122.812C68.7832 122.027 68.5606 121.183 68.5203 120.359C68.5098 120.164 68.5992 120.093 68.7236 119.952C68.8691 119.788 69.0163 119.621 69.1635 119.456L69.1617 119.453Z" fill="#7366AE"/>
<path d="M80.6103 43.3289C81.0922 46.4045 81.8125 49.4644 83.0323 52.3368C84.089 54.8271 85.5594 57.2456 87.7009 58.9507C92.5554 62.8168 99.7757 61.5532 104.22 57.6504C105.52 56.5095 106.565 55.1355 107.536 53.7125C108.37 52.491 108.742 51.266 108.794 49.7886L108.603 50.1233C110.568 49.2751 112.453 47.2212 112.269 44.9429C112.19 43.9598 111.647 43.0642 110.683 42.7365C109.644 42.3825 108.528 42.7768 107.697 43.4217C107.305 43.7267 107.855 44.2717 108.244 43.9685C108.929 43.4357 110.009 43.1185 110.788 43.6408C111.456 44.0877 111.584 44.9587 111.467 45.7C111.197 47.4192 109.748 48.7914 108.211 49.4539C108.086 49.5082 108.023 49.6642 108.02 49.7886C107.976 51.0189 107.701 52.0546 107.024 53.0851C106.242 54.2785 105.379 55.4387 104.369 56.4482C102.27 58.5442 99.5216 59.9111 96.5932 60.3738C93.7436 60.8224 90.7888 60.3019 88.451 58.5582C86.4076 57.0335 84.9863 54.8078 83.9488 52.512C82.6081 49.5468 81.8598 46.3256 81.3586 43.1221C81.2815 42.6314 80.5349 42.8399 80.612 43.3271L80.6103 43.3289Z" fill="#7366AE"/>
<path d="M91.6539 49.3398C91.3629 49.2977 91.0703 49.2557 90.7794 49.2154C90.6409 49.1961 90.5024 49.1768 90.364 49.1558C90.2834 49.1435 90.1239 49.1488 90.0538 49.0997C90.0468 49.0944 90.0468 49.0997 90.0451 49.0997C90.0416 49.0646 90.0573 49.0156 90.0626 48.9893C90.0871 48.8754 90.1221 48.7632 90.1467 48.6493C90.2045 48.3864 90.2431 48.12 90.2676 47.8519C90.364 46.8057 90.159 45.7612 89.7296 44.8078C89.6437 44.6168 89.3668 44.5712 89.2003 44.6693C89.0041 44.7832 88.9743 45.0076 89.0619 45.1986C89.5105 46.1923 89.6367 47.3349 89.4089 48.4022C89.3037 48.8929 89.1075 49.4905 89.677 49.7779C89.9206 49.9023 90.2151 49.9111 90.4814 49.9497C90.8039 49.9952 91.1264 50.0425 91.4488 50.0881C91.6556 50.1179 91.8642 50.0373 91.9255 49.8182C91.9746 49.636 91.8642 49.3713 91.6556 49.3415L91.6539 49.3398Z" fill="#7366AE"/>
<path d="M95.965 47.7096C96.3032 47.608 96.503 47.282 96.4802 46.9403C96.4644 46.7054 96.4259 46.4636 96.3523 46.241C96.2559 45.9483 96.0508 45.5733 95.6845 45.6013C95.6688 45.6013 95.653 45.6101 95.6372 45.6136C95.6179 45.6136 95.6004 45.6136 95.5811 45.6153C95.2955 45.6609 95.1448 45.9361 95.0852 46.1902C95.0326 46.411 95.0098 46.6441 95.0326 46.8702C95.0589 47.1067 95.0992 47.3293 95.2604 47.5151C95.4287 47.7096 95.7179 47.785 95.9632 47.7096H95.965ZM95.5881 46.397C95.5881 46.397 95.5881 46.4005 95.5899 46.4022C95.5899 46.4022 95.5899 46.4057 95.5899 46.4075C95.5899 46.404 95.5864 46.397 95.5846 46.3917C95.5846 46.3935 95.5864 46.3952 95.5881 46.3987V46.397ZM95.8405 47.0086C95.8405 47.0086 95.8405 47.0086 95.8387 46.9998C95.8387 46.9981 95.8388 46.9963 95.837 46.9928C95.837 46.9928 95.837 46.9911 95.837 46.9893C95.837 46.9841 95.837 46.9806 95.8335 46.9753C95.8335 46.9788 95.837 46.9858 95.8387 46.9911C95.8475 46.9981 95.8493 46.9998 95.8387 46.9946C95.8422 47.0051 95.844 47.0139 95.8493 47.0314C95.8475 47.0244 95.8458 47.0174 95.8422 47.0104L95.8405 47.0086Z" fill="#7366AE"/>
<path d="M95.8346 46.9893C95.8346 46.9893 95.8346 46.9893 95.8336 46.9893C95.8336 46.9893 95.8336 46.9903 95.8336 46.9913C95.8336 46.9913 95.8336 46.9903 95.8336 46.9893H95.8346Z" fill="#7366AE"/>
<path d="M86.4398 47.6559C86.3802 47.4964 86.3066 47.3229 86.1787 47.2037C86.0034 47.0425 85.7458 46.9969 85.5408 47.1319C85.3673 47.244 85.2691 47.4438 85.2375 47.6436C85.2323 47.6734 85.2306 47.7032 85.2288 47.733C85.1938 48.0397 85.2043 48.3569 85.3147 48.646C85.3848 48.8301 85.4899 49.0123 85.6739 49.1052C85.9 49.2174 86.1804 49.2104 86.3697 49.0281C86.6308 48.7775 86.58 48.3586 86.5344 48.0327C86.5169 47.9047 86.4871 47.7768 86.4415 47.6559H86.4398Z" fill="#7366AE"/>
<path d="M86.8244 43.3323C86.7964 43.2657 86.7438 43.2061 86.6632 43.164C86.1287 42.8941 85.5048 42.7995 84.9124 42.8451C84.2955 42.8941 83.6646 43.0817 83.2143 43.525C82.9864 43.7511 83.1459 44.2068 83.4876 44.1857C84.5128 44.1227 85.5381 44.0595 86.5633 43.9965C86.7718 43.9842 86.9506 43.8282 86.9506 43.6092C86.9506 43.5005 86.9015 43.4024 86.8262 43.3305L86.8244 43.3323Z" fill="#7366AE"/>
<path d="M97.5636 41.4813C97.0291 40.9923 96.0828 41.2132 95.4641 41.3779C95.0821 41.4796 94.7053 41.6162 94.3478 41.7862C94.0622 41.9229 93.7852 42.0894 93.5942 42.347C93.4277 42.5731 93.6485 42.9604 93.9289 42.9289C94.4635 42.8693 94.9962 42.7974 95.5272 42.7151C96.1336 42.6204 96.8013 42.5486 97.3639 42.2874C97.6671 42.1472 97.8738 41.7389 97.5636 41.4795V41.4813ZM96.8118 41.979C96.8206 41.979 96.8311 41.979 96.8399 41.9808C96.8241 41.9808 96.8136 41.979 96.8118 41.979Z" fill="#7366AE"/>
<path d="M96.0561 51.2955C95.9825 51.3376 95.9106 51.3779 95.8352 51.4165C95.5846 51.5426 95.3287 51.6548 95.0729 51.7652C94.7644 51.8984 94.5191 52.0001 94.1879 52.1385C93.8934 52.2594 93.6008 52.3804 93.3063 52.503C93.0838 52.5959 92.856 52.6871 92.6387 52.7922C92.5423 52.8378 92.4494 52.8921 92.3705 52.9657C92.1006 53.2181 92.2058 53.558 92.3565 53.8384C92.8332 54.7287 93.8672 55.2352 94.8626 55.116C95.9018 54.9916 96.715 54.2117 96.8604 53.169C96.8622 53.1514 96.8604 53.1357 96.8604 53.1182C96.8639 53.1006 96.871 53.0849 96.8745 53.0656C96.9411 52.5083 96.899 51.9492 96.7658 51.4042C96.6852 51.0712 96.212 51.0607 96.0561 51.2973V51.2955ZM96.1139 51.2623C96.1244 51.2553 96.1279 51.2535 96.1139 51.2623V51.2623ZM96.0929 51.2745C96.0929 51.2745 96.0911 51.2745 96.0893 51.2763C96.1016 51.2623 96.1034 51.2623 96.0929 51.2745ZM92.9243 53.5142C92.9243 53.5142 92.9243 53.5195 92.9225 53.523C92.9225 53.523 92.8069 53.5843 92.9243 53.5142ZM94.81 54.3467C94.4665 54.3922 94.0599 54.3256 93.7427 54.1574C93.564 54.061 93.408 53.9418 93.2713 53.7929C93.2065 53.7228 93.0838 53.5878 93.0189 53.4669C93.0452 53.4546 93.0733 53.4406 93.0996 53.4284C93.2065 53.3793 93.3151 53.3337 93.4238 53.2864C93.4325 53.2829 93.443 53.2776 93.4518 53.2741C93.4886 53.2584 93.5236 53.2443 93.5604 53.2286C93.6428 53.1935 93.727 53.1602 93.8093 53.1252C93.9723 53.0568 94.1371 52.9902 94.3 52.9219C94.9047 52.6713 95.518 52.4294 96.1068 52.1403C96.1366 52.4259 96.1349 52.7133 96.1051 53.0042C95.9912 53.7088 95.532 54.2503 94.81 54.3449V54.3467Z" fill="#7366AE"/>
<path d="M137.828 64.043C135.738 60.156 132.183 57.3116 129.423 53.9346C126.691 50.5908 124.471 46.8632 122.417 43.0742C120.331 39.2257 118.409 35.2913 116.26 31.4779C115.207 29.6097 114.136 27.7222 112.804 26.0346C111.463 24.3364 109.783 22.9607 107.871 21.9512C104.913 20.3862 101.448 19.836 98.1286 20.041C94.7568 20.2495 91.3201 21.238 88.5704 23.2533C87.922 23.7283 87.3087 24.254 86.7584 24.8411C86.3816 25.2425 86.0538 25.6368 85.5877 25.9382C85.1268 26.2361 84.6571 26.52 84.1909 26.8127C82.4594 27.9028 81.0154 29.2434 79.8955 30.9661C77.7294 34.2977 77.1756 38.6018 78.6267 42.3277C78.9754 43.2232 79.4276 44.0644 79.9884 44.8443C80.1269 45.037 80.4125 45.1194 80.5965 44.9231C81.0399 44.4447 81.2467 43.8278 81.443 43.218C81.6936 42.4363 82.0301 41.716 82.4314 40.9993C83.2832 39.4763 84.3154 38.048 85.4931 36.7582C86.0521 36.1466 86.6427 35.5647 87.2648 35.0179C87.9203 34.4414 88.616 33.8175 89.3942 33.4126C90.1022 33.0464 90.6156 33.1761 91.1957 33.658C91.6882 34.0681 92.1088 34.5658 92.5189 35.0565C94.5553 37.503 97.0105 39.6656 99.5377 41.6004C100.929 42.6659 102.443 43.6053 104.14 44.0942C104.934 44.3238 105.768 44.4535 106.597 44.443C106.944 44.4394 107.461 44.4605 107.788 44.3185C107.953 44.2467 108.092 44.0889 108.234 43.9803C108.893 43.4791 109.874 43.1478 110.659 43.5649C111.4 43.9593 111.577 44.839 111.479 45.6084C111.255 47.3679 109.772 48.7822 108.211 49.4551C108.086 49.5095 108.023 49.6654 108.02 49.7899C107.979 50.936 107.75 51.9402 107.135 52.9163C106.392 54.0958 105.537 55.2314 104.574 56.2408C104.375 56.4494 104.476 56.721 104.662 56.842C104.604 56.9226 104.578 57.0277 104.608 57.1522C105.153 59.3516 105.167 61.77 106.301 63.7854C106.818 64.7037 107.603 65.6168 108.53 66.1373C109.473 66.6683 110.614 66.7664 111.674 66.8383C112.836 66.9171 113.954 66.9925 115.1 67.2046C116.33 67.4324 117.582 67.492 118.824 67.6164C120.168 67.7513 121.556 67.9634 122.758 68.6153C123.934 69.2532 124.833 70.2679 125.522 71.3983C126.314 72.6969 126.865 74.1287 127.361 75.5623C127.944 77.2464 128.419 78.9639 128.82 80.7006C128.859 80.8654 129.029 80.9846 129.194 80.9846C131.027 80.9898 132.802 80.4045 134.18 79.1777C135.66 77.8598 136.992 76.2826 137.928 74.5283C138.757 72.9738 139.264 71.2476 139.274 69.4776C139.286 67.5726 138.724 65.7149 137.827 64.0465L137.828 64.043Z" fill="#7366AE"/>
<path d="M92.2367 60.2847C92.2244 60.2812 92.2139 60.2777 92.2016 60.2759C92.2016 60.2759 92.2016 60.2759 92.1999 60.2759C89.1242 59.5661 86.8267 57.4929 85.1881 54.8624C84.9252 54.44 84.254 54.8291 84.5186 55.2532C84.5361 55.2812 84.5554 55.3075 84.573 55.3356C84.5362 55.4057 84.5134 55.4845 84.5256 55.5774C84.8586 58.0292 84.0174 60.5423 83.397 62.8819C82.7924 65.1584 82.1545 67.5628 82.5768 69.9287C82.6171 70.1566 82.9554 70.3038 83.1464 70.1601C84.5431 69.1086 86.1677 68.4391 87.8466 67.9887C88.7404 67.7504 89.6482 67.5628 90.556 67.3858C91.0695 67.2842 91.4603 67.2281 91.767 66.7742C92.3418 65.9207 92.3979 64.68 92.4662 63.688C92.5328 62.7154 92.5469 61.7322 92.4908 60.7596C92.5504 60.5721 92.4838 60.3495 92.2367 60.2847Z" fill="#7366AE"/>
<path d="M142.606 124.737C141.993 124.585 141.367 124.611 140.742 124.611H18.208C16.3573 124.611 14.5067 124.606 12.656 124.611C10.3532 124.618 8.35713 126.225 8.23446 128.614C8.10477 131.129 10.2078 132.986 12.6175 132.997C14.4191 133.004 16.2224 132.997 18.0257 132.997H141.579C143.726 132.944 145.552 131.351 145.754 129.182C145.941 127.161 144.578 125.23 142.606 124.737Z" fill="#7366AE"/>
<path d="M47.5694 68.8851C36.2937 68.8851 27.1211 59.7124 27.1211 48.4368C27.1211 37.1611 36.2937 27.9885 47.5694 27.9885C58.845 27.9885 68.0177 37.1611 68.0177 48.4368C68.0177 59.7124 58.845 68.8851 47.5694 68.8851ZM47.5694 33.1514C39.1416 33.1514 32.284 40.0089 32.284 48.4368C32.284 56.8646 39.1416 63.7222 47.5694 63.7222C55.9972 63.7222 62.8548 56.8646 62.8548 48.4368C62.8548 40.0089 55.9972 33.1514 47.5694 33.1514Z" fill="#F4F2FF"/>
<path d="M47.5692 68.8852C42.2222 68.8852 37.1645 66.8348 33.3282 63.1125L36.9244 59.4077C39.7915 62.1907 43.5717 63.7223 47.5692 63.7223C55.997 63.7223 62.8545 56.8648 62.8545 48.437C62.8545 40.0091 55.997 33.1515 47.5692 33.1515V27.9886C58.8448 27.9886 68.0175 37.1613 68.0175 48.437C68.0175 59.7126 58.8448 68.8852 47.5692 68.8852Z" fill="#95BF70"/>
<path d="M68.0192 48.437H62.8563C62.8563 40.0091 55.9987 33.1515 47.5709 33.1515V27.9886C58.8466 27.9886 68.0192 37.1613 68.0192 48.437Z" fill="#BBE992"/>
</svg>
