<svg width="154" height="153" viewBox="0 0 154 153" fill="none" xmlns="http://www.w3.org/2000/svg">
<path d="M86.3045 30.1297C86.3275 29.2694 85.9972 28.2669 85.1699 27.872C84.469 27.5373 83.2827 27.4885 82.7398 28.1434H83.0443C81.6597 27.0188 80.7721 25.4505 79.7352 24.0286C79.537 23.7571 79.3215 23.5015 78.9567 23.6422C78.7743 23.7126 78.6221 23.8562 78.467 23.9697C78.2659 24.1176 78.0634 24.2613 77.8594 24.4034C77.0695 24.9492 76.248 25.449 75.4006 25.8986C74.5532 26.3481 73.6814 26.7503 72.7866 27.0978C72.3342 27.2745 71.8804 27.3951 71.4107 27.5143C71.1895 27.5704 70.9698 27.6321 70.7572 27.7169C70.6768 27.7485 70.5834 27.8116 70.5001 27.8274C70.3608 27.8547 70.2847 27.7844 70.1741 27.7039C69.2218 27.0074 67.6607 27.2932 67.1982 28.4378C66.8808 29.2235 67.1163 30.236 67.6449 30.8766C68.0743 31.3965 68.7264 31.6292 69.377 31.7067C69.308 31.6536 69.2376 31.6019 69.1687 31.5487C69.5953 34.5534 71.8042 37.3052 74.8132 38.009C77.2203 38.572 79.8271 37.7806 81.5463 36.0097C82.5674 34.957 83.2252 33.604 83.4593 32.1592C83.3703 32.2094 83.2827 32.2597 83.1937 32.31C83.9879 32.432 84.8094 32.3416 85.4529 31.8231C85.9699 31.4066 86.2643 30.7904 86.3031 30.1312C86.3189 29.854 85.888 29.8554 85.8722 30.1312C85.8421 30.6497 85.6022 31.1409 85.2015 31.4741C84.6744 31.9121 83.9678 31.9954 83.3085 31.8934C83.2037 31.8776 83.0629 31.9193 83.0428 32.0443C82.655 34.437 81.045 36.4736 78.7614 37.3267C76.495 38.1727 73.9327 37.7346 72.1072 36.1361C70.7299 34.9297 69.8409 33.2435 69.5838 31.4338C69.5694 31.3333 69.4617 31.2859 69.3755 31.2759C68.8542 31.2141 68.3242 31.0173 67.9766 30.6066C67.5142 30.0608 67.2973 29.0913 67.6693 28.445C67.9508 27.9553 68.5296 27.7298 69.0754 27.7599C69.3339 27.7743 69.5881 27.849 69.8093 27.9811C70.0793 28.142 70.2387 28.3761 70.5777 28.2626C70.796 28.1894 70.9985 28.0788 71.2211 28.0127C71.4193 27.9538 71.6218 27.9079 71.8229 27.859C72.2437 27.7556 72.643 27.6178 73.0465 27.4583C73.8236 27.151 74.5877 26.8048 75.3302 26.4214C76.0886 26.0307 76.8268 25.6013 77.542 25.1345C77.8695 24.9205 78.1912 24.6993 78.5086 24.4695C78.668 24.3546 78.8346 24.1837 79.0113 24.099C79.2454 23.9884 79.3187 24.188 79.445 24.3647C80.4648 25.7822 81.3624 27.3334 82.7354 28.4493C82.8187 28.5168 82.9609 28.547 83.0399 28.4493C83.4708 27.928 84.4862 27.9912 85.0291 28.287C85.6683 28.6361 85.8866 29.4518 85.8679 30.1312C85.8607 30.4084 86.2916 30.4084 86.2988 30.1312L86.3045 30.1297Z" fill="#7366AE"/>
<path d="M76.5547 32.1891C76.8204 32.2724 76.9339 31.8559 76.6696 31.7726C76.5289 31.7281 76.3881 31.6836 76.2474 31.6405C76.1727 31.6175 76.098 31.5931 76.0233 31.5701C75.9874 31.5586 75.9342 31.55 75.9012 31.527C75.9012 31.527 75.9012 31.527 75.9027 31.527C75.9113 31.5084 75.9156 31.4883 75.9242 31.4696C75.9472 31.4121 75.973 31.3576 75.996 31.3001C76.0477 31.1708 76.0908 31.0401 76.1239 30.9051C76.2531 30.3823 76.2445 29.8337 76.1051 29.3123C76.0333 29.0452 75.6168 29.1587 75.6886 29.4272C75.8409 29.996 75.8078 30.592 75.5967 31.1421C75.5479 31.2714 75.4718 31.3949 75.4675 31.5357C75.4632 31.6807 75.5392 31.81 75.6599 31.8875C75.7777 31.9622 75.9256 31.9924 76.0577 32.034C76.2229 32.0857 76.3896 32.1374 76.5547 32.1906V32.1891Z" fill="#7366AE"/>
<path d="M74.3269 28.8614C74.3111 28.8241 74.2824 28.7925 74.2378 28.7695C73.9578 28.6245 73.6289 28.5713 73.3173 28.5929C72.9898 28.6158 72.658 28.7121 72.4167 28.9447C72.286 29.0711 72.3808 29.3225 72.569 29.3124C73.1047 29.2851 73.6418 29.2578 74.1775 29.2306C74.2939 29.2248 74.393 29.1358 74.393 29.0151C74.393 28.9548 74.3672 28.9017 74.3255 28.8614H74.3269Z" fill="#7366AE"/>
<path d="M79.9653 28.6593C79.8648 28.5315 79.6852 28.4812 79.5316 28.4583C79.3262 28.4267 79.1193 28.4295 78.9139 28.4497C78.7057 28.4712 78.496 28.5042 78.2949 28.5645C78.1427 28.6105 77.9761 28.668 77.8597 28.7829C77.7204 28.9193 77.831 29.1419 78.012 29.1505C78.2791 29.1649 78.5463 29.1721 78.812 29.1735C78.9944 29.1735 79.1768 29.1735 79.3592 29.1649C79.5042 29.1577 79.6579 29.152 79.7972 29.1103C80.0055 29.0486 80.1218 28.8432 79.9638 28.6593H79.9653ZM78.1642 29.0859C78.1614 29.0859 78.1614 29.0873 78.1585 29.0888C78.1599 29.0888 78.1628 29.0859 78.1642 29.0845V29.0859ZM78.17 29.083C78.1844 29.0715 78.1973 29.0687 78.17 29.083V29.083Z" fill="#7366AE"/>
<path d="M73.4313 30.8741C73.4313 30.8741 73.4277 30.8777 73.4277 30.8795C73.4277 30.8795 73.4277 30.8795 73.4295 30.8795C73.4295 30.8795 73.4295 30.8777 73.4313 30.8759V30.8741Z" fill="#7366AE"/>
<path d="M73.7945 30.1656C73.74 30.1182 73.6782 30.0895 73.6064 30.0852C73.5432 30.0823 73.4843 30.1038 73.4297 30.1326C73.276 30.2216 73.1913 30.3825 73.1683 30.5548C73.1497 30.6927 73.1611 30.8392 73.2114 30.9699C73.2674 31.1135 73.3694 31.2715 73.5461 31.2643C73.6667 31.26 73.7443 31.1839 73.806 31.0891C73.8678 30.9957 73.9152 30.8866 73.9382 30.7774C73.9654 30.6467 73.9698 30.5031 73.9224 30.3767C73.8936 30.3006 73.8563 30.2202 73.7945 30.1656ZM73.4111 30.9024C73.4182 30.8909 73.4225 30.8837 73.4268 30.878C73.4182 30.8851 73.411 30.888 73.4297 30.8737C73.4297 30.8737 73.4312 30.8708 73.4326 30.8693C73.4326 30.8693 73.4326 30.8722 73.4312 30.8722C73.4312 30.8722 73.434 30.8708 73.4355 30.8693C73.4355 30.8708 73.4326 30.8722 73.4312 30.8751C73.4312 30.8751 73.4312 30.8751 73.4297 30.8765C73.424 30.8851 73.4168 30.8938 73.4125 30.9024H73.4111Z" fill="#7366AE"/>
<path d="M78.6108 30.6927C78.6108 30.6927 78.6072 30.6963 78.6072 30.6981C78.6072 30.6981 78.6072 30.6981 78.609 30.6981C78.609 30.6981 78.609 30.6963 78.6108 30.6945V30.6927Z" fill="#7366AE"/>
<path d="M78.972 29.9843C78.9174 29.9369 78.8557 29.9081 78.7839 29.9038C78.7207 29.9009 78.6618 29.9225 78.6072 29.9512C78.4535 30.0403 78.3688 30.2011 78.3458 30.3735C78.3272 30.5114 78.3386 30.6578 78.3889 30.7885C78.4449 30.9322 78.5469 31.0902 78.7236 31.083C78.8442 31.0787 78.9218 31.0025 78.9835 30.9078C79.0453 30.8144 79.0927 30.7052 79.1156 30.5961C79.1429 30.4654 79.1473 30.3218 79.0999 30.1954C79.0711 30.1193 79.0338 30.0388 78.972 29.9843ZM78.59 30.7225C78.5972 30.711 78.6015 30.7038 78.6058 30.6981C78.5972 30.7052 78.59 30.7081 78.6087 30.6938C78.6087 30.6938 78.6101 30.6909 78.6116 30.6894C78.6116 30.6894 78.6115 30.6923 78.6101 30.6923C78.6101 30.6923 78.613 30.6909 78.6144 30.6894C78.6144 30.6909 78.6115 30.6923 78.6101 30.6952C78.6101 30.6952 78.6101 30.6952 78.6087 30.6966C78.6029 30.7052 78.5957 30.7139 78.5914 30.7225H78.59Z" fill="#7366AE"/>
<path d="M77.8844 32.861C77.5153 32.93 77.1462 32.9917 76.7785 33.0678C76.5975 33.1052 76.418 33.1454 76.2399 33.1913C76.056 33.2387 75.822 33.2746 75.7502 33.4772C75.6899 33.6452 75.7674 33.8132 75.8378 33.964C75.9024 34.1048 75.9857 34.2341 76.0862 34.3518C76.2931 34.5946 76.6105 34.764 76.9351 34.7238C77.2913 34.6793 77.5598 34.4251 77.7494 34.1364C77.9447 33.829 78.0812 33.4843 78.1487 33.1253C78.1803 32.9572 78.0525 32.828 77.883 32.8596L77.8844 32.861ZM76.7986 34.2987C76.5257 34.2714 76.3361 34.0043 76.2241 33.7745C76.2169 33.7615 76.1968 33.6983 76.1796 33.6553C76.2198 33.6438 76.2601 33.6323 76.3003 33.6222C76.4841 33.5734 76.6693 33.5303 76.856 33.4915C77.1189 33.4369 77.3832 33.3895 77.6474 33.3422C77.5814 33.5447 77.4938 33.7371 77.3789 33.921C77.2482 34.1192 77.0413 34.326 76.7986 34.3001V34.2987Z" fill="#7366AE"/>
<path d="M96.6675 55.8561C96.3401 55.0202 95.9437 54.2102 95.6924 53.3456C95.4109 52.3775 95.3807 51.3535 95.3664 50.351C95.3506 49.3025 95.4051 48.2541 95.5028 47.2099C95.5975 46.2017 95.7541 45.2006 95.846 44.191C96.0069 42.4172 95.981 40.5515 95.2816 38.8855C94.5548 37.1562 93.1014 36.0489 91.7082 34.8755C91.0159 34.2924 90.3653 33.6834 89.8899 32.9035C89.4432 32.1682 89.156 31.3538 88.9435 30.5237C88.7237 29.6677 88.5873 28.7944 88.4077 27.9284C88.2225 27.0394 87.9668 26.1647 87.6307 25.3216C86.9643 23.6527 85.9891 22.024 84.7123 20.7486C83.5863 19.624 82.0667 18.7149 80.4251 18.7867C80.079 18.8011 79.7386 18.8643 79.4082 18.9619C78.0811 17.6506 76.2858 17.1077 74.4374 17.293C72.7182 17.4639 71.0034 18.126 69.6073 19.1415C66.5769 21.3447 65.0142 25.0559 64.3751 28.6436C64.1855 29.7108 64.1266 30.8138 63.7561 31.8407C63.4444 32.7068 62.8685 33.4148 62.2107 34.0425C61.0473 35.1541 59.5881 36.0446 58.7364 37.4449C58.2869 38.1832 58.0915 39.0305 58.1877 39.8909C58.307 40.9537 58.7752 41.926 59.0768 42.9429C59.4014 44.0402 59.3841 45.103 58.9992 46.183C58.6215 47.2458 57.9968 48.2038 57.4022 49.1532C56.1871 51.0907 55.1013 53.166 54.8485 55.4741C54.6388 57.3843 55.1042 59.4266 56.358 60.9146C56.5074 61.0927 56.6682 61.2607 56.8406 61.4172C56.9267 61.4962 57.0158 61.5709 57.1077 61.6442C57.1551 61.6815 57.3232 61.7864 57.3275 61.7935C57.3907 61.8783 57.5213 61.9472 57.6219 61.8711C58.261 61.3928 58.9159 60.9375 59.5881 60.5038C59.6972 60.4334 59.7404 60.2611 59.6312 60.1648C58.5368 59.2026 58.5124 57.739 58.8212 56.4148C59.1414 55.0446 59.6972 53.7132 60.2129 52.4063C61.3245 49.5884 62.6028 46.8394 63.9356 44.1206C64.6623 42.6369 65.4063 41.1634 66.1503 39.6883C66.4562 39.8162 66.7607 39.9469 67.0623 40.0847C67.1714 40.135 67.2907 40.1135 67.3568 40.0072C67.7173 39.4384 67.993 38.7893 68.1984 38.1487C68.3951 37.534 68.3262 37.027 68.1366 36.4309C67.97 35.9053 67.7819 35.3825 67.5693 34.8726C67.4142 34.5021 67.226 34.1114 67.2533 33.6978C67.2849 33.2224 67.6397 32.836 68.1323 33.0141C68.5962 33.1822 68.9423 33.6044 69.2468 33.9721C69.6001 34.3987 69.9434 34.8353 70.2781 35.2762C70.2895 35.2906 70.3024 35.2978 70.3154 35.3092C70.6787 35.7933 71.0335 36.283 71.3754 36.7828C71.5664 37.0629 71.7545 37.3401 71.7416 37.6948C71.7301 38.0237 71.6037 38.3426 71.4787 38.6428C71.0795 39.5993 70.5366 40.4955 70.054 41.4118C69.9247 41.6574 70.2967 41.8757 70.426 41.6301L70.4547 41.6459C70.38 41.7896 70.495 42.0151 70.6989 41.9619C71.2274 41.824 71.7674 41.7379 72.3046 41.6388C72.7297 41.5598 73.1606 41.4219 73.5914 41.4161C73.7092 41.4161 73.8054 41.3185 73.8069 41.2007C73.8155 40.3289 73.8528 39.4585 73.9232 38.5896C73.9405 38.3771 73.9591 38.1659 73.9807 37.9534C73.9965 37.7882 74.0784 37.5354 73.9994 37.3817C73.9075 37.2022 73.6231 37.1031 73.4622 37.0212C72.7484 36.6564 72.1093 36.1624 71.5635 35.5778C71.4199 35.4241 71.282 35.2647 71.1513 35.101C71.0608 34.9875 71.0177 34.897 70.8698 34.8712C70.8511 34.8683 70.831 34.8669 70.8123 34.8654C70.8525 34.8066 70.864 34.7304 70.8123 34.6514C70.1689 33.6748 69.751 32.5847 69.5858 31.4271C69.5714 31.3265 69.4637 31.2791 69.3775 31.2691C68.8562 31.2073 68.3262 31.0106 67.9786 30.5998C67.5161 30.054 67.2993 29.0846 67.6713 28.4383C67.9528 27.9485 68.5316 27.723 69.0774 27.7532C69.3359 27.7675 69.5901 27.8422 69.8113 27.9744C70.0813 28.1352 70.2407 28.3693 70.5797 28.2559C70.798 28.1826 71.0005 28.072 71.2231 28.006C71.4213 27.9471 71.6238 27.9011 71.8249 27.8523C72.2457 27.7489 72.645 27.611 73.0486 27.4516C73.8256 27.1442 74.5896 26.7981 75.3322 26.4146C76.0905 26.0239 76.8287 25.5945 77.544 25.1277C77.8714 24.9137 78.1932 24.6925 78.5106 24.4627C78.67 24.3478 78.8366 24.1769 79.0133 24.0922C79.2474 23.9816 79.3206 24.1812 79.447 24.3579C80.4667 25.7755 81.3644 27.3266 82.7375 28.4426C82.8208 28.5101 82.963 28.5402 83.042 28.4426C83.4728 27.9212 84.4882 27.9844 85.0311 28.2803C85.663 28.625 85.9001 29.4494 85.8699 30.1244C85.8469 30.63 85.607 31.114 85.225 31.4458C84.6979 31.9025 83.9755 31.9915 83.3062 31.8881C83.2014 31.8723 83.062 31.914 83.0405 32.0389C82.9112 32.826 82.6685 33.5858 82.2836 34.2852C82.1988 34.4374 82.1098 34.5882 82.0136 34.7333C81.9446 34.8382 81.824 34.9574 81.7866 35.0838C81.7694 35.0952 81.7522 35.1067 81.7364 35.1268C81.0642 35.9814 80.2169 36.655 79.2359 37.1218C79.1684 37.1534 79.1296 37.2367 79.1296 37.3085C79.1296 37.9993 79.1799 38.693 79.2675 39.3781C79.3163 39.7587 79.3752 40.1364 79.447 40.5142C79.4829 40.7023 79.5217 40.8905 79.5648 41.0772C79.5993 41.2266 79.6093 41.4434 79.7127 41.5641C79.852 41.7278 80.0072 41.7493 80.2111 41.7508C80.5644 41.7537 80.9163 41.7537 81.2696 41.7522C81.7723 41.7522 82.3324 41.8255 82.8179 41.6818C82.9543 41.6416 83.0146 41.488 82.9471 41.3644C82.4689 40.4912 81.9475 39.6381 81.531 38.7318C81.2739 38.1731 81.0484 37.59 81.3859 37.0155C81.6602 36.5502 81.9791 36.1049 82.298 35.6654C82.3008 35.6626 82.3037 35.6597 82.3066 35.6568C82.3324 35.6195 82.3597 35.5807 82.387 35.5434C82.4244 35.4916 82.4631 35.4385 82.5005 35.3868C82.5034 35.3839 82.5033 35.3811 82.5048 35.3767C82.9945 34.6816 83.4958 33.9649 84.0933 33.3674C84.3848 33.0759 84.9263 32.6335 85.3327 32.9538C85.7248 33.2626 85.6702 33.8127 85.5367 34.2349C85.3542 34.808 85.1029 35.3595 84.9162 35.9326C84.7396 36.474 84.5471 37.0126 84.6448 37.5871C84.7281 38.0826 84.9636 38.5437 85.1618 39.0004C85.2968 39.3106 85.4448 39.5936 85.6301 39.8779C85.6976 39.9813 85.8153 40.0086 85.9245 39.9555C86.2246 39.8119 86.5291 39.6769 86.8336 39.5433C88.1837 42.1156 89.5323 44.6908 90.789 47.3105C91.4267 48.6404 92.0414 49.9819 92.6216 51.3377C93.2019 52.6964 93.7836 54.0723 94.2303 55.4813C94.6827 56.9089 94.9455 58.6266 93.7879 59.8C93.6888 59.9006 93.7132 60.0657 93.8309 60.139C94.2589 60.399 94.6798 60.669 95.0934 60.9505C95.2859 61.0812 95.4783 61.2162 95.6679 61.3512C95.823 61.4618 95.9049 61.5092 96.0787 61.4287C96.5153 61.2277 96.7064 60.5498 96.8414 60.1361C97.0468 59.5056 97.1947 58.832 97.2133 58.167C97.2349 57.3771 96.949 56.5786 96.6646 55.8532L96.6675 55.8561Z" fill="#7366AE"/>
<path d="M94.1837 54.0709C93.5877 52.4968 92.9342 50.9442 92.2419 49.4103C90.6693 45.9274 88.8926 42.5407 87.1174 39.1584C87.0585 39.0464 86.925 39.0363 86.823 39.0808C86.5128 39.2144 86.2082 39.3551 85.9037 39.4988C85.6294 39.0478 85.414 38.5609 85.2288 38.0668C85.1124 37.7566 85.0076 37.4133 85.0492 37.0773C85.0751 36.8705 85.144 36.6636 85.2029 36.4654C85.3465 35.9829 85.5117 35.5046 85.6912 35.0335C85.8994 34.4877 86.168 33.9348 86.0373 33.3344C85.9153 32.78 85.424 32.319 84.8323 32.4325C84.1429 32.5646 83.6517 33.1865 83.2409 33.705C82.7368 34.3398 82.2514 34.989 81.7861 35.654C81.3868 36.2241 80.7663 36.8906 80.7678 37.6273C80.7678 38.3297 81.1857 39.0392 81.5046 39.6467C81.8004 40.2111 82.1179 40.7627 82.4281 41.3199C81.641 41.3199 80.8554 41.3271 80.0683 41.3199C79.7552 40.046 79.5858 38.7447 79.5642 37.4335C79.5599 37.1563 79.1276 37.1548 79.1334 37.4335C79.1563 38.7864 79.3315 40.1336 79.6561 41.4478C78.9638 43.2948 78.003 45.0197 77.157 46.7963C75.9449 44.9852 74.8131 43.1282 73.8207 41.1849C73.8336 39.9627 73.9068 38.7419 74.0418 37.5282C74.072 37.2525 73.6411 37.2554 73.611 37.5282C73.4817 38.693 73.4114 39.8621 73.3941 41.0341C73.3611 41.0241 73.3237 41.0212 73.2821 41.0312C72.4261 41.2596 71.5385 41.3443 70.6811 41.5627C70.6351 41.5339 70.5877 41.5081 70.5417 41.4808C70.8132 40.9724 71.0918 40.4682 71.356 39.9569C71.6519 39.3853 71.9852 38.7807 72.1317 38.1487C72.2021 37.8413 72.2164 37.5211 72.1101 37.2209C71.9779 36.8417 71.6994 36.5071 71.471 36.1825C71.0157 35.5347 70.5403 34.9014 70.0477 34.2809C69.6168 33.7366 69.1802 33.1075 68.5684 32.7527C68.0097 32.4282 67.369 32.4684 67.0143 33.0558C66.6423 33.6734 66.8951 34.3757 67.1508 34.9804C67.326 35.394 67.4782 35.8162 67.6218 36.2414C67.8128 36.8015 67.9895 37.297 67.8301 37.8902C67.6678 38.4891 67.4021 39.0952 67.0804 39.6338C66.7586 39.4858 66.4369 39.3408 66.108 39.2058C66.0247 39.1713 65.9041 39.2273 65.8639 39.3049C64.3099 42.3827 62.7559 45.462 61.3512 48.6103C60.6604 50.1571 60.0069 51.7212 59.4066 53.3068C58.8694 54.7287 58.226 56.2339 58.2102 57.7793C58.1972 59.1107 58.8191 60.3444 60.0399 60.9433C61.2133 61.5192 62.5605 61.4302 63.7067 60.837C66.493 59.395 67.382 55.9567 68.2237 53.1933C69.3439 49.5137 70.2157 45.7608 70.8419 41.9662C71.685 41.7565 72.5539 41.6689 73.3927 41.4463C73.4171 41.4391 73.4358 41.4276 73.4544 41.4162C74.4929 43.447 75.6806 45.3845 76.956 47.2731C76.8684 49.8397 76.7808 52.4063 76.6917 54.9728C76.6817 55.25 77.114 55.25 77.1226 54.9728C77.2102 52.4192 77.2978 49.8656 77.3854 47.3134C78.2529 45.4549 79.2597 43.661 79.9994 41.7451C80.0066 41.7451 80.0123 41.7494 80.0209 41.7494C80.7333 41.7565 81.4456 41.7522 82.158 41.7494C82.158 41.7594 82.1551 41.7695 82.158 41.7795C82.7727 45.2035 83.59 48.5916 84.6083 51.918C85.0908 53.4935 85.5792 55.0877 86.2298 56.6044C86.8071 57.953 87.5942 59.2342 88.7806 60.1289C89.8262 60.9174 91.1446 61.3196 92.4401 61.0051C93.7098 60.6963 94.7223 59.7412 94.9794 58.4442C95.2752 56.9534 94.7065 55.4411 94.1865 54.068L94.1837 54.0709ZM67.9953 38.6873C68.2049 38.1832 68.4089 37.6345 68.3113 37.0801C68.1734 36.3031 67.8416 35.5189 67.5328 34.7951C67.3217 34.2981 66.9511 33.2526 67.7066 32.9926C68.3429 32.7729 69.0107 33.6906 69.3497 34.1042C69.8279 34.6888 70.2889 35.2863 70.7327 35.8967C70.9439 36.1868 71.1507 36.4798 71.3532 36.7757C71.5672 37.0873 71.7769 37.3889 71.751 37.7853C71.7065 38.4618 71.2857 39.1512 70.9798 39.7415C70.7141 40.2528 70.4368 40.7555 70.1654 41.2639C69.285 40.7454 68.3903 40.2571 67.4696 39.8176C67.675 39.4542 67.833 39.0765 67.9953 38.6873ZM66.8735 55.9366C66.3752 57.2938 65.7232 58.6381 64.6517 59.6378C63.6851 60.5397 62.3666 61.1243 61.0324 60.837C59.7254 60.5555 58.7803 59.5602 58.6568 58.2144C58.5204 56.738 59.1394 55.263 59.6406 53.9057C60.2022 52.3876 60.817 50.8882 61.4676 49.4045C62.9124 46.1127 64.5296 42.8998 66.1497 39.6912C67.6333 40.3117 69.0394 41.0801 70.4153 41.9102C69.8897 45.0786 69.1946 48.2182 68.3256 51.3104C67.889 52.863 67.4308 54.4213 66.8735 55.9366ZM81.3437 38.2866C81.2173 37.9361 81.134 37.5728 81.2848 37.218C81.4313 36.8719 81.6884 36.5545 81.8995 36.2457C82.3045 35.654 82.7254 35.0737 83.162 34.5035C83.567 33.975 83.9821 33.3315 84.5738 32.994C84.9156 32.7987 85.2761 32.7886 85.5002 33.1463C85.6998 33.4651 85.6568 33.8457 85.5548 34.1904C85.2991 35.045 84.9013 35.8493 84.6858 36.7225C84.5436 37.2984 84.6672 37.8342 84.8912 38.3771C85.0779 38.828 85.2675 39.2718 85.516 39.6898C84.6026 40.1436 83.7149 40.6463 82.8431 41.1792C82.316 40.237 81.7128 39.3034 81.3466 38.288L81.3437 38.2866ZM93.0893 60.307C91.9374 60.9117 90.5888 60.748 89.4958 60.0988C88.2449 59.3548 87.3989 58.1211 86.7942 56.8256C86.135 55.4138 85.6768 53.8971 85.21 52.412C84.1199 48.9435 83.2524 45.4075 82.6033 41.8312C83.9663 40.9795 85.3608 40.1925 86.8344 39.5447C88.2994 42.3353 89.7615 45.1288 91.1087 47.9798C91.811 49.4677 92.4832 50.97 93.1037 52.4953C93.6653 53.8741 94.3115 55.3017 94.5528 56.7782C94.7812 58.1757 94.4178 59.6105 93.0907 60.307H93.0893Z" fill="#7366AE"/>
<path d="M79.2136 53.0567C79.0068 52.949 78.7382 52.9375 78.54 53.0696C78.4223 53.1486 78.3433 53.2549 78.293 53.387C78.2399 53.5292 78.2471 53.6872 78.27 53.8337C78.3189 54.1367 78.5875 54.3622 78.8977 54.3407C79.0672 54.3292 79.2208 54.266 79.3472 54.1525C79.4822 54.0333 79.5512 53.8624 79.5613 53.6858C79.5728 53.4301 79.442 53.1759 79.2122 53.0553L79.2136 53.0567Z" fill="#7366AE"/>
<path d="M78.8872 50.6918C79.0567 50.6803 79.2103 50.6171 79.3367 50.5036C79.4717 50.3844 79.5406 50.2135 79.5507 50.0369C79.5622 49.7812 79.4315 49.527 79.2017 49.4064C78.9949 49.2986 78.7264 49.2872 78.5281 49.4193C78.4104 49.4983 78.3314 49.6046 78.2811 49.7367C78.2279 49.8789 78.2351 50.0369 78.2581 50.1834C78.3069 50.4864 78.5755 50.7119 78.8857 50.6904L78.8872 50.6918Z" fill="#7366AE"/>
<path d="M109.48 87.6764C109.48 75.9452 103.26 65.6674 93.9388 59.9598C93.1488 60.7325 91.9352 61.0542 90.8408 60.8488C89.4749 60.5932 88.3087 59.6424 87.4958 58.4934C87.0793 57.9031 86.7446 57.2625 86.4545 56.5976C83.4628 55.6884 80.2887 55.1987 77.0011 55.1987C73.4163 55.1987 69.9679 55.7804 66.7421 56.8532C66.4735 57.4809 66.1647 58.0884 65.7798 58.65C64.9855 59.8119 63.8323 60.7813 62.4722 61.06C61.4323 61.2725 60.279 61.0083 59.479 60.3261C50.4824 66.1012 44.522 76.1937 44.522 87.6778C44.522 99.1276 50.4464 109.191 59.3957 114.975V119.748H71.8422C73.5226 120.016 75.2446 120.157 76.9997 120.157C78.7548 120.157 80.4783 120.016 82.1572 119.748H94.6037V114.975C103.553 109.191 109.477 99.1261 109.477 87.6778L109.48 87.6764Z" fill="#F4F2FF"/>
<path d="M94.2556 119.745H59.7441C58.659 119.745 57.7793 120.625 57.7793 121.71V133.777C57.7793 134.863 58.659 135.742 59.7441 135.742H94.2556C95.3407 135.742 96.2204 134.863 96.2204 133.777V121.71C96.2204 120.625 95.3407 119.745 94.2556 119.745Z" fill="#95BF70"/>
<path d="M96.7291 85.5176C94.1079 83.2153 90.3148 82.2674 86.954 83.3244C86.0276 83.616 85.1529 84.0598 84.3587 84.6199C82.0822 82.5273 78.8679 81.611 75.7857 81.9011C73.7922 82.0878 71.8303 82.7744 70.193 83.9147C69.2839 83.2167 68.2455 82.6925 67.1266 82.4182C64.0516 81.6642 60.6291 82.7729 58.4834 85.0795C57.9606 85.6425 57.5081 86.2745 57.1591 86.9596C56.9825 87.3057 57.0686 87.7395 57.4176 87.9434C57.7379 88.1315 58.2234 88.0324 58.4015 87.6849C59.5921 85.3524 62.074 83.8056 64.6233 83.6347C66.2233 83.5284 67.7514 83.9851 69.0282 84.8555C68.4408 85.4084 67.918 86.0318 67.4814 86.7298C66.6398 88.0727 66.1715 89.72 66.3784 91.3071C66.5794 92.851 67.5733 94.4165 68.9937 95.1131C69.6989 95.4578 70.5018 95.6 71.2673 95.3731C72.0774 95.1318 72.7409 94.5444 73.1473 93.8105C73.9459 92.3656 73.9258 90.5329 73.5352 88.9689C73.1574 87.458 72.3632 86.0447 71.2875 84.9029C72.0314 84.4174 72.8386 84.0325 73.6558 83.7726C76.6087 82.8361 80.0571 83.211 82.605 85.025C82.8276 85.1829 83.0387 85.3567 83.2427 85.5363C81.9372 86.7772 80.9677 88.3728 80.5497 90.1294C80.2036 91.5814 80.2022 93.3264 81.0998 94.5946C81.5609 95.2453 82.2273 95.7566 83.0287 95.8944C83.8991 96.0452 84.8096 95.8341 85.5378 95.3329C87.0918 94.2629 87.573 92.288 87.3805 90.4942C87.1924 88.7405 86.4886 87.1276 85.4057 85.7431C85.3884 85.7201 85.3684 85.7 85.3497 85.677C85.5005 85.575 85.6556 85.4788 85.8122 85.3869C88.2696 83.9664 91.4106 84.0196 93.9484 85.3352C94.5833 85.6641 95.1779 86.0605 95.7165 86.533C96.008 86.7887 96.4461 86.8203 96.7333 86.533C96.9947 86.2716 97.0263 85.7732 96.7333 85.5162L96.7291 85.5176ZM71.2285 87.175C71.9136 88.2924 72.3215 89.5592 72.3503 90.8432C72.3661 91.5469 72.3086 92.1746 72.03 92.8381C71.8332 93.3063 71.4282 93.7932 70.9916 93.9526C70.4788 94.1408 70.0308 94.056 69.5482 93.7832C69.0527 93.5017 68.6275 93.0607 68.3202 92.5595C67.6351 91.4421 67.638 90.1782 68.0258 88.9344C68.4035 87.7251 69.1675 86.6551 70.1341 85.7833C70.5434 86.1984 70.9126 86.6623 71.2271 87.1736L71.2285 87.175ZM85.2966 88.268C85.8739 89.4831 86.1784 90.9624 85.8753 92.3067C85.726 92.9702 85.4071 93.6367 84.8815 94.0417C84.3917 94.4194 83.7655 94.6033 83.2413 94.474C82.7084 94.3433 82.3767 94.0158 82.1081 93.4844C82.019 93.3092 81.9328 93.0564 81.8696 92.7835C81.7892 92.4403 81.7706 92.2478 81.7663 91.8686C81.7548 90.5947 82.2273 89.2762 82.9282 88.1603C83.2915 87.58 83.731 87.0472 84.2294 86.5732C84.6488 87.096 85.0093 87.6662 85.2951 88.2694L85.2966 88.268Z" fill="#7366AE"/>
<path d="M63.4902 125.16H89.4043C89.7547 125.16 90.1138 125.183 90.4628 125.16C90.4786 125.16 90.4944 125.16 90.5102 125.16C90.8577 125.16 90.8577 124.621 90.5102 124.621H64.5961C64.2457 124.621 63.8866 124.598 63.5376 124.621C63.5218 124.621 63.506 124.621 63.4902 124.621C63.1426 124.621 63.1426 125.16 63.4902 125.16Z" fill="#7366AE"/>
<path d="M63.4902 130.305H89.4043C89.7547 130.305 90.1138 130.328 90.4628 130.305C90.4786 130.305 90.4944 130.305 90.5102 130.305C90.8577 130.305 90.8577 129.766 90.5102 129.766H64.5961C64.2457 129.766 63.8866 129.743 63.5376 129.766C63.5218 129.766 63.506 129.766 63.4902 129.766C63.1426 129.766 63.1426 130.305 63.4902 130.305Z" fill="#7366AE"/>
<path d="M112.629 65.9968C114.73 64.3179 116.831 62.6389 118.932 60.9599C119.231 60.7201 119.531 60.4817 119.83 60.2418C120.133 59.9991 120.083 59.4777 119.83 59.225C119.53 58.9248 119.118 58.9822 118.813 59.225C116.712 60.9039 114.611 62.5829 112.51 64.2619C112.211 64.5017 111.911 64.7401 111.612 64.98C111.309 65.2227 111.359 65.7441 111.612 65.9968C111.912 66.297 112.324 66.2396 112.629 65.9968Z" fill="#F4F2FF"/>
<path d="M106.343 61.3527C107.776 59.0763 109.21 56.8013 110.642 54.5248C110.846 54.2002 111.05 53.8756 111.254 53.5525C111.748 52.7669 110.504 52.0444 110.013 52.8272C108.579 55.1036 107.146 57.3786 105.714 59.6551C105.51 59.9797 105.306 60.3043 105.102 60.6274C104.608 61.413 105.852 62.1355 106.343 61.3527Z" fill="#F4F2FF"/>
<path d="M115.913 74.2442C118.238 73.315 120.563 72.3843 122.89 71.4551C123.214 71.3258 123.539 71.1951 123.864 71.0658C124.224 70.9222 124.477 70.5861 124.366 70.1811C124.272 69.8393 123.845 69.5334 123.482 69.6784C121.156 70.6077 118.831 71.5384 116.504 72.4676C116.18 72.5969 115.855 72.7276 115.531 72.8568C115.17 73.0005 114.917 73.3365 115.028 73.7416C115.123 74.0834 115.549 74.3879 115.913 74.2442Z" fill="#F4F2FF"/>
<path d="M42.3885 64.9807C40.2873 63.3017 38.1861 61.6227 36.0849 59.9438C35.7861 59.7039 35.4859 59.4655 35.1872 59.2257C34.8842 58.9829 34.4662 58.9298 34.1703 59.2257C33.919 59.477 33.8659 59.9984 34.1703 60.2425C36.2716 61.9215 38.3728 63.6004 40.474 65.2794C40.7728 65.5193 41.0729 65.7577 41.3717 65.9975C41.6747 66.2403 42.0927 66.2934 42.3885 65.9975C42.6399 65.7462 42.693 65.2248 42.3885 64.9807Z" fill="#F4F2FF"/>
<path d="M48.9008 60.6279C47.4675 58.3515 46.0341 56.0765 44.6022 53.8L43.9903 52.8277C43.4991 52.0464 42.2539 52.7674 42.7494 53.553C44.1828 55.8295 45.6161 58.1045 47.0481 60.3809C47.252 60.7055 47.4559 61.0301 47.6599 61.3532C48.1511 62.1346 49.3963 61.4136 48.9008 60.6279Z" fill="#F4F2FF"/>
<path d="M38.4705 72.8576C36.1452 71.9284 33.8199 70.9977 31.4932 70.0685C31.1686 69.9392 30.844 69.8085 30.5194 69.6792C30.1589 69.5356 29.7295 69.8372 29.6347 70.1819C29.5227 70.5912 29.7755 70.9216 30.1374 71.0666L37.1146 73.8558C37.4392 73.9851 37.7638 74.1158 38.0884 74.245C38.4489 74.3887 38.8784 74.0871 38.9732 73.7424C39.0852 73.333 38.8324 73.0027 38.4705 72.8576Z" fill="#F4F2FF"/>
</svg>
