<svg width="154" height="153" viewBox="0 0 154 153" fill="none" xmlns="http://www.w3.org/2000/svg">
<path d="M86.8894 110.462C87.3231 110.377 87.8516 110.064 87.7037 109.53C87.5816 109.092 86.9167 108.935 86.5418 108.823C85.3382 108.466 84.0226 108.433 82.7803 108.3C82.1656 108.234 81.5538 108.243 80.9391 108.206C80.4579 108.177 79.9796 108.132 79.4985 108.122C79.6062 107.719 79.6909 107.309 79.7469 106.893C79.7943 106.538 79.8661 106.096 79.6421 105.783C79.0978 105.02 78.3322 106.027 78.0593 106.491C77.1114 108.104 76.501 109.843 76.3115 111.707C76.277 112.039 76.7969 112.038 76.8314 111.707C76.9736 110.318 77.3628 108.977 77.9818 107.726C78.1268 107.433 78.282 107.144 78.4457 106.861C78.5663 106.652 78.835 106.053 79.1351 106.077C79.4095 106.1 79.227 106.912 79.1954 107.095C79.1265 107.506 79.0274 107.91 78.9067 108.308C78.8579 108.468 78.9915 108.639 79.1567 108.637C80.0802 108.621 81.0151 108.708 81.9372 108.75C83.0043 108.797 84.0887 108.938 85.1487 109.072C85.6571 109.136 86.1641 109.233 86.6481 109.401C86.8607 109.475 87.5127 109.679 86.9684 109.913C86.753 110.007 86.447 110.007 86.2201 110.03C85.1817 110.132 84.1332 110.093 83.0977 110.232C82.7774 110.275 82.753 110.764 83.0977 110.752C83.8891 110.723 84.6718 110.866 85.4617 110.891C85.8926 110.906 86.2991 110.881 86.7257 110.98C86.9009 111.021 87.0862 111.055 87.2556 111.114C87.53 111.21 87.474 111.407 87.2556 111.551C86.6596 111.944 85.8582 111.812 85.1889 111.779C84.5742 111.749 83.9422 111.716 83.3289 111.796C83.0086 111.838 82.9857 112.329 83.3289 112.316C83.8689 112.295 84.4104 112.323 84.9462 112.392C85.0898 112.411 86.6222 112.615 86.4341 112.934C86.3479 113.082 85.8251 113.047 85.6643 113.054C85.3325 113.07 84.9993 113.062 84.6661 113.047C84.0786 113.024 83.4898 112.975 82.9024 113.008C82.5692 113.027 82.5677 113.511 82.9024 113.528C83.3462 113.55 83.7857 113.653 84.228 113.694C84.4334 113.712 84.725 113.75 84.8269 113.961C84.9777 114.272 84.6316 114.288 84.4162 114.282C83.4869 114.259 82.552 114.159 81.6241 114.097C80.9017 114.048 80.2209 114.084 79.5574 114.403C79.2658 114.542 78.9915 114.738 78.7674 114.97C78.6468 115.097 78.5333 115.239 78.4399 115.387C78.3293 115.565 78.2863 115.786 78.1498 115.947C77.9344 116.2 78.2992 116.569 78.5175 116.315C78.6669 116.139 78.7272 115.964 78.8264 115.763C78.9355 115.546 79.0978 115.357 79.2816 115.197C79.6077 114.916 80.0126 114.738 80.432 114.649C80.9405 114.539 81.4575 114.604 81.9702 114.639C82.5462 114.677 83.1235 114.716 83.6995 114.755C84.1074 114.782 84.6244 114.897 85.0107 114.703C85.3368 114.539 85.4675 114.185 85.3483 113.844C85.3124 113.742 85.2593 113.655 85.1946 113.577C85.2693 113.577 85.344 113.582 85.4187 113.58C85.9171 113.573 86.9784 113.609 87.0043 112.879C87.0144 112.612 86.8678 112.43 86.661 112.299C87.2298 112.223 87.7842 112.013 87.9565 111.499C88.1705 110.86 87.5041 110.583 86.8908 110.461L86.8894 110.462Z" fill="#7366AE"/>
<path d="M52.0323 89.1139C52.4086 92.1573 52.5464 95.824 50.6879 98.4538C48.8151 101.104 44.9215 101.483 42.138 100.169C41.2906 99.7679 40.5395 99.2178 39.8199 98.6204C39.2339 98.1349 38.8763 97.6121 38.6408 96.8854C38.6006 96.7633 38.5101 96.7102 38.3909 96.6944C37.4559 96.5709 36.416 95.9906 36.0742 95.0642C35.9191 94.6463 35.9263 94.1422 36.3284 93.8621C36.7047 93.6007 37.2088 93.6596 37.611 93.8205C37.9212 93.944 38.0562 93.4427 37.7489 93.3192C36.6071 92.8639 35.2311 93.549 35.4911 94.9048C35.7467 96.2391 37.1442 97.0477 38.3909 97.2129C38.3076 97.1497 38.2243 97.0865 38.141 97.0218C38.3593 97.6926 38.6638 98.2757 39.188 98.7554C39.7926 99.3098 40.4734 99.8268 41.1801 100.245C42.6695 101.124 44.4102 101.523 46.1337 101.387C47.7293 101.26 49.315 100.677 50.4582 99.5281C51.5943 98.3848 52.209 96.8251 52.502 95.2624C52.8811 93.2359 52.8021 91.1476 52.5508 89.1125C52.5106 88.785 51.9906 88.7807 52.0308 89.1125L52.0323 89.1139Z" fill="#7366AE"/>
<path d="M48.5446 93.2153C48.2645 92.6824 48.154 92.0548 48.2416 91.4587C48.2617 91.3194 48.2071 91.1801 48.0606 91.1399C47.9385 91.1069 47.7619 91.1816 47.7418 91.3209C47.657 91.9025 47.7001 92.4972 47.9083 93.0501C47.96 93.188 48.0189 93.3244 48.0864 93.4551C48.1166 93.514 48.1511 93.5729 48.1841 93.6303C48.1956 93.6504 48.2071 93.6777 48.2214 93.6993C48.1855 93.7165 48.1281 93.7495 48.1166 93.7553C48.039 93.7898 47.9615 93.8242 47.8854 93.8587C47.7303 93.9277 47.5766 93.9966 47.4215 94.0655C47.2936 94.123 47.2635 94.3097 47.3281 94.4203C47.4057 94.5524 47.555 94.5711 47.6828 94.5136C47.8466 94.4404 48.0089 94.3671 48.1726 94.2953C48.3048 94.2364 48.4498 94.1862 48.5662 94.0971C48.7055 93.9908 48.7787 93.8285 48.7471 93.6519C48.7184 93.4896 48.6193 93.3575 48.5446 93.2138V93.2153Z" fill="#7366AE"/>
<path d="M45.2071 93.7243C45.2717 93.6266 45.2818 93.506 45.2688 93.3939C45.2516 93.236 45.2099 93.0923 45.1381 92.9501C45.1051 92.8841 45.0649 92.8151 45.0132 92.7634C44.9414 92.6902 44.8236 92.6356 44.7202 92.6471C44.7073 92.6485 44.6958 92.6529 44.6828 92.6557C44.6728 92.6557 44.6613 92.6557 44.6513 92.6557C44.4401 92.6988 44.3726 92.9272 44.3583 93.1124C44.3482 93.2503 44.3654 93.3939 44.3913 93.529C44.4013 93.585 44.4157 93.6439 44.4444 93.6927C44.522 93.8277 44.6555 93.911 44.8107 93.9254C44.9715 93.9397 45.1194 93.855 45.2056 93.7243H45.2071Z" fill="#7366AE"/>
<path d="M50.5159 91.9481C50.4096 91.8849 50.2774 91.8806 50.1697 91.9438C50.0677 92.0041 50.0103 92.1176 49.9902 92.231C49.973 92.3244 49.9644 92.4192 49.9715 92.5154C49.9787 92.6102 49.9931 92.7064 50.0175 92.7984C50.0433 92.8989 50.0792 92.9994 50.1525 93.077C50.1984 93.1244 50.2631 93.1646 50.3277 93.1775C50.4196 93.1962 50.5044 93.1818 50.5891 93.1416C50.6982 93.0899 50.7787 92.9721 50.8045 92.8558C50.8548 92.6217 50.7974 92.379 50.7026 92.165C50.6623 92.0788 50.5977 91.9984 50.5159 91.9481Z" fill="#7366AE"/>
<path d="M51.1506 89.5922C50.8246 89.4141 50.444 89.4069 50.0878 89.4787C49.7517 89.5462 49.42 89.6984 49.1672 89.9326C49.1327 89.9642 49.1112 90.0087 49.1011 90.0546C49.0623 90.115 49.0465 90.1896 49.0666 90.2615C49.1054 90.4022 49.249 90.4726 49.3855 90.4424C49.9528 90.3175 50.5201 90.1925 51.0888 90.0661C51.3072 90.0187 51.3417 89.6956 51.1506 89.5907V89.5922Z" fill="#7366AE"/>
<path d="M45.2097 91.0095C45.3088 90.9922 45.3849 90.886 45.3964 90.794C45.4093 90.682 45.3591 90.6016 45.2729 90.5355C45.1436 90.4364 44.954 90.3991 44.7975 90.3732C44.572 90.3373 44.3451 90.3201 44.1167 90.3244C43.7433 90.3316 43.186 90.3646 42.9663 90.7237C42.837 90.9161 42.9806 91.1373 43.1817 91.189C43.3296 91.2263 43.4919 91.2177 43.6413 91.2091C44.042 91.1876 44.4413 91.1301 44.8377 91.0712C44.9627 91.0526 45.0861 91.0339 45.2097 91.0123V91.0095Z" fill="#7366AE"/>
<path d="M47.5007 96.1032C47.3844 96.0759 47.2637 96.0673 47.1445 96.0529C46.7811 96.0084 46.4178 95.971 46.0558 95.9265C46.0084 95.9208 45.961 95.915 45.9122 95.9078C45.895 95.905 45.8792 95.9035 45.8619 95.9007C45.8562 95.9007 45.8088 95.8935 45.8002 95.892C45.7154 95.8805 45.6307 95.8676 45.546 95.8518C45.4856 95.8418 45.4253 95.8303 45.3664 95.8145C45.3664 95.8145 45.3636 95.8145 45.3621 95.8145C45.2142 95.701 44.9241 95.7886 44.9327 96.017C44.9456 96.3373 45.0088 96.6518 45.1323 96.9491C45.1366 96.9592 45.1438 96.9678 45.1496 96.9778C45.1539 96.9893 45.1539 97.0008 45.1596 97.0123C45.3779 97.5035 45.8749 97.8324 46.4178 97.8037C47.0052 97.7721 47.5265 97.3972 47.7362 96.8486C47.7836 96.7251 47.8238 96.5786 47.8167 96.445C47.8066 96.2611 47.6673 96.1434 47.4978 96.1032H47.5007ZM47.301 96.4881C47.301 96.4881 47.301 96.4866 47.301 96.4852C47.301 96.4881 47.3168 96.4048 47.301 96.4881ZM45.4282 95.9035C45.4368 95.9193 45.444 95.9337 45.4469 95.9495C45.444 95.9308 45.4354 95.9193 45.4282 95.9035ZM45.3435 95.8102C45.3277 95.8059 45.309 95.8016 45.3076 95.7973C45.3061 95.7886 45.3291 95.8016 45.3435 95.8102ZM47.2292 96.7279C47.1818 96.8313 47.1172 96.9247 47.0368 97.0037C46.886 97.153 46.6835 97.2507 46.4738 97.2794C46.3201 97.301 46.1362 97.2723 45.9955 97.1961C45.8231 97.1014 45.7083 96.9577 45.6221 96.771C45.5704 96.6403 45.5287 96.5053 45.5014 96.3689C45.6077 96.3861 45.7154 96.4005 45.8217 96.4148C46.2339 96.4694 46.6476 96.5125 47.0612 96.5613C47.1043 96.5671 47.1474 96.5714 47.1905 96.5771C47.2091 96.58 47.2264 96.5814 47.245 96.5843C47.2479 96.5843 47.2465 96.5843 47.2508 96.5843C47.2609 96.5843 47.2695 96.5872 47.2795 96.5886C47.2795 96.5886 47.2795 96.59 47.2795 96.5915C47.2666 96.6374 47.2522 96.6834 47.2321 96.7265L47.2292 96.7279ZM47.3743 96.6073C47.3987 96.6288 47.4145 96.6145 47.3743 96.6073V96.6073Z" fill="#7366AE"/>
<path d="M51.9659 83.2558C51.1989 82.282 50.1691 81.4691 49.0216 80.9922C48.4514 80.7553 47.8539 80.6059 47.2636 80.4321C46.679 80.2597 46.2022 79.8835 45.6507 79.6307C43.7476 78.7574 41.5588 78.6741 39.5294 79.0878C37.4914 79.5029 35.5079 80.4479 34.0559 81.9574C30.247 85.9171 31.5568 91.8014 29.7773 96.574C28.9098 98.8993 26.7339 100.637 26.4524 103.192C26.3031 104.554 26.8847 105.836 26.9278 107.184C26.9695 108.511 26.3361 109.697 25.6065 110.763C24.2679 112.716 22.2112 114.87 22.9049 117.457C23.5053 119.698 25.8521 120.98 28.0064 121.283C28.5766 121.364 29.1511 121.387 29.7256 121.392C29.7414 121.392 29.7586 121.392 29.7744 121.392C29.9942 121.394 30.0674 121.171 29.9971 121.017C30.201 118.817 30.438 116.618 30.7453 114.429C31.001 112.604 31.2323 110.707 31.7737 108.939C32.0883 107.909 32.6929 107.172 33.6968 106.76C34.616 106.382 35.6286 106.223 36.6038 106.07C37.5632 105.921 38.5111 105.729 39.4662 105.556C40.1068 105.441 40.9111 105.391 41.4583 105.005C42.0917 104.557 42.5312 103.765 42.6777 103.016C42.7538 102.623 42.7782 102.221 42.8126 101.823C42.8457 101.437 42.9189 101.054 42.9175 100.666C42.9175 100.542 42.8356 100.456 42.7265 100.416C41.6996 100.03 40.8163 99.4264 39.9674 98.7413C39.3183 98.2171 38.9003 97.6886 38.6404 96.8857C38.6001 96.7636 38.5097 96.7105 38.3905 96.6947C37.4555 96.5712 36.4156 95.9909 36.0738 95.0645C35.9187 94.6466 35.9259 94.1425 36.328 93.8624C36.7043 93.601 37.2084 93.6599 37.6106 93.8208C37.6422 93.8337 37.6709 93.8366 37.6996 93.8366C37.7384 93.8969 37.8045 93.9371 37.9036 93.9242C39.3082 93.7446 40.473 92.926 41.3879 91.8775C42.4005 90.7156 43.2191 89.3598 43.9961 88.0341C44.2747 87.5587 44.5132 87.0905 44.7329 86.5864C44.9268 86.1426 45.1279 85.5825 45.4984 85.2536C46.0097 84.7997 47.0381 85.4058 47.5436 85.6428C48.21 85.9573 48.8492 86.3293 49.4524 86.7516C50.1619 87.2485 50.8283 87.8201 51.4186 88.4535C51.8725 88.9404 52.1655 89.6528 52.7414 90.0075C52.8936 90.1009 53.0688 90.0047 53.1234 89.8524C53.9162 87.6349 53.4135 85.0884 51.9673 83.2529L51.9659 83.2558Z" fill="#7366AE"/>
<path d="M78.6829 116.323C78.2219 115.118 77.7335 113.924 77.2323 112.734C77.1045 112.431 76.9752 112.13 76.8459 111.827C76.731 111.559 76.6391 111.254 76.4754 111.012C76.1795 110.577 75.7932 110.79 75.4427 111.018C74.4014 111.699 73.3358 112.342 72.25 112.95C71.1642 113.557 70.0568 114.126 68.9322 114.657C68.3692 114.923 67.8019 115.179 67.2317 115.424C66.7204 115.644 65.8371 116.21 65.3244 115.775C64.8978 115.413 64.5847 114.838 64.2616 114.385C63.9154 113.898 63.5736 113.406 63.2318 112.917C62.5596 111.953 61.8846 110.991 61.165 110.061C60.4397 109.124 59.6656 108.229 58.824 107.391C58.0182 106.591 57.1938 105.796 56.2574 105.15C55.3885 104.551 54.4851 104.283 53.4323 104.26C52.3796 104.237 51.3311 104.41 50.2797 104.362C49.9911 104.35 49.971 104.35 49.8517 104.068C49.7311 103.785 49.6636 103.475 49.599 103.175C49.4554 102.503 49.3634 101.817 49.2988 101.134C49.2801 100.937 49.2615 100.74 49.2557 100.543C49.2442 100.21 48.7257 100.209 48.7358 100.543C48.7731 101.684 48.9225 102.929 49.2815 104.013C49.3548 104.232 49.4381 104.472 49.5918 104.648C49.6377 104.701 49.6852 104.74 49.734 104.77C49.1423 105.99 48.4773 107.175 47.6916 108.281C45.6306 107.233 43.6946 105.99 41.7758 104.706C41.8318 104.65 41.8863 104.591 41.9409 104.526C42.8199 103.488 42.7179 102.237 42.9089 100.969C42.9578 100.641 42.458 100.5 42.4077 100.831C42.2425 101.929 42.3618 103.156 41.6379 104.08C41.4742 104.288 41.2788 104.528 41.0375 104.648C40.7848 104.773 40.4903 104.831 40.2174 104.888C39.6975 104.999 39.1733 105.082 38.6534 105.195C37.0692 105.542 35.4175 105.612 33.875 106.141C33.2416 106.357 32.6226 106.666 32.1558 107.157C31.679 107.66 31.4075 108.311 31.2237 108.97C30.6119 111.154 30.3418 113.464 30.056 115.709C29.8564 117.269 29.6884 118.833 29.539 120.398C29.3393 120.467 29.325 120.76 29.4945 120.862C29.4097 121.768 29.3307 122.675 29.2589 123.582C29.055 126.17 28.8884 128.766 28.8252 131.361C28.8166 131.696 29.3365 131.696 29.3451 131.361C29.4657 126.479 29.8707 121.587 30.4495 116.739C30.7196 114.482 31.0241 112.222 31.5109 110C31.6661 109.29 31.824 108.552 32.2147 107.929C32.6039 107.308 33.233 106.922 33.9095 106.678C35.4362 106.128 37.0821 106.054 38.6591 105.724C39.2695 105.596 39.8871 105.497 40.4961 105.358C40.8264 105.282 41.1007 105.187 41.3478 105.04C43.3413 106.377 45.3491 107.677 47.4934 108.76C48.2187 114.672 48.6654 120.619 49.0503 126.561C49.1537 128.16 49.2499 129.76 49.3404 131.359C49.3591 131.691 49.879 131.694 49.8604 131.359C49.5229 125.409 49.1207 119.46 48.5376 113.529C48.381 111.934 48.2087 110.342 48.0133 108.75C48.0133 108.746 48.0105 108.742 48.009 108.737C48.888 107.529 49.6176 106.221 50.2625 104.875C51.2635 104.925 52.2646 104.772 53.2657 104.773C53.7928 104.773 54.3228 104.815 54.8283 104.973C55.3281 105.129 55.7777 105.427 56.1985 105.733C57.1105 106.396 57.922 107.203 58.7134 108.003C60.3679 109.675 61.7036 111.617 63.045 113.539C63.3739 114.011 63.7043 114.484 64.0418 114.95C64.3333 115.357 64.6163 115.842 65.0041 116.167C65.3962 116.496 65.863 116.504 66.3341 116.346C66.8971 116.157 67.4471 115.891 67.99 115.651C70.1846 114.682 72.3145 113.564 74.3612 112.313C74.8725 112 75.3766 111.674 75.8807 111.348C76.0344 111.249 76.0459 111.285 76.1249 111.435C76.191 111.557 76.2384 111.694 76.293 111.822C76.4237 112.124 76.5529 112.426 76.6822 112.729C77.1964 113.941 77.689 115.16 78.1644 116.387C78.2189 116.526 78.2922 116.665 78.2879 116.818C78.2822 117.01 78.1543 117.082 78.0136 117.202C77.7594 117.421 77.5023 117.639 77.2481 117.856C76.7554 118.277 76.2628 118.696 75.7702 119.117C74.7677 119.973 73.7638 120.829 72.7613 121.686C71.776 122.527 70.7921 123.368 69.8069 124.208C68.9006 124.983 68.0174 125.804 67.0465 126.498C66.1474 127.141 65.1333 127.643 64.0059 127.638C62.9186 127.634 61.8802 127.203 60.9898 126.603C60.5316 126.294 60.1166 125.935 59.7288 125.543C59.6929 125.507 59.6541 125.488 59.6139 125.477C59.1644 122.912 58.574 120.368 57.8717 117.879C57.5514 116.743 57.1995 115.615 56.7945 114.508C56.681 114.196 56.1784 114.331 56.2933 114.646C57.8344 118.853 58.7881 123.327 59.4373 127.752C59.6125 128.948 59.756 130.149 59.8494 131.355C59.8753 131.687 60.3952 131.688 60.3693 131.355C60.2372 129.662 60.029 127.969 59.7547 126.282C61.1895 127.574 63.1011 128.487 65.0529 128.039C66.0956 127.8 67.0077 127.199 67.8364 126.547C68.826 125.77 69.7638 124.924 70.7203 124.108C72.7626 122.364 74.8065 120.621 76.8488 118.877C77.3601 118.441 77.8714 118.007 78.3813 117.569C78.5507 117.424 78.7461 117.271 78.8093 117.046C78.8796 116.795 78.7791 116.546 78.69 116.315L78.6829 116.323Z" fill="#7366AE"/>
<path d="M37.4158 116.178C37.2937 121.243 37.0151 126.301 36.8931 131.364C36.8844 131.699 37.4044 131.699 37.413 131.364C37.5351 126.3 37.8137 121.241 37.9358 116.178C37.9444 115.844 37.4244 115.844 37.4158 116.178Z" fill="#7366AE"/>
<path d="M51.0931 114.121C51.1203 114.045 51.126 113.962 51.116 113.883C51.1131 113.864 51.106 113.848 51.1017 113.831C51.083 113.608 50.9652 113.397 50.7742 113.272C50.5171 113.104 50.1509 113.13 49.9297 113.344C49.7186 113.548 49.6597 113.911 49.8306 114.157C49.934 114.305 50.079 114.4 50.2442 114.466C50.3878 114.523 50.5631 114.537 50.7125 114.491C50.8963 114.433 51.027 114.3 51.0931 114.121Z" fill="#7366AE"/>
<path d="M51.889 121.294C52.0728 121.235 52.2035 121.103 52.2696 120.923C52.2969 120.847 52.3026 120.764 52.2926 120.685C52.2897 120.666 52.2825 120.65 52.2782 120.633C52.2595 120.41 52.1417 120.199 51.9507 120.074C51.695 119.906 51.3274 119.932 51.1062 120.146C50.8951 120.35 50.8362 120.713 51.0071 120.959C51.1105 121.107 51.2556 121.202 51.4207 121.268C51.5644 121.325 51.7396 121.34 51.889 121.294Z" fill="#7366AE"/>
<path d="M52.5653 127.608C52.5466 127.385 52.4288 127.174 52.2378 127.049C51.9822 126.881 51.6145 126.907 51.3933 127.121C51.1822 127.325 51.1233 127.689 51.2942 127.934C51.3976 128.082 51.5427 128.177 51.7078 128.243C51.8515 128.3 52.0267 128.315 52.1761 128.269C52.3599 128.21 52.4906 128.078 52.5567 127.898C52.584 127.822 52.5897 127.74 52.5797 127.66C52.5768 127.641 52.5696 127.625 52.5653 127.608Z" fill="#7366AE"/>
<path d="M111.781 29.9946C111.846 29.884 111.817 29.6973 111.688 29.6399C111.538 29.5724 111.389 29.5063 111.24 29.4388C111.161 29.4029 111.082 29.3684 111.003 29.3325C110.982 29.3239 110.909 29.2779 110.868 29.2621C110.878 29.242 110.888 29.2162 110.892 29.2076C110.926 29.1487 110.961 29.0898 110.993 29.0295C111.067 28.8887 111.13 28.7422 111.186 28.5943C111.399 28.0284 111.444 27.4223 111.356 26.8277C111.336 26.6884 111.159 26.6123 111.037 26.6467C110.888 26.687 110.835 26.8263 110.856 26.9656C110.945 27.5774 110.833 28.2209 110.544 28.7681C110.471 28.9059 110.374 29.0367 110.342 29.1903C110.306 29.3612 110.363 29.5279 110.496 29.6413C110.61 29.7404 110.761 29.7907 110.898 29.8524C111.073 29.9314 111.25 30.009 111.425 30.088C111.553 30.1454 111.703 30.1253 111.78 29.9946H111.781Z" fill="#7366AE"/>
<path d="M114.523 28.197C114.51 28.1942 114.497 28.197 114.486 28.1956C114.476 28.1942 114.466 28.1898 114.454 28.1884C114.354 28.1769 114.249 28.2272 114.174 28.2918C114.122 28.3364 114.084 28.3995 114.051 28.4599C113.99 28.569 113.943 28.6897 113.918 28.8132C113.895 28.931 113.875 29.0674 113.917 29.1837C113.969 29.3259 114.079 29.4466 114.233 29.4767C114.339 29.4968 114.437 29.4868 114.535 29.4394C114.609 29.4035 114.665 29.3446 114.713 29.2785C114.746 29.2326 114.764 29.1766 114.777 29.1205C114.807 28.987 114.823 28.8448 114.82 28.7069C114.815 28.5087 114.753 28.2459 114.523 28.1999V28.197Z" fill="#7366AE"/>
<path d="M108.541 27.4632C108.451 27.5121 108.381 27.5997 108.339 27.6901C108.258 27.8726 108.202 28.0736 108.218 28.2747C108.228 28.4025 108.264 28.5375 108.366 28.6223C108.49 28.7257 108.665 28.7673 108.81 28.6797C109.002 28.5634 109.043 28.3092 109.068 28.1052C109.079 28.0277 109.08 27.9487 109.071 27.8711C109.057 27.7433 109.033 27.6284 108.948 27.5279C108.849 27.4101 108.672 27.3929 108.541 27.4632Z" fill="#7366AE"/>
<path d="M109.9 25.4088C109.643 25.1704 109.302 25.0153 108.96 24.9464C108.597 24.8731 108.208 24.8803 107.876 25.0613C107.685 25.1661 107.719 25.4878 107.938 25.5367C108.518 25.6645 109.1 25.7923 109.681 25.9216C109.818 25.9518 109.963 25.8799 110 25.7406C110.02 25.6688 110.005 25.5941 109.966 25.5324C109.956 25.4864 109.936 25.4433 109.9 25.4103V25.4088Z" fill="#7366AE"/>
<path d="M115.073 25.8099C114.841 25.8056 114.608 25.8228 114.378 25.8587C114.217 25.8846 114.025 25.9234 113.893 26.0253C113.808 26.09 113.752 26.1704 113.769 26.2839C113.784 26.3772 113.854 26.4821 113.956 26.4993C114.266 26.5525 114.579 26.597 114.892 26.6357C115.249 26.6803 115.638 26.7492 115.995 26.6875C116.211 26.6501 116.39 26.4246 116.248 26.2135C116.024 25.8487 115.455 25.8171 115.076 25.8085L115.073 25.8099Z" fill="#7366AE"/>
<path d="M113.798 31.4315C113.746 31.4444 113.696 31.4559 113.643 31.4659C113.574 31.4789 113.505 31.4903 113.435 31.5004C113.399 31.5061 113.363 31.5104 113.327 31.5162C113.323 31.5162 113.3 31.5205 113.288 31.5219C113.262 31.5248 113.235 31.5291 113.209 31.532C112.837 31.5794 112.462 31.6196 112.089 31.6627C111.947 31.6799 111.804 31.6943 111.664 31.7187C111.598 31.7302 111.533 31.746 111.473 31.7776C111.279 31.8824 111.273 32.0849 111.309 32.2745C111.42 32.862 111.934 33.3359 112.518 33.4336C113.139 33.537 113.738 33.2282 113.995 32.6494C113.999 32.6393 114 32.6278 114.003 32.6164C114.009 32.6063 114.016 32.5977 114.021 32.5876C114.147 32.2846 114.212 31.9629 114.224 31.6354C114.233 31.4085 113.943 31.318 113.795 31.4329L113.798 31.4315ZM111.734 32.2314C111.701 32.2386 111.717 32.2444 111.734 32.2314V32.2314ZM113.538 32.4067C113.452 32.5905 113.337 32.7413 113.166 32.8375C113.015 32.9223 112.826 32.9539 112.659 32.9309C112.451 32.9022 112.244 32.8059 112.093 32.6594C112.008 32.5776 111.941 32.4842 111.889 32.3794C111.87 32.3406 111.845 32.2731 111.826 32.2142C111.83 32.2142 111.833 32.2142 111.837 32.2128C111.85 32.2113 111.865 32.2085 111.878 32.207C111.915 32.2027 111.954 32.197 111.991 32.1927C112.188 32.1682 112.383 32.1467 112.58 32.1252C112.941 32.0835 113.305 32.0447 113.664 31.983C113.636 32.128 113.593 32.2688 113.538 32.4081V32.4067Z" fill="#7366AE"/>
<path d="M125.802 24.5026C125.879 23.5762 125.793 22.6053 125.668 21.6861C125.55 20.8229 125.338 19.9784 124.976 19.1827C123.35 15.6051 118.85 13.7437 115.098 14.1056C113.285 14.2794 111.606 14.999 110.17 16.1063C109.798 16.3935 109.442 16.6995 109.101 17.0255C108.712 17.3989 108.383 17.8154 107.86 18.0021C106.994 18.3124 106.197 18.6858 105.521 19.3264C104.909 19.9066 104.395 20.7095 104.367 21.5755C104.344 22.3367 104.768 22.9988 105.355 23.4498C105.812 23.8002 106.306 24.0143 106.819 24.1363C106.589 26.025 106.434 27.9381 106.573 29.8396C106.695 31.5028 107.03 33.268 108.064 34.6238C108.264 34.8866 108.715 34.6281 108.512 34.3609C107.487 33.0152 107.177 31.2644 107.078 29.6142C106.97 27.8174 107.112 26.0135 107.327 24.2283C108.537 24.3762 109.829 24.0846 111.01 23.8046C112.943 23.3464 114.988 23.0778 116.933 23.6336C118.893 24.1952 120.37 25.6774 120.878 27.6594C121.003 28.1492 121.062 28.6461 121.067 29.1517C121.067 29.2163 121.091 29.2637 121.123 29.3039C121.171 29.3973 121.268 29.4547 121.395 29.403C122.128 29.1043 123.5 29.1804 123.408 30.2562C123.307 31.4238 121.981 32.198 120.933 32.333C120.812 32.3488 120.722 32.4033 120.683 32.524C120.551 32.9304 120.39 33.334 120.123 33.6715C119.874 33.9846 119.556 34.2389 119.245 34.4873C118.984 34.697 119.355 35.0618 119.613 34.855C119.961 34.5764 120.301 34.2934 120.571 33.9358C120.825 33.5997 120.992 33.2162 121.13 32.8198C122.428 32.5829 123.905 31.6249 123.932 30.18C123.94 29.7003 123.742 29.3499 123.439 29.1129C124.699 27.8548 125.651 26.3151 125.803 24.5026H125.802Z" fill="#7366AE"/>
<path d="M119.463 34.8587C119.72 34.244 119.885 33.1697 118.925 33.1582C118.115 33.1482 117.439 33.9209 116.909 34.4394C116.248 35.0828 115.589 35.4864 114.654 35.5654C113.81 35.6372 112.952 35.5079 112.139 35.2796C111.191 35.0124 110.295 34.5859 109.336 34.3575C108.796 34.2297 107.684 34.0085 107.487 34.7869C107.388 35.1762 107.68 35.472 107.961 35.6846C108.424 36.0336 108.912 36.3524 109.412 36.644C110.068 37.0275 110.753 37.3549 111.458 37.635C111.402 38.6547 111.672 39.9301 112.668 40.417C113.142 40.6482 113.621 40.6683 114.134 40.7129C114.289 40.7258 114.532 40.7258 114.645 40.8464C114.75 40.957 114.802 41.1782 114.859 41.3132C114.936 41.4956 115.013 41.678 115.089 41.8604C115.144 41.9911 115.26 42.0802 115.408 42.0414C115.53 42.0098 115.644 41.8518 115.589 41.7226C115.453 41.3965 115.325 41.0647 115.178 40.7445C115.076 40.5204 114.928 40.3667 114.696 40.2863C114.276 40.1427 113.817 40.2217 113.39 40.1183C113.099 40.0479 112.824 39.9502 112.606 39.7377C112.418 39.5538 112.273 39.3283 112.175 39.0856C112.013 38.6863 111.964 38.254 111.973 37.826C112.115 37.8763 112.256 37.9309 112.399 37.9783C112.718 38.0831 112.854 37.5804 112.537 37.477C111.695 37.2013 110.882 36.858 110.104 36.4357C109.742 36.2404 109.389 36.0293 109.044 35.8052C108.87 35.6918 108.698 35.5754 108.528 35.4562C108.412 35.3744 107.965 35.1316 107.988 34.9334C108.057 34.3647 110.031 35.0986 110.305 35.1934C111.061 35.4591 111.802 35.7578 112.587 35.923C113.883 36.1945 115.448 36.2648 116.566 35.4361C117.19 34.9722 117.657 34.3144 118.321 33.8993C118.664 33.6839 119.263 33.4886 119.148 34.1306C119.079 34.5169 118.901 34.8702 118.706 35.2063C118.321 35.867 117.831 36.5219 117.735 37.3032C117.672 37.8174 117.876 38.3158 118.028 38.7969C118.202 39.3427 118.374 39.8899 118.548 40.4357C118.648 40.7531 119.149 40.6181 119.049 40.2978C118.875 39.752 118.703 39.2048 118.529 38.659C118.36 38.1248 118.153 37.6206 118.316 37.0605C118.551 36.2576 119.144 35.6214 119.463 34.8573V34.8587Z" fill="#7366AE"/>
<path d="M129.668 52.4798C129.402 50.2608 129.017 48.0188 128.05 45.9836C127.575 44.9811 126.952 44.049 126.19 43.2404C125.399 42.3988 124.514 41.8688 123.381 41.6218C122.858 41.5083 122.328 41.4394 121.8 41.3546C121.587 40.7701 121.362 40.1884 121.119 39.6154C121.073 39.5048 120.928 39.4775 120.826 39.4962C119.541 39.736 118.416 40.4225 117.24 40.9554C116.591 41.2498 115.933 41.5241 115.289 41.8329C115.094 41.9263 114.884 42.0096 114.782 42.2121C114.723 42.3284 114.705 42.4663 114.699 42.6056C114.216 42.9934 113.734 43.3812 113.25 43.769C113.142 43.8551 112.963 44.0706 112.836 44.1007C112.839 44.118 112.842 44.1366 112.846 44.1539C112.819 44.1252 112.792 44.0964 112.763 44.0677C112.704 44.0146 112.652 43.9514 112.598 43.8939C112.364 43.6483 112.128 43.4013 111.894 43.1557C111.005 42.2236 110.116 41.29 109.227 40.3579C109.271 40.3206 109.319 40.2846 109.361 40.2416C109.922 39.6728 110.116 38.8326 110.212 38.0671C110.261 37.6779 110.283 37.2858 110.293 36.8937C110.303 36.559 109.783 36.559 109.773 36.8937C109.75 37.7195 109.711 38.6229 109.335 39.3769C108.898 40.2516 108.009 40.4053 107.116 40.4843C106.237 40.5618 105.405 40.6207 104.572 40.9381C103.765 41.2455 103.011 41.6735 102.319 42.1877C99.4361 44.332 97.4986 47.6669 96.1026 50.9157C94.2972 55.1181 93.5144 59.7788 93.9913 64.3374C94.0947 65.3212 94.2627 66.3524 94.8732 67.161C95.36 67.8088 96.0394 68.254 96.7934 68.5355C97.6523 68.8558 98.5586 68.9678 99.472 69.021C99.4318 70.2403 99.4447 71.4626 99.5151 72.6805C99.5337 73.0123 100.054 73.0152 100.035 72.6805C99.9646 71.4712 99.9517 70.2561 99.9919 69.0454C100.605 69.0698 101.218 69.0798 101.82 69.1215C102.949 69.1991 104.069 69.3384 105.201 69.3915C106.448 69.4504 107.694 69.4978 108.94 69.5739C109.977 69.6371 111.015 69.6845 112.053 69.7204C113.102 69.7563 114.142 69.887 115.186 69.9804C115.697 70.0263 116.209 70.0622 116.721 70.0694C116.852 70.0709 116.993 69.9488 116.981 69.8095C116.961 69.5782 116.94 69.347 116.919 69.1158C117.449 69.2292 117.997 69.2263 118.527 69.1086C118.85 69.6285 119.242 70.0996 119.752 70.4472C120.563 71.0001 121.629 71.1911 122.595 71.1279C124.069 71.0317 125.517 70.3897 126.614 69.3872C126.637 70.4859 126.662 71.5832 126.685 72.6819C126.692 73.0152 127.21 73.0166 127.204 72.6819C127.18 71.4841 127.153 70.2863 127.128 69.0885C127.128 69.021 127.101 68.9707 127.066 68.9305C127.263 68.7122 127.446 68.4824 127.608 68.2397C128.31 67.1898 128.71 65.9632 129.036 64.7525C129.386 63.4469 129.626 62.1141 129.777 60.7712C130.085 58.0179 129.999 55.2316 129.669 52.4841L129.668 52.4798ZM113.59 69.3025C112.579 69.2062 111.567 69.1861 110.553 69.1402C109.481 69.0913 108.41 69.0123 107.338 68.9635C106.103 68.9061 104.867 68.873 103.634 68.7768C102.701 68.7036 101.777 68.5901 100.841 68.5556C99.9833 68.524 99.1173 68.5068 98.2684 68.3718C97.4598 68.244 96.6469 68.0142 95.9747 67.5273C95.1604 66.9384 94.7798 66.0494 94.6103 65.0842C94.224 62.8882 94.3073 60.54 94.5903 58.3368C94.8818 56.0704 95.4735 53.8385 96.3252 51.7186C96.9973 50.0425 97.8304 48.4152 98.8056 46.8957C99.7808 45.3761 100.931 43.9356 102.353 42.8096C103.04 42.2652 103.802 41.7956 104.618 41.4738C105.454 41.1435 106.281 41.0789 107.167 40.9985C107.705 40.9496 108.283 40.8764 108.779 40.6423C109.832 41.7467 110.886 42.8526 111.939 43.9571C112.144 44.1725 112.374 44.5259 112.652 44.6436C112.927 44.76 113.144 44.5158 113.34 44.3578C113.793 43.9945 114.245 43.6325 114.696 43.2691C114.662 45.9836 114.904 48.6924 115.118 51.3954C115.344 54.2349 115.631 57.0643 116.035 59.8836C116.22 61.1762 116.404 62.4875 116.664 63.7801H116.466C116.453 63.7801 116.443 63.7859 116.43 63.7873C116.377 63.5029 116.267 63.2516 115.967 63.1008C115.486 62.8595 114.881 62.7733 114.362 62.6383C113.755 62.4803 113.146 62.3281 112.538 62.183C111.363 61.9044 110.182 61.6502 108.997 61.4232C107.63 61.1604 106.255 60.9335 104.875 60.7382C104.548 60.6922 104.407 61.192 104.737 61.2394C107.611 61.6459 110.462 62.1974 113.279 62.8997C113.977 63.0735 114.673 63.2544 115.367 63.4483C115.567 63.5044 115.796 63.5302 115.9 63.7413C115.972 63.8864 115.953 64.1119 115.967 64.2699C115.999 64.6246 116.03 64.9794 116.062 65.3356C116.187 66.7359 116.31 68.1377 116.435 69.538C115.483 69.5064 114.535 69.3944 113.589 69.3039L113.59 69.3025ZM116.929 68.5887C116.911 68.5843 116.892 68.5858 116.874 68.5858C116.799 67.7384 116.723 66.891 116.648 66.0436C116.596 65.462 116.545 64.8803 116.493 64.2986H116.723C116.743 64.2986 116.759 64.2914 116.777 64.2871C117.034 65.4591 117.36 66.611 117.827 67.714C117.956 68.0213 118.099 68.3301 118.257 68.6318C117.816 68.7079 117.365 68.6978 116.929 68.5887ZM128.162 65.8483C127.802 66.9183 127.302 67.9639 126.501 68.7739C125.821 69.4605 124.971 69.989 124.056 70.3021C123.153 70.6109 122.166 70.7215 121.228 70.5032C120.135 70.2489 119.384 69.5739 118.835 68.6116C117.622 66.4846 117.195 63.964 116.815 61.5769C116.391 58.9228 116.059 56.2542 115.818 53.5771C115.582 50.9731 115.357 48.3592 115.252 45.7467C115.226 45.0975 115.21 44.4469 115.21 43.7963C115.21 43.4731 115.213 43.1499 115.222 42.8268C115.222 42.8052 115.222 42.7794 115.222 42.7535C115.222 42.7449 115.222 42.7377 115.222 42.7306C115.219 42.6185 115.22 42.4921 115.285 42.4132C115.368 42.3126 115.615 42.2494 115.739 42.192C116.888 41.6534 118.041 41.1234 119.193 40.5906C119.693 40.3593 120.206 40.1697 120.74 40.0477C121.652 42.2437 122.315 44.5388 122.993 46.8152C123.697 49.1807 124.358 51.5577 124.975 53.9476C125.059 54.2708 125.56 54.1343 125.477 53.8097C124.848 51.3753 124.174 48.9524 123.454 46.5423C122.99 44.9898 122.529 43.4358 121.995 41.9076C122.896 42.0412 123.821 42.1661 124.622 42.6099C125.567 43.1327 126.323 44.095 126.901 44.9883C128.049 46.7621 128.595 48.8331 128.928 50.8985C129.721 55.8133 129.768 61.0872 128.162 65.8498V65.8483Z" fill="#7366AE"/>
<path d="M102.493 52.8567C101.614 55.2782 101.169 57.8376 101.177 60.4128C101.177 60.7474 101.697 60.7474 101.697 60.4128C101.69 57.8807 102.129 55.3745 102.994 52.9946C103.109 52.6801 102.606 52.5436 102.493 52.8567Z" fill="#7366AE"/>
<path d="M128.465 25.8477H125.532C125.137 27.0872 124.373 28.1773 123.438 29.1109C123.741 29.3478 123.941 29.6983 123.931 30.178C123.903 31.6228 122.427 32.5808 121.129 32.8178C120.992 33.2128 120.824 33.5977 120.571 33.9337C120.301 34.2899 119.961 34.5743 119.613 34.8529C119.557 34.8975 119.497 34.9118 119.438 34.9104C119.114 35.6515 118.545 36.2777 118.315 37.0619C118.151 37.622 118.358 38.1261 118.528 38.6604C118.681 39.1459 118.835 39.6313 118.99 40.1182C119.58 39.8496 120.184 39.617 120.827 39.4963C120.93 39.4777 121.074 39.5049 121.12 39.6155C121.363 40.19 121.588 40.7703 121.801 41.3548C122.328 41.4381 122.859 41.5085 123.382 41.622C124.514 41.869 125.399 42.399 126.191 43.2406C126.953 44.0492 127.576 44.9813 128.051 45.9838C129.018 48.019 129.401 50.2609 129.669 52.4799C129.999 55.2275 130.085 58.0138 129.776 60.7671C129.625 62.11 129.384 63.4428 129.035 64.7483C128.711 65.9591 128.311 67.1856 127.608 68.2355C127.445 68.4782 127.263 68.708 127.066 68.9263C127.101 68.9666 127.126 69.0168 127.128 69.0843C127.152 70.2822 127.179 71.48 127.204 72.6778C127.205 72.7611 127.175 72.8229 127.128 72.8645H128.465C129.994 72.8645 131.234 71.625 131.234 70.0955V28.6168C131.234 27.0872 129.994 25.8477 128.465 25.8477Z" fill="#F4F2FF"/>
<path d="M107.96 35.6844C107.678 35.4719 107.388 35.176 107.486 34.7868C107.545 34.5541 107.685 34.4133 107.868 34.3286C106.994 33.0159 106.689 31.3857 106.575 29.8375C106.477 28.5104 106.526 27.1747 106.641 25.8476H49.1742C47.6446 25.8476 46.4052 27.0871 46.4052 28.6167V70.0953C46.4052 71.6249 47.6446 72.8644 49.1742 72.8644H59.689L57.3881 78.99C57.1166 79.7124 57.8649 80.3975 58.5615 80.0629L73.5343 72.8644H99.6078C99.5576 72.8228 99.5217 72.761 99.5159 72.6777C99.4455 71.4598 99.4326 70.2375 99.4729 69.0167C98.5594 68.9636 97.6531 68.8515 96.7943 68.5313C96.0402 68.2498 95.3623 67.8045 94.874 67.1568C94.2636 66.3467 94.0955 65.3155 93.9921 64.3331C93.5153 59.7759 94.2966 55.1139 96.1034 50.9115C97.4995 47.6627 99.4384 44.3277 102.319 42.1834C103.012 41.6678 103.766 41.2412 104.573 40.9339C105.406 40.6165 106.238 40.5576 107.117 40.48C108.011 40.401 108.899 40.2473 109.336 39.3727C109.712 38.6186 109.751 37.7167 109.774 36.8894C109.774 36.8722 109.781 36.8607 109.784 36.8449C109.659 36.776 109.532 36.7113 109.409 36.6395C108.909 36.3465 108.421 36.0291 107.958 35.6801L107.96 35.6844Z" fill="#F4F2FF"/>
<path d="M93.8588 61.4667H58.0202C57.1527 61.4667 56.2824 61.4481 55.4149 61.4667C55.3776 61.4667 55.3402 61.4667 55.3043 61.4667C54.9697 61.4667 54.9697 61.9867 55.3043 61.9867H93.8602C93.8588 61.8129 93.8588 61.6405 93.8602 61.4667H93.8588Z" fill="#95BF70"/>
<path d="M96.8663 49.2546H58.0202C57.1527 49.2546 56.2824 49.2359 55.4149 49.2546C55.3776 49.2546 55.3402 49.2546 55.3043 49.2546C54.9697 49.2546 54.9697 49.7745 55.3043 49.7745H96.6163C96.6982 49.6007 96.7815 49.4284 96.8663 49.2546Z" fill="#95BF70"/>
<path d="M106.423 37.5599H109.746C109.758 37.3847 109.765 37.2123 109.769 37.04H58.0202C57.1527 37.04 56.2824 37.0213 55.4149 37.04C55.3776 37.04 55.3402 37.04 55.3043 37.04C54.9697 37.04 54.9697 37.5599 55.3043 37.5599H106.423Z" fill="#95BF70"/>
<path d="M29.6249 120.901C29.9595 120.901 29.9595 120.381 29.6249 120.381C29.2902 120.381 29.2902 120.901 29.6249 120.901Z" fill="#7366AE"/>
<path d="M26.1937 87.1152V109.816C26.6418 109.005 26.9578 108.13 26.9276 107.184C26.8845 105.837 26.3029 104.554 26.4522 103.193C26.7337 100.637 28.9111 98.8981 29.7771 96.5743C31.2263 92.6893 30.6274 88.0674 32.4098 84.3461H28.9613C27.4317 84.3461 26.1923 85.5856 26.1923 87.1152H26.1937Z" fill="#F4F2FF"/>
<path d="M26.1941 120.796V128.594C26.1941 130.077 27.3603 131.284 28.8253 131.356C28.8899 128.762 29.0551 126.17 29.259 123.583C29.3165 122.851 29.3797 122.118 29.4457 121.387C28.9646 121.376 28.4849 121.35 28.008 121.282C27.4048 121.198 26.7858 121.032 26.1955 120.794L26.1941 120.796Z" fill="#F4F2FF"/>
<path d="M108.253 84.3449H52.6721C53.554 86.0253 53.7665 88.0476 53.1217 89.8529C53.0671 90.0052 52.8918 90.1014 52.7396 90.008C52.7051 89.9865 52.6735 89.9592 52.6405 89.9362C52.8143 91.71 52.8301 93.5096 52.5012 95.2632C52.2082 96.8244 51.5935 98.3856 50.4575 99.5289C50.0912 99.898 49.6747 100.202 49.2323 100.458C49.2424 100.484 49.2524 100.513 49.2524 100.546C49.2582 100.742 49.2768 100.941 49.2955 101.136C49.3601 101.82 49.4521 102.505 49.5957 103.177C49.6603 103.476 49.7278 103.787 49.8485 104.069C49.9677 104.349 49.9878 104.349 50.2765 104.363C51.3292 104.411 52.3777 104.24 53.429 104.261C54.4818 104.284 55.3852 104.551 56.2541 105.15C57.192 105.795 58.0164 106.592 58.8207 107.392C59.6623 108.228 60.4364 109.123 61.1617 110.062C61.8813 110.992 62.5563 111.954 63.2285 112.918C63.5703 113.407 63.9121 113.898 64.2583 114.385C64.5814 114.839 64.8931 115.414 65.3211 115.776C65.8353 116.211 66.7172 115.646 67.2285 115.425C67.8001 115.18 68.3674 114.924 68.9289 114.658C70.0535 114.127 71.1609 113.558 72.2467 112.951C73.3325 112.343 74.3982 111.7 75.4394 111.019C75.7655 110.805 76.1245 110.614 76.4118 110.943C76.6746 109.366 77.239 107.882 78.0548 106.492C78.3277 106.028 79.0932 105.02 79.6376 105.784C79.8616 106.098 79.7898 106.539 79.7424 106.894C79.6864 107.31 79.6017 107.718 79.4939 108.123C79.9751 108.135 80.4533 108.178 80.9345 108.207C81.5492 108.244 82.1625 108.235 82.7758 108.301C84.0181 108.434 85.3337 108.467 86.5373 108.824C86.9136 108.936 87.5785 109.093 87.6992 109.531C87.8471 110.064 87.3186 110.377 86.8848 110.463C87.4981 110.585 88.1631 110.862 87.9505 111.501C87.7782 112.016 87.2238 112.225 86.655 112.301C86.8619 112.432 87.0084 112.614 86.9983 112.882C86.9725 113.613 85.9125 113.575 85.4127 113.582C85.338 113.582 85.2633 113.58 85.1886 113.58C85.2533 113.657 85.3078 113.745 85.3423 113.847C85.4615 114.187 85.3309 114.542 85.0048 114.706C84.6185 114.9 84.1014 114.785 83.6935 114.757C83.1175 114.719 82.5402 114.68 81.9642 114.641C81.4501 114.607 80.9345 114.542 80.426 114.651C80.0066 114.74 79.6017 114.918 79.2756 115.2C79.0918 115.359 78.9295 115.547 78.8204 115.766C78.7485 115.911 78.6954 116.041 78.6178 116.169C78.6379 116.221 78.6595 116.273 78.6796 116.324C78.7687 116.557 78.8691 116.804 78.7988 117.055C78.7356 117.281 78.5388 117.433 78.3708 117.578C77.8609 118.015 77.3496 118.45 76.8383 118.887C74.796 120.63 72.7522 122.374 70.7099 124.117C69.7533 124.935 68.814 125.779 67.8259 126.556C66.9957 127.208 66.0837 127.808 65.0425 128.048C63.0892 128.496 61.1775 127.583 59.7441 126.292C60.0185 127.978 60.2268 129.671 60.3589 131.365H83.2928L98.866 138.852C99.5625 139.186 100.311 138.501 100.039 137.779L97.6308 131.365H108.255C109.784 131.365 111.024 130.125 111.024 128.596V87.1169C111.024 85.5873 109.784 84.3478 108.255 84.3478L108.253 84.3449Z" fill="#F4F2FF"/>
<path d="M102.123 119.964H75.5771C75.3746 120.137 75.1721 120.31 74.9681 120.484H99.4058C100.273 120.484 101.144 120.502 102.011 120.484C102.048 120.484 102.084 120.484 102.122 120.484C102.456 120.484 102.456 119.964 102.122 119.964H102.123Z" fill="#95BF70"/>
<path d="M59.6612 108.269H77.179C77.2508 108.095 77.3255 107.921 77.4045 107.749H59.1729C59.338 107.92 59.5003 108.093 59.6612 108.269Z" fill="#95BF70"/>
<path d="M102.124 107.75H79.5865C79.5578 107.874 79.5319 107.999 79.4989 108.122C79.98 108.134 80.4584 108.177 80.9395 108.205C81.4278 108.234 81.9147 108.237 82.4015 108.269H99.4081C100.276 108.269 101.146 108.287 102.013 108.269C102.051 108.269 102.087 108.269 102.124 108.269C102.459 108.269 102.459 107.749 102.124 107.749V107.75Z" fill="#95BF70"/>
<path d="M102.123 95.5369H52.4421C52.4048 95.7107 52.3646 95.883 52.3186 96.0568H99.4057C100.273 96.0568 101.144 96.0755 102.011 96.0568C102.048 96.0568 102.084 96.0568 102.122 96.0568C102.456 96.0568 102.456 95.5369 102.122 95.5369H102.123Z" fill="#95BF70"/>
</svg>
