<svg width="154" height="153" viewBox="0 0 154 153" fill="none" xmlns="http://www.w3.org/2000/svg">
<path d="M109.212 52.0473C108.955 56.4917 108.531 61.3389 111.241 65.174C112.641 67.1528 114.628 69.0662 117.025 69.6922C119.571 70.3585 122.43 69.8835 124.752 68.6969C126.164 67.9769 127.564 66.891 128.507 65.607C129.455 64.3147 129.766 62.6984 130.001 61.1475C129.912 61.2365 129.825 61.3238 129.736 61.4127C131.37 60.921 133.042 59.5061 133.079 57.6716C133.116 55.7801 131.088 55.243 129.672 56.0805C129.861 56.1896 130.053 56.2987 130.242 56.4078C130.194 55.5014 130.143 54.5934 130.095 53.6871C130.068 53.2004 129.309 53.1987 129.336 53.6871C129.385 54.5934 129.435 55.5014 129.484 56.4078C129.499 56.6897 129.796 56.8895 130.054 56.7351C130.54 56.4481 131.194 56.2752 131.726 56.5488C132.32 56.8542 132.401 57.5575 132.251 58.1432C131.929 59.4087 130.734 60.3168 129.534 60.6776C129.418 60.7129 129.289 60.8135 129.269 60.9428C129.068 62.267 128.833 63.6467 128.128 64.8115C127.433 65.9561 126.258 66.9094 125.133 67.6077C122.98 68.947 120.186 69.5663 117.681 69.0611C115.328 68.5862 113.4 66.839 112.013 64.9441C110.859 63.368 110.194 61.542 109.946 59.6101C109.623 57.1077 109.83 54.5498 109.974 52.0406C110.003 51.5522 109.242 51.5539 109.216 52.0406L109.212 52.0473Z" fill="#7366AE"/>
<path d="M117.525 58.8794C117.34 58.824 117.156 58.767 116.97 58.7116C116.936 58.7015 116.659 58.6025 116.523 58.5639C116.56 58.4984 116.584 58.4196 116.612 58.3507C116.684 58.1695 116.745 57.9849 116.79 57.7969C116.975 57.0399 116.959 56.2427 116.751 55.4924C116.62 55.0225 115.887 55.2222 116.02 55.6938C116.241 56.4877 116.201 57.3185 115.904 58.0889C115.832 58.2769 115.734 58.4531 115.738 58.6596C115.741 58.8878 115.87 59.0909 116.067 59.205C116.248 59.3108 116.471 59.3544 116.671 59.4148C116.889 59.4803 117.106 59.5474 117.324 59.6129C117.792 59.7555 117.993 59.0221 117.525 58.8811V58.8794Z" fill="#7366AE"/>
<path d="M120.95 56.7747C120.95 56.7747 120.935 56.7646 120.928 56.7595C120.89 56.7344 120.849 56.7126 120.811 56.7025C120.794 56.6974 120.774 56.7025 120.757 56.6991C120.673 56.6874 120.588 56.6958 120.519 56.7411C120.438 56.7931 120.366 56.872 120.344 56.9677C120.334 57.0147 120.334 57.0583 120.337 57.1019C120.322 57.164 120.302 57.2261 120.282 57.2849C120.247 57.3873 120.21 57.4913 120.181 57.5971C120.104 57.8941 120.089 58.2231 120.253 58.4967C120.316 58.5991 120.413 58.6628 120.53 58.6779C120.638 58.6931 120.779 58.6662 120.849 58.5739C120.94 58.4564 121.022 58.3423 121.079 58.2063C121.148 58.0435 121.19 57.8925 121.21 57.7179C121.244 57.4276 121.168 57.1372 121.037 56.8804C121.019 56.8418 120.987 56.8082 120.948 56.778L120.95 56.7747ZM120.351 57.1825C120.349 57.1674 120.347 57.154 120.346 57.1389C120.354 57.1775 120.364 57.2161 120.383 57.2564C120.373 57.2312 120.363 57.2077 120.351 57.1825Z" fill="#7366AE"/>
<path d="M113.69 56.5757C113.571 56.5254 113.468 56.5438 113.352 56.5942C113.289 56.621 113.232 56.663 113.179 56.71C113.072 56.7503 112.981 56.8309 112.95 56.9534C112.837 57.3931 112.892 57.8446 113.089 58.2508C113.21 58.5008 113.621 58.4958 113.745 58.2508C113.968 57.806 114.03 57.3058 113.91 56.8208C113.881 56.7067 113.795 56.6194 113.69 56.5741V56.5757Z" fill="#7366AE"/>
<path d="M114.625 53.8515C114.259 53.5897 113.794 53.4705 113.351 53.4353C112.911 53.4 112.415 53.4739 112.049 53.7391C111.738 53.964 111.854 54.4121 112.24 54.4474C112.99 54.5162 113.739 54.5833 114.489 54.6521C114.677 54.6689 114.838 54.4944 114.862 54.3232C114.875 54.2258 114.84 54.1134 114.774 54.0294C114.742 53.9606 114.692 53.9019 114.623 53.8532L114.625 53.8515Z" fill="#7366AE"/>
<path d="M122.733 53.8523C122.582 53.6644 122.317 53.5888 122.09 53.5553C121.795 53.5116 121.499 53.515 121.202 53.5486C120.903 53.5821 120.603 53.6308 120.316 53.7197C120.089 53.7902 119.846 53.8792 119.675 54.0504C119.433 54.2904 119.621 54.6848 119.943 54.6983C120.318 54.7134 120.692 54.7201 121.066 54.7201C121.321 54.7201 121.577 54.715 121.832 54.6999C122.041 54.6865 122.265 54.6764 122.466 54.616C122.602 54.5741 122.73 54.5069 122.805 54.381C122.913 54.2031 122.862 54 122.733 53.8523Z" fill="#7366AE"/>
<path d="M120.491 60.7952C120.457 60.8033 120.447 60.8082 120.457 60.8082C120.466 60.8049 120.476 60.8017 120.486 60.7985C120.487 60.7968 120.491 60.7952 120.492 60.7936L120.491 60.7952Z" fill="#7366AE"/>
<path d="M120.73 60.7028C120.646 60.7028 120.574 60.7364 120.514 60.7817C120.517 60.7817 120.514 60.7833 120.5 60.7951C120.507 60.7951 120.51 60.7917 120.519 60.79C120.509 60.79 120.499 60.7968 120.489 60.8001C120.489 60.8001 120.487 60.8001 120.485 60.8001C120.485 60.8001 120.485 60.8001 120.484 60.8001C120.472 60.8052 120.462 60.8085 120.457 60.8085C120.411 60.8253 120.364 60.8454 120.321 60.8589C120.123 60.921 119.923 60.9747 119.723 61.0267C119.258 61.1476 118.79 61.2583 118.323 61.3741C118.171 61.4127 118.016 61.448 117.865 61.495C117.743 61.5336 117.617 61.5806 117.526 61.6762C117.34 61.8709 117.377 62.1328 117.464 62.3627C117.748 63.1079 118.461 63.6014 119.257 63.6232C120.079 63.6467 120.76 63.0945 120.992 62.3207C121.103 61.9179 121.147 61.4966 121.11 61.0804C121.091 60.8756 120.948 60.7011 120.73 60.7011V60.7028ZM120.453 60.832C120.43 60.8589 120.408 60.8891 120.393 60.9226C120.41 60.8874 120.428 60.8572 120.45 60.8354C120.45 60.8354 120.452 60.8337 120.453 60.832ZM120.381 60.9461C120.364 60.9898 120.353 61.0351 120.351 61.0821C120.351 61.0368 120.364 60.9881 120.381 60.9461ZM120.086 62.4852C120.086 62.4852 120.081 62.4903 120.077 62.4953C120.057 62.5188 120.037 62.5423 120.015 62.5658C119.99 62.5927 119.962 62.6161 119.936 62.643C119.925 62.6547 119.921 62.6581 119.92 62.6615C119.916 62.6631 119.911 62.6665 119.898 62.6749C119.847 62.7084 119.797 62.7403 119.743 62.7689C119.74 62.7706 119.686 62.7941 119.68 62.7974C119.653 62.8075 119.626 62.8175 119.597 62.8259C119.544 62.841 119.488 62.8545 119.433 62.8629C119.419 62.8629 119.396 62.8662 119.389 62.8662C119.346 62.8662 119.3 62.8696 119.257 62.8679C119.139 62.8645 119.077 62.8545 118.929 62.8092C118.808 62.7722 118.662 62.7051 118.563 62.6279C118.453 62.5423 118.365 62.4466 118.298 62.3459C118.266 62.2972 118.24 62.2452 118.214 62.1932C118.25 62.1814 118.283 62.1697 118.317 62.1613C118.501 62.1143 118.688 62.069 118.874 62.0237C119.307 61.9179 119.742 61.8139 120.173 61.6964C120.225 61.6813 120.285 61.6678 120.348 61.6511C120.332 61.8088 120.304 61.9649 120.26 62.121C120.217 62.2687 120.186 62.3224 120.098 62.4668C120.092 62.4751 120.089 62.4802 120.086 62.4852Z" fill="#7366AE"/>
<path d="M120.501 60.7902C120.501 60.7902 120.495 60.7933 120.494 60.7965C120.497 60.7933 120.498 60.7933 120.501 60.7902Z" fill="#7366AE"/>
<path d="M120.502 60.7879C120.502 60.7879 120.509 60.7838 120.512 60.781C120.51 60.781 120.506 60.7837 120.502 60.7879Z" fill="#7366AE"/>
<path d="M120.488 60.7988C120.491 60.7974 120.494 60.7961 120.496 60.7947C120.495 60.7947 120.494 60.7947 120.491 60.7947C120.489 60.7947 120.488 60.7961 120.487 60.7974L120.488 60.7988Z" fill="#7366AE"/>
<path d="M134.964 48.0744C134.686 45.3654 133.382 41.0184 129.959 41.3424C128.942 37.9285 125.369 35.8372 121.918 35.75C119.842 35.6979 117.756 36.3508 115.936 37.3193C114.149 38.2726 112.497 39.5582 111.412 41.2836C111.18 41.6512 110.955 42.0338 110.653 42.3494C110.295 42.7237 109.886 42.8563 109.384 42.9435C108.543 43.0896 107.685 43.0862 106.954 43.5864C105.277 44.7327 104.886 47.1378 105.582 48.9421C106.277 50.7413 107.857 51.7954 109.735 52.027C111.692 52.2687 113.568 51.7282 115.418 51.1576C118.123 50.3251 120.975 49.5497 123.83 49.8904C126.067 50.1573 128.556 51.2667 129.359 53.5274C129.34 53.5728 129.33 53.6265 129.333 53.6886C129.382 54.5949 129.432 55.5029 129.481 56.4092C129.496 56.6912 129.793 56.8909 130.052 56.7365C130.792 56.2985 131.789 56.2397 132.232 57.1058C132.292 57.2233 132.432 57.2938 132.559 57.2938C132.885 57.2938 132.982 57.0588 133.128 56.8037C133.331 56.4478 133.519 56.0836 133.689 55.711C134.045 54.9373 134.335 54.1334 134.551 53.3093C134.998 51.6091 135.144 49.8216 134.963 48.0727L134.964 48.0744Z" fill="#7366AE"/>
<path d="M149.111 95.012C148.381 91.15 147.604 87.2813 146.556 83.4899C146.026 81.5698 145.529 79.3375 144.054 77.9059C142.231 76.1368 139.284 75.974 136.895 75.7995C135.313 75.6837 133.743 75.5209 132.166 75.3614C131.197 75.2641 130.001 75.3178 129.106 74.8831C128.042 74.3662 127.404 73.0251 127.117 71.9459C126.785 70.6955 126.693 69.3948 126.394 68.136C126.281 67.661 125.548 67.8624 125.662 68.3374C126.157 70.4152 126.109 72.7247 127.52 74.4618C127.715 74.7001 127.911 74.9015 128.118 75.0761C125.165 77.4376 122.179 79.7353 118.957 81.7225C117.508 80.019 116.256 78.1593 115.12 76.2359C115.286 76.1234 115.431 75.9656 115.538 75.729C115.833 75.0711 115.921 74.3191 116.005 73.6109C116.172 72.2077 116.265 70.7509 116.189 69.3377C116.164 68.851 115.404 68.8493 115.431 69.3377C115.496 70.5696 115.419 71.8301 115.303 73.057C115.238 73.7485 115.16 74.4585 114.954 75.1248C114.905 75.2842 114.847 75.5175 114.722 75.6333C114.558 75.7877 113.69 75.7928 113.331 75.8146C112.029 75.8985 110.718 75.8482 109.42 76.011C108.242 76.1587 107.148 76.5212 106.119 77.1137C103.929 78.3724 102.48 80.217 101.466 82.5046C99.2274 87.5532 97.6749 92.8972 95.9714 98.1405C95.6156 99.2382 95.1456 100.285 94.7864 101.38C94.6236 101.872 94.4474 102.221 93.9724 102.456C93.3128 102.781 92.6515 103.102 91.9919 103.426C89.3921 104.705 86.747 105.812 84.0548 106.882C82.5543 107.477 81.0555 108.073 79.5551 108.669C78.8283 108.958 78.0814 109.22 77.3681 109.542C76.821 109.79 76.487 110.191 76.5021 110.816C76.5189 111.504 76.7085 112.222 76.8159 112.9C76.9452 113.716 77.0761 114.533 77.2053 115.349C77.4655 116.982 77.7239 118.613 77.9841 120.247C78.0109 120.416 78.1973 120.517 78.35 120.525C80.4899 120.651 82.6181 120.418 84.7429 120.196C86.7973 119.981 88.8516 119.768 90.906 119.553C94.5061 119.177 98.2489 118.966 101.586 117.444C101.572 118.061 101.565 118.679 101.569 119.297C101.569 119.501 101.742 119.676 101.948 119.676H137.767C138.252 119.676 138.753 119.713 139.237 119.676C139.259 119.676 139.28 119.676 139.302 119.676C139.492 119.676 139.705 119.501 139.682 119.297C138.948 112.551 138.085 105.819 137.297 99.0804C137.062 97.0731 136.833 95.0657 136.615 93.0567C136.563 92.5766 135.803 92.5699 135.857 93.0567C136.59 99.8021 137.453 106.534 138.242 113.273C138.461 115.153 138.675 117.034 138.879 118.916H103.484C103.14 118.916 102.708 118.855 102.327 118.875C102.321 112.039 103.227 105.165 104.625 98.4846C104.999 96.6971 105.419 94.918 105.902 93.1557C106.032 92.6841 105.3 92.4827 105.171 92.9543C103.333 99.6645 102.23 106.637 101.757 113.575C101.688 114.59 101.636 115.607 101.604 116.625C101.57 116.631 101.537 116.635 101.502 116.651C98.1029 118.296 94.1839 118.452 90.4931 118.837C88.5076 119.043 86.522 119.251 84.5365 119.458C82.5862 119.661 80.6343 119.861 78.6722 119.778C78.2325 117.011 77.7927 114.241 77.353 111.474C77.2926 111.093 77.1231 110.618 77.4789 110.334C77.7122 110.148 78.1133 110.054 78.3869 109.946C79.1036 109.661 79.8219 109.376 80.5386 109.092C81.8762 108.562 83.2123 108.03 84.5499 107.499C87.1414 106.469 89.6909 105.401 92.195 104.171C92.7942 103.877 93.3934 103.58 93.9926 103.288C94.4743 103.053 94.8855 102.869 95.1725 102.399C95.3957 102.031 95.5132 101.603 95.6374 101.193C95.8052 100.646 96.0553 100.138 96.2617 99.6041C97.2537 97.0328 97.9703 94.3406 98.8431 91.7257C99.7326 89.0621 100.669 86.4136 101.73 83.8121C102.223 82.602 102.764 81.3885 103.539 80.3295C104.281 79.3174 105.276 78.4967 106.351 77.8572C107.446 77.2043 108.608 76.8367 109.878 76.7209C109.983 76.7109 110.088 76.7092 110.192 76.7008C110.985 79.1949 112.178 81.5547 113.744 83.6527C114.113 84.1478 114.497 84.6345 114.907 85.0944C115.392 85.6399 115.778 85.4804 116.324 85.0944C117.235 84.4549 118.059 83.7064 118.797 82.8773C119.519 83.4009 120.241 83.9229 120.963 84.4465C121.632 84.9316 122.131 85.4099 122.98 85.1078C124.345 84.6228 125.63 83.8641 126.775 82.9863C129.079 81.2173 130.84 78.8256 131.842 76.0999C131.844 76.0949 131.844 76.0898 131.845 76.0848C132.075 76.1066 132.303 76.1318 132.532 76.1603C135.375 76.5279 138.361 76.3936 141.135 77.1791C142.438 77.5484 143.564 78.2248 144.272 79.4063C144.844 80.3597 145.165 81.4473 145.482 82.5063C146.561 86.1031 147.322 89.8006 148.043 93.483C148.908 97.8921 149.661 102.323 150.348 106.762C150.992 110.928 151.595 115.102 152.051 119.293C152.103 119.773 152.864 119.78 152.81 119.293C151.922 111.158 150.625 103.046 149.106 95.0086L149.111 95.012ZM116.183 84.2669C116.055 84.3609 115.687 84.7017 115.541 84.6664C115.484 84.653 115.293 84.3811 115.253 84.3341C115.157 84.2233 115.065 84.1109 114.971 83.9967C114.605 83.5503 114.257 83.0887 113.928 82.6137C112.658 80.7809 111.666 78.7719 110.976 76.6538C111.884 76.6202 112.794 76.6236 113.698 76.5447C113.935 76.5245 114.165 76.5094 114.382 76.4809C115.563 78.4899 116.871 80.4302 118.378 82.2092C117.72 82.9696 116.991 83.6678 116.181 84.2653L116.183 84.2669ZM126.565 82.1958C125.566 82.9981 124.454 83.6711 123.275 84.178C122.926 84.3274 122.544 84.5556 122.168 84.3828C121.822 84.2233 121.488 83.8944 121.181 83.6711C120.578 83.2331 119.974 82.7967 119.371 82.3586C122.681 80.3143 125.744 77.9445 128.779 75.5158C129.108 75.682 129.47 75.7978 129.892 75.8683C130.281 75.9338 130.674 75.9757 131.066 76.0143C130.153 78.4329 128.581 80.5779 126.567 82.1975L126.565 82.1958Z" fill="#7366AE"/>
<path d="M118.166 86.904C118.205 86.9963 118.253 87.0752 118.324 87.149C118.46 87.295 118.673 87.384 118.873 87.3756C119.089 87.3655 119.29 87.2732 119.443 87.1188C119.507 87.0533 119.566 86.9778 119.606 86.8973C119.666 86.7781 119.695 86.674 119.708 86.5431C119.732 86.33 119.645 86.1185 119.502 85.9641C119.447 85.9036 119.376 85.85 119.302 85.8147C119.186 85.7593 119.094 85.7358 118.967 85.7207C118.782 85.6989 118.586 85.7492 118.424 85.8382C118.236 85.9406 118.09 86.1235 118.035 86.33C118.01 86.4256 118.023 86.5364 118.074 86.622C118.08 86.6321 118.09 86.6405 118.099 86.6505C118.111 86.7395 118.127 86.8184 118.164 86.904H118.166Z" fill="#7366AE"/>
<path d="M118.088 92.0688C118.291 92.4918 118.787 92.7083 119.235 92.5757C119.465 92.5069 119.668 92.3659 119.814 92.1762C119.956 91.9899 120.054 91.7516 120.034 91.5133C120.013 91.2682 119.916 91.0467 119.742 90.8704C119.596 90.7227 119.394 90.6086 119.189 90.565C118.938 90.5113 118.664 90.5348 118.441 90.6741C118.394 90.7043 118.352 90.7412 118.317 90.7815C118.29 90.7966 118.261 90.81 118.239 90.8335C117.917 91.1692 117.892 91.6609 118.087 92.0671L118.088 92.0688Z" fill="#7366AE"/>
<path d="M76.7153 111.024C75.7167 110.869 74.7197 110.715 73.721 110.561C72.8365 110.423 71.8228 110.128 70.9232 110.242C70.0638 110.351 69.3001 111.005 68.6221 111.495C67.9071 112.011 67.2156 112.561 66.5543 113.144C65.9971 113.634 65.2502 114.176 65.0287 114.924C64.8222 115.619 65.2636 116.166 65.9467 116.265C66.8061 116.39 67.615 115.948 68.3351 115.539C69.2213 115.034 70.1041 114.52 70.9869 114.01C71.4099 113.766 71.0289 113.108 70.6043 113.353C69.9564 113.728 69.3069 114.1 68.659 114.475C68.038 114.834 67.3851 115.305 66.6768 115.47C66.4805 115.515 66.1985 115.571 65.9988 115.512C65.643 115.404 65.7117 115.181 65.8494 114.936C66.0004 114.668 66.2388 114.461 66.4603 114.253C66.9873 113.758 67.5362 113.285 68.1018 112.833C68.6674 112.383 69.2548 111.96 69.8574 111.561C70.1628 111.358 70.4817 111.118 70.8426 111.024C71.2252 110.925 71.6365 111.004 72.0191 111.061C73.5162 111.287 75.0134 111.524 76.5105 111.756C76.9888 111.829 77.1953 111.098 76.7119 111.024H76.7153Z" fill="#7366AE"/>
<path d="M70.8414 118.74C70.6803 118.745 70.5326 118.795 70.395 118.868C70.3564 118.592 70.2691 118.329 70.108 118.097C69.6615 117.453 68.777 117.73 68.1929 118.122C68.1443 117.978 68.0805 117.837 67.9965 117.705C67.7431 117.303 67.3839 117.261 66.9475 117.371C66.7059 117.431 66.4843 117.528 66.2745 117.651C66.2409 117.547 66.199 117.448 66.1419 117.354C65.9003 116.956 65.4403 116.833 65.0157 117C64.2437 117.303 63.7855 118.218 63.5152 118.953C63.2786 119.596 63.1141 120.524 63.5438 121.123C63.7452 121.405 64.0591 121.588 64.4115 121.568C64.6079 121.556 64.7925 121.491 64.9587 121.394C65.1114 121.941 65.4605 122.439 66.0933 122.459C66.2745 122.464 66.4474 122.421 66.6135 122.35C66.8284 122.733 67.2329 122.98 67.7011 123.03C68.0939 123.072 68.4648 122.938 68.7837 122.72C69.0539 123.092 69.4718 123.356 69.93 123.423C70.5578 123.517 71.0932 123.242 71.3953 122.686C71.6789 122.164 71.8317 121.56 71.9105 120.976C71.9894 120.39 72.0583 119.672 71.6773 119.171C71.4792 118.911 71.1738 118.728 70.8381 118.74H70.8414ZM64.5928 120.734C64.539 120.766 64.5172 120.778 64.4736 120.791C64.4535 120.798 64.4333 120.801 64.4132 120.806C64.4098 120.806 64.4065 120.806 64.3964 120.81C64.3914 120.81 64.3679 120.81 64.3528 120.81C64.3393 120.808 64.3192 120.805 64.3142 120.803C64.3041 120.801 64.2957 120.796 64.2856 120.794C64.284 120.791 64.2319 120.763 64.2269 120.759C64.2722 120.791 64.1933 120.722 64.1799 120.707C64.1765 120.704 64.1614 120.682 64.1379 120.638C64.1077 120.583 64.0691 120.459 64.059 120.37C64.0255 120.095 64.0708 119.797 64.1362 119.531C64.2051 119.249 64.3125 118.982 64.4468 118.723C64.5794 118.47 64.7203 118.205 64.915 117.992C65.0174 117.879 65.3464 117.548 65.4924 117.735C65.6686 117.961 65.6149 118.394 65.5914 118.66C65.5394 119.193 65.4001 119.735 65.1114 120.192C64.9805 120.4 64.8093 120.608 64.5944 120.734H64.5928ZM66.0177 121.681C65.7609 121.58 65.672 121.253 65.6418 121.008C65.6334 120.944 65.6116 120.883 65.583 120.83C66.0647 120.214 66.2745 119.428 66.3501 118.658C66.3551 118.601 66.3584 118.544 66.3618 118.485C66.3802 118.473 66.4004 118.467 66.4172 118.453C66.6522 118.27 66.9341 118.148 67.2245 118.087C67.2581 118.08 67.3823 118.084 67.3101 118.04C67.347 118.064 67.3772 118.144 67.3974 118.18C67.4595 118.295 67.498 118.42 67.5283 118.547C67.6525 119.088 67.5283 119.687 67.3655 120.207C67.2161 120.685 66.9778 121.182 66.5682 121.493C66.4239 121.602 66.2057 121.756 66.0177 121.682V121.681ZM68.2097 122.184C67.9277 122.323 67.3285 122.305 67.2345 121.916C67.394 121.756 67.535 121.582 67.6458 121.412C67.9798 120.902 68.1728 120.286 68.2685 119.687C68.3071 119.447 68.3305 119.197 68.3272 118.948C68.3725 118.931 68.4178 118.906 68.4598 118.869C68.6847 118.668 68.9667 118.529 69.2671 118.485C69.3997 118.467 69.4433 118.455 69.5121 118.569C69.5843 118.691 69.6246 118.839 69.6447 118.978C69.7337 119.593 69.5356 120.296 69.2822 120.851C69.0523 121.353 68.7283 121.929 68.2114 122.182L68.2097 122.184ZM71.0026 121.625C70.8985 121.978 70.7441 122.605 70.311 122.679C69.92 122.746 69.5474 122.513 69.3493 122.191C69.7991 121.629 70.1147 120.949 70.2825 120.251C70.3161 120.111 70.3446 119.964 70.3681 119.814C70.4101 119.796 70.452 119.771 70.4906 119.734C70.5947 119.633 70.7642 119.458 70.927 119.507C71.1234 119.566 71.1838 119.839 71.2023 120.012C71.2543 120.546 71.1536 121.115 71.0026 121.625Z" fill="#7366AE"/>
<path d="M77.6436 119.088C76.9571 119.17 76.2723 119.254 75.5859 119.336C75.3895 119.359 75.1965 119.494 75.2066 119.715C75.2149 119.9 75.3744 120.12 75.5859 120.095C76.2723 120.012 76.9571 119.928 77.6436 119.846C77.8399 119.823 78.033 119.688 78.0229 119.467C78.0145 119.282 77.8551 119.062 77.6436 119.088Z" fill="#7366AE"/>
<path d="M61.6452 119.869C61.6301 119.452 61.6116 119.036 61.5898 118.62C61.5126 117.128 61.4001 115.637 61.2507 114.152C61.2021 113.669 61.2558 112.929 61.0141 112.494C60.717 111.96 59.7889 112.116 59.2904 112.086C59.2602 112.084 59.2316 112.081 59.2014 112.079C58.8322 108.672 58.3471 105.275 57.6842 101.913C57.0598 98.7445 56.2324 95.6361 55.3428 92.5327C53.9162 87.558 52.2261 82.0344 48.0167 78.6726C45.5931 76.7374 42.765 76.009 39.7237 75.9033C39.138 74.0487 38.668 72.1605 38.3323 70.2454C38.2484 69.7654 37.5167 69.9685 37.6006 70.4468C37.953 72.4542 38.4482 74.4347 39.0742 76.3732C39.3897 77.9576 39.7539 79.5454 39.8714 81.16C38.1863 80.3594 36.4156 79.7468 34.6886 79.0469C32.7282 78.253 30.7057 77.3568 29.1465 75.8915C29.1465 75.8915 29.1448 75.8915 29.1432 75.8899C30.0142 75.1715 30.2727 73.7499 30.4372 72.7043C30.548 71.9943 30.6151 71.2726 30.7863 70.5727C30.9021 70.0977 30.1704 69.8963 30.0545 70.3713C29.8649 71.1484 29.7994 71.9523 29.6668 72.7395C29.5376 73.5065 29.3933 74.3877 28.9183 75.0288C28.7169 75.3007 28.4584 75.4887 28.1244 75.5592C27.4816 75.6935 26.7901 75.6935 26.1372 75.7824C24.7626 75.9704 23.3829 76.2155 22.0469 76.5948C19.8247 77.2242 17.9517 78.4393 16.5569 80.2855C15.3065 81.9421 14.5227 83.9092 13.9521 85.8914C13.3344 88.0347 12.9299 90.2468 12.5456 92.4421C12.0438 95.3105 11.6644 98.2023 11.416 101.104C11.1693 103.976 10.9729 106.895 11.0804 109.778C11.1727 112.286 11.6879 114.771 13.1632 116.848C15.8436 120.616 20.4474 122.406 24.8381 123.224C30.3264 124.246 35.949 124.046 41.4995 123.811C46.1956 123.613 50.9605 123.633 55.5576 122.534C57.0044 122.188 58.4512 121.827 59.8745 121.393C60.3494 121.247 60.8798 121.114 61.3145 120.864C61.4303 120.797 61.5495 120.718 61.6116 120.595C61.7207 120.382 61.6552 120.097 61.6468 119.87L61.6452 119.869ZM51.8031 84.8759C52.9528 87.2156 53.7366 89.7164 54.4617 92.2155C55.3059 95.1292 56.1082 98.0496 56.7292 101.019C57.4895 104.656 58.0333 108.331 58.4361 112.024C57.6556 111.963 56.8752 111.886 56.0981 111.799C56.0813 109.812 55.7893 107.813 55.4788 105.854C55.0676 103.264 54.5355 100.685 53.7953 98.1671C53.6577 97.6988 52.9242 97.8985 53.0635 98.3685C53.7886 100.834 54.3123 103.358 54.7201 105.894C55.029 107.811 55.3126 109.765 55.3361 111.712C53.698 111.515 52.0632 111.287 50.4234 111.101C50.1985 111.076 49.9719 111.05 49.747 111.025C49.6279 107.098 48.7383 103.221 47.6037 99.4729C46.3701 95.3994 44.8126 91.4317 43.1929 87.4992C42.3504 85.4567 41.4877 83.4208 40.6418 81.3799C40.5512 79.7921 40.2222 78.2278 39.905 76.6703C42.4528 76.7777 44.8831 77.3366 46.9995 78.8505C49.1294 80.3728 50.6584 82.553 51.8031 84.8793V84.8759ZM56.4975 121.52C55.1699 121.853 53.8524 122.145 52.4963 122.344C49.7454 122.747 46.9811 122.828 44.2067 122.937C38.809 123.152 33.3777 123.502 27.9901 122.92C23.3981 122.423 18.4468 121.238 15.0497 117.895C13.3529 116.225 12.3526 114.129 12.0068 111.779C11.6057 109.053 11.8289 106.198 11.9984 103.462C12.3224 98.2527 13.034 93.0379 14.2072 87.9491C15.1185 83.9965 16.7114 79.6377 20.6992 77.8703C21.9211 77.3282 23.257 77.0446 24.5645 76.7995C25.2174 76.677 25.8754 76.5729 26.5333 76.489C27.119 76.4152 27.7468 76.4185 28.3241 76.291C28.3845 76.2776 28.4416 76.2574 28.4987 76.2389C28.5121 76.3044 28.5457 76.3699 28.6078 76.4286C31.7749 79.4027 36.3233 80.1848 40.0913 82.1116C40.1064 82.1183 40.1215 82.1234 40.1366 82.1284C43.1845 89.4579 46.4843 96.7942 48.1543 104.587C48.6024 106.678 48.9129 108.8 48.9834 110.94C45.2355 110.523 41.4844 110.141 37.7349 109.74C36.4845 109.605 35.2324 109.471 33.982 109.338C33.4969 109.286 33.5003 110.047 33.982 110.097C38.0051 110.528 42.0281 110.958 46.0495 111.389C48.7132 111.675 51.3734 111.972 54.0303 112.309C55.4368 112.487 56.8449 112.658 58.2581 112.772C58.6005 112.801 58.9446 112.824 59.287 112.846C59.4314 112.855 60.2202 112.804 60.3142 112.895C60.43 113.007 60.4249 113.556 60.4434 113.738C60.487 114.152 60.5273 114.567 60.5659 114.983C60.6952 116.401 60.7925 117.823 60.8546 119.246C60.8664 119.528 60.8194 119.912 60.8798 120.201C60.7489 120.256 60.5475 120.369 60.4954 120.387C59.1947 120.861 57.8319 121.185 56.4925 121.522L56.4975 121.52Z" fill="#7366AE"/>
<path d="M49.2484 101.13C49.3978 101.344 49.611 101.485 49.8527 101.581C50.0625 101.665 50.3192 101.687 50.5374 101.618C50.806 101.532 50.9973 101.339 51.093 101.076C51.1333 100.965 51.1416 100.844 51.1265 100.727C51.1232 100.7 51.1115 100.678 51.1047 100.651C51.0779 100.327 50.905 100.017 50.6264 99.8355C50.2521 99.5888 49.715 99.6274 49.3911 99.9396C49.084 100.237 48.9967 100.769 49.2468 101.128L49.2484 101.13Z" fill="#7366AE"/>
<path d="M47.8851 94.3367C48.0949 94.4206 48.3517 94.4424 48.5699 94.3736C48.8384 94.288 49.0298 94.095 49.1255 93.8315C49.1657 93.7207 49.1741 93.5998 49.159 93.4824C49.1557 93.4555 49.1439 93.4337 49.1372 93.4068C49.1104 93.0829 48.9375 92.7724 48.6589 92.5911C48.2846 92.3444 47.7475 92.383 47.4236 92.6952C47.1164 92.9923 47.0291 93.5243 47.2792 93.8835C47.4286 94.0983 47.6418 94.2376 47.8835 94.335L47.8851 94.3367Z" fill="#7366AE"/>
<path d="M28.4382 99.371C29.2908 102.659 29.9907 105.984 30.5362 109.337C30.615 109.819 31.3468 109.614 31.268 109.136C30.7225 105.782 30.0226 102.458 29.17 99.1696C29.0475 98.6962 28.314 98.8976 28.4382 99.371Z" fill="#7366AE"/>
<path d="M67.7327 112.015C66.6451 111.768 65.4467 111.927 64.3524 112.072C63.1977 112.224 62.053 112.443 60.9067 112.656C60.4267 112.745 60.6298 113.477 61.1081 113.388C62.1856 113.188 63.2615 112.978 64.3474 112.832C64.866 112.762 65.3863 112.711 65.9083 112.689C66.4605 112.668 66.9858 112.622 67.5296 112.746C68.0062 112.854 68.2094 112.122 67.731 112.015H67.7327Z" fill="#7366AE"/>
<path d="M75.2724 118.348C75.4822 118.031 75.4503 117.632 75.2925 117.284C74.935 116.497 74.1495 115.851 73.4916 115.322C72.6742 114.666 71.7998 114.092 70.9304 113.508C70.5242 113.234 70.1432 113.892 70.5477 114.164C71.3752 114.72 72.216 115.262 72.9914 115.89C73.3741 116.198 73.7433 116.527 74.0757 116.89C74.2435 117.073 74.8544 117.67 74.6295 117.946C74.4432 118.172 73.8995 117.971 73.6863 117.894C73.1794 117.709 72.6843 117.474 72.2026 117.231C71.2274 116.739 70.2993 116.156 69.4299 115.495C69.2654 115.371 69.007 115.47 68.9096 115.631C68.7938 115.824 68.8827 116.027 69.0455 116.151C69.8478 116.761 70.6971 117.303 71.59 117.769C72.0314 118.001 72.4829 118.211 72.9411 118.405C73.3439 118.577 73.7383 118.743 74.1781 118.783C74.3308 118.796 74.4886 118.786 74.6396 118.753C74.8511 119.031 75.1062 119.433 74.7974 119.624C74.5188 119.797 74.1395 119.715 73.8424 119.649C73.505 119.574 73.1778 119.466 72.8555 119.342C71.5027 118.82 70.212 118.071 68.9902 117.298C68.5756 117.036 68.1946 117.692 68.6075 117.954C69.393 118.451 70.2003 118.914 71.0294 119.334C71.7494 119.698 72.493 120.054 73.2717 120.28C73.2751 120.287 73.2751 120.295 73.2801 120.302C73.4647 120.564 73.6192 120.842 73.7182 121.129C73.74 121.193 73.7719 121.286 73.7769 121.339C73.7803 121.369 73.7753 121.38 73.7719 121.396C73.7669 121.403 73.7635 121.411 73.7585 121.418C73.7635 121.415 73.7635 121.415 73.7669 121.413C73.7904 121.4 73.74 121.435 73.7266 121.447C73.7635 121.411 73.7215 121.45 73.6997 121.462C73.688 121.468 73.6645 121.48 73.6577 121.485C73.6275 121.497 73.5957 121.507 73.5638 121.514C73.5235 121.524 73.4664 121.526 73.3909 121.522C73.312 121.519 73.2449 121.505 73.1677 121.487C72.9965 121.447 72.8269 121.393 72.6608 121.338C72.3301 121.227 72.0062 121.096 71.689 120.95C71.5027 120.864 71.2795 120.898 71.1687 121.086C71.073 121.25 71.1184 121.519 71.3047 121.606C71.726 121.801 72.1573 121.977 72.6004 122.118C73.0183 122.249 73.4849 122.37 73.9095 122.2C74.1143 122.12 74.2955 121.99 74.4147 121.802C74.549 121.589 74.5557 121.334 74.5003 121.094C74.4516 120.883 74.3694 120.673 74.267 120.472C74.784 120.495 75.2976 120.378 75.5762 119.898C75.88 119.376 75.5879 118.805 75.2707 118.353L75.2724 118.348Z" fill="#7366AE"/>
<path d="M63.5775 119.232C62.8155 119.132 62.0451 119.112 61.2797 119.174C61.0817 119.189 60.8903 119.336 60.9004 119.553C60.9088 119.744 61.0682 119.949 61.2797 119.932C62.0451 119.87 62.8155 119.89 63.5775 119.991C63.7755 120.018 63.9652 119.798 63.9568 119.612C63.9467 119.383 63.7889 119.259 63.5775 119.232Z" fill="#7366AE"/>
<path d="M43.9797 53.196C44.5303 57.6454 44.7317 63.0078 42.0144 66.8514C39.2752 70.7251 33.5821 71.279 29.5137 69.3589C28.2734 68.7731 27.1757 67.9675 26.125 67.0964C25.2691 66.3865 24.7471 65.6228 24.4013 64.5604C24.3426 64.3825 24.21 64.3053 24.0355 64.2818C22.6692 64.1005 21.1486 63.2512 20.6468 61.8985C20.4202 61.2858 20.4303 60.549 21.0177 60.1412C21.5682 59.7585 22.305 59.8458 22.8941 60.0791C23.3473 60.2603 23.5453 59.5252 23.0955 59.3473C21.4255 58.681 19.4132 59.683 19.7942 61.6668C20.1684 63.6171 22.211 64.8004 24.0338 65.0421C23.9113 64.9498 23.7904 64.8558 23.6679 64.7635C23.9868 65.7436 24.4315 66.5962 25.1986 67.2995C26.0831 68.1102 27.0784 68.8671 28.1106 69.4764C30.2875 70.762 32.8336 71.3444 35.3545 71.1447C37.6875 70.9601 40.007 70.1074 41.677 68.4257C43.3386 66.754 44.2365 64.4731 44.6645 62.1888C45.22 59.2265 45.1043 56.1735 44.7367 53.196C44.678 52.7177 43.9176 52.7109 43.9781 53.196H43.9797Z" fill="#7366AE"/>
<path d="M38.8811 59.1911C38.4716 58.4123 38.3105 57.4942 38.438 56.6231C38.4682 56.42 38.3877 56.2153 38.1728 56.1565C37.9949 56.1078 37.7364 56.217 37.7062 56.4217C37.582 57.2727 37.6458 58.1404 37.9496 58.951C38.0251 59.1524 38.1107 59.3522 38.2097 59.5418C38.2551 59.6291 38.3037 59.713 38.3524 59.7986C38.3692 59.8272 38.386 59.8674 38.4061 59.8993C38.3524 59.9245 38.2702 59.9732 38.2534 59.9799C38.1409 60.0302 38.0268 60.0806 37.9143 60.131C37.6878 60.2317 37.4629 60.3323 37.2363 60.4347C37.0483 60.5186 37.0047 60.7905 37.1004 60.955C37.2128 61.148 37.4326 61.1749 37.6206 61.091C37.859 60.9836 38.0973 60.8778 38.3356 60.7704C38.5303 60.6831 38.7418 60.611 38.9113 60.4817C39.1161 60.3256 39.2218 60.089 39.1765 59.8322C39.1345 59.5955 38.9902 59.4008 38.8811 59.1927V59.1911Z" fill="#7366AE"/>
<path d="M33.9995 59.9341C34.0935 59.7915 34.1085 59.6152 34.0901 59.4508C34.0632 59.2191 34.0045 59.0093 33.9004 58.8012C33.8534 58.7056 33.7947 58.6049 33.7191 58.5276C33.6151 58.4219 33.4422 58.3397 33.2895 58.3581C33.2626 58.3615 33.2358 58.3649 33.2106 58.3716C33.2022 58.3716 33.1955 58.3716 33.1888 58.3716C32.8783 58.4354 32.7809 58.7677 32.7608 59.0396C32.7457 59.241 32.7709 59.4508 32.8095 59.6488C32.8246 59.7294 32.8464 59.8166 32.8884 59.8888C33.0025 60.0869 33.1972 60.2077 33.4237 60.2295C33.6587 60.2514 33.8752 60.1272 34.0028 59.9358L33.9995 59.9341Z" fill="#7366AE"/>
<path d="M41.7626 57.3359C41.6065 57.2436 41.4152 57.2369 41.2574 57.3308C41.1097 57.4198 41.0241 57.586 40.9956 57.7504C40.9704 57.8881 40.9586 58.0257 40.9687 58.165C40.9788 58.3043 41.0006 58.4436 41.0358 58.5796C41.0744 58.7256 41.1265 58.875 41.2339 58.9857C41.301 59.0545 41.3967 59.1133 41.4907 59.1334C41.6266 59.162 41.7492 59.1402 41.8734 59.0814C42.0328 59.0059 42.1503 58.8347 42.1872 58.6635C42.2594 58.3211 42.1771 57.9653 42.0378 57.6531C41.9791 57.5272 41.8851 57.4081 41.7643 57.3359H41.7626Z" fill="#7366AE"/>
<path d="M42.6888 53.8938C42.2121 53.6337 41.6549 53.6236 41.1346 53.7293C40.6445 53.8284 40.1578 54.0499 39.7886 54.3923C39.7382 54.4393 39.7063 54.5031 39.6912 54.5702C39.6358 54.6592 39.6123 54.7666 39.6408 54.8723C39.6979 55.0788 39.9077 55.1811 40.1074 55.1375C40.9366 54.9546 41.7674 54.7716 42.5965 54.5887C42.9154 54.5182 42.9674 54.0482 42.6871 53.8938H42.6888Z" fill="#7366AE"/>
<path d="M34.0048 55.9663C34.1491 55.9411 34.2616 55.785 34.2767 55.6507C34.2968 55.4863 34.2213 55.3705 34.0954 55.2731C33.9057 55.1271 33.6305 55.0734 33.3989 55.0348C33.0699 54.9811 32.7376 54.9559 32.4036 54.9643C31.8581 54.976 31.0424 55.023 30.7219 55.5467C30.5322 55.8287 30.7437 56.1526 31.0374 56.2264C31.2522 56.2802 31.4905 56.2684 31.7104 56.2566C32.2962 56.2248 32.8802 56.1408 33.4593 56.0536C33.6406 56.0267 33.8235 55.9982 34.0031 55.968L34.0048 55.9663Z" fill="#7366AE"/>
<path d="M37.354 63.4155C37.1845 63.3752 37.0065 63.3618 36.8337 63.3416C36.3033 63.2762 35.7713 63.2225 35.2409 63.157C35.1704 63.1486 35.1016 63.1402 35.0311 63.1301C35.0076 63.1268 34.9824 63.1234 34.9589 63.1201C34.9489 63.1201 34.88 63.1083 34.8683 63.1083C34.7441 63.0915 34.6199 63.0731 34.4974 63.0513C34.4101 63.0362 34.3211 63.0194 34.2355 62.9975C34.2355 62.9975 34.2322 62.9975 34.2305 62.9975C34.014 62.8314 33.591 62.9589 33.6028 63.2929C33.6212 63.7612 33.7136 64.2211 33.8948 64.6558C33.9015 64.6709 33.9116 64.6826 33.9183 64.6977C33.9234 64.7145 33.925 64.7313 33.9317 64.7464C34.2506 65.4648 34.9774 65.9465 35.7712 65.9045C36.6306 65.8592 37.3926 65.3104 37.6997 64.5064C37.7685 64.3268 37.8273 64.112 37.8172 63.9173C37.8021 63.6487 37.599 63.4759 37.3523 63.4188L37.354 63.4155ZM37.062 63.9777C37.062 63.9777 37.062 63.976 37.0603 63.9744C37.0603 63.9794 37.0838 63.8569 37.062 63.9777ZM34.3245 63.1217C34.3379 63.1436 34.348 63.1671 34.3513 63.1889C34.3463 63.162 34.3329 63.1436 34.3245 63.1217ZM34.2003 62.9875C34.1768 62.9824 34.1499 62.974 34.1483 62.969C34.1449 62.9556 34.1785 62.9741 34.2003 62.9875ZM36.9579 64.3285C36.8891 64.4796 36.7934 64.6155 36.6759 64.733C36.456 64.9529 36.1589 65.0938 35.8518 65.1358C35.6269 65.166 35.3584 65.1257 35.1536 65.0133C34.9002 64.8757 34.734 64.6642 34.6065 64.3906C34.5292 64.1993 34.4705 64.0029 34.4285 63.8032C34.5846 63.8283 34.7407 63.8502 34.8968 63.8703C35.4994 63.9509 36.1053 64.013 36.7095 64.0851C36.7733 64.0918 36.8353 64.1002 36.8991 64.1086C36.926 64.112 36.9512 64.1154 36.978 64.1187C36.9814 64.1187 36.983 64.1187 36.9881 64.1187C37.0015 64.1204 37.0149 64.1237 37.0284 64.1254V64.1288C37.0099 64.1959 36.9881 64.263 36.9579 64.3268V64.3285ZM37.1694 64.1523C37.2046 64.1825 37.2281 64.1623 37.1694 64.1523V64.1523Z" fill="#7366AE"/>
<path d="M42.2208 51.3745C42.7831 51.8948 43.3486 52.447 43.7817 53.0832C44.1375 53.6068 44.4648 54.164 45.017 54.5047C45.2385 54.6424 45.4953 54.5014 45.5742 54.2782C46.7323 51.0355 45.9988 47.3129 43.8824 44.6291C42.7612 43.2058 41.2557 42.0158 39.579 41.3193C38.7465 40.9736 37.8721 40.7554 37.0094 40.5003C36.1534 40.2485 35.4586 39.6997 34.6512 39.3288C31.8685 38.0532 28.6695 37.9307 25.7004 38.5349C22.7196 39.1408 19.821 40.5221 17.6962 42.7308C12.1273 48.5213 14.0423 57.1247 11.4408 64.1034C10.1736 67.5022 6.98974 70.0449 6.57853 73.781C6.35866 75.7733 7.21131 77.6464 7.27341 79.6168C7.33383 81.557 6.40903 83.2925 5.34158 84.8483C3.38458 87.7033 0.3769 90.8536 1.39065 94.6367C2.26844 97.9129 5.69906 99.7877 8.84939 100.232C9.70705 100.353 10.5714 100.385 11.4358 100.394C11.5281 100.394 11.5986 100.362 11.6557 100.318C11.8671 100.447 12.238 100.348 12.2699 100.014C12.5939 96.7212 13.0924 93.4534 13.7285 90.2074C14.1984 87.8107 14.7187 85.377 15.7459 83.1464C16.8385 80.7766 18.5505 78.7172 21.0244 77.7336C22.4913 77.1512 24.0875 76.8575 25.6417 76.6158C26.4658 76.4883 27.2949 76.4346 28.1207 76.3221C28.5235 76.2667 28.886 76.114 29.1931 75.8421C30.702 74.5061 30.2874 72.017 30.8833 70.2749C30.9521 70.0718 30.8027 69.8721 30.6181 69.8083C29.0421 69.2561 27.691 68.3582 26.3953 67.3192C25.4218 66.5388 24.7873 65.7617 24.3963 64.56C24.3375 64.3821 24.205 64.3049 24.0304 64.2814C22.7179 64.1068 21.303 63.3314 20.724 62.091C20.4706 61.5489 20.3615 60.844 20.7811 60.3506C21.1889 59.8705 21.9106 59.8051 22.4846 59.9444C22.8421 60.0317 23.1157 60.2432 23.4866 60.2096C24.1412 60.1508 24.789 59.9142 25.3798 59.6356C26.6135 59.0565 27.6557 58.1284 28.5319 57.0962C29.46 56.0035 30.2505 54.7934 31.0209 53.5867C31.7342 52.4672 32.5029 51.3242 33.0417 50.1074C33.4059 49.2833 33.7281 48.1688 34.423 47.5529C34.908 47.1215 35.6046 47.385 36.1433 47.5848C36.8633 47.8516 37.5616 48.1755 38.238 48.5364C39.6814 49.3068 41.0191 50.2635 42.2191 51.3762L42.2208 51.3745Z" fill="#7366AE"/>
<path d="M46.711 72.1855C45.9859 71.0777 45.2491 69.97 44.6784 68.7716C44.3881 68.1624 44.1464 67.5279 43.9836 66.8717C43.8477 66.3245 43.6781 65.6414 43.8275 65.0876C43.9601 64.6008 43.2787 64.4498 43.0957 64.8862C42.134 67.1654 40.4556 68.916 38.1226 69.7887C37.7937 69.9112 37.5906 70.0808 37.599 70.4467C37.6141 71.0593 37.8407 71.739 37.9733 72.3365C38.2754 73.6994 38.6446 75.0455 39.0726 76.3731C39.1247 76.5359 39.2656 76.6483 39.4385 76.6517C41.0716 76.6869 42.703 76.8548 44.2521 77.3986C45.8667 77.9658 47.3001 78.941 48.5186 80.131C48.7519 80.3592 49.0674 80.1964 49.148 79.9615C49.289 79.9178 49.4081 79.8037 49.4216 79.6174C49.6196 76.8648 48.1628 74.4043 46.711 72.1855Z" fill="#7366AE"/>
<path d="M88.8315 43.1217C85.9027 43.6789 82.8783 42.3664 81.3291 39.8052C80.4715 38.387 80.1744 36.7371 80.3959 35.1527H62.4942C61.5124 35.1527 60.7185 35.9483 60.7185 36.9285V67.1596C60.7185 68.1414 61.514 68.937 62.4942 68.937H84.2277L90.6559 62.5088V42.4923C90.0903 42.781 89.481 42.9975 88.8332 43.12L88.8315 43.1217Z" fill="#F4F2FF"/>
<path d="M87.4404 41.6364H85.4615C86.2068 41.9032 87.0023 42.0173 87.8012 41.972C87.7844 41.7975 87.667 41.6364 87.4421 41.6364H87.4404Z" fill="#7366AE"/>
<path d="M82.932 41.6364H64.2414C63.753 41.6364 63.7514 42.395 64.2414 42.395H84.0699C83.6671 42.1802 83.2878 41.9234 82.932 41.6364Z" fill="#7366AE"/>
<path d="M64.2417 49.4818H87.4387C87.9271 49.4818 87.9288 48.7231 87.4387 48.7231H64.2417C63.7533 48.7231 63.7516 49.4818 64.2417 49.4818Z" fill="#7366AE"/>
<path d="M64.2417 56.5664H87.4387C87.9271 56.5664 87.9288 55.8078 87.4387 55.8078H64.2417C63.7533 55.8078 63.7516 56.5664 64.2417 56.5664Z" fill="#7366AE"/>
<path d="M64.2417 63.6522H87.4387C87.9271 63.6522 87.9288 62.8936 87.4387 62.8936H64.2417C63.7533 62.8936 63.7516 63.6522 64.2417 63.6522Z" fill="#7366AE"/>
<path d="M84.2264 68.9395L90.6546 62.5112H84.2264V68.9395Z" fill="#95BF70"/>
<path d="M90.6349 33.8086C89.1696 35.1815 87.7044 36.5528 86.2392 37.9257C86.2039 37.9593 86.167 37.9928 86.1317 38.0264C85.5359 37.2392 84.9418 36.4521 84.3459 35.6649C84.1395 35.393 83.8004 35.2504 83.4799 35.4383C83.2113 35.5944 83.0452 36.0308 83.2533 36.3044C84.0052 37.298 84.7571 38.2916 85.5074 39.2852C85.7558 39.6141 86.177 39.7182 86.501 39.4127C87.9662 38.0398 89.4315 36.6686 90.8967 35.2957C91.1082 35.0976 91.3179 34.9012 91.5294 34.7032C92.1252 34.146 91.229 33.2514 90.6349 33.8086Z" fill="#95BF70"/>
<path d="M89.8476 29.4147C87.0665 28.3942 83.8104 29.3039 81.9407 31.5932C80.0525 33.9044 79.7772 37.2393 81.3298 39.8073C82.8789 42.3685 85.9017 43.681 88.8321 43.1238C92.157 42.491 94.537 39.4733 94.5739 36.1299C94.5403 33.1306 92.6706 30.4519 89.8493 29.4164L89.8476 29.4147ZM89.4447 41.6451C87.1185 42.4709 84.5103 41.7626 82.9225 39.8744C81.3314 37.9829 81.1485 35.1934 82.4224 33.0904C83.6761 31.0176 86.1803 29.888 88.5653 30.3697C91.3111 30.9236 93.2765 33.3404 93.3067 36.1299C93.2799 38.5619 91.7626 40.8227 89.4447 41.6468V41.6451Z" fill="#95BF70"/>
</svg>
