<svg width="54" height="54" viewBox="0 0 54 54" fill="none" xmlns="http://www.w3.org/2000/svg">
<path d="M39.2625 51.1875C36.72 51.1875 34.0425 50.58 31.275 49.41C28.575 48.2625 25.8525 46.6875 23.1975 44.775C20.565 42.84 18.0225 40.68 15.615 38.3175C13.23 35.91 11.07 33.3675 9.1575 30.7575C7.2225 28.0575 5.67 25.3575 4.5675 22.7475C3.3975 19.9575 2.8125 17.2575 2.8125 14.715C2.8125 12.96 3.1275 11.295 3.735 9.7425C4.365 8.145 5.3775 6.66 6.75 5.3775C8.4825 3.6675 10.4625 2.8125 12.5775 2.8125C13.455 2.8125 14.355 3.015 15.12 3.375C15.9975 3.78 16.74 4.3875 17.28 5.1975L22.5 12.555C22.9725 13.2075 23.3325 13.8375 23.58 14.4675C23.8725 15.1425 24.03 15.8175 24.03 16.47C24.03 17.325 23.7825 18.1575 23.31 18.945C22.9725 19.5525 22.455 20.205 21.8025 20.8575L20.2725 22.455C20.295 22.5225 20.3175 22.5675 20.34 22.6125C20.61 23.085 21.15 23.895 22.185 25.11C23.2875 26.37 24.3225 27.5175 25.3575 28.575C26.685 29.88 27.7875 30.915 28.8225 31.77C30.105 32.85 30.9375 33.39 31.4325 33.6375L31.3875 33.75L33.03 32.13C33.7275 31.4325 34.4025 30.915 35.055 30.5775C36.2925 29.8125 37.8675 29.6775 39.4425 30.33C40.0275 30.5775 40.6575 30.915 41.3325 31.3875L48.8025 36.6975C49.635 37.26 50.2425 37.98 50.6025 38.835C50.94 39.69 51.0975 40.4775 51.0975 41.265C51.0975 42.345 50.85 43.425 50.3775 44.4375C49.905 45.45 49.32 46.3275 48.5775 47.1375C47.295 48.555 45.9 49.5675 44.28 50.22C42.7275 50.85 41.04 51.1875 39.2625 51.1875ZM12.5775 6.1875C11.34 6.1875 10.1925 6.7275 9.09 7.8075C8.055 8.775 7.335 9.8325 6.885 10.98C6.4125 12.15 6.1875 13.3875 6.1875 14.715C6.1875 16.8075 6.6825 19.08 7.6725 21.42C8.685 23.805 10.1025 26.28 11.9025 28.755C13.7025 31.23 15.75 33.6375 18 35.91C20.25 38.1375 22.68 40.2075 25.1775 42.03C27.6075 43.8075 30.105 45.2475 32.58 46.2825C36.4275 47.925 40.0275 48.3075 42.9975 47.07C44.145 46.5975 45.1575 45.8775 46.08 44.8425C46.5975 44.28 47.0025 43.6725 47.34 42.9525C47.61 42.39 47.745 41.805 47.745 41.22C47.745 40.86 47.6775 40.5 47.4975 40.095C47.43 39.96 47.295 39.7125 46.8675 39.42L39.3975 34.11C38.9475 33.795 38.5425 33.57 38.16 33.4125C37.665 33.21 37.4625 33.0075 36.6975 33.48C36.2475 33.705 35.8425 34.0425 35.3925 34.4925L33.6825 36.18C32.805 37.035 31.455 37.2375 30.42 36.855L29.8125 36.585C28.89 36.09 27.81 35.325 26.6175 34.3125C25.5375 33.39 24.3675 32.31 22.95 30.915C21.8475 29.79 20.745 28.5975 19.5975 27.27C18.54 26.0325 17.775 24.975 17.3025 24.0975L17.0325 23.4225C16.8975 22.905 16.8525 22.6125 16.8525 22.2975C16.8525 21.4875 17.145 20.7675 17.7075 20.205L19.395 18.45C19.845 18 20.1825 17.5725 20.4075 17.19C20.5875 16.8975 20.655 16.65 20.655 16.425C20.655 16.245 20.5875 15.975 20.475 15.705C20.3175 15.345 20.07 14.94 19.755 14.5125L14.535 7.1325C14.31 6.8175 14.04 6.5925 13.7025 6.435C13.3425 6.2775 12.96 6.1875 12.5775 6.1875ZM31.3875 33.7725L31.0275 35.3025L31.635 33.7275C31.5225 33.705 31.4325 33.7275 31.3875 33.7725Z" fill="#7366AE"/>
<path d="M41.625 21.9375C40.7025 21.9375 39.9375 21.1725 39.9375 20.25C39.9375 19.44 39.1275 17.7525 37.7775 16.3125C36.45 14.895 34.9875 14.0625 33.75 14.0625C32.8275 14.0625 32.0625 13.2975 32.0625 12.375C32.0625 11.4525 32.8275 10.6875 33.75 10.6875C35.9325 10.6875 38.2275 11.8575 40.23 13.995C42.0975 15.9975 43.3125 18.45 43.3125 20.25C43.3125 21.1725 42.5475 21.9375 41.625 21.9375Z" fill="#7366AE"/>
<path d="M49.5 21.9375C48.5775 21.9375 47.8125 21.1725 47.8125 20.25C47.8125 12.4875 41.5125 6.1875 33.75 6.1875C32.8275 6.1875 32.0625 5.4225 32.0625 4.5C32.0625 3.5775 32.8275 2.8125 33.75 2.8125C43.3575 2.8125 51.1875 10.6425 51.1875 20.25C51.1875 21.1725 50.4225 21.9375 49.5 21.9375Z" fill="#7366AE"/>
</svg>
