<svg width="33" height="33" viewBox="0 0 33 33" fill="none" xmlns="http://www.w3.org/2000/svg">
<path d="M15.8232 2.44922C15.8232 2.46856 15.7169 2.48145 15.5654 2.48145C15.414 2.48145 15.3076 2.49434 15.3076 2.51367C15.3076 2.53301 15.2206 2.5459 15.1143 2.5459C15.0079 2.5459 14.9209 2.55879 14.9209 2.57812C14.9209 2.59424 14.85 2.61035 14.7598 2.61035C14.6728 2.61035 14.5986 2.62324 14.5986 2.64258C14.5986 2.65869 14.5406 2.6748 14.4697 2.6748C14.3988 2.6748 14.3408 2.6877 14.3408 2.70703C14.3408 2.72314 14.2989 2.73926 14.2474 2.73926C14.1926 2.73926 14.141 2.75215 14.1314 2.77148C14.1217 2.7876 14.0766 2.80371 14.0315 2.80371C13.9896 2.80371 13.9251 2.8166 13.8897 2.83594C13.8542 2.85205 13.7962 2.88106 13.7607 2.90039C13.7253 2.9165 13.6673 2.93262 13.6318 2.93262C13.5964 2.93262 13.5674 2.94551 13.5674 2.96484C13.5674 2.98096 13.5384 2.99707 13.5029 2.99707C13.4675 2.99707 13.4385 3.00996 13.4385 3.0293C13.4385 3.04541 13.4095 3.06152 13.3773 3.06152C13.3418 3.06152 13.3031 3.07442 13.2935 3.09375C13.2838 3.10986 13.2483 3.12598 13.2161 3.12598C13.1871 3.12598 13.1291 3.15498 13.0904 3.19043C13.0518 3.22588 13.0002 3.25488 12.9712 3.25488C12.9454 3.25488 12.9229 3.26777 12.9229 3.28711C12.9229 3.30322 12.8971 3.31934 12.8649 3.31934C12.8326 3.31934 12.7875 3.34834 12.7617 3.38379C12.7359 3.41924 12.6973 3.44824 12.6747 3.44824C12.6232 3.44824 11.9561 4.11533 11.9561 4.16689C11.9561 4.18945 11.9271 4.22812 11.8916 4.25391C11.8562 4.27969 11.8272 4.3248 11.8272 4.35703C11.8272 4.38926 11.8143 4.41504 11.7949 4.41504C11.7788 4.41504 11.7627 4.44404 11.7627 4.47949C11.7627 4.51494 11.7498 4.54395 11.7305 4.54395C11.7144 4.54395 11.6982 4.57295 11.6982 4.60518C11.6982 4.64062 11.6854 4.6793 11.666 4.68896C11.6499 4.69863 11.6338 4.74375 11.6338 4.78887C11.6338 4.83076 11.6209 4.86621 11.6016 4.86621C11.5855 4.86621 11.5693 4.92422 11.5693 4.9919C11.5693 5.06279 11.5565 5.13047 11.5371 5.14014C11.521 5.14981 11.5049 5.28193 11.5049 5.43018C11.5049 5.69766 11.5049 5.69766 11.4082 5.74277C11.3566 5.76533 11.3115 5.79434 11.3115 5.80723C11.3115 5.82334 11.2922 5.83301 11.2729 5.83301C11.2503 5.83301 11.1794 5.87813 11.1182 5.92969C11.0569 5.98125 10.9925 6.02637 10.9764 6.02637C10.9603 6.02637 10.9248 6.05215 10.8958 6.08438C10.8668 6.1166 10.7927 6.17783 10.7315 6.21973C10.5929 6.31641 10.1514 6.76113 10.1514 6.80625C10.1514 6.82236 10.1095 6.88037 10.0547 6.92871C10.0031 6.97705 9.95801 7.03506 9.95801 7.0544C9.95801 7.07695 9.92901 7.12207 9.89356 7.16074C9.85811 7.19942 9.82911 7.25098 9.82911 7.27353C9.82911 7.29609 9.81622 7.31543 9.79688 7.31543C9.78077 7.31543 9.76465 7.34443 9.76465 7.37988C9.76465 7.41533 9.75499 7.44434 9.7421 7.44434C9.71309 7.44434 9.63575 7.60225 9.63575 7.66025C9.63575 7.68281 9.62286 7.70215 9.60352 7.70215C9.58741 7.70215 9.5713 7.73115 9.5713 7.7666C9.5713 7.80205 9.5584 7.83105 9.53907 7.83105C9.52296 7.83105 9.50684 7.8665 9.50684 7.9084C9.50684 7.95352 9.49395 7.99863 9.47462 8.0083C9.4585 8.01797 9.44239 8.06309 9.44239 8.10498C9.44239 8.14688 9.4295 8.19199 9.41016 8.20166C9.39405 8.21133 9.37794 8.26289 9.37794 8.31768C9.37794 8.36924 9.36505 8.41113 9.34571 8.41113C9.3296 8.41113 9.31348 8.48203 9.31348 8.57227C9.31348 8.65928 9.30059 8.7334 9.28126 8.7334C9.26192 8.7334 9.24903 8.84619 9.24903 9.0041C9.24903 9.15557 9.23614 9.28769 9.2168 9.29736C9.17491 9.32314 9.17491 9.88389 9.2168 9.90967C9.27481 9.94512 9.25225 10.2706 9.18458 10.3931C9.14913 10.4575 9.12012 10.5284 9.12012 10.5542C9.12012 10.58 9.10723 10.6025 9.0879 10.6025C9.07178 10.6025 9.05567 10.6315 9.05567 10.667C9.05567 10.7024 9.04278 10.7314 9.02344 10.7314C9.00733 10.7314 8.99122 10.7669 8.99122 10.8088C8.99122 10.8539 8.97833 10.899 8.95899 10.9087C8.94288 10.9184 8.92676 10.957 8.92676 10.9925C8.92676 11.0537 8.91387 11.0827 8.83653 11.2374C8.81397 11.2793 8.79786 11.3534 8.79786 11.4082C8.79786 11.4598 8.78497 11.5049 8.76563 11.5049C8.74952 11.5049 8.7334 11.5629 8.7334 11.6338C8.7334 11.7047 8.72051 11.7627 8.70118 11.7627C8.68506 11.7627 8.66895 11.8207 8.66895 11.8916C8.66895 11.9625 8.65606 12.0205 8.63672 12.0205C8.62061 12.0205 8.6045 12.0914 8.6045 12.1816C8.6045 12.2687 8.59161 12.3428 8.57227 12.3428C8.55294 12.3428 8.54005 12.4395 8.54005 12.5651C8.54005 12.6908 8.52715 12.8004 8.50782 12.8101C8.48848 12.823 8.47559 13.0356 8.47559 13.3418C8.47559 13.6479 8.48848 13.8606 8.50782 13.8735C8.52715 13.8832 8.54005 13.9702 8.54005 14.0669C8.54005 14.1636 8.55616 14.2506 8.57227 14.2603C8.59161 14.2699 8.6045 14.3279 8.6045 14.3892C8.6045 14.4504 8.62061 14.5084 8.63672 14.5181C8.65606 14.5277 8.66895 14.5793 8.66895 14.6341C8.66895 14.6856 8.68506 14.7275 8.70118 14.7275C8.72051 14.7275 8.7334 14.7694 8.7334 14.8242C8.7334 14.8758 8.74952 14.9209 8.76563 14.9209C8.78497 14.9209 8.79786 14.9499 8.79786 14.9854C8.79786 15.0208 8.81397 15.0498 8.83008 15.0498C8.84942 15.0498 8.86231 15.0756 8.86231 15.111C8.86231 15.1819 9.05567 15.5654 9.09434 15.5654C9.10723 15.5654 9.12012 15.5944 9.12012 15.6299C9.12012 15.6653 9.13624 15.6943 9.15235 15.6943C9.17169 15.6943 9.18458 15.7137 9.18458 15.733C9.18458 15.7556 9.22969 15.8265 9.28126 15.8877C9.33282 15.9489 9.37794 16.0134 9.37794 16.0263C9.37794 16.0682 9.99024 16.6611 10.0354 16.6611C10.0547 16.6611 10.0934 16.6901 10.1191 16.7256C10.1449 16.761 10.19 16.79 10.2223 16.79C10.2545 16.79 10.2803 16.8029 10.2803 16.8223C10.2803 16.8384 10.3093 16.8545 10.3447 16.8545C10.3802 16.8545 10.4092 16.8674 10.4092 16.8867C10.4092 16.9028 10.4382 16.9189 10.4736 16.9189C10.5091 16.9189 10.5381 16.9318 10.5381 16.9512C10.5381 16.9673 10.5832 16.9834 10.6348 16.9834C10.6896 16.9834 10.7315 16.9963 10.7315 17.0156C10.7315 17.0317 10.7895 17.0479 10.8571 17.0479C10.928 17.0479 10.9957 17.0607 11.0054 17.0801C11.015 17.0962 11.0698 17.1123 11.1214 17.1123C11.2406 17.1123 11.3115 17.1768 11.3115 17.2863C11.3115 17.3314 11.3276 17.3701 11.3438 17.3701C11.3631 17.3701 11.376 17.3991 11.376 17.4346C11.376 17.47 11.3921 17.499 11.4082 17.499C11.4275 17.499 11.4404 17.5409 11.4404 17.5957C11.4404 17.6473 11.4565 17.6924 11.4727 17.6924C11.492 17.6924 11.5049 17.7214 11.5049 17.7568C11.5049 17.7923 11.521 17.8213 11.5371 17.8213C11.5565 17.8213 11.5693 17.8503 11.5693 17.8857C11.5693 17.9212 11.5855 17.9502 11.6016 17.9502C11.6209 17.9502 11.6338 17.9792 11.6338 18.0146C11.6338 18.0501 11.6499 18.0791 11.666 18.0791C11.6854 18.0791 11.6982 18.1081 11.6982 18.1436C11.6982 18.179 11.7144 18.208 11.7305 18.208C11.7498 18.208 11.7627 18.2273 11.7627 18.2499C11.7627 18.2725 11.7917 18.324 11.8272 18.3627C11.8626 18.4014 11.8916 18.4497 11.8916 18.4723C11.8916 18.498 11.9206 18.5367 11.9561 18.5625C11.9915 18.5883 12.0205 18.6302 12.0205 18.6592C12.0205 18.6882 12.0495 18.7301 12.085 18.7559C12.1204 18.7816 12.1494 18.8235 12.1494 18.8461C12.1494 18.8719 12.1913 18.9331 12.2461 18.9814C12.3009 19.0298 12.3428 19.0878 12.3428 19.1104C12.3428 19.1297 12.4169 19.2167 12.5039 19.3037C12.5941 19.3907 12.665 19.4745 12.665 19.4906C12.665 19.5325 13.0453 19.9192 13.1807 20.0127C13.4514 20.2028 13.4417 20.1674 13.432 20.8248L13.4224 21.4146L13.2709 21.4242C13.1839 21.4307 13.1162 21.4468 13.1162 21.4661C13.1162 21.4822 13.0582 21.4951 12.9873 21.4951H12.8584V21.334C12.8584 21.2438 12.8455 21.1729 12.8262 21.1729C12.8101 21.1729 12.794 21.1503 12.794 21.1245C12.794 21.0955 12.7585 21.0375 12.7134 20.9956C12.6457 20.9247 12.607 20.915 12.4233 20.915C12.3041 20.915 12.2139 20.9279 12.2139 20.9473C12.2139 20.9634 12.172 20.9795 12.1172 20.9795C12.0656 20.9795 12.0205 20.9924 12.0205 21.0117C12.0205 21.0278 11.9786 21.0439 11.9238 21.0439C11.8723 21.0439 11.8272 21.0568 11.8272 21.0762C11.8272 21.0923 11.7853 21.1084 11.7305 21.1084C11.6789 21.1084 11.6338 21.1213 11.6338 21.1406C11.6338 21.1567 11.5919 21.1729 11.5371 21.1729C11.4856 21.1729 11.4404 21.1857 11.4404 21.2051C11.4404 21.2212 11.405 21.2373 11.3631 21.2373C11.318 21.2373 11.2729 21.2502 11.2632 21.2695C11.2535 21.2856 11.2149 21.3018 11.1794 21.3018C11.1472 21.3018 11.1182 21.3146 11.1182 21.334C11.1182 21.3501 11.0827 21.3662 11.0408 21.3662C10.9957 21.3662 10.9506 21.3791 10.9409 21.3984C10.9313 21.4146 10.8926 21.4307 10.8571 21.4307C10.8249 21.4307 10.7959 21.4436 10.7959 21.4629C10.7959 21.479 10.7669 21.4951 10.7315 21.4951C10.696 21.4951 10.667 21.508 10.667 21.5273C10.667 21.5435 10.638 21.5596 10.6025 21.5596C10.5671 21.5596 10.4898 21.5886 10.4253 21.624C10.3608 21.6595 10.2899 21.6885 10.2642 21.6885C10.2384 21.6885 10.2158 21.7014 10.2158 21.7207C10.2158 21.7368 10.1933 21.7529 10.1675 21.7529C10.1385 21.7529 10.0869 21.7819 10.0482 21.8174C10.0096 21.8528 9.95801 21.8818 9.93546 21.8818C9.9129 21.8818 9.89356 21.8947 9.89356 21.9141C9.89356 21.9302 9.86456 21.9463 9.82911 21.9463C9.79366 21.9463 9.76465 21.9592 9.76465 21.9785C9.76465 21.9946 9.74532 22.0107 9.72276 22.0107C9.64219 22.0107 9.44239 22.2267 9.44239 22.3137C9.44239 22.3588 9.4295 22.3975 9.41016 22.3975C9.36827 22.3975 9.36827 22.5489 9.41016 22.5747C9.4295 22.5844 9.44239 22.6295 9.44239 22.6714C9.44239 22.7133 9.4585 22.7584 9.47462 22.7681C9.52618 22.8003 9.51007 22.8486 9.44883 22.8486C9.41661 22.8486 9.37149 22.8776 9.34571 22.9131C9.31993 22.9485 9.27481 22.9775 9.24258 22.9775C9.21036 22.9775 9.18458 22.9904 9.18458 23.0033C9.18458 23.0194 9.1459 23.0517 9.09756 23.0774C9.046 23.1032 8.98477 23.1483 8.95577 23.1773C8.92676 23.2096 8.88809 23.2354 8.87198 23.2354C8.85264 23.2354 8.79464 23.2772 8.73985 23.332C8.68184 23.3836 8.62383 23.4287 8.6045 23.4287C8.58839 23.4287 8.49815 23.4996 8.40792 23.5898C8.31768 23.6801 8.23067 23.751 8.21456 23.751C8.17266 23.751 7.6087 24.3214 7.5088 24.46C7.4669 24.5212 7.37667 24.6275 7.30899 24.692C7.24131 24.7564 7.18653 24.8241 7.18653 24.8435C7.18653 24.8628 7.14141 24.924 7.08985 24.982C7.03506 25.0368 6.99317 25.098 6.99317 25.1174C6.99317 25.1367 6.96417 25.1754 6.92872 25.2012C6.89327 25.227 6.86426 25.2688 6.86426 25.2979C6.86426 25.3269 6.83526 25.3688 6.79981 25.3945C6.76436 25.4203 6.73536 25.4654 6.73536 25.4977C6.73536 25.5299 6.72247 25.5557 6.70313 25.5557C6.68702 25.5557 6.6709 25.5814 6.6709 25.6137C6.6709 25.6459 6.6419 25.691 6.60645 25.7168C6.571 25.7426 6.542 25.7877 6.542 25.8199C6.542 25.8521 6.52911 25.8779 6.50977 25.8779C6.49366 25.8779 6.47755 25.9069 6.47755 25.9424C6.47755 25.9778 6.46465 26.0068 6.44532 26.0068C6.42921 26.0068 6.41309 26.0358 6.41309 26.0713C6.41309 26.1067 6.4002 26.1357 6.38087 26.1357C6.36475 26.1357 6.34864 26.1647 6.34864 26.2002C6.34864 26.2356 6.33575 26.2646 6.31641 26.2646C6.3003 26.2646 6.28419 26.2937 6.28419 26.3291C6.28419 26.3646 6.2713 26.3936 6.25196 26.3936C6.23585 26.3936 6.21973 26.4226 6.21973 26.458C6.21973 26.4935 6.20684 26.5225 6.18751 26.5225C6.17139 26.5225 6.15528 26.5644 6.15528 26.6191C6.15528 26.6707 6.14239 26.7158 6.12305 26.7158C6.10694 26.7158 6.09083 26.7448 6.09083 26.7803C6.09083 26.8157 6.07794 26.8447 6.0586 26.8447C6.04249 26.8447 6.02637 26.8866 6.02637 26.9414C6.02637 26.993 6.01348 27.0381 5.99415 27.0381C5.97803 27.0381 5.96192 27.08 5.96192 27.1348C5.96192 27.1863 5.94903 27.2314 5.92969 27.2314C5.91358 27.2314 5.89747 27.2733 5.89747 27.3281C5.89747 27.3797 5.88458 27.4248 5.86524 27.4248C5.84913 27.4248 5.83301 27.4667 5.83301 27.5215C5.83301 27.573 5.82012 27.6182 5.80079 27.6182C5.78467 27.6182 5.76856 27.6762 5.76856 27.7471C5.76856 27.818 5.75567 27.876 5.73633 27.876C5.72022 27.876 5.70411 27.934 5.70411 28.0049C5.70411 28.0758 5.69122 28.1338 5.67188 28.1338C5.65577 28.1338 5.63965 28.2047 5.63965 28.2949C5.63965 28.3819 5.62676 28.4561 5.60743 28.4561C5.58809 28.4561 5.5752 28.5431 5.5752 28.6494C5.5752 28.7558 5.56231 28.8428 5.54297 28.8428C5.52364 28.8428 5.51075 28.9427 5.51075 29.0813C5.51075 29.2134 5.49464 29.3326 5.47852 29.3423C5.45919 29.3552 5.4463 29.5872 5.4463 29.9353C5.4463 30.3413 5.4334 30.5186 5.40762 30.5443C5.3754 30.5766 5.3754 30.5991 5.40762 30.6475C5.42696 30.6829 5.4463 30.7474 5.4463 30.7957C5.4463 30.8827 5.48174 30.9246 5.60098 30.9923C5.65577 31.0245 7.8794 31.0342 16.4194 31.0342C22.6166 31.0342 27.167 31.0213 27.167 31.0052C27.167 30.9891 27.196 30.9697 27.2315 30.9601C27.2669 30.9504 27.2959 30.9214 27.2959 30.8924C27.2959 30.8634 27.312 30.8408 27.3281 30.8408C27.3475 30.8408 27.3604 30.612 27.3604 30.2156C27.3604 29.8321 27.3475 29.5808 27.3281 29.5679C27.312 29.5582 27.2959 29.4261 27.2959 29.2778C27.2959 29.1296 27.283 28.9975 27.2637 28.9878C27.2476 28.9781 27.2315 28.8814 27.2315 28.7751C27.2315 28.6688 27.2186 28.585 27.1992 28.585C27.1831 28.585 27.167 28.5141 27.167 28.4271C27.167 28.3368 27.1541 28.2563 27.1348 28.2466C27.1187 28.2369 27.1025 28.1692 27.1025 28.1016C27.1025 28.0339 27.0897 27.9662 27.0703 27.9565C27.0542 27.9469 27.0381 27.8889 27.0381 27.8276C27.0381 27.7664 27.0252 27.7084 27.0059 27.6987C26.9898 27.6891 26.9736 27.6375 26.9736 27.5827C26.9736 27.5312 26.9607 27.4893 26.9414 27.4893C26.9253 27.4893 26.9092 27.4441 26.9092 27.3926C26.9092 27.3378 26.8963 27.2959 26.877 27.2959C26.8608 27.2959 26.8447 27.2508 26.8447 27.1992C26.8447 27.1444 26.8318 27.1025 26.8125 27.1025C26.7964 27.1025 26.7803 27.0574 26.7803 27.0059C26.7803 26.9511 26.7674 26.9092 26.7481 26.9092C26.7319 26.9092 26.7158 26.8802 26.7158 26.8479C26.7158 26.8125 26.7029 26.7738 26.6836 26.7642C26.6675 26.7545 26.6514 26.7094 26.6514 26.6643C26.6514 26.6224 26.6385 26.5869 26.6191 26.5869C26.603 26.5869 26.5869 26.5579 26.5869 26.5225C26.5869 26.487 26.574 26.458 26.5547 26.458C26.5386 26.458 26.5225 26.429 26.5225 26.3936C26.5225 26.3581 26.5096 26.3291 26.4902 26.3291C26.4741 26.3291 26.458 26.3098 26.458 26.2872C26.458 26.2292 26.3807 26.0713 26.3549 26.0713C26.3388 26.0713 26.3291 26.0423 26.3291 26.0068C26.3291 25.9714 26.3162 25.9424 26.2969 25.9424C26.2808 25.9424 26.2647 25.9134 26.2647 25.8779C26.2647 25.8425 26.2518 25.8135 26.2324 25.8135C26.2163 25.8135 26.2002 25.7909 26.2002 25.7651C26.2002 25.7361 26.1712 25.6846 26.1357 25.6459C26.1003 25.6072 26.0713 25.5557 26.0713 25.5331C26.0713 25.5105 26.0584 25.4912 26.0391 25.4912C26.023 25.4912 26.0068 25.4654 26.0068 25.4332C26.0068 25.401 25.9778 25.3559 25.9424 25.3301C25.9069 25.3043 25.8779 25.2656 25.8779 25.2431C25.8779 25.2205 25.836 25.1561 25.7813 25.098C25.7297 25.0433 25.6846 24.9853 25.6846 24.9691C25.6846 24.9563 25.6427 24.8982 25.5879 24.8402C25.5363 24.7854 25.4912 24.7274 25.4912 24.7146C25.4912 24.6823 25.1399 24.3021 24.9144 24.0926C24.8402 24.0217 24.6662 23.8541 24.5341 23.7252C24.402 23.5995 24.2763 23.4932 24.2602 23.4932C24.2441 23.4932 24.186 23.448 24.1377 23.3965C24.0894 23.3417 24.0314 23.2998 24.012 23.2998C23.9927 23.2998 23.9315 23.2547 23.8734 23.2031C23.8187 23.1483 23.7607 23.1064 23.7445 23.1064C23.7284 23.1064 23.6865 23.0774 23.6479 23.042C23.6092 23.0065 23.5576 22.9775 23.5351 22.9775C23.5125 22.9775 23.4932 22.9679 23.4932 22.9518C23.4932 22.9389 23.4513 22.9099 23.3965 22.8873C23.3063 22.8454 23.2579 22.7197 23.332 22.7197C23.3772 22.7197 23.3707 22.3137 23.3256 22.2299C23.2676 22.13 23.2128 22.0752 23.1709 22.0752C23.1516 22.0752 23.1065 22.0462 23.0678 22.0107C23.0291 21.9753 22.9775 21.9463 22.955 21.9463C22.9324 21.9463 22.9131 21.9302 22.9131 21.9141C22.9131 21.8947 22.8841 21.8818 22.8486 21.8818C22.8132 21.8818 22.7842 21.8657 22.7842 21.8496C22.7842 21.8303 22.7552 21.8174 22.7197 21.8174C22.6843 21.8174 22.6553 21.8013 22.6553 21.7852C22.6553 21.7658 22.6263 21.7529 22.5908 21.7529C22.5554 21.7529 22.5264 21.7368 22.5264 21.7207C22.5264 21.7014 22.4974 21.6885 22.4619 21.6885C22.4265 21.6885 22.3975 21.6724 22.3975 21.6562C22.3975 21.6369 22.3685 21.624 22.333 21.624C22.2976 21.624 22.2686 21.6079 22.2686 21.5918C22.2686 21.5725 22.2396 21.5596 22.2041 21.5596C22.1687 21.5596 22.1397 21.5435 22.1397 21.5273C22.1397 21.508 22.1107 21.4951 22.0784 21.4951C22.043 21.4951 22.0043 21.479 21.9946 21.4629C21.985 21.4436 21.9399 21.4307 21.8947 21.4307C21.8528 21.4307 21.8174 21.4146 21.8174 21.3984C21.8174 21.3791 21.7884 21.3662 21.7529 21.3662C21.7175 21.3662 21.6885 21.3501 21.6885 21.334C21.6885 21.3146 21.6466 21.3018 21.5918 21.3018C21.5402 21.3018 21.4951 21.2856 21.4951 21.2695C21.4951 21.2502 21.4661 21.2373 21.4307 21.2373C21.3952 21.2373 21.3372 21.2212 21.3018 21.2051C21.2663 21.1857 21.2083 21.1567 21.1729 21.1406C21.1374 21.1245 21.0794 21.1084 21.044 21.1084C21.0085 21.1084 20.9795 21.0923 20.9795 21.0762C20.9795 21.0568 20.9376 21.0439 20.8828 21.0439C20.8313 21.0439 20.7861 21.0278 20.7861 21.0117C20.7861 20.9924 20.7442 20.9795 20.6895 20.9795C20.6379 20.9795 20.5928 20.9634 20.5928 20.9473C20.5928 20.9279 20.4993 20.915 20.3801 20.915C20.1803 20.915 20.1609 20.9215 20.0578 21.0246C19.9676 21.1148 19.9482 21.1567 19.9482 21.276C19.9482 21.3533 19.9321 21.4339 19.9096 21.4564C19.8645 21.5016 19.6904 21.508 19.6904 21.4629C19.6904 21.4436 19.6195 21.4307 19.5293 21.4307H19.3682V20.8345V20.2383L19.8838 19.7227C20.1674 19.4358 20.3994 19.1877 20.3994 19.1716C20.3994 19.1522 20.4445 19.0942 20.4961 19.0459C20.5509 18.9976 20.5928 18.9363 20.5928 18.9105C20.5928 18.888 20.6218 18.8461 20.6572 18.8203C20.6927 18.7945 20.7217 18.7526 20.7217 18.7236C20.7217 18.6946 20.7507 18.6527 20.7861 18.627C20.8216 18.6012 20.8506 18.5625 20.8506 18.5367C20.8506 18.5142 20.8796 18.4658 20.915 18.4271C20.9505 18.3885 20.9795 18.3369 20.9795 18.3144C20.9795 18.2918 20.9956 18.2725 21.0117 18.2725C21.0311 18.2725 21.044 18.2435 21.044 18.208C21.044 18.1726 21.0601 18.1436 21.0762 18.1436C21.0955 18.1436 21.1084 18.1146 21.1084 18.0791C21.1084 18.0437 21.1245 18.0146 21.1406 18.0146C21.16 18.0146 21.1729 17.9856 21.1729 17.9502C21.1729 17.9147 21.189 17.8857 21.2051 17.8857C21.2244 17.8857 21.2373 17.8567 21.2373 17.8213C21.2373 17.7858 21.2534 17.7568 21.2695 17.7568C21.2889 17.7568 21.3018 17.7278 21.3018 17.6924C21.3018 17.6569 21.3179 17.6279 21.334 17.6279C21.3533 17.6279 21.3662 17.5925 21.3662 17.5506C21.3662 17.5055 21.3823 17.4604 21.3984 17.4507C21.4178 17.441 21.4307 17.4023 21.4307 17.3669C21.4307 17.3347 21.4468 17.3057 21.4629 17.3057C21.4822 17.3057 21.4951 17.2605 21.4951 17.209C21.4951 17.1188 21.5016 17.1123 21.624 17.1123C21.6949 17.1123 21.7529 17.0962 21.7529 17.0801C21.7529 17.0607 21.8109 17.0479 21.8786 17.0479C21.9495 17.0479 22.0172 17.0317 22.0269 17.0156C22.0365 16.9963 22.0816 16.9834 22.1268 16.9834C22.1687 16.9834 22.2041 16.9673 22.2041 16.9512C22.2041 16.9318 22.2331 16.9189 22.2653 16.9189C22.3395 16.9189 22.5908 16.79 22.5908 16.7514C22.5908 16.7385 22.6134 16.7256 22.6392 16.7256C22.6649 16.7256 22.7326 16.6805 22.7906 16.6289C22.8454 16.5741 22.9034 16.5322 22.9195 16.5322C22.9582 16.5322 23.3643 16.1165 23.3643 16.0778C23.3643 16.0617 23.4094 16.0037 23.4609 15.9457C23.5157 15.8909 23.5576 15.8265 23.5576 15.8039C23.5576 15.7781 23.5737 15.7588 23.5899 15.7588C23.6092 15.7588 23.6221 15.7395 23.6221 15.7169C23.6221 15.6943 23.6511 15.6428 23.6865 15.6041C23.722 15.5654 23.751 15.5139 23.751 15.4849C23.751 15.4591 23.7671 15.4365 23.7832 15.4365C23.8025 15.4365 23.8154 15.4075 23.8154 15.3721C23.8154 15.3366 23.8316 15.3076 23.8477 15.3076C23.867 15.3076 23.8799 15.2786 23.8799 15.2432C23.8799 15.2077 23.896 15.1787 23.9121 15.1787C23.9315 15.1787 23.9443 15.1336 23.9443 15.082C23.9443 15.0272 23.9605 14.9854 23.9766 14.9854C23.9959 14.9854 24.0088 14.9563 24.0088 14.9209C24.0088 14.8855 24.0249 14.8564 24.041 14.8564C24.0604 14.8564 24.0732 14.8113 24.0732 14.7598C24.0732 14.705 24.0894 14.6631 24.1055 14.6631C24.1248 14.6631 24.1377 14.6051 24.1377 14.5342C24.1377 14.4633 24.1538 14.4053 24.1699 14.4053C24.1893 14.4053 24.2022 14.3473 24.2022 14.2796C24.2022 14.2087 24.215 14.141 24.2344 14.1313C24.2537 14.1217 24.2666 14.0057 24.2666 13.8735C24.2666 13.7414 24.2827 13.6254 24.2988 13.6157C24.3182 13.6061 24.3311 13.4804 24.3311 13.3418C24.3311 13.2032 24.3182 13.0775 24.2988 13.0679C24.2827 13.0582 24.2666 12.9325 24.2666 12.7939C24.2666 12.6554 24.2537 12.5297 24.2344 12.52C24.2183 12.5104 24.2022 12.4201 24.2022 12.3234C24.2022 12.2268 24.1893 12.1494 24.1699 12.1494C24.1538 12.1494 24.1377 12.085 24.1377 12.0076C24.1377 11.9271 24.1248 11.8529 24.1055 11.8433C24.0894 11.8336 24.0732 11.7659 24.0732 11.695C24.0732 11.6273 24.0604 11.5693 24.041 11.5693C24.0249 11.5693 24.0088 11.5242 24.0088 11.4727C24.0088 11.4179 23.9959 11.376 23.9766 11.376C23.9605 11.376 23.9443 11.3341 23.9443 11.2825C23.9443 11.2277 23.9315 11.1762 23.9121 11.1665C23.896 11.1568 23.8799 11.1117 23.8799 11.0698C23.8799 11.0279 23.867 10.9828 23.8477 10.9731C23.8316 10.9635 23.8154 10.9184 23.8154 10.8732C23.8154 10.8313 23.8025 10.7959 23.7832 10.7959C23.7671 10.7959 23.751 10.7669 23.751 10.7347C23.751 10.6992 23.7381 10.6605 23.7188 10.6509C23.7026 10.6412 23.6865 10.5961 23.6865 10.551C23.6865 10.5091 23.6736 10.4736 23.6543 10.4736C23.6382 10.4736 23.6221 10.4446 23.6221 10.4092C23.6221 10.3737 23.6092 10.3447 23.5899 10.3447C23.5705 10.3447 23.5576 10.0772 23.5576 9.60352C23.5576 9.12979 23.5447 8.8623 23.5254 8.8623C23.5093 8.8623 23.4932 8.78818 23.4932 8.70117C23.4932 8.61094 23.4803 8.54004 23.4609 8.54004C23.4448 8.54004 23.4287 8.48203 23.4287 8.41113C23.4287 8.34023 23.4158 8.28223 23.3965 8.28223C23.3804 8.28223 23.3643 8.23389 23.3643 8.17266C23.3643 8.11143 23.3514 8.0502 23.332 8.04053C23.3159 8.03086 23.2998 7.99219 23.2998 7.95674C23.2998 7.92451 23.2869 7.89551 23.2676 7.89551C23.2515 7.89551 23.2354 7.86006 23.2354 7.81816C23.2354 7.77305 23.2225 7.72793 23.2031 7.71826C23.187 7.70859 23.1709 7.66992 23.1709 7.63447C23.1709 7.60225 23.158 7.57324 23.1387 7.57324C23.1226 7.57324 23.1065 7.55068 23.1065 7.5249C23.1065 7.4959 23.0774 7.44434 23.042 7.40566C23.0065 7.36699 22.9775 7.31543 22.9775 7.29287C22.9775 7.27031 22.9647 7.25098 22.9453 7.25098C22.9292 7.25098 22.9131 7.23164 22.9131 7.20908C22.9131 7.18975 22.868 7.11885 22.8164 7.05762C22.7649 6.99639 22.7197 6.93516 22.7197 6.92227C22.7197 6.90293 22.4941 6.65479 22.2943 6.45176C22.1268 6.28418 21.9076 6.09082 21.8851 6.09082C21.8722 6.09082 21.8142 6.0457 21.7594 5.99414C21.7014 5.93936 21.6369 5.89746 21.6144 5.89746C21.5918 5.89746 21.5531 5.86846 21.5274 5.83301C21.5016 5.79756 21.4629 5.76855 21.4371 5.76855C21.3469 5.76855 21.3018 5.67832 21.3018 5.49785C21.3018 5.39795 21.2889 5.31738 21.2695 5.31738C21.2534 5.31738 21.2373 5.24648 21.2373 5.15947C21.2373 5.06924 21.2244 4.98867 21.2051 4.979C21.189 4.96934 21.1729 4.91777 21.1729 4.86621C21.1729 4.81465 21.16 4.76309 21.1406 4.75342C21.1245 4.74375 21.1084 4.70508 21.1084 4.66963C21.1084 4.6374 21.0955 4.6084 21.0762 4.6084C21.0601 4.6084 21.044 4.5794 21.044 4.54395C21.044 4.5085 21.0311 4.47949 21.0117 4.47949C20.9956 4.47949 20.9795 4.45049 20.9795 4.41504C20.9795 4.37959 20.9666 4.35059 20.9473 4.35059C20.9312 4.35059 20.915 4.3248 20.915 4.29258C20.915 4.26035 20.886 4.21523 20.8506 4.18945C20.8151 4.16367 20.7861 4.125 20.7861 4.10244C20.7861 4.07988 20.6637 3.93809 20.5122 3.78662C20.3607 3.63516 20.219 3.5127 20.1964 3.5127C20.1738 3.5127 20.1352 3.48369 20.1094 3.44824C20.0836 3.41279 20.0417 3.38379 20.0127 3.38379C19.9837 3.38379 19.9418 3.35479 19.916 3.31934C19.8902 3.28389 19.8451 3.25488 19.8129 3.25488C19.7807 3.25488 19.7549 3.23877 19.7549 3.22266C19.7549 3.20332 19.7259 3.19043 19.6904 3.19043C19.655 3.19043 19.626 3.17432 19.626 3.1582C19.626 3.13887 19.597 3.12598 19.5615 3.12598C19.5261 3.12598 19.4971 3.10986 19.4971 3.09375C19.4971 3.07442 19.4681 3.06152 19.4326 3.06152C19.3972 3.06152 19.3682 3.04541 19.3682 3.0293C19.3682 3.00996 19.3392 2.99707 19.3037 2.99707C19.2683 2.99707 19.2393 2.98096 19.2393 2.96484C19.2393 2.94551 19.1974 2.93262 19.1426 2.93262C19.091 2.93262 19.0459 2.9165 19.0459 2.90039C19.0459 2.88106 19.004 2.86816 18.9492 2.86816C18.8977 2.86816 18.8525 2.85205 18.8525 2.83594C18.8525 2.8166 18.8107 2.80371 18.7559 2.80371C18.7043 2.80371 18.6592 2.7876 18.6592 2.77148C18.6592 2.75215 18.6173 2.73926 18.5657 2.73926C18.5109 2.73926 18.4594 2.72314 18.4497 2.70703C18.44 2.6877 18.3724 2.6748 18.3047 2.6748C18.237 2.6748 18.1693 2.65869 18.1597 2.64258C18.15 2.62324 18.0823 2.61035 18.0147 2.61035C17.947 2.61035 17.8793 2.59424 17.8696 2.57812C17.86 2.55879 17.7697 2.5459 17.6731 2.5459C17.5764 2.5459 17.499 2.52979 17.499 2.51367C17.499 2.49434 17.3927 2.48145 17.2412 2.48145C17.0898 2.48145 16.9834 2.46856 16.9834 2.44922C16.9834 2.42988 16.7675 2.41699 16.4033 2.41699C16.0392 2.41699 15.8232 2.42988 15.8232 2.44922ZM16.8545 3.28711C16.8545 3.30645 16.9608 3.31934 17.1123 3.31934C17.2638 3.31934 17.3701 3.33223 17.3701 3.35156C17.3701 3.36768 17.4442 3.38379 17.5313 3.38379C17.6215 3.38379 17.6924 3.39668 17.6924 3.41602C17.6924 3.43213 17.7665 3.44824 17.8535 3.44824C17.9438 3.44824 18.0147 3.46113 18.0147 3.48047C18.0147 3.49658 18.0566 3.5127 18.1081 3.5127C18.1629 3.5127 18.2145 3.52559 18.2241 3.54492C18.2338 3.56104 18.295 3.57715 18.3563 3.57715C18.4175 3.57715 18.4658 3.59004 18.4658 3.60938C18.4658 3.62549 18.5109 3.6416 18.5625 3.6416C18.6173 3.6416 18.6592 3.65449 18.6592 3.67383C18.6592 3.68994 18.6882 3.70605 18.7204 3.70605C18.7559 3.70605 18.7945 3.71895 18.8042 3.73828C18.8139 3.75439 18.859 3.77051 18.9041 3.77051C18.946 3.77051 18.9815 3.7834 18.9815 3.80273C18.9815 3.81885 19.0105 3.83496 19.0459 3.83496C19.0814 3.83496 19.1104 3.84785 19.1104 3.86719C19.1104 3.8833 19.1394 3.89941 19.1748 3.89941C19.2103 3.89941 19.2393 3.91231 19.2393 3.93164C19.2393 3.94775 19.265 3.96387 19.2973 3.96387C19.3295 3.96387 19.3746 3.99287 19.4004 4.02832C19.4262 4.06377 19.4649 4.09277 19.4874 4.09277C19.51 4.09277 19.5744 4.13467 19.6324 4.18945C19.6872 4.24102 19.7452 4.28613 19.7613 4.28613C19.8032 4.28613 20.0772 4.57617 20.0772 4.62129C20.0772 4.64385 20.1062 4.6793 20.1416 4.70508C20.1771 4.73086 20.2061 4.77598 20.2061 4.8082C20.2061 4.84043 20.2222 4.86621 20.2383 4.86621C20.2576 4.86621 20.2705 4.89522 20.2705 4.93066C20.2705 4.96611 20.2866 4.99512 20.3027 4.99512C20.3221 4.99512 20.335 5.03057 20.335 5.07246C20.335 5.11758 20.3511 5.16269 20.3672 5.17236C20.422 5.20459 20.4026 5.25293 20.335 5.25293C20.2995 5.25293 20.2705 5.23682 20.2705 5.2207C20.2705 5.20137 20.2351 5.18848 20.1932 5.18848C20.1481 5.18848 20.1029 5.17236 20.0933 5.15625C20.0836 5.13692 20.032 5.12402 19.9773 5.12402C19.9257 5.12402 19.8838 5.10791 19.8838 5.0918C19.8838 5.07246 19.8419 5.05957 19.7871 5.05957C19.7356 5.05957 19.6904 5.04346 19.6904 5.02734C19.6904 5.00801 19.6324 4.99512 19.5615 4.99512C19.4906 4.99512 19.4326 4.979 19.4326 4.96289C19.4326 4.94356 19.3746 4.93066 19.3069 4.93066C19.236 4.93066 19.1684 4.91455 19.1587 4.89844C19.149 4.8791 19.062 4.86621 18.9653 4.86621C18.8687 4.86621 18.7816 4.8501 18.772 4.83398C18.7623 4.81465 18.6463 4.80176 18.5142 4.80176C18.382 4.80176 18.266 4.78564 18.2564 4.76953C18.2435 4.7502 17.9599 4.7373 17.5119 4.7373C17.0511 4.7373 16.79 4.7502 16.79 4.76953C16.79 4.78887 16.6386 4.80176 16.4033 4.80176C16.1681 4.80176 16.0166 4.78887 16.0166 4.76953C16.0166 4.7502 15.7491 4.7373 15.2754 4.7373C14.8017 4.7373 14.5342 4.7502 14.5342 4.76953C14.5342 4.78887 14.4278 4.80176 14.2764 4.80176C14.1249 4.80176 14.0186 4.81465 14.0186 4.83398C14.0186 4.85332 13.9316 4.86621 13.8252 4.86621C13.7189 4.86621 13.6318 4.8791 13.6318 4.89844C13.6318 4.91455 13.5738 4.93066 13.5029 4.93066C13.432 4.93066 13.374 4.94356 13.374 4.96289C13.374 4.979 13.316 4.99512 13.2451 4.99512C13.1742 4.99512 13.1162 5.00801 13.1162 5.02734C13.1162 5.04346 13.0679 5.05957 13.0066 5.05957C12.9454 5.05957 12.8842 5.07246 12.8745 5.0918C12.8649 5.10791 12.8133 5.12402 12.7585 5.12402C12.7069 5.12402 12.665 5.13692 12.665 5.15625C12.665 5.17236 12.6296 5.18848 12.5877 5.18848C12.5426 5.18848 12.4975 5.20137 12.4878 5.2207C12.4781 5.23682 12.4556 5.25293 12.4362 5.25293C12.3976 5.25293 12.3976 5.13369 12.4395 5.10791C12.4588 5.09824 12.4717 5.05313 12.4717 5.00801C12.4717 4.96611 12.4878 4.93066 12.5039 4.93066C12.5232 4.93066 12.5361 4.90488 12.5361 4.87266C12.5361 4.84043 12.5651 4.79531 12.6006 4.76953C12.636 4.74375 12.665 4.70508 12.665 4.6793C12.665 4.62774 13.1388 4.15723 13.1936 4.15723C13.2129 4.15723 13.2516 4.12822 13.2774 4.09277C13.3031 4.05733 13.3482 4.02832 13.3805 4.02832C13.4127 4.02832 13.4385 4.01221 13.4385 3.99609C13.4385 3.97676 13.4675 3.96387 13.5029 3.96387C13.5384 3.96387 13.5674 3.94775 13.5674 3.93164C13.5674 3.91231 13.5964 3.89941 13.6318 3.89941C13.6673 3.89941 13.6963 3.8833 13.6963 3.86719C13.6963 3.84785 13.7253 3.83496 13.7607 3.83496C13.7962 3.83496 13.8252 3.81885 13.8252 3.80273C13.8252 3.7834 13.8542 3.77051 13.8897 3.77051C13.9251 3.77051 13.9541 3.75439 13.9541 3.73828C13.9541 3.71895 13.9992 3.70605 14.0508 3.70605C14.1056 3.70605 14.1475 3.68994 14.1475 3.67383C14.1475 3.65449 14.1926 3.6416 14.2441 3.6416C14.2989 3.6416 14.3408 3.62549 14.3408 3.60938C14.3408 3.59004 14.3859 3.57715 14.4375 3.57715C14.4923 3.57715 14.5342 3.56104 14.5342 3.54492C14.5342 3.52559 14.5922 3.5127 14.6631 3.5127C14.734 3.5127 14.792 3.49658 14.792 3.48047C14.792 3.46113 14.85 3.44824 14.9177 3.44824C14.9886 3.44824 15.0563 3.43213 15.0659 3.41602C15.0756 3.39668 15.1658 3.38379 15.2625 3.38379C15.3592 3.38379 15.4365 3.36768 15.4365 3.35156C15.4365 3.33223 15.5364 3.31934 15.675 3.31934C15.8071 3.31934 15.9264 3.30322 15.936 3.28711C15.9489 3.26777 16.1391 3.25488 16.4065 3.25488C16.6837 3.25488 16.8545 3.26777 16.8545 3.28711ZM15.9522 5.60742C15.9522 5.62354 16.0263 5.63965 16.1133 5.63965C16.2035 5.63965 16.2744 5.65254 16.2744 5.67188C16.2744 5.68799 16.297 5.7041 16.3228 5.7041C16.3775 5.7041 16.4936 5.81045 16.558 5.92324C16.6031 6.00703 16.6096 6.28418 16.5645 6.28418C16.5483 6.28418 16.5322 6.33252 16.5322 6.39375C16.5322 6.45498 16.5193 6.51621 16.5 6.52588C16.4839 6.53555 16.4678 6.57422 16.4678 6.60967C16.4678 6.6419 16.4549 6.6709 16.4356 6.6709C16.4194 6.6709 16.4033 6.70635 16.4033 6.74824C16.4033 6.79336 16.3904 6.83848 16.3711 6.84814C16.355 6.85781 16.3389 6.89648 16.3389 6.93193C16.3389 6.96416 16.326 6.99316 16.3066 6.99316C16.2905 6.99316 16.2744 7.0125 16.2744 7.03506C16.2744 7.05762 16.2454 7.10918 16.21 7.14785C16.1745 7.18652 16.1455 7.23809 16.1455 7.26709C16.1455 7.29287 16.1326 7.31543 16.1133 7.31543C16.0972 7.31543 16.0811 7.34121 16.0811 7.37344C16.0811 7.40566 16.0521 7.45078 16.0166 7.47656C15.9812 7.50234 15.9522 7.54424 15.9522 7.57324C15.9522 7.60225 15.9232 7.64414 15.8877 7.66992C15.8523 7.6957 15.8232 7.7376 15.8232 7.7666C15.8232 7.79561 15.7942 7.8375 15.7588 7.86328C15.7233 7.88906 15.6943 7.92773 15.6943 7.94707C15.6943 7.96641 15.6363 8.04375 15.5654 8.11787C15.4945 8.18877 15.4365 8.26289 15.4365 8.27578C15.4365 8.33057 14.7727 9.02022 14.1152 9.65186C13.8929 9.86455 13.6318 10.132 13.5352 10.248C13.4385 10.3608 13.2612 10.5542 13.142 10.6767C13.0195 10.7991 12.9229 10.9119 12.9229 10.928C12.9229 10.9441 12.8649 11.0183 12.794 11.0892C12.7231 11.1633 12.665 11.2342 12.665 11.2503C12.665 11.2664 12.6232 11.3244 12.5684 11.3824C12.5168 11.4372 12.4717 11.4984 12.4717 11.5178C12.4717 11.5371 12.4427 11.5758 12.4072 11.6016C12.3718 11.6273 12.3428 11.6628 12.3428 11.6821C12.3428 11.7015 12.317 11.7466 12.288 11.782C12.2558 11.8143 12.2107 11.8819 12.1849 11.9303C12.1591 11.9818 12.1269 12.0205 12.1107 12.0205C12.0979 12.0205 12.085 12.0431 12.085 12.0688C12.085 12.0979 12.056 12.1494 12.0205 12.1881C11.9851 12.2268 11.9561 12.2783 11.9561 12.3009C11.9561 12.3234 11.9432 12.3428 11.9238 12.3428C11.9077 12.3428 11.8916 12.3718 11.8916 12.4072C11.8916 12.4427 11.8787 12.4717 11.8594 12.4717C11.8433 12.4717 11.8272 12.5007 11.8272 12.5361C11.8272 12.5716 11.8143 12.6006 11.7949 12.6006C11.7788 12.6006 11.7627 12.6296 11.7627 12.665C11.7627 12.7005 11.7498 12.7295 11.7305 12.7295C11.7144 12.7295 11.6982 12.7585 11.6982 12.7939C11.6982 12.8294 11.6821 12.8906 11.6596 12.9325C11.5822 13.0872 11.5693 13.1162 11.5693 13.1774C11.5693 13.2129 11.5565 13.2516 11.5371 13.2612C11.521 13.2709 11.5049 13.3321 11.5049 13.3934C11.5049 13.4546 11.492 13.5029 11.4727 13.5029C11.4565 13.5029 11.4404 13.5738 11.4404 13.6641C11.4404 13.7511 11.4275 13.8252 11.4082 13.8252C11.3921 13.8252 11.376 13.8961 11.376 13.9863C11.376 14.0733 11.3631 14.1475 11.3438 14.1475C11.3244 14.1475 11.3115 14.2538 11.3115 14.4021C11.3115 14.5438 11.2986 14.6695 11.2793 14.6792C11.26 14.6921 11.2471 14.8726 11.2471 15.1143C11.2471 15.356 11.2342 15.5364 11.2149 15.5493C11.1955 15.559 11.1826 15.7137 11.1826 15.9006V16.2293L11.0698 16.2164C11.0086 16.21 10.9474 16.1906 10.9377 16.1745C10.928 16.1584 10.8926 16.1455 10.8571 16.1455C10.8249 16.1455 10.7959 16.1294 10.7959 16.1133C10.7959 16.0939 10.7701 16.0811 10.7379 16.0811C10.7057 16.0811 10.6606 16.0521 10.6348 16.0166C10.609 15.9812 10.5703 15.9521 10.5478 15.9521C10.4994 15.9521 10.0869 15.5525 10.0869 15.5074C10.0869 15.4913 10.045 15.4333 9.99024 15.3785C9.93868 15.3205 9.89356 15.2528 9.89356 15.2271C9.89356 15.2013 9.88067 15.1787 9.86133 15.1787C9.84522 15.1787 9.82911 15.1497 9.82911 15.1175C9.82911 15.082 9.81944 15.0498 9.80655 15.0434C9.7711 15.0305 9.63575 14.763 9.63575 14.7082C9.63575 14.6824 9.62286 14.6631 9.60352 14.6631C9.58741 14.6631 9.5713 14.6276 9.5713 14.5857C9.5713 14.5406 9.5584 14.4955 9.53907 14.4858C9.52296 14.4762 9.50684 14.4311 9.50684 14.3892C9.50684 14.3473 9.49395 14.3021 9.47462 14.2925C9.4585 14.2828 9.44239 14.2313 9.44239 14.1765C9.44239 14.1249 9.4295 14.083 9.41016 14.083C9.39405 14.083 9.37794 14.0121 9.37794 13.9251C9.37794 13.8349 9.36505 13.7543 9.34571 13.7446C9.32637 13.7317 9.31348 13.5577 9.31348 13.3225C9.31348 13.0775 9.32637 12.9229 9.34571 12.9229C9.36505 12.9229 9.37794 12.8391 9.37794 12.7327C9.37794 12.6264 9.39405 12.5297 9.41016 12.52C9.4295 12.5104 9.44239 12.4362 9.44239 12.3589C9.44239 12.2815 9.4585 12.2074 9.47462 12.1978C9.49395 12.1881 9.50684 12.1301 9.50684 12.0688C9.50684 12.0076 9.52296 11.9496 9.53907 11.9399C9.5584 11.9303 9.5713 11.869 9.5713 11.8078C9.5713 11.7466 9.58741 11.6982 9.60352 11.6982C9.62286 11.6982 9.63575 11.6531 9.63575 11.6016C9.63575 11.5468 9.65186 11.5049 9.66797 11.5049C9.68731 11.5049 9.7002 11.4598 9.7002 11.4082C9.7002 11.3534 9.71631 11.3115 9.73243 11.3115C9.75176 11.3115 9.76465 11.2664 9.76465 11.2148C9.76465 11.1601 9.78077 11.1182 9.79688 11.1182C9.81622 11.1182 9.82911 11.0892 9.82911 11.0537C9.82911 11.0183 9.84522 10.9893 9.86133 10.9893C9.88067 10.9893 9.89356 10.9603 9.89356 10.9248C9.89356 10.8894 9.90967 10.8604 9.92579 10.8604C9.94512 10.8604 9.95801 10.8313 9.95801 10.7959C9.95801 10.7605 9.97413 10.7314 9.99024 10.7314C10.0096 10.7314 10.0225 10.7024 10.0225 10.667C10.0225 10.6315 10.0386 10.6025 10.0547 10.6025C10.074 10.6025 10.0869 10.5735 10.0869 10.5381C10.0869 10.5026 10.0998 10.4736 10.1127 10.4736C10.1288 10.4736 10.161 10.435 10.1868 10.3834C10.2126 10.3351 10.2577 10.2738 10.2867 10.2448C10.319 10.2158 10.3447 10.1771 10.3447 10.1578C10.3447 10.1095 10.8861 9.57129 10.9345 9.57129C10.957 9.57129 10.9957 9.54229 11.0215 9.50684C11.0473 9.47139 11.0892 9.44238 11.1182 9.44238C11.1472 9.44238 11.1891 9.41338 11.2149 9.37793C11.2406 9.34248 11.2857 9.31348 11.318 9.31348C11.3502 9.31348 11.376 9.29736 11.376 9.28125C11.376 9.26192 11.405 9.24902 11.4404 9.24902C11.4759 9.24902 11.5049 9.23291 11.5049 9.2168C11.5049 9.19746 11.55 9.18457 11.6016 9.18457C11.6564 9.18457 11.6982 9.16846 11.6982 9.15234C11.6982 9.13301 11.7434 9.12012 11.7949 9.12012C11.8497 9.12012 11.8916 9.104 11.8916 9.08789C11.8916 9.06856 11.9367 9.05566 11.9883 9.05566C12.085 9.05566 12.085 9.05566 12.085 8.86553C12.085 8.75918 12.0721 8.6625 12.0527 8.65283C12.0366 8.64316 12.0205 8.56904 12.0205 8.48848C12.0205 8.41113 12.0076 8.34668 11.9883 8.34668C11.9722 8.34668 11.9561 8.31768 11.9561 8.28223C11.9561 8.22744 11.9335 8.21777 11.8272 8.21777C11.7563 8.21777 11.6982 8.23067 11.6982 8.25C11.6982 8.26611 11.6499 8.28223 11.5887 8.28223C11.5274 8.28223 11.4662 8.29512 11.4565 8.31445C11.4469 8.33057 11.4082 8.34668 11.3728 8.34668C11.3405 8.34668 11.3115 8.35957 11.3115 8.37891C11.3115 8.39502 11.2696 8.41113 11.2149 8.41113C11.1633 8.41113 11.1182 8.42402 11.1182 8.44336C11.1182 8.45947 11.0892 8.47559 11.0537 8.47559C11.0183 8.47559 10.9893 8.48848 10.9893 8.50781C10.9893 8.52393 10.9603 8.54004 10.9248 8.54004C10.8894 8.54004 10.8604 8.55293 10.8604 8.57227C10.8604 8.58838 10.841 8.60449 10.8185 8.60449C10.7959 8.60449 10.7443 8.6335 10.7057 8.66895C10.667 8.7044 10.6187 8.7334 10.5961 8.7334C10.5703 8.7334 10.5316 8.7624 10.5059 8.79785C10.4801 8.8333 10.4414 8.8623 10.4221 8.8623C10.4027 8.8623 10.3254 8.92031 10.2513 8.99121C10.1804 9.06211 10.1127 9.12012 10.103 9.12012C10.0934 9.12012 10.0869 9.06211 10.0869 8.99121C10.0869 8.92031 10.103 8.8623 10.1191 8.8623C10.1385 8.8623 10.1514 8.8043 10.1514 8.7334C10.1514 8.6625 10.1675 8.60449 10.1836 8.60449C10.2029 8.60449 10.2158 8.55938 10.2158 8.50781C10.2158 8.45303 10.2319 8.41113 10.2481 8.41113C10.2674 8.41113 10.2803 8.36602 10.2803 8.31445C10.2803 8.25967 10.2964 8.21777 10.3125 8.21777C10.3318 8.21777 10.3447 8.18877 10.3447 8.15332C10.3447 8.11787 10.3608 8.08887 10.377 8.08887C10.3963 8.08887 10.4092 8.05986 10.4092 8.02441C10.4092 7.98897 10.4253 7.95996 10.4414 7.95996C10.4607 7.95996 10.4736 7.93096 10.4736 7.89551C10.4736 7.86006 10.4898 7.83105 10.5059 7.83105C10.5252 7.83105 10.5381 7.80527 10.5381 7.77305C10.5381 7.74082 10.5671 7.6957 10.6025 7.66992C10.638 7.64414 10.667 7.60225 10.667 7.57969C10.667 7.55391 10.7089 7.4959 10.7572 7.45078C10.8056 7.40244 10.8829 7.31221 10.9248 7.25098C11.0215 7.1124 11.044 7.08984 11.1826 6.99316C11.2439 6.95127 11.3502 6.86104 11.4147 6.79336C11.4791 6.72568 11.5532 6.6709 11.5758 6.6709C11.5983 6.6709 11.6402 6.6419 11.666 6.60645C11.6918 6.571 11.7305 6.54199 11.7563 6.54199C11.7788 6.54199 11.8272 6.51299 11.8658 6.47754C11.9045 6.44209 11.9561 6.41309 11.9786 6.41309C12.0012 6.41309 12.0205 6.39697 12.0205 6.38086C12.0205 6.36152 12.0495 6.34863 12.085 6.34863C12.1204 6.34863 12.1494 6.33252 12.1494 6.31641C12.1494 6.29707 12.1784 6.28418 12.2139 6.28418C12.2493 6.28418 12.2783 6.26807 12.2783 6.25195C12.2783 6.23262 12.3073 6.21973 12.3428 6.21973C12.3782 6.21973 12.4072 6.20361 12.4072 6.1875C12.4072 6.16817 12.4427 6.15527 12.4846 6.15527C12.5297 6.15527 12.5748 6.13916 12.5845 6.12305C12.5941 6.10371 12.6328 6.09082 12.6683 6.09082C12.7005 6.09082 12.7295 6.07471 12.7295 6.05859C12.7295 6.03926 12.7585 6.02637 12.794 6.02637C12.8294 6.02637 12.8874 6.01025 12.9229 5.99414C12.9583 5.97481 13.0163 5.9458 13.0518 5.92969C13.0872 5.91035 13.1581 5.89746 13.2129 5.89746C13.2645 5.89746 13.3096 5.88135 13.3096 5.86523C13.3096 5.8459 13.3547 5.83301 13.4063 5.83301C13.461 5.83301 13.5029 5.81689 13.5029 5.80078C13.5029 5.78145 13.5674 5.76855 13.6447 5.76855C13.7253 5.76855 13.7994 5.75244 13.8091 5.73633C13.8188 5.71699 13.8993 5.7041 13.9896 5.7041C14.0766 5.7041 14.1475 5.68799 14.1475 5.67188C14.1475 5.65254 14.2474 5.63965 14.3859 5.63965C14.5181 5.63965 14.6373 5.62354 14.647 5.60742C14.6599 5.58809 14.9145 5.5752 15.3108 5.5752C15.7169 5.5752 15.9522 5.58809 15.9522 5.60742ZM18.1436 5.60742C18.1436 5.62676 18.2499 5.63965 18.4014 5.63965C18.5528 5.63965 18.6592 5.65254 18.6592 5.67188C18.6592 5.68799 18.7333 5.7041 18.8203 5.7041C18.9106 5.7041 18.9815 5.71699 18.9815 5.73633C18.9815 5.75244 19.0395 5.76855 19.1104 5.76855C19.1813 5.76855 19.2393 5.78145 19.2393 5.80078C19.2393 5.81689 19.2973 5.83301 19.3682 5.83301C19.4391 5.83301 19.4971 5.8459 19.4971 5.86523C19.4971 5.88135 19.5422 5.89746 19.5938 5.89746C19.6485 5.89746 19.6904 5.91035 19.6904 5.92969C19.6904 5.9458 19.7356 5.96191 19.7871 5.96191C19.8419 5.96191 19.8838 5.97481 19.8838 5.99414C19.8838 6.01025 19.9289 6.02637 19.9805 6.02637C20.0353 6.02637 20.0772 6.03926 20.0772 6.05859C20.0772 6.07471 20.1062 6.09082 20.1416 6.09082C20.1771 6.09082 20.2061 6.10371 20.2061 6.12305C20.2061 6.13916 20.2254 6.15527 20.2512 6.15527C20.2963 6.15527 20.4961 6.24551 20.6572 6.33896C20.7024 6.36475 20.7636 6.39375 20.7958 6.40342C20.8248 6.41309 20.8506 6.43242 20.8506 6.44854C20.8506 6.46465 20.8764 6.47754 20.9086 6.47754C20.9408 6.47754 20.9859 6.50654 21.0117 6.54199C21.0375 6.57744 21.0762 6.60645 21.0987 6.60645C21.1213 6.60645 21.1857 6.64834 21.2438 6.70312C21.2985 6.75469 21.3566 6.7998 21.3727 6.7998C21.4178 6.7998 22.0752 7.47656 22.0752 7.52168C22.0752 7.54102 22.1042 7.57969 22.1397 7.60547C22.1751 7.63125 22.2041 7.67637 22.2041 7.70537C22.2041 7.7376 22.2138 7.7666 22.2299 7.77305C22.2621 7.78594 22.4619 8.18555 22.4619 8.23711C22.4619 8.26289 22.478 8.28223 22.4941 8.28223C22.5135 8.28223 22.5264 8.32412 22.5264 8.37891C22.5264 8.43047 22.5425 8.47559 22.5586 8.47559C22.5779 8.47559 22.5908 8.51748 22.5908 8.57227C22.5908 8.62383 22.6069 8.66895 22.6231 8.66895C22.6424 8.66895 22.6553 8.73984 22.6553 8.83008C22.6553 8.91709 22.6714 8.99121 22.6875 8.99121C22.7068 8.99121 22.7197 9.02022 22.7197 9.05566C22.7197 9.09111 22.7068 9.12012 22.694 9.12012C22.6811 9.12012 22.6488 9.09111 22.6231 9.05566C22.5973 9.02022 22.5586 8.99121 22.5393 8.99121C22.5199 8.99121 22.4619 8.95254 22.4104 8.90098C22.3588 8.85264 22.275 8.79463 22.2267 8.76885C22.1783 8.74307 22.1397 8.71084 22.1397 8.69473C22.1397 8.68184 22.1107 8.66895 22.0752 8.66895C22.0398 8.66895 22.0107 8.65283 22.0107 8.63672C22.0107 8.61738 21.9914 8.60449 21.9721 8.60449C21.9495 8.60449 21.8947 8.57549 21.8496 8.54004C21.8045 8.50459 21.7368 8.47559 21.6982 8.47559C21.6563 8.47559 21.624 8.45947 21.624 8.44336C21.624 8.42402 21.595 8.41113 21.5596 8.41113C21.5241 8.41113 21.4951 8.39502 21.4951 8.37891C21.4951 8.35957 21.4532 8.34668 21.3984 8.34668C21.3469 8.34668 21.3018 8.33057 21.3018 8.31445C21.3018 8.29512 21.2599 8.28223 21.2115 8.28223C21.1632 8.28223 21.1052 8.26611 21.0858 8.24678C21.0665 8.22744 20.9956 8.21777 20.9279 8.22422C20.8023 8.23389 20.8023 8.23389 20.7926 8.38535C20.7861 8.47236 20.77 8.54004 20.7507 8.54004C20.7346 8.54004 20.7217 8.60449 20.7217 8.68184C20.7217 8.7624 20.7088 8.83652 20.6895 8.84619C20.6733 8.85586 20.6572 8.90742 20.6572 8.96221C20.6572 9.04922 20.6637 9.05566 20.7861 9.05566C20.857 9.05566 20.915 9.06856 20.915 9.08789C20.915 9.104 20.9602 9.12012 21.0117 9.12012C21.0665 9.12012 21.1084 9.13301 21.1084 9.15234C21.1084 9.16846 21.1374 9.18457 21.1729 9.18457C21.2083 9.18457 21.2373 9.19746 21.2373 9.2168C21.2373 9.23291 21.2566 9.24902 21.2792 9.24902C21.3372 9.24902 21.4951 9.32637 21.4951 9.35215C21.4951 9.36826 21.5241 9.37793 21.5596 9.37793C21.595 9.37793 21.624 9.39082 21.624 9.40371C21.624 9.41982 21.6627 9.45205 21.711 9.47783C21.7594 9.50361 21.8432 9.56162 21.8947 9.60996C21.9463 9.66152 22.0011 9.7002 22.0172 9.7002C22.0559 9.7002 22.333 9.99023 22.333 10.0321C22.333 10.0482 22.3717 10.0998 22.4233 10.1449C22.4716 10.1933 22.5296 10.2706 22.5554 10.3189C22.5812 10.3705 22.6134 10.4092 22.6295 10.4092C22.6424 10.4092 22.6553 10.4382 22.6553 10.4736C22.6553 10.5091 22.6649 10.5381 22.6811 10.5381C22.694 10.5381 22.723 10.5864 22.7487 10.6412C22.7745 10.6992 22.8196 10.7862 22.8551 10.8346C22.8873 10.8797 22.9131 10.9506 22.9131 10.986C22.9131 11.0247 22.9292 11.0537 22.9453 11.0537C22.9647 11.0537 22.9775 11.0827 22.9775 11.1182C22.9775 11.1536 22.9937 11.1826 23.0098 11.1826C23.0291 11.1826 23.042 11.2245 23.042 11.2793C23.042 11.3309 23.0581 11.376 23.0742 11.376C23.0936 11.376 23.1065 11.4179 23.1065 11.4727C23.1065 11.5242 23.1226 11.5693 23.1387 11.5693C23.158 11.5693 23.1709 11.6112 23.1709 11.666C23.1709 11.7176 23.187 11.7627 23.2031 11.7627C23.2225 11.7627 23.2354 11.8207 23.2354 11.8916C23.2354 11.9625 23.2515 12.0205 23.2676 12.0205C23.2869 12.0205 23.2998 12.0785 23.2998 12.1494C23.2998 12.2203 23.3159 12.2783 23.332 12.2783C23.3514 12.2783 23.3643 12.3557 23.3643 12.4523C23.3643 12.549 23.3804 12.6393 23.3965 12.6489C23.4158 12.6586 23.4287 12.7746 23.4287 12.9067C23.4287 13.0389 23.4448 13.1549 23.4609 13.1646C23.4803 13.1742 23.4932 13.2548 23.4932 13.345C23.4932 13.432 23.4803 13.5029 23.4609 13.5029C23.4416 13.5029 23.4287 13.5996 23.4287 13.7285C23.4287 13.8574 23.4158 13.9541 23.3965 13.9541C23.3804 13.9541 23.3643 14.0121 23.3643 14.083C23.3643 14.1539 23.3514 14.2119 23.332 14.2119C23.3159 14.2119 23.2998 14.2538 23.2998 14.3054C23.2998 14.3602 23.2869 14.4117 23.2676 14.4214C23.2515 14.4311 23.2354 14.4762 23.2354 14.5213C23.2354 14.5632 23.2225 14.5986 23.2031 14.5986C23.187 14.5986 23.1709 14.6405 23.1709 14.6953C23.1709 14.7469 23.158 14.792 23.1387 14.792C23.1226 14.792 23.1065 14.821 23.1065 14.8564C23.1065 14.8919 23.0936 14.9209 23.0742 14.9209C23.0581 14.9209 23.042 14.9435 23.042 14.9692C23.042 14.9982 23.013 15.0498 22.9775 15.0885C22.9421 15.1271 22.9131 15.1787 22.9131 15.2013C22.9131 15.2238 22.9002 15.2432 22.8809 15.2432C22.8648 15.2432 22.8486 15.2625 22.8486 15.2883C22.8486 15.3108 22.81 15.3721 22.7584 15.4236C22.7101 15.4752 22.6359 15.5687 22.5908 15.6299C22.4909 15.7717 22.4426 15.8232 22.4039 15.8232C22.3878 15.8232 22.3298 15.8651 22.275 15.9199C22.217 15.9715 22.1493 16.0166 22.1235 16.0166C22.0978 16.0166 22.0752 16.0263 22.0752 16.0392C22.0752 16.0682 21.9173 16.1455 21.8593 16.1455C21.8367 16.1455 21.8174 16.1584 21.8174 16.1777C21.8174 16.1938 21.7755 16.21 21.7207 16.21C21.624 16.21 21.624 16.2067 21.624 16.0359C21.624 15.9393 21.6111 15.849 21.5918 15.8394C21.5725 15.8265 21.5596 15.646 21.5596 15.4011C21.5596 15.1465 21.5467 14.9854 21.5274 14.9854C21.508 14.9854 21.4951 14.8564 21.4951 14.6663C21.4951 14.4858 21.4822 14.3344 21.4629 14.3247C21.4468 14.315 21.4307 14.228 21.4307 14.1313C21.4307 14.0347 21.4178 13.9477 21.3984 13.938C21.3823 13.9283 21.3662 13.8542 21.3662 13.7769C21.3662 13.6995 21.3533 13.6254 21.334 13.6157C21.3179 13.6061 21.3018 13.5448 21.3018 13.4836C21.3018 13.4224 21.2889 13.374 21.2695 13.374C21.2534 13.374 21.2373 13.3289 21.2373 13.2773C21.2373 13.1839 21.2276 13.1549 21.1471 12.997C21.1245 12.9551 21.1084 12.8938 21.1084 12.8584C21.1084 12.823 21.0955 12.7939 21.0762 12.7939C21.0601 12.7939 21.044 12.7649 21.044 12.7295C21.044 12.694 21.0311 12.665 21.0117 12.665C20.9956 12.665 20.9795 12.636 20.9795 12.6006C20.9795 12.5651 20.9666 12.5361 20.9473 12.5361C20.9312 12.5361 20.915 12.5071 20.915 12.4717C20.915 12.4362 20.9022 12.4072 20.8828 12.4072C20.8667 12.4072 20.8506 12.3782 20.8506 12.3428C20.8506 12.3073 20.8377 12.2783 20.8184 12.2783C20.8023 12.2783 20.7861 12.259 20.7861 12.2364C20.7861 12.2139 20.7571 12.1623 20.7217 12.1236C20.6862 12.085 20.6572 12.0334 20.6572 12.0044C20.6572 11.9786 20.6443 11.9561 20.6315 11.9561C20.6153 11.9561 20.5831 11.9174 20.5573 11.8658C20.5316 11.8175 20.4864 11.7498 20.4574 11.7176C20.4252 11.6821 20.3994 11.637 20.3994 11.6177C20.3994 11.5983 20.3704 11.5629 20.335 11.5371C20.2995 11.5113 20.2705 11.4759 20.2705 11.4565C20.2705 11.4372 20.2125 11.3566 20.1416 11.2793C20.0707 11.202 20.0127 11.1246 20.0127 11.1085C20.0127 11.0924 19.9579 11.0279 19.8902 10.9635C19.8226 10.899 19.7323 10.7927 19.6904 10.7314C19.6453 10.6702 19.1684 10.1771 18.627 9.63574C18.0856 9.09434 17.6086 8.60127 17.5635 8.54004C17.5184 8.47881 17.4281 8.37246 17.3637 8.30156C17.296 8.23389 17.2412 8.16299 17.2412 8.14688C17.2412 8.12754 17.1993 8.07275 17.1445 8.02441C17.093 7.97607 17.0479 7.91484 17.0479 7.88906C17.0479 7.8665 17.0189 7.82461 16.9834 7.79883C16.948 7.77305 16.919 7.7376 16.919 7.71826C16.919 7.66348 16.9963 7.50879 17.0253 7.50879C17.0382 7.50879 17.0479 7.47979 17.0479 7.44434C17.0479 7.40889 17.064 7.37988 17.0801 7.37988C17.0994 7.37988 17.1123 7.35088 17.1123 7.31543C17.1123 7.27998 17.1284 7.25098 17.1445 7.25098C17.1639 7.25098 17.1768 7.20586 17.1768 7.1543C17.1768 7.09951 17.1929 7.05762 17.209 7.05762C17.2283 7.05762 17.2412 7.02861 17.2412 6.99316C17.2412 6.95772 17.2573 6.92871 17.2734 6.92871C17.2928 6.92871 17.3057 6.88359 17.3057 6.83203C17.3057 6.77725 17.3218 6.73535 17.3379 6.73535C17.3572 6.73535 17.3701 6.6709 17.3701 6.59356C17.3701 6.51299 17.3862 6.43887 17.4024 6.4292C17.4217 6.41953 17.4346 6.26807 17.4346 6.0876C17.4346 5.89746 17.4217 5.76855 17.4024 5.76855C17.3862 5.76855 17.3701 5.72344 17.3701 5.67188V5.5752H17.7568C17.9921 5.5752 18.1436 5.58809 18.1436 5.60742ZM16.4871 8.59482C16.5483 8.65928 16.5967 8.72695 16.5967 8.74307C16.5967 8.75918 16.6547 8.82686 16.7256 8.89453C16.7965 8.96221 16.8545 9.03311 16.8545 9.04922C16.8545 9.06856 16.9415 9.17168 17.0479 9.27803C17.1542 9.3876 17.2412 9.48105 17.2412 9.49072C17.2412 9.50039 16.8642 9.50684 16.4033 9.50684C15.9425 9.50684 15.5654 9.49717 15.5654 9.4875C15.5654 9.47461 15.5912 9.44238 15.6234 9.41338C15.6557 9.38437 15.7169 9.31026 15.7588 9.24902C15.8039 9.18779 15.907 9.06533 15.9908 8.98154C16.0778 8.89453 16.1455 8.80752 16.1455 8.79141C16.1455 8.77529 16.1906 8.71729 16.2422 8.66895C16.297 8.62061 16.3389 8.55615 16.3389 8.52715C16.3389 8.4498 16.3679 8.4627 16.4871 8.59482ZM17.1284 10.377C17.1381 10.3931 17.2283 10.4092 17.325 10.4092C17.4217 10.4092 17.499 10.4221 17.499 10.4414C17.499 10.4575 17.557 10.4736 17.6279 10.4736C17.6988 10.4736 17.7568 10.4865 17.7568 10.5059C17.7568 10.522 17.802 10.5381 17.8535 10.5381C17.9083 10.5381 17.9502 10.551 17.9502 10.5703C17.9502 10.5864 17.9953 10.6025 18.0469 10.6025C18.1017 10.6025 18.1436 10.6154 18.1436 10.6348C18.1436 10.6509 18.179 10.667 18.2209 10.667C18.266 10.667 18.3111 10.6799 18.3208 10.6992C18.3305 10.7153 18.3691 10.7314 18.4046 10.7314C18.4368 10.7314 18.4658 10.7443 18.4658 10.7637C18.4658 10.7798 18.4884 10.7959 18.5142 10.7959C18.5722 10.7959 18.8622 11.0795 18.9815 11.2471C19.0233 11.3083 19.1136 11.4146 19.1813 11.4791C19.2489 11.5436 19.3037 11.608 19.3037 11.6241C19.3037 11.6402 19.3617 11.7176 19.4326 11.7949C19.5035 11.8723 19.5615 11.9528 19.5615 11.9722C19.5615 11.9915 19.5905 12.027 19.626 12.0527C19.6614 12.0785 19.6904 12.114 19.6904 12.1333C19.6904 12.1526 19.7162 12.1978 19.7484 12.2332C19.7774 12.2654 19.8226 12.3331 19.8483 12.3814C19.8741 12.433 19.9064 12.4717 19.9225 12.4717C19.9354 12.4717 19.9482 12.4975 19.9482 12.5297C19.9482 12.5619 19.9773 12.607 20.0127 12.6328C20.0482 12.6586 20.0772 12.7037 20.0772 12.7359C20.0772 12.7682 20.0933 12.7939 20.1094 12.7939C20.1287 12.7939 20.1416 12.823 20.1416 12.8584C20.1416 12.8938 20.1577 12.9229 20.1738 12.9229C20.1932 12.9229 20.2061 12.9519 20.2061 12.9873C20.2061 13.0228 20.2222 13.0518 20.2383 13.0518C20.2576 13.0518 20.2705 13.0808 20.2705 13.1162C20.2705 13.1517 20.2866 13.1807 20.3027 13.1807C20.3221 13.1807 20.335 13.2226 20.335 13.2773C20.335 13.3289 20.3511 13.374 20.3672 13.374C20.3865 13.374 20.3994 13.4159 20.3994 13.4707C20.3994 13.5223 20.4155 13.5674 20.4316 13.5674C20.451 13.5674 20.4639 13.6093 20.4639 13.6608C20.4639 13.7156 20.48 13.7672 20.4961 13.7769C20.5154 13.7865 20.5283 13.8606 20.5283 13.9412C20.5283 14.0186 20.5444 14.083 20.5606 14.083C20.5799 14.083 20.5928 14.1604 20.5928 14.257C20.5928 14.3537 20.6089 14.4439 20.625 14.4536C20.6443 14.4633 20.6572 14.6019 20.6572 14.7598C20.6572 14.9177 20.6733 15.0563 20.6895 15.0659C20.7088 15.0788 20.7217 15.2657 20.7217 15.5203C20.7217 15.7878 20.7346 15.9521 20.7539 15.9521C20.7732 15.9521 20.7861 16.0907 20.7861 16.3066C20.7861 16.5226 20.7732 16.6611 20.7539 16.6611C20.7378 16.6611 20.7217 16.703 20.7217 16.7546C20.7217 16.8094 20.7088 16.8609 20.6895 16.8706C20.6733 16.8803 20.6572 16.9254 20.6572 16.9673C20.6572 17.0092 20.6443 17.0543 20.625 17.064C20.6089 17.0736 20.5928 17.1188 20.5928 17.1639C20.5928 17.2058 20.5799 17.2412 20.5606 17.2412C20.5444 17.2412 20.5283 17.2702 20.5283 17.3057C20.5283 17.3411 20.5154 17.3701 20.4961 17.3701C20.48 17.3701 20.4639 17.3991 20.4639 17.4346C20.4639 17.47 20.451 17.499 20.4316 17.499C20.4155 17.499 20.3994 17.528 20.3994 17.5635C20.3994 17.5989 20.3865 17.6279 20.3672 17.6279C20.3511 17.6279 20.335 17.6569 20.335 17.6924C20.335 17.7278 20.3221 17.7568 20.3027 17.7568C20.2866 17.7568 20.2705 17.7794 20.2705 17.8052C20.2705 17.8342 20.2415 17.8857 20.2061 17.9244C20.1706 17.9631 20.1416 18.0146 20.1416 18.0372C20.1416 18.0598 20.1287 18.0791 20.1094 18.0791C20.0933 18.0791 20.0772 18.0984 20.0772 18.1242C20.0772 18.1468 20.0353 18.2112 19.9805 18.266C19.9289 18.324 19.8838 18.3853 19.8838 18.4046C19.8838 18.4239 19.8419 18.4819 19.7871 18.5303C19.7356 18.5786 19.6904 18.6366 19.6904 18.656C19.6904 18.7011 18.7655 19.626 18.7204 19.626C18.7011 19.626 18.6431 19.6679 18.5947 19.7227C18.5464 19.7742 18.4916 19.8193 18.4723 19.8193C18.4562 19.8193 18.3982 19.8612 18.3434 19.916C18.2854 19.9676 18.2209 20.0127 18.1983 20.0127C18.1758 20.0127 18.1371 20.0417 18.1113 20.0771C18.0856 20.1126 18.0404 20.1416 18.0082 20.1416C17.976 20.1416 17.9502 20.1545 17.9502 20.1706C17.9502 20.1867 17.9244 20.2061 17.8954 20.2157C17.8632 20.2286 17.7762 20.2737 17.6988 20.3188C17.6247 20.364 17.5345 20.3994 17.499 20.3994C17.4636 20.3994 17.4346 20.4123 17.4346 20.4316C17.4346 20.4478 17.4056 20.4639 17.3733 20.4639C17.3379 20.4639 17.2992 20.4768 17.2896 20.4961C17.2799 20.5122 17.2187 20.5283 17.1574 20.5283C17.0962 20.5283 17.0479 20.5412 17.0479 20.5605C17.0479 20.5767 16.977 20.5928 16.8867 20.5928C16.7997 20.5928 16.7256 20.6057 16.7256 20.625C16.7256 20.6669 16.0907 20.6669 16.0649 20.625C16.0553 20.6057 15.9812 20.5928 15.9038 20.5928C15.8265 20.5928 15.7524 20.5767 15.7427 20.5605C15.733 20.5412 15.6718 20.5283 15.6106 20.5283C15.5493 20.5283 15.501 20.5122 15.501 20.4961C15.501 20.4768 15.4591 20.4639 15.4043 20.4639C15.3527 20.4639 15.3076 20.4478 15.3076 20.4316C15.3076 20.4123 15.2786 20.3994 15.2432 20.3994C15.2077 20.3994 15.1787 20.3833 15.1787 20.3672C15.1787 20.3479 15.1497 20.335 15.1143 20.335C15.0788 20.335 15.0498 20.3188 15.0498 20.3027C15.0498 20.2834 15.0208 20.2705 14.9854 20.2705C14.9499 20.2705 14.9209 20.2576 14.9209 20.2447C14.9209 20.2286 14.8822 20.1964 14.8339 20.1706C14.7823 20.1448 14.7147 20.0997 14.6824 20.0675C14.647 20.0385 14.5986 20.0127 14.5761 20.0127C14.5535 20.0127 14.5342 19.9998 14.5342 19.9869C14.5342 19.9708 14.4955 19.9386 14.4472 19.9128C14.3956 19.887 14.3183 19.829 14.2699 19.7807C14.2248 19.7291 14.17 19.6904 14.1507 19.6904C14.1314 19.6904 14.0347 19.6131 13.9412 19.5196C13.8478 19.4294 13.706 19.294 13.6286 19.2199C13.4353 19.0427 13.0518 18.6302 13.0518 18.6012C13.0518 18.5883 12.9938 18.5109 12.9229 18.4336C12.852 18.3562 12.794 18.2789 12.794 18.2628C12.794 18.2499 12.7649 18.208 12.7295 18.1693C12.694 18.1307 12.665 18.0791 12.665 18.0565C12.665 18.034 12.6522 18.0146 12.6328 18.0146C12.6167 18.0146 12.6006 17.9953 12.6006 17.9728C12.6006 17.9502 12.5716 17.8986 12.5361 17.86C12.5007 17.8213 12.4717 17.7697 12.4717 17.7407C12.4717 17.7149 12.4588 17.6924 12.4395 17.6924C12.4233 17.6924 12.4072 17.6634 12.4072 17.6279C12.4072 17.5925 12.3943 17.5635 12.375 17.5635C12.3589 17.5635 12.3428 17.5345 12.3428 17.499C12.3428 17.4636 12.3299 17.4346 12.3106 17.4346C12.2944 17.4346 12.2783 17.4056 12.2783 17.3701C12.2783 17.3347 12.2654 17.3057 12.2461 17.3057C12.23 17.3057 12.2139 17.2605 12.2139 17.209C12.2139 17.1542 12.201 17.1123 12.1816 17.1123C12.1655 17.1123 12.1494 17.0833 12.1494 17.0511C12.1494 17.0156 12.1365 16.977 12.1172 16.9673C12.1011 16.9576 12.085 16.9125 12.085 16.8706C12.085 16.8287 12.0721 16.7836 12.0527 16.7739C12.0334 16.7643 12.0205 16.7063 12.0205 16.645C12.0205 16.587 12.0012 16.529 11.9818 16.5193C11.9496 16.5032 11.9496 16.4968 11.9818 16.4807C12.0108 16.4678 12.0205 16.3485 12.0205 16.0456C12.0205 15.791 12.0334 15.6299 12.0527 15.6299C12.0721 15.6299 12.085 15.4655 12.085 15.198C12.085 14.9435 12.0979 14.7565 12.1172 14.7437C12.1365 14.734 12.1494 14.6244 12.1494 14.4987C12.1494 14.373 12.1623 14.2764 12.1816 14.2764C12.201 14.2764 12.2139 14.2022 12.2139 14.1152C12.2139 14.025 12.23 13.9541 12.2461 13.9541C12.2654 13.9541 12.2783 13.8961 12.2783 13.8252C12.2783 13.7543 12.2944 13.6963 12.3106 13.6963C12.3299 13.6963 12.3428 13.6544 12.3428 13.6028C12.3428 13.548 12.3589 13.4965 12.375 13.4868C12.3943 13.4771 12.4072 13.432 12.4072 13.3869C12.4072 13.345 12.4233 13.3096 12.4395 13.3096C12.4588 13.3096 12.4717 13.2645 12.4717 13.2129C12.4717 13.1581 12.4878 13.1162 12.5039 13.1162C12.5232 13.1162 12.5361 13.0872 12.5361 13.0518C12.5361 13.0163 12.5523 12.9873 12.5684 12.9873C12.5877 12.9873 12.6006 12.9583 12.6006 12.9229C12.6006 12.8874 12.6167 12.8584 12.6328 12.8584C12.6522 12.8584 12.665 12.8391 12.665 12.8165C12.665 12.7939 12.694 12.7424 12.7295 12.7037C12.7649 12.665 12.794 12.6135 12.794 12.5845C12.794 12.5587 12.8068 12.5361 12.8197 12.5361C12.8358 12.5361 12.8681 12.4975 12.8939 12.4459C12.9196 12.3976 12.9648 12.3299 12.997 12.2977C13.026 12.2622 13.0518 12.2171 13.0518 12.1978C13.0518 12.1784 13.0808 12.143 13.1162 12.1172C13.1517 12.0914 13.1807 12.0495 13.1807 12.027C13.1807 12.0012 13.2258 11.9399 13.2774 11.8916C13.3321 11.8433 13.374 11.7885 13.374 11.7724C13.374 11.7563 13.4482 11.6628 13.5352 11.5693C13.6254 11.4759 13.6963 11.3856 13.6963 11.3695C13.6963 11.3212 14.2409 10.7959 14.2925 10.7959C14.3183 10.7959 14.3408 10.7798 14.3408 10.7637C14.3408 10.7443 14.3698 10.7314 14.4053 10.7314C14.4407 10.7314 14.4697 10.7153 14.4697 10.6992C14.4697 10.6799 14.4987 10.667 14.5342 10.667C14.5696 10.667 14.6276 10.6509 14.6631 10.6348C14.6985 10.6154 14.7565 10.5864 14.792 10.5703C14.8274 10.551 14.8983 10.5381 14.9531 10.5381C15.0047 10.5381 15.0498 10.522 15.0498 10.5059C15.0498 10.4865 15.0982 10.4736 15.1594 10.4736C15.2206 10.4736 15.2818 10.4575 15.2915 10.4414C15.3012 10.4221 15.3817 10.4092 15.472 10.4092C15.559 10.4092 15.6299 10.3931 15.6299 10.377C15.6299 10.3576 15.8974 10.3447 16.3679 10.3447C16.8287 10.3447 17.1155 10.3576 17.1284 10.377ZM14.3731 20.915C14.3988 20.9505 14.444 20.9795 14.4762 20.9795C14.5084 20.9795 14.5342 20.9924 14.5342 21.0117C14.5342 21.0278 14.5632 21.0439 14.5986 21.0439C14.6341 21.0439 14.6631 21.0568 14.6631 21.0762C14.6631 21.0923 14.6921 21.1084 14.7275 21.1084C14.763 21.1084 14.792 21.1213 14.792 21.1406C14.792 21.1567 14.821 21.1729 14.8565 21.1729C14.8919 21.1729 14.9209 21.1857 14.9209 21.2051C14.9209 21.2212 14.966 21.2373 15.0176 21.2373C15.0724 21.2373 15.1143 21.2502 15.1143 21.2695C15.1143 21.2856 15.1594 21.3018 15.2109 21.3018C15.2657 21.3018 15.3076 21.3146 15.3076 21.334C15.3076 21.3501 15.3656 21.3662 15.4365 21.3662C15.5074 21.3662 15.5654 21.3791 15.5654 21.3984C15.5654 21.4178 15.6492 21.4307 15.7556 21.4307C15.8619 21.4307 15.9586 21.4436 15.9683 21.4629C15.9812 21.4822 16.1552 21.4951 16.3904 21.4951C16.6354 21.4951 16.79 21.4822 16.79 21.4629C16.79 21.4436 16.8803 21.4307 16.9963 21.4307C17.1123 21.4307 17.2154 21.4146 17.2251 21.3984C17.2348 21.3791 17.2928 21.3662 17.354 21.3662C17.4152 21.3662 17.4732 21.3501 17.4829 21.334C17.4926 21.3146 17.5441 21.3018 17.5989 21.3018C17.6505 21.3018 17.6924 21.2856 17.6924 21.2695C17.6924 21.2502 17.7214 21.2373 17.7536 21.2373C17.7891 21.2373 17.8277 21.2212 17.8374 21.2051C17.8471 21.1857 17.8922 21.1729 17.9373 21.1729C17.9792 21.1729 18.0147 21.1567 18.0147 21.1406C18.0147 21.1213 18.0437 21.1084 18.0791 21.1084C18.1146 21.1084 18.1436 21.0923 18.1436 21.0762C18.1436 21.0568 18.1629 21.0439 18.1855 21.0439C18.208 21.0439 18.2596 21.0149 18.2982 20.9795C18.3369 20.944 18.3885 20.915 18.4175 20.915C18.4433 20.915 18.4658 20.8989 18.4658 20.8828C18.4658 20.8635 18.4819 20.8506 18.4981 20.8506C18.5174 20.8506 18.5303 21.0536 18.5303 21.3984C18.5303 21.7433 18.5432 21.9463 18.5625 21.9463C18.5818 21.9463 18.5947 21.9688 18.5947 21.9979C18.5947 22.0688 18.6882 22.1364 18.7816 22.1396C18.8203 22.1396 18.8525 22.1525 18.8525 22.1719C18.8525 22.1912 18.9396 22.2041 19.0459 22.2041C19.1523 22.2041 19.2393 22.217 19.2393 22.2363C19.2393 22.2524 19.3037 22.2686 19.3811 22.2686C19.4616 22.2686 19.5357 22.2814 19.5454 22.3008C19.5551 22.3169 19.5938 22.333 19.6292 22.333C19.6679 22.333 19.6904 22.3556 19.6904 22.3975C19.6904 22.4329 19.6775 22.4619 19.6582 22.4619C19.6421 22.4619 19.626 22.5038 19.626 22.5586C19.626 22.6102 19.6131 22.6553 19.5938 22.6553C19.5776 22.6553 19.5615 22.6843 19.5615 22.7197C19.5615 22.7552 19.5486 22.7842 19.5293 22.7842C19.5132 22.7842 19.4971 22.8196 19.4971 22.8615C19.4971 22.9066 19.4842 22.9518 19.4649 22.9614C19.4487 22.9711 19.4326 23.0098 19.4326 23.0452C19.4326 23.0774 19.4197 23.1064 19.4004 23.1064C19.3843 23.1064 19.3682 23.1354 19.3682 23.1709C19.3682 23.2063 19.3553 23.2354 19.3359 23.2354C19.3198 23.2354 19.3037 23.2644 19.3037 23.2998C19.3037 23.3353 19.2908 23.3643 19.2715 23.3643C19.2554 23.3643 19.2393 23.3933 19.2393 23.4287C19.2393 23.4642 19.2264 23.4932 19.207 23.4932C19.1909 23.4932 19.1748 23.5222 19.1748 23.5576C19.1748 23.5931 19.1619 23.6221 19.1426 23.6221C19.1265 23.6221 19.1104 23.6511 19.1104 23.6865C19.1104 23.722 19.0975 23.751 19.0781 23.751C19.062 23.751 19.0459 23.78 19.0459 23.8154C19.0459 23.8509 19.033 23.8799 19.0137 23.8799C18.9976 23.8799 18.9815 23.8992 18.9815 23.9218C18.9815 23.9443 18.9524 23.9959 18.917 24.0346C18.8815 24.0732 18.8525 24.1248 18.8525 24.1538C18.8525 24.1796 18.8397 24.2021 18.8203 24.2021C18.8042 24.2021 18.7881 24.2279 18.7881 24.2602C18.7881 24.2924 18.7591 24.3375 18.7236 24.3633C18.6882 24.3891 18.6592 24.431 18.6592 24.46C18.6592 24.489 18.6302 24.5309 18.5947 24.5566C18.5593 24.5824 18.5303 24.6243 18.5303 24.6533C18.5303 24.6823 18.5013 24.7242 18.4658 24.75C18.4304 24.7758 18.4014 24.8177 18.4014 24.8467C18.4014 24.8757 18.3724 24.9176 18.3369 24.9434C18.3015 24.9691 18.2725 25.0078 18.2725 25.0271C18.2725 25.0465 18.2306 25.1077 18.1758 25.1625C18.1242 25.2205 18.0791 25.2817 18.0791 25.3011C18.0791 25.3204 18.0372 25.3784 17.9824 25.4268C17.9309 25.4751 17.8857 25.5299 17.8857 25.5492C17.8857 25.5653 17.8277 25.6395 17.7568 25.7136C17.6859 25.7845 17.6279 25.8586 17.6279 25.8747C17.6279 25.8908 17.5603 25.9746 17.4732 26.0616C17.3895 26.1454 17.2863 26.2679 17.2412 26.3259C17.1993 26.3871 16.9866 26.6159 16.7675 26.8351L16.3711 27.2347L16.21 27.0703C16.123 26.9801 16.0102 26.8512 15.9618 26.7867C15.9103 26.7223 15.7749 26.5708 15.6557 26.4516C15.5332 26.3323 15.4365 26.2228 15.4365 26.2066C15.4365 26.1905 15.3495 26.0874 15.2432 25.9746C15.1368 25.8618 15.0498 25.7587 15.0498 25.7394C15.0498 25.7232 15.0079 25.6685 14.9531 25.6201C14.9016 25.5718 14.8565 25.517 14.8565 25.4977C14.8565 25.4815 14.8146 25.4235 14.7598 25.3688C14.7082 25.3107 14.6631 25.2527 14.6631 25.2398C14.6631 25.2237 14.6244 25.1689 14.5761 25.1174C14.5245 25.0658 14.4665 24.982 14.4407 24.9337C14.4149 24.8854 14.3827 24.8467 14.3666 24.8467C14.3537 24.8467 14.3408 24.8273 14.3408 24.8048C14.3408 24.7822 14.315 24.7339 14.286 24.6984C14.2538 24.6662 14.2087 24.5985 14.1829 24.547C14.1571 24.4986 14.1249 24.46 14.1088 24.46C14.0959 24.46 14.083 24.4342 14.083 24.402C14.083 24.3697 14.054 24.3246 14.0186 24.2988C13.9831 24.273 13.9541 24.2279 13.9541 24.1957C13.9541 24.1635 13.9412 24.1377 13.9219 24.1377C13.9058 24.1377 13.8897 24.1184 13.8897 24.0958C13.8897 24.0732 13.8607 24.0217 13.8252 23.983C13.7898 23.9443 13.7607 23.8928 13.7607 23.8638C13.7607 23.838 13.7479 23.8154 13.7285 23.8154C13.7124 23.8154 13.6963 23.7864 13.6963 23.751C13.6963 23.7155 13.6834 23.6865 13.6641 23.6865C13.648 23.6865 13.6318 23.6575 13.6318 23.6221C13.6318 23.5866 13.619 23.5576 13.5996 23.5576C13.5835 23.5576 13.5674 23.5286 13.5674 23.4932C13.5674 23.4577 13.5545 23.4287 13.5352 23.4287C13.519 23.4287 13.5029 23.3997 13.5029 23.3643C13.5029 23.3288 13.49 23.2998 13.4707 23.2998C13.4546 23.2998 13.4385 23.2708 13.4385 23.2354C13.4385 23.1999 13.4256 23.1709 13.4063 23.1709C13.3901 23.1709 13.374 23.1419 13.374 23.1064C13.374 23.071 13.3611 23.042 13.3418 23.042C13.3257 23.042 13.3096 23.0065 13.3096 22.9646C13.3096 22.9195 13.2967 22.8744 13.2774 22.8647C13.2612 22.8551 13.2451 22.8164 13.2451 22.781C13.2451 22.7487 13.2322 22.7197 13.2129 22.7197C13.1968 22.7197 13.1807 22.6746 13.1807 22.623C13.1807 22.5683 13.1678 22.5264 13.1517 22.5264C13.1356 22.5264 13.1162 22.4812 13.1098 22.4297C13.0969 22.3459 13.1065 22.333 13.171 22.333C13.2129 22.333 13.2451 22.3169 13.2451 22.3008C13.2451 22.2814 13.3192 22.2686 13.4063 22.2686C13.4965 22.2686 13.5674 22.2524 13.5674 22.2363C13.5674 22.217 13.6447 22.2041 13.7414 22.2041C13.8381 22.2041 13.9283 22.188 13.938 22.1719C13.9477 22.1525 13.9799 22.1396 14.0057 22.1396C14.0669 22.1396 14.2119 21.9946 14.2119 21.9334C14.2119 21.9076 14.228 21.8754 14.2441 21.8657C14.2635 21.8528 14.2764 21.6466 14.2764 21.3469C14.2764 21.0729 14.2893 20.8506 14.3022 20.8506C14.315 20.8506 14.3473 20.8796 14.3731 20.915ZM12.085 21.9914C12.085 22.0526 12.1011 22.1139 12.1172 22.1235C12.1365 22.1332 12.1494 22.1848 12.1494 22.2363C12.1494 22.2879 12.1655 22.3395 12.1816 22.3491C12.201 22.3588 12.2139 22.42 12.2139 22.4812C12.2139 22.5425 12.23 22.5908 12.2461 22.5908C12.2654 22.5908 12.2783 22.6327 12.2783 22.6875C12.2783 22.7391 12.2944 22.7842 12.3106 22.7842C12.3299 22.7842 12.3428 22.8196 12.3428 22.8615C12.3428 22.9066 12.3589 22.9518 12.375 22.9614C12.3943 22.9711 12.4072 23.0098 12.4072 23.0452C12.4072 23.0774 12.4233 23.1064 12.4395 23.1064C12.4588 23.1064 12.4717 23.1419 12.4717 23.1838C12.4717 23.2289 12.4878 23.274 12.5039 23.2837C12.5232 23.2934 12.5361 23.332 12.5361 23.3675C12.5361 23.3997 12.5523 23.4287 12.5684 23.4287C12.5877 23.4287 12.6006 23.4577 12.6006 23.4932C12.6006 23.5286 12.6167 23.5576 12.6328 23.5576C12.6522 23.5576 12.665 23.5866 12.665 23.6221C12.665 23.6575 12.6812 23.6865 12.6973 23.6865C12.7166 23.6865 12.7295 23.7059 12.7295 23.7316C12.7295 23.7864 12.8649 24.0539 12.9003 24.0668C12.9132 24.0732 12.9229 24.1055 12.9229 24.1409C12.9229 24.1731 12.939 24.2021 12.9551 24.2021C12.9744 24.2021 12.9873 24.2312 12.9873 24.2666C12.9873 24.3021 13.0034 24.3311 13.0195 24.3311C13.0389 24.3311 13.0518 24.3601 13.0518 24.3955C13.0518 24.431 13.0679 24.46 13.084 24.46C13.1033 24.46 13.1162 24.4793 13.1162 24.5019C13.1162 24.5244 13.1452 24.576 13.1807 24.6146C13.2161 24.6533 13.2451 24.6984 13.2451 24.7178C13.2451 24.7371 13.2741 24.7822 13.3096 24.8209C13.345 24.8596 13.374 24.9111 13.374 24.9337C13.374 24.9563 13.3901 24.9756 13.4063 24.9756C13.4256 24.9756 13.4385 24.9949 13.4385 25.0175C13.4385 25.04 13.4675 25.0916 13.5029 25.1303C13.5384 25.1689 13.5674 25.2108 13.5674 25.2237C13.5674 25.2366 13.6125 25.3011 13.6641 25.3623C13.7156 25.4235 13.7607 25.4912 13.7607 25.5073C13.7607 25.5267 13.7898 25.5621 13.8252 25.5879C13.8607 25.6137 13.8897 25.6523 13.8897 25.6717C13.8897 25.691 13.9348 25.7522 13.9863 25.807C14.0411 25.865 14.083 25.9198 14.083 25.9359C14.083 25.9488 14.141 26.0262 14.2119 26.1035C14.2828 26.1809 14.3408 26.2582 14.3408 26.2743C14.3408 26.2904 14.3988 26.3581 14.4697 26.4258C14.5406 26.4935 14.5986 26.5644 14.5986 26.5805C14.5986 26.5998 14.6824 26.6997 14.7856 26.8028C14.8855 26.906 15.0079 27.0413 15.0498 27.1025C15.1562 27.2508 16.4517 28.5463 16.5967 28.6494C16.6579 28.6913 16.79 28.8073 16.8867 28.9072C16.9834 29.0071 17.1155 29.1231 17.1768 29.165C17.238 29.2102 17.3605 29.3133 17.4442 29.3971C17.5313 29.4841 17.615 29.5518 17.6312 29.5518C17.6473 29.5518 17.7214 29.6098 17.7923 29.6807C17.8664 29.7516 17.9373 29.8096 17.9534 29.8096C17.9695 29.8096 18.0437 29.8676 18.1146 29.9385C18.1887 30.0094 18.2628 30.0674 18.2789 30.0674C18.3111 30.0674 18.4014 30.1479 18.4014 30.177C18.4014 30.1866 18.0791 30.1963 17.6827 30.1963C16.9931 30.1963 16.79 30.1737 16.79 30.0899C16.79 30.0771 16.761 30.0674 16.7256 30.0674C16.6901 30.0674 16.6611 30.0513 16.6611 30.0352C16.6611 30.0158 16.6354 30.0029 16.6031 30.0029C16.5709 30.0029 16.5258 29.9739 16.5 29.9385C16.4742 29.903 16.4291 29.874 16.3969 29.874C16.3647 29.874 16.3389 29.8579 16.3389 29.8418C16.3389 29.8225 16.3195 29.8096 16.297 29.8096C16.2744 29.8096 16.2229 29.7806 16.1842 29.7451C16.1455 29.7097 16.0972 29.6807 16.0746 29.6807C16.0488 29.6807 16.0102 29.6517 15.9844 29.6162C15.9586 29.5808 15.9199 29.5518 15.8974 29.5518C15.8748 29.5518 15.8104 29.5066 15.7524 29.4551C15.6976 29.4035 15.6396 29.3584 15.6234 29.3584C15.6106 29.3584 15.5525 29.3165 15.4945 29.2617C15.4398 29.2102 15.3817 29.165 15.3656 29.165C15.3527 29.165 15.2947 29.1199 15.2367 29.0684C15.1819 29.0136 15.1239 28.9717 15.111 28.9717C15.0949 28.9717 15.0079 28.8976 14.9177 28.8105C14.8274 28.7203 14.7404 28.6494 14.7211 28.6494C14.6792 28.6494 13.1162 27.08 13.1162 27.0349C13.1162 27.0155 13.0582 26.9446 12.9873 26.877C12.9164 26.8093 12.8584 26.7384 12.8584 26.7223C12.8584 26.7062 12.8004 26.632 12.7295 26.5579C12.6586 26.487 12.6006 26.4129 12.6006 26.3968C12.6006 26.3839 12.5587 26.3259 12.5039 26.2711C12.4524 26.2131 12.4072 26.1551 12.4072 26.1422C12.4072 26.1261 12.3653 26.0681 12.3106 26.0133C12.259 25.9553 12.2139 25.8908 12.2139 25.8683C12.2139 25.8457 12.1849 25.807 12.1494 25.7812C12.114 25.7555 12.085 25.72 12.085 25.7007C12.085 25.6846 12.0399 25.6169 11.9883 25.5557C11.9367 25.4944 11.8916 25.43 11.8916 25.4171C11.8916 25.4042 11.8626 25.3623 11.8272 25.3236C11.7917 25.285 11.7627 25.2334 11.7627 25.2108C11.7627 25.1883 11.7498 25.1689 11.7305 25.1689C11.7144 25.1689 11.6982 25.1496 11.6982 25.1271C11.6982 25.1045 11.6725 25.0562 11.6435 25.0207C11.6112 24.9885 11.5661 24.9208 11.5403 24.8692C11.5146 24.8209 11.4823 24.7822 11.4662 24.7822C11.4533 24.7822 11.4404 24.7532 11.4404 24.7178C11.4404 24.6823 11.4275 24.6533 11.4082 24.6533C11.3921 24.6533 11.376 24.634 11.376 24.6114C11.376 24.5889 11.347 24.5373 11.3115 24.4986C11.2761 24.46 11.2471 24.4084 11.2471 24.3794C11.2471 24.3536 11.2342 24.3311 11.2149 24.3311C11.1987 24.3311 11.1826 24.3021 11.1826 24.2666C11.1826 24.2312 11.1697 24.2021 11.1504 24.2021C11.1343 24.2021 11.1182 24.1828 11.1182 24.1603C11.1182 24.1377 11.0892 24.0861 11.0537 24.0475C11.0183 24.0088 10.9893 23.9572 10.9893 23.9282C10.9893 23.9024 10.9764 23.8799 10.957 23.8799C10.9409 23.8799 10.9248 23.8509 10.9248 23.8154C10.9248 23.78 10.9119 23.751 10.8926 23.751C10.8765 23.751 10.8604 23.722 10.8604 23.6865C10.8604 23.6511 10.8475 23.6221 10.8281 23.6221C10.812 23.6221 10.7959 23.5931 10.7959 23.5576C10.7959 23.5222 10.783 23.4932 10.7637 23.4932C10.7476 23.4932 10.7315 23.4642 10.7315 23.4287C10.7315 23.3933 10.7186 23.3643 10.6992 23.3643C10.6831 23.3643 10.667 23.3353 10.667 23.2998C10.667 23.2644 10.6541 23.2354 10.6348 23.2354C10.6187 23.2354 10.6025 23.2063 10.6025 23.1709C10.6025 23.1354 10.5897 23.1064 10.5703 23.1064C10.5542 23.1064 10.5381 23.0774 10.5381 23.042C10.5381 23.0065 10.5252 22.9775 10.5059 22.9775C10.4898 22.9775 10.4736 22.9421 10.4736 22.9002C10.4736 22.8551 10.4607 22.81 10.4414 22.8003C10.3866 22.7648 10.4027 22.6005 10.4672 22.5812C10.4962 22.5683 10.5832 22.5231 10.6606 22.478C10.7347 22.4329 10.8249 22.3975 10.8604 22.3975C10.8958 22.3975 10.9248 22.3813 10.9248 22.3652C10.9248 22.3459 10.9538 22.333 10.9893 22.333C11.0247 22.333 11.0537 22.3169 11.0537 22.3008C11.0537 22.2814 11.0827 22.2686 11.1182 22.2686C11.1536 22.2686 11.1826 22.2524 11.1826 22.2363C11.1826 22.217 11.2181 22.2041 11.26 22.2041C11.3051 22.2041 11.3502 22.188 11.3599 22.1719C11.3695 22.1525 11.4082 22.1396 11.4437 22.1396C11.4759 22.1396 11.5049 22.1235 11.5049 22.1074C11.5049 22.0881 11.55 22.0752 11.6016 22.0752C11.6564 22.0752 11.6982 22.0591 11.6982 22.043C11.6982 22.0236 11.7273 22.0107 11.7595 22.0107C11.7949 22.0107 11.8336 21.9946 11.8433 21.9785C11.8529 21.9592 11.8981 21.9463 11.9432 21.9463C11.9851 21.9463 12.0205 21.9302 12.0205 21.9141C12.0205 21.8947 12.0366 21.8818 12.0527 21.8818C12.0721 21.8818 12.085 21.9302 12.085 21.9914ZM20.915 21.9817C20.915 21.9979 20.9602 22.0107 21.0117 22.0107C21.0665 22.0107 21.1084 22.0236 21.1084 22.043C21.1084 22.0591 21.1374 22.0752 21.1696 22.0752C21.2051 22.0752 21.2438 22.0881 21.2534 22.1074C21.2631 22.1235 21.3082 22.1396 21.3533 22.1396C21.3952 22.1396 21.4307 22.1525 21.4307 22.1719C21.4307 22.188 21.4597 22.2041 21.4919 22.2041C21.5274 22.2041 21.566 22.217 21.5757 22.2363C21.5854 22.2524 21.6305 22.2686 21.6756 22.2686C21.7175 22.2686 21.7529 22.2814 21.7529 22.3008C21.7529 22.3169 21.7819 22.333 21.8174 22.333C21.8528 22.333 21.8818 22.3459 21.8818 22.3652C21.8818 22.3813 21.9108 22.3975 21.9463 22.3975C21.9817 22.3975 22.0107 22.4104 22.0107 22.4297C22.0107 22.4458 22.0398 22.4619 22.0752 22.4619C22.1107 22.4619 22.1397 22.4748 22.1397 22.4941C22.1397 22.5103 22.1687 22.5264 22.2041 22.5264C22.2396 22.5264 22.2686 22.5393 22.2686 22.5586C22.2686 22.5747 22.2976 22.5908 22.333 22.5908C22.3846 22.5908 22.3975 22.6134 22.3975 22.6875C22.3975 22.7391 22.3846 22.7842 22.3652 22.7842C22.3491 22.7842 22.333 22.8132 22.333 22.8486C22.333 22.8841 22.3201 22.9131 22.3008 22.9131C22.2847 22.9131 22.2686 22.9421 22.2686 22.9775C22.2686 23.013 22.2557 23.042 22.2363 23.042C22.2202 23.042 22.2041 23.071 22.2041 23.1064C22.2041 23.1419 22.1912 23.1709 22.1719 23.1709C22.1558 23.1709 22.1397 23.1999 22.1397 23.2354C22.1397 23.2708 22.1268 23.2998 22.1074 23.2998C22.0913 23.2998 22.0752 23.3288 22.0752 23.3643C22.0752 23.3997 22.0623 23.4287 22.043 23.4287C22.0269 23.4287 22.0107 23.4577 22.0107 23.4932C22.0107 23.5286 21.9979 23.5576 21.9785 23.5576C21.9624 23.5576 21.9463 23.5866 21.9463 23.6221C21.9463 23.6575 21.9334 23.6865 21.9141 23.6865C21.898 23.6865 21.8818 23.7155 21.8818 23.751C21.8818 23.7864 21.869 23.8154 21.8496 23.8154C21.8335 23.8154 21.8174 23.8444 21.8174 23.8799C21.8174 23.9153 21.8045 23.9443 21.7852 23.9443C21.7691 23.9443 21.7529 23.9733 21.7529 24.0088C21.7529 24.0442 21.74 24.0732 21.7207 24.0732C21.7046 24.0732 21.6885 24.0958 21.6885 24.1216C21.6885 24.1506 21.6595 24.2021 21.624 24.2408C21.5886 24.2795 21.5596 24.3311 21.5596 24.3536C21.5596 24.3762 21.5467 24.3955 21.5274 24.3955C21.5112 24.3955 21.4951 24.4245 21.4951 24.46C21.4951 24.4954 21.4822 24.5244 21.4629 24.5244C21.4468 24.5244 21.4307 24.5438 21.4307 24.5663C21.4307 24.5889 21.4017 24.6404 21.3662 24.6791C21.3308 24.7178 21.3018 24.7629 21.3018 24.7822C21.3018 24.8016 21.2728 24.8467 21.2373 24.8854C21.2019 24.924 21.1729 24.9756 21.1729 24.9981C21.1729 25.0207 21.16 25.04 21.1406 25.04C21.1245 25.04 21.1084 25.0658 21.1084 25.098C21.1084 25.1303 21.0794 25.1754 21.044 25.2012C21.0085 25.227 20.9795 25.2688 20.9795 25.2979C20.9795 25.3269 20.9505 25.3688 20.915 25.3945C20.8796 25.4203 20.8506 25.459 20.8506 25.4815C20.8506 25.5041 20.8087 25.5686 20.7539 25.6266C20.7024 25.6813 20.6572 25.7426 20.6572 25.7619C20.6572 25.7812 20.6282 25.8199 20.5928 25.8457C20.5573 25.8715 20.5283 25.9102 20.5283 25.9327C20.5283 25.9553 20.4864 26.0197 20.4316 26.0777C20.3801 26.1325 20.335 26.1905 20.335 26.2066C20.335 26.226 20.2931 26.2808 20.2383 26.3291C20.1867 26.3774 20.1416 26.4354 20.1416 26.458C20.1416 26.4773 20.0836 26.5515 20.0127 26.6191C19.9418 26.6868 19.8838 26.7577 19.8838 26.7738C19.8838 26.7932 19.8161 26.877 19.7291 26.964C19.6453 27.0478 19.5422 27.1702 19.4971 27.2314C19.3907 27.3797 18.353 28.4174 18.208 28.5205C18.1468 28.5624 18.0694 28.6269 18.0404 28.6591C17.9857 28.7203 17.9824 28.7171 17.8632 28.5946C17.7955 28.527 17.6892 28.4335 17.6279 28.3916C17.5667 28.3465 17.4088 28.2079 17.2799 28.079L17.0479 27.8438L17.2283 27.6536C17.3282 27.5473 17.4346 27.428 17.4604 27.3861C17.4894 27.3442 17.6086 27.2186 17.7246 27.1025C17.8406 26.9865 17.9695 26.8415 18.0147 26.7803C18.0566 26.719 18.1468 26.6127 18.2145 26.5482C18.2821 26.4838 18.3369 26.4161 18.3369 26.4C18.3369 26.3839 18.3949 26.3098 18.4658 26.2356C18.5367 26.1647 18.5947 26.0874 18.5947 26.0681C18.5947 26.0487 18.6399 25.9907 18.6914 25.9424C18.7462 25.894 18.7881 25.8393 18.7881 25.8199C18.7881 25.8038 18.8332 25.7458 18.8848 25.691C18.9396 25.633 18.9815 25.5686 18.9815 25.546C18.9815 25.5234 19.0105 25.4848 19.0459 25.459C19.0814 25.4332 19.1104 25.3978 19.1104 25.3784C19.1104 25.3591 19.1361 25.314 19.1684 25.2785C19.1974 25.2463 19.2425 25.1786 19.2683 25.1271C19.2941 25.0787 19.3263 25.04 19.3424 25.04C19.3553 25.04 19.3682 25.0143 19.3682 24.982C19.3682 24.9498 19.3972 24.9047 19.4326 24.8789C19.4681 24.8531 19.4971 24.8145 19.4971 24.7887C19.4971 24.7661 19.5261 24.7178 19.5615 24.6791C19.597 24.6404 19.626 24.5889 19.626 24.5663C19.626 24.5438 19.6421 24.5244 19.6582 24.5244C19.6775 24.5244 19.6904 24.4954 19.6904 24.46C19.6904 24.4245 19.7065 24.3955 19.7227 24.3955C19.742 24.3955 19.7549 24.3665 19.7549 24.3311C19.7549 24.2956 19.7678 24.2666 19.7839 24.2666C19.7968 24.2666 19.858 24.1699 19.9192 24.0475C19.9805 23.9282 20.0385 23.8251 20.0514 23.8219C20.0675 23.8154 20.0772 23.7832 20.0772 23.751C20.0772 23.7188 20.0933 23.6801 20.1094 23.6704C20.1287 23.6607 20.1416 23.6156 20.1416 23.5705C20.1416 23.5286 20.1577 23.4932 20.1738 23.4932C20.1932 23.4932 20.2061 23.4642 20.2061 23.4287C20.2061 23.3933 20.2222 23.3643 20.2383 23.3643C20.2576 23.3643 20.2705 23.3353 20.2705 23.2998C20.2705 23.2644 20.2866 23.2354 20.3027 23.2354C20.3221 23.2354 20.335 23.1902 20.335 23.1387C20.335 23.0839 20.3511 23.042 20.3672 23.042C20.3865 23.042 20.3994 23.013 20.3994 22.9808C20.3994 22.9453 20.4155 22.9066 20.4316 22.897C20.451 22.8873 20.4639 22.8422 20.4639 22.8003C20.4639 22.7584 20.48 22.7133 20.4961 22.7036C20.5154 22.6939 20.5283 22.6488 20.5283 22.6069C20.5283 22.565 20.5444 22.5199 20.5606 22.5103C20.5799 22.5006 20.5928 22.4394 20.5928 22.3781C20.5928 22.3169 20.6089 22.2686 20.625 22.2686C20.6443 22.2686 20.6572 22.217 20.6572 22.1558C20.6572 21.9914 20.7088 21.9237 20.8216 21.9398C20.8732 21.9463 20.915 21.9656 20.915 21.9817ZM9.89356 23.6865C9.89356 23.722 9.90967 23.751 9.92579 23.751C9.94512 23.751 9.95801 23.78 9.95801 23.8154C9.95801 23.8509 9.97413 23.8799 9.99024 23.8799C10.0096 23.8799 10.0225 23.9089 10.0225 23.9443C10.0225 23.9798 10.0386 24.0088 10.0547 24.0088C10.074 24.0088 10.0869 24.0378 10.0869 24.0732C10.0869 24.1087 10.103 24.1377 10.1191 24.1377C10.1385 24.1377 10.1514 24.1667 10.1514 24.2021C10.1514 24.2376 10.1675 24.2666 10.1836 24.2666C10.2029 24.2666 10.2158 24.2956 10.2158 24.3311C10.2158 24.3665 10.2319 24.3955 10.2481 24.3955C10.2674 24.3955 10.2803 24.4245 10.2803 24.46C10.2803 24.4954 10.2964 24.5244 10.3125 24.5244C10.3318 24.5244 10.3447 24.5438 10.3447 24.5663C10.3447 24.5889 10.3737 24.6404 10.4092 24.6791C10.4446 24.7178 10.4736 24.7693 10.4736 24.7983C10.4736 24.8241 10.4898 24.8467 10.5059 24.8467C10.5252 24.8467 10.5381 24.8757 10.5381 24.9111C10.5381 24.9466 10.5542 24.9756 10.5703 24.9756C10.5897 24.9756 10.6025 24.9949 10.6025 25.0175C10.6025 25.04 10.6315 25.0916 10.667 25.1303C10.7024 25.1689 10.7315 25.2141 10.7315 25.2334C10.7315 25.2527 10.7605 25.2979 10.7959 25.3365C10.8314 25.3752 10.8604 25.4268 10.8604 25.4493C10.8604 25.4719 10.8765 25.4912 10.8926 25.4912C10.9119 25.4912 10.9248 25.5105 10.9248 25.5331C10.9248 25.5557 10.9538 25.6072 10.9893 25.6459C11.0247 25.6846 11.0537 25.7329 11.0537 25.7555C11.0537 25.7812 11.0827 25.8199 11.1182 25.8457C11.1536 25.8715 11.1826 25.9134 11.1826 25.9392C11.1826 25.9617 11.2084 26.0068 11.2406 26.0358C11.2696 26.0648 11.3148 26.1261 11.3405 26.1744C11.3663 26.226 11.3985 26.2646 11.4147 26.2646C11.4275 26.2646 11.4404 26.284 11.4404 26.3098C11.4404 26.3323 11.4856 26.3968 11.5371 26.4516C11.5919 26.5096 11.6338 26.5676 11.6338 26.5805C11.6338 26.5966 11.6789 26.6546 11.7305 26.7094C11.7853 26.7674 11.8272 26.8254 11.8272 26.8415C11.8272 26.8576 11.8852 26.9285 11.9561 27.0026C12.027 27.0735 12.085 27.1477 12.085 27.1638C12.085 27.1799 12.1398 27.2476 12.2074 27.3152C12.2719 27.3861 12.3621 27.4925 12.4072 27.5537C12.4491 27.6149 12.5651 27.7471 12.665 27.8438C12.7617 27.9404 12.8842 28.079 12.9357 28.1467C13.055 28.3078 13.519 28.7719 13.6834 28.8943C13.7511 28.9459 13.9058 29.0845 14.0282 29.2037C14.1507 29.3262 14.2635 29.4229 14.2828 29.4229C14.2989 29.4229 14.3698 29.4809 14.4375 29.5518C14.5052 29.6227 14.5793 29.6807 14.5986 29.6807C14.6212 29.6807 14.6792 29.7226 14.7275 29.7773C14.7759 29.8289 14.8307 29.874 14.85 29.874C14.8661 29.874 14.9209 29.9127 14.9725 29.961C15.024 30.0126 15.1078 30.0706 15.1562 30.0964C15.2045 30.1222 15.2432 30.1544 15.2432 30.1705C15.2432 30.1834 13.229 30.1963 10.7637 30.1963H6.28419V29.845C6.28419 29.642 6.29708 29.4841 6.31641 29.4712C6.33575 29.4615 6.34864 29.3423 6.34864 29.2102C6.34864 29.0716 6.36153 28.9717 6.38087 28.9717C6.4002 28.9717 6.41309 28.8847 6.41309 28.7783C6.41309 28.672 6.42598 28.585 6.44532 28.585C6.46465 28.585 6.47755 28.527 6.47755 28.4593C6.47755 28.3884 6.49366 28.3207 6.50977 28.311C6.52911 28.3014 6.542 28.2434 6.542 28.1821C6.542 28.1209 6.55811 28.0629 6.57422 28.0532C6.59356 28.0436 6.60645 27.9823 6.60645 27.9211C6.60645 27.8599 6.62256 27.8115 6.63868 27.8115C6.65801 27.8115 6.6709 27.7664 6.6709 27.7148C6.6709 27.6601 6.68702 27.6182 6.70313 27.6182C6.72247 27.6182 6.73536 27.573 6.73536 27.5215C6.73536 27.4667 6.75147 27.4248 6.76758 27.4248C6.78692 27.4248 6.79981 27.3797 6.79981 27.3281C6.79981 27.2733 6.81592 27.2314 6.83204 27.2314C6.85137 27.2314 6.86426 27.2024 6.86426 27.167C6.86426 27.1315 6.88038 27.1025 6.89649 27.1025C6.91583 27.1025 6.92872 27.0574 6.92872 27.0059C6.92872 26.9511 6.94483 26.9092 6.96094 26.9092C6.98028 26.9092 6.99317 26.8802 6.99317 26.8447C6.99317 26.8093 7.00928 26.7803 7.0254 26.7803C7.04473 26.7803 7.05762 26.7513 7.05762 26.7158C7.05762 26.6804 7.07374 26.6514 7.08985 26.6514C7.10919 26.6514 7.12208 26.6224 7.12208 26.5869C7.12208 26.5515 7.13819 26.5225 7.1543 26.5225C7.17364 26.5225 7.18653 26.4935 7.18653 26.458C7.18653 26.4226 7.20264 26.3936 7.21876 26.3936C7.23809 26.3936 7.25098 26.3646 7.25098 26.3291C7.25098 26.2937 7.2671 26.2646 7.28321 26.2646C7.30255 26.2646 7.31544 26.2453 7.31544 26.2228C7.31544 26.2002 7.34444 26.1486 7.37989 26.11C7.41534 26.0713 7.44434 26.0262 7.44434 26.0068C7.44434 25.9875 7.47335 25.9424 7.5088 25.9037C7.54424 25.865 7.57325 25.8135 7.57325 25.7909C7.57325 25.7684 7.58614 25.749 7.59903 25.749C7.61514 25.749 7.64737 25.7104 7.67315 25.662C7.69893 25.6137 7.75694 25.5299 7.8085 25.4783C7.85684 25.4268 7.89551 25.372 7.89551 25.3591C7.89551 25.343 7.96964 25.256 8.05665 25.1657C8.14688 25.0755 8.21778 24.9885 8.21778 24.9724C8.21778 24.9305 8.59483 24.5599 8.7334 24.46C8.79464 24.4181 8.90098 24.3278 8.96544 24.2602C9.02989 24.1925 9.09756 24.1377 9.11368 24.1377C9.12979 24.1377 9.1878 24.0926 9.24258 24.041C9.30059 23.9862 9.3586 23.9443 9.37149 23.9443C9.3876 23.9443 9.44561 23.8992 9.5004 23.8477C9.5584 23.7929 9.62608 23.751 9.65186 23.751C9.67764 23.751 9.7002 23.7413 9.7002 23.7252C9.7002 23.7026 9.81622 23.635 9.871 23.6253C9.88389 23.6253 9.89356 23.6511 9.89356 23.6865ZM22.9775 23.6543C22.9775 23.6704 23.0033 23.6865 23.0356 23.6865C23.0678 23.6865 23.1129 23.7155 23.1387 23.751C23.1645 23.7864 23.2031 23.8154 23.2257 23.8154C23.2482 23.8154 23.3127 23.8573 23.3707 23.9121C23.4255 23.9637 23.4835 24.0088 23.5028 24.0088C23.519 24.0088 23.5576 24.0346 23.5866 24.0668C23.6156 24.099 23.6898 24.1603 23.751 24.2021C23.896 24.3053 24.8467 25.2592 24.8467 25.3043C24.8467 25.3204 24.8918 25.3784 24.9434 25.4268C24.9982 25.4751 25.04 25.5363 25.04 25.5621C25.04 25.5847 25.069 25.6266 25.1045 25.6523C25.1399 25.6781 25.169 25.72 25.169 25.749C25.169 25.778 25.198 25.8199 25.2334 25.8457C25.2689 25.8715 25.2979 25.9134 25.2979 25.9424C25.2979 25.9714 25.3269 26.0133 25.3623 26.0391C25.3978 26.0648 25.4268 26.11 25.4268 26.1422C25.4268 26.1744 25.4429 26.2002 25.459 26.2002C25.4783 26.2002 25.4912 26.2292 25.4912 26.2646C25.4912 26.3001 25.5073 26.3291 25.5234 26.3291C25.5428 26.3291 25.5557 26.3581 25.5557 26.3936C25.5557 26.429 25.5718 26.458 25.5879 26.458C25.6072 26.458 25.6201 26.487 25.6201 26.5225C25.6201 26.5579 25.6362 26.5869 25.6524 26.5869C25.6717 26.5869 25.6846 26.6159 25.6846 26.6514C25.6846 26.6868 25.7007 26.7158 25.7168 26.7158C25.7361 26.7158 25.749 26.7448 25.749 26.7803C25.749 26.8157 25.7651 26.8447 25.7813 26.8447C25.8006 26.8447 25.8135 26.8737 25.8135 26.9092C25.8135 26.9446 25.8296 26.9736 25.8457 26.9736C25.865 26.9736 25.8779 27.0155 25.8779 27.0703C25.8779 27.1219 25.8941 27.167 25.9102 27.167C25.9295 27.167 25.9424 27.196 25.9424 27.2314C25.9424 27.2669 25.9585 27.2959 25.9746 27.2959C25.994 27.2959 26.0068 27.3378 26.0068 27.3926C26.0068 27.4441 26.023 27.4893 26.0391 27.4893C26.0584 27.4893 26.0713 27.5312 26.0713 27.5859C26.0713 27.6375 26.0874 27.6826 26.1035 27.6826C26.1229 27.6826 26.1357 27.7245 26.1357 27.7793C26.1357 27.8309 26.1519 27.876 26.168 27.876C26.1873 27.876 26.2002 27.934 26.2002 28.0049C26.2002 28.0758 26.2163 28.1338 26.2324 28.1338C26.2518 28.1338 26.2647 28.1918 26.2647 28.2627C26.2647 28.3336 26.2808 28.3916 26.2969 28.3916C26.3162 28.3916 26.3291 28.4625 26.3291 28.5527C26.3291 28.6397 26.3452 28.7139 26.3613 28.7139C26.3807 28.7139 26.3936 28.8009 26.3936 28.9072C26.3936 29.0136 26.4065 29.1006 26.4258 29.1006C26.4451 29.1006 26.458 29.2134 26.458 29.3713C26.458 29.5228 26.4741 29.6549 26.4902 29.6646C26.5096 29.6742 26.5225 29.7999 26.5225 29.9417V30.1963H23.2031C21.0117 30.1963 19.8838 30.1866 19.8838 30.1641C19.8838 30.1447 19.8612 30.1318 19.8355 30.1318C19.8097 30.1318 19.742 30.0867 19.684 30.0352C19.6292 29.9804 19.5712 29.9385 19.5551 29.9385C19.5422 29.9385 19.4842 29.8934 19.4262 29.8418C19.3714 29.787 19.3134 29.7451 19.2973 29.7451C19.2844 29.7451 19.2264 29.7 19.1684 29.6484C19.1136 29.5937 19.0556 29.5518 19.0395 29.5518C19.0201 29.5518 18.9653 29.5099 18.917 29.4551C18.8687 29.4003 18.8139 29.3584 18.7978 29.3584C18.7816 29.3584 18.7526 29.3423 18.7333 29.3229C18.7075 29.2972 18.9299 29.0587 19.5164 28.4689C19.9676 28.021 20.335 27.6375 20.335 27.6182C20.335 27.6021 20.4091 27.5118 20.4961 27.4216C20.5863 27.3313 20.6572 27.2443 20.6572 27.2282C20.6572 27.2121 20.7152 27.138 20.7861 27.0671C20.857 26.993 20.915 26.9221 20.915 26.906C20.915 26.8898 20.9602 26.8318 21.0117 26.7738C21.0665 26.719 21.1084 26.661 21.1084 26.6449C21.1084 26.632 21.1535 26.574 21.2051 26.516C21.2599 26.4612 21.3018 26.4 21.3018 26.3807C21.3018 26.3613 21.3308 26.3227 21.3662 26.2969C21.4017 26.2711 21.4307 26.2292 21.4307 26.2002C21.4307 26.1712 21.4597 26.1293 21.4951 26.1035C21.5306 26.0777 21.5596 26.0358 21.5596 26.0068C21.5596 25.9778 21.5886 25.9359 21.624 25.9102C21.6595 25.8844 21.6885 25.8425 21.6885 25.8135C21.6885 25.7845 21.7175 25.7426 21.7529 25.7168C21.7884 25.691 21.8174 25.6491 21.8174 25.6201C21.8174 25.5911 21.8464 25.5492 21.8818 25.5234C21.9173 25.4977 21.9463 25.4525 21.9463 25.4203C21.9463 25.3881 21.9624 25.3623 21.9785 25.3623C21.9979 25.3623 22.0107 25.3365 22.0107 25.3043C22.0107 25.2721 22.0398 25.227 22.0752 25.2012C22.1107 25.1754 22.1397 25.1303 22.1397 25.098C22.1397 25.0658 22.1558 25.04 22.1719 25.04C22.1912 25.04 22.2041 25.0143 22.2041 24.982C22.2041 24.9498 22.2331 24.9047 22.2686 24.8789C22.304 24.8531 22.333 24.808 22.333 24.7758C22.333 24.7436 22.3491 24.7178 22.3652 24.7178C22.3846 24.7178 22.3975 24.6888 22.3975 24.6533C22.3975 24.6179 22.4136 24.5889 22.4297 24.5889C22.449 24.5889 22.4619 24.5599 22.4619 24.5244C22.4619 24.489 22.4748 24.46 22.4909 24.46C22.507 24.46 22.5264 24.4342 22.536 24.402C22.5618 24.3278 22.6649 24.157 22.6972 24.1441C22.7101 24.1377 22.7197 24.1055 22.7197 24.07C22.7197 24.0378 22.7358 24.0088 22.752 24.0088C22.7713 24.0088 22.7842 23.9798 22.7842 23.9443C22.7842 23.9089 22.8003 23.8799 22.8164 23.8799C22.8357 23.8799 22.8486 23.8509 22.8486 23.8154C22.8486 23.78 22.8648 23.751 22.8809 23.751C22.9002 23.751 22.9131 23.722 22.9131 23.6865C22.9131 23.6511 22.9292 23.6221 22.9453 23.6221C22.9647 23.6221 22.9775 23.635 22.9775 23.6543Z" fill="white"/>
<path d="M15.0498 14.1152C15.0047 14.1668 14.9531 14.2119 14.9338 14.2119C14.9177 14.2119 14.8693 14.2409 14.8307 14.2764C14.792 14.3118 14.7404 14.3408 14.7114 14.3408C14.6856 14.3408 14.6631 14.3537 14.6631 14.373C14.6631 14.3892 14.6341 14.4053 14.5986 14.4053C14.5632 14.4053 14.5342 14.4182 14.5342 14.4375C14.5342 14.4536 14.4923 14.4697 14.4375 14.4697C14.3859 14.4697 14.3408 14.4826 14.3408 14.502C14.3408 14.5181 14.2828 14.5342 14.2151 14.5342C14.1442 14.5342 14.0766 14.5181 14.0669 14.502C14.0572 14.4826 13.996 14.4697 13.9348 14.4697C13.8735 14.4697 13.8252 14.4536 13.8252 14.4375C13.8252 14.4182 13.7962 14.4053 13.7607 14.4053C13.7253 14.4053 13.6963 14.3892 13.6963 14.373C13.6963 14.3537 13.6673 14.3408 13.6318 14.3408C13.5964 14.3408 13.5674 14.3247 13.5674 14.3086C13.5674 14.2893 13.548 14.2764 13.5255 14.2764C13.5029 14.2764 13.4514 14.2474 13.4127 14.2119C13.374 14.1765 13.3225 14.1475 13.2967 14.1475C13.2677 14.1475 13.1968 14.1765 13.1323 14.2119C13.0679 14.2474 12.997 14.2764 12.9712 14.2764C12.9454 14.2764 12.9229 14.2893 12.9229 14.3086C12.9229 14.3247 12.8938 14.3408 12.8584 14.3408C12.8229 14.3408 12.7939 14.3537 12.7939 14.373C12.7939 14.3892 12.7714 14.4053 12.7424 14.4053C12.6844 14.4053 12.6006 14.4794 12.6006 14.531C12.6006 14.6276 12.9196 14.9854 13.0066 14.9854C13.0292 14.9854 13.0518 14.995 13.0582 15.0079C13.0711 15.0434 13.3386 15.1787 13.3934 15.1787C13.4191 15.1787 13.4385 15.1916 13.4385 15.2109C13.4385 15.2271 13.4836 15.2432 13.5352 15.2432C13.5899 15.2432 13.6318 15.2561 13.6318 15.2754C13.6318 15.2915 13.706 15.3076 13.793 15.3076C13.8832 15.3076 13.9541 15.3205 13.9541 15.3398C13.9541 15.3592 14.054 15.3721 14.1926 15.3721C14.3247 15.3721 14.4439 15.356 14.4536 15.3398C14.4633 15.3205 14.531 15.3076 14.6019 15.3076C14.6695 15.3076 14.7533 15.2947 14.7855 15.2786C14.8146 15.2625 14.8758 15.2367 14.9209 15.2206C15.0853 15.1562 15.1787 15.1014 15.1787 15.0756C15.1787 15.0627 15.2045 15.0498 15.2367 15.0498C15.2689 15.0498 15.3141 15.0208 15.3398 14.9854C15.3656 14.9499 15.4043 14.9209 15.4269 14.9209C15.4978 14.9209 15.7588 14.6373 15.7588 14.5632C15.7588 14.4729 15.2883 14.0186 15.198 14.0186C15.1594 14.0186 15.0949 14.0637 15.0498 14.1152Z" fill="white"/>
<path d="M17.2831 14.2635C17.1445 14.4021 17.0479 14.5277 17.0479 14.5664C17.0479 14.6373 17.3766 14.9854 17.4442 14.9854C17.4668 14.9854 17.5055 15.0144 17.5313 15.0498C17.557 15.0853 17.6022 15.1143 17.6344 15.1143C17.6666 15.1143 17.6924 15.1271 17.6924 15.1465C17.6924 15.1626 17.7214 15.1787 17.7568 15.1787C17.7923 15.1787 17.8213 15.1916 17.8213 15.2109C17.8213 15.2271 17.8664 15.2432 17.918 15.2432C17.9728 15.2432 18.0147 15.2561 18.0147 15.2754C18.0147 15.2915 18.0888 15.3076 18.1758 15.3076C18.266 15.3076 18.3369 15.3205 18.3369 15.3398C18.3369 15.3592 18.4433 15.3721 18.5947 15.3721C18.7462 15.3721 18.8525 15.3592 18.8525 15.3398C18.8525 15.3205 18.9267 15.3076 19.0137 15.3076C19.1039 15.3076 19.1748 15.2915 19.1748 15.2754C19.1748 15.2561 19.2199 15.2432 19.2715 15.2432C19.3263 15.2432 19.3682 15.2271 19.3682 15.2109C19.3682 15.1916 19.3972 15.1787 19.4326 15.1787C19.4681 15.1787 19.4971 15.1626 19.4971 15.1465C19.4971 15.1271 19.5261 15.1143 19.5615 15.1143C19.597 15.1143 19.626 15.0981 19.626 15.082C19.626 15.0627 19.6485 15.0498 19.6775 15.0498C19.7066 15.0498 19.7549 15.024 19.7839 14.9918C19.8129 14.9628 19.8902 14.8951 19.9579 14.8468C20.0224 14.7984 20.0772 14.734 20.0772 14.7082C20.0772 14.6856 20.0868 14.6631 20.1029 14.6631C20.1158 14.6631 20.1448 14.6341 20.1674 14.5954C20.219 14.5116 20.1803 14.4568 20.0159 14.3859C19.9515 14.3569 19.8741 14.3215 19.8451 14.3054C19.8129 14.2893 19.7646 14.2764 19.7388 14.2764C19.713 14.2764 19.6904 14.2603 19.6904 14.2441C19.6904 14.2248 19.6614 14.2119 19.626 14.2119C19.5905 14.2119 19.5615 14.1958 19.5615 14.1797C19.5615 14.1088 19.3907 14.1507 19.3037 14.2441C19.2554 14.2957 19.1909 14.3408 19.1619 14.3408C19.1329 14.3408 19.1104 14.3537 19.1104 14.373C19.1104 14.3892 19.0814 14.4053 19.0459 14.4053C19.0105 14.4053 18.9815 14.4182 18.9815 14.4375C18.9815 14.4536 18.9234 14.4697 18.8525 14.4697C18.7816 14.4697 18.7236 14.4826 18.7236 14.502C18.7236 14.5181 18.6656 14.5342 18.5947 14.5342C18.5238 14.5342 18.4658 14.5181 18.4658 14.502C18.4658 14.4826 18.4175 14.4697 18.3563 14.4697C18.295 14.4697 18.2338 14.4536 18.2241 14.4375C18.2145 14.4182 18.1758 14.4053 18.1403 14.4053C18.1081 14.4053 18.0791 14.3924 18.0791 14.3795C18.0791 14.3634 18.0404 14.3312 17.9921 14.3054C17.9405 14.2796 17.8471 14.2055 17.7826 14.1378C17.615 13.967 17.557 13.9799 17.2831 14.2635Z" fill="white"/>
<path d="M15.1465 17.5635C15.1207 17.5989 15.0788 17.6279 15.0563 17.6279C15.0305 17.6279 14.9692 17.6698 14.9209 17.7246C14.8726 17.7762 14.8146 17.8213 14.792 17.8213C14.6792 17.8213 14.6276 17.9889 14.705 18.1178C14.7565 18.208 15.0079 18.4658 15.0434 18.4658C15.0595 18.4658 15.1175 18.5077 15.1723 18.5625C15.2303 18.6141 15.2979 18.6592 15.3237 18.6592C15.3495 18.6592 15.3721 18.6721 15.3721 18.6914C15.3721 18.7075 15.4011 18.7236 15.4365 18.7236C15.472 18.7236 15.501 18.7365 15.501 18.7559C15.501 18.772 15.53 18.7881 15.5654 18.7881C15.6009 18.7881 15.6299 18.801 15.6299 18.8203C15.6299 18.8364 15.675 18.8525 15.7266 18.8525C15.7813 18.8525 15.8232 18.8654 15.8232 18.8848C15.8232 18.9041 15.9199 18.917 16.0488 18.917C16.1777 18.917 16.2744 18.9299 16.2744 18.9492C16.2744 18.9653 16.3324 18.9814 16.4033 18.9814C16.4742 18.9814 16.5322 18.9653 16.5322 18.9492C16.5322 18.9299 16.616 18.917 16.7224 18.917C16.8287 18.917 16.9254 18.9009 16.9351 18.8848C16.9447 18.8654 16.9963 18.8525 17.0479 18.8525C17.0994 18.8525 17.151 18.8364 17.1606 18.8203C17.1703 18.801 17.209 18.7881 17.2444 18.7881C17.2767 18.7881 17.3057 18.772 17.3057 18.7559C17.3057 18.7365 17.3314 18.7236 17.3637 18.7236C17.3959 18.7236 17.441 18.6946 17.4668 18.6592C17.4926 18.6237 17.5313 18.5947 17.557 18.5947C17.5796 18.5947 17.7214 18.4723 17.8696 18.324C18.1468 18.0501 18.2048 17.9373 18.0888 17.8954C18.0565 17.8825 17.9921 17.8342 17.9438 17.7826C17.8986 17.7343 17.8438 17.6924 17.8213 17.6924C17.7987 17.6924 17.7407 17.6473 17.6924 17.5957C17.5635 17.4571 17.4894 17.4732 17.2799 17.6827C17.18 17.7858 17.0575 17.889 17.0092 17.9147C16.9576 17.9405 16.9189 17.9728 16.9189 17.9889C16.9189 18.0018 16.8771 18.0146 16.8223 18.0146C16.7707 18.0146 16.7256 18.0275 16.7256 18.0469C16.7256 18.063 16.6676 18.0791 16.5967 18.0791C16.5258 18.0791 16.4678 18.092 16.4678 18.1113C16.4678 18.1274 16.4388 18.1436 16.4065 18.1436C16.3711 18.1436 16.3324 18.1274 16.3228 18.1113C16.3131 18.092 16.239 18.0791 16.1584 18.0791C16.0811 18.0791 16.0166 18.063 16.0166 18.0469C16.0166 18.0275 15.9876 18.0146 15.9521 18.0146C15.9167 18.0146 15.8877 17.9985 15.8877 17.9824C15.8877 17.9631 15.8651 17.9502 15.8394 17.9502C15.8104 17.9502 15.7523 17.9147 15.7104 17.8729C15.6653 17.8277 15.5912 17.7697 15.5396 17.7407C15.4913 17.7117 15.4301 17.644 15.4075 17.5925C15.3592 17.4797 15.2174 17.4636 15.1465 17.5635Z" fill="white"/>
</svg>
