<svg width="21" height="20" viewBox="0 0 21 20" fill="none" xmlns="http://www.w3.org/2000/svg">
<path d="M6.33333 8.95841H4.66667C2.65 8.95841 1.54167 7.85008 1.54167 5.83341V4.16675C1.54167 2.15008 2.65 1.04175 4.66667 1.04175H6.33333C8.35 1.04175 9.45833 2.15008 9.45833 4.16675V5.83341C9.45833 7.85008 8.35 8.95841 6.33333 8.95841ZM4.66667 2.29175C3.35 2.29175 2.79167 2.85008 2.79167 4.16675V5.83341C2.79167 7.15008 3.35 7.70841 4.66667 7.70841H6.33333C7.65 7.70841 8.20833 7.15008 8.20833 5.83341V4.16675C8.20833 2.85008 7.65 2.29175 6.33333 2.29175H4.66667Z" fill="#767676"/>
<path d="M16.3333 8.95841H14.6667C12.65 8.95841 11.5417 7.85008 11.5417 5.83341V4.16675C11.5417 2.15008 12.65 1.04175 14.6667 1.04175H16.3333C18.35 1.04175 19.4583 2.15008 19.4583 4.16675V5.83341C19.4583 7.85008 18.35 8.95841 16.3333 8.95841ZM14.6667 2.29175C13.35 2.29175 12.7917 2.85008 12.7917 4.16675V5.83341C12.7917 7.15008 13.35 7.70841 14.6667 7.70841H16.3333C17.65 7.70841 18.2083 7.15008 18.2083 5.83341V4.16675C18.2083 2.85008 17.65 2.29175 16.3333 2.29175H14.6667Z" fill="#767676"/>
<path d="M16.3333 18.9584H14.6667C12.65 18.9584 11.5417 17.8501 11.5417 15.8334V14.1667C11.5417 12.1501 12.65 11.0417 14.6667 11.0417H16.3333C18.35 11.0417 19.4583 12.1501 19.4583 14.1667V15.8334C19.4583 17.8501 18.35 18.9584 16.3333 18.9584ZM14.6667 12.2917C13.35 12.2917 12.7917 12.8501 12.7917 14.1667V15.8334C12.7917 17.1501 13.35 17.7084 14.6667 17.7084H16.3333C17.65 17.7084 18.2083 17.1501 18.2083 15.8334V14.1667C18.2083 12.8501 17.65 12.2917 16.3333 12.2917H14.6667Z" fill="#767676"/>
<path d="M6.33333 18.9584H4.66667C2.65 18.9584 1.54167 17.8501 1.54167 15.8334V14.1667C1.54167 12.1501 2.65 11.0417 4.66667 11.0417H6.33333C8.35 11.0417 9.45833 12.1501 9.45833 14.1667V15.8334C9.45833 17.8501 8.35 18.9584 6.33333 18.9584ZM4.66667 12.2917C3.35 12.2917 2.79167 12.8501 2.79167 14.1667V15.8334C2.79167 17.1501 3.35 17.7084 4.66667 17.7084H6.33333C7.65 17.7084 8.20833 17.1501 8.20833 15.8334V14.1667C8.20833 12.8501 7.65 12.2917 6.33333 12.2917H4.66667Z" fill="#767676"/>
</svg>
