<svg width="25" height="24" viewBox="0 0 25 24" fill="none" xmlns="http://www.w3.org/2000/svg">
<rect x="0.666687" width="24" height="24" rx="12" fill="black"/>
<path d="M12.6667 17.5C9.63335 17.5 7.16669 15.0333 7.16669 12C7.16669 8.96667 9.63335 6.5 12.6667 6.5C15.7 6.5 18.1667 8.96667 18.1667 12C18.1667 15.0333 15.7 17.5 12.6667 17.5ZM12.6667 7.5C10.1867 7.5 8.16669 9.52 8.16669 12C8.16669 14.48 10.1867 16.5 12.6667 16.5C15.1467 16.5 17.1667 14.48 17.1667 12C17.1667 9.52 15.1467 7.5 12.6667 7.5Z" fill="white"/>
<path d="M12.6667 14.5C11.2867 14.5 10.1667 13.38 10.1667 12C10.1667 10.62 11.2867 9.5 12.6667 9.5C14.0467 9.5 15.1667 10.62 15.1667 12C15.1667 13.38 14.0467 14.5 12.6667 14.5ZM12.6667 10.5C11.84 10.5 11.1667 11.1733 11.1667 12C11.1667 12.8267 11.84 13.5 12.6667 13.5C13.4934 13.5 14.1667 12.8267 14.1667 12C14.1667 11.1733 13.4934 10.5 12.6667 10.5Z" fill="white"/>
<path d="M12.6667 7.16659C12.3934 7.16659 12.1667 6.93992 12.1667 6.66659V5.33325C12.1667 5.05992 12.3934 4.83325 12.6667 4.83325C12.94 4.83325 13.1667 5.05992 13.1667 5.33325V6.66659C13.1667 6.93992 12.94 7.16659 12.6667 7.16659Z" fill="white"/>
<path d="M7.33336 12.5H6.00003C5.7267 12.5 5.50003 12.2733 5.50003 12C5.50003 11.7267 5.7267 11.5 6.00003 11.5H7.33336C7.6067 11.5 7.83336 11.7267 7.83336 12C7.83336 12.2733 7.6067 12.5 7.33336 12.5Z" fill="white"/>
<path d="M12.6667 19.1666C12.3934 19.1666 12.1667 18.9399 12.1667 18.6666V17.3333C12.1667 17.0599 12.3934 16.8333 12.6667 16.8333C12.94 16.8333 13.1667 17.0599 13.1667 17.3333V18.6666C13.1667 18.9399 12.94 19.1666 12.6667 19.1666Z" fill="white"/>
<path d="M19.3334 12.5H18C17.7267 12.5 17.5 12.2733 17.5 12C17.5 11.7267 17.7267 11.5 18 11.5H19.3334C19.6067 11.5 19.8334 11.7267 19.8334 12C19.8334 12.2733 19.6067 12.5 19.3334 12.5Z" fill="white"/>
</svg>
