<svg width="54" height="55" viewBox="0 0 54 55" fill="none" xmlns="http://www.w3.org/2000/svg">
<path d="M33.1201 51.8406H20.9927C19.5527 51.8406 18.2926 51.7506 17.1451 51.5931C16.2226 51.4581 15.5701 50.6032 15.7051 49.6807C15.8401 48.7582 16.6727 48.0831 17.6177 48.2406C18.6077 48.3756 19.7101 48.4431 20.9701 48.4431H33.0977C42.3002 48.4431 45.5626 45.1805 45.5626 35.978V25.8755C45.5626 24.953 46.3276 24.188 47.2501 24.188C48.1726 24.188 48.9376 24.953 48.9376 25.8755V35.978C48.9601 47.093 44.2126 51.8406 33.1201 51.8406Z" fill="#7366AE"/>
<path d="M6.84009 37.2606C5.91759 37.2606 5.15259 36.4956 5.15259 35.5731V25.8979C5.15259 24.9754 5.91759 24.2104 6.84009 24.2104C7.76259 24.2104 8.52759 24.9754 8.52759 25.8979V35.5731C8.52759 36.4956 7.76259 37.2606 6.84009 37.2606Z" fill="#7366AE"/>
<path d="M27.0671 29.3406C24.5921 29.3406 22.342 28.3731 20.7445 26.5956C19.147 24.8181 18.4045 22.5005 18.652 20.0255L20.1596 4.9957C20.2496 4.1407 20.9696 3.46558 21.8471 3.46558H32.3546C33.2321 3.46558 33.9521 4.1182 34.0421 4.9957L35.5495 20.0255C35.797 22.5005 35.0546 24.8181 33.4571 26.5956C31.7921 28.3731 29.5421 29.3406 27.0671 29.3406ZM23.3321 6.84058L21.9821 20.3631C21.8246 21.8706 22.2746 23.2881 23.2196 24.3231C25.1321 26.4381 28.957 26.4381 30.8695 24.3231C31.8145 23.2656 32.2646 21.8481 32.1071 20.3631L30.757 6.84058H23.3321Z" fill="#7366AE"/>
<path d="M41.2425 29.3406C36.675 29.3406 32.6026 25.6505 32.1301 21.1055L30.555 5.33298C30.51 4.86048 30.6676 4.38808 30.9826 4.02808C31.2976 3.66808 31.7475 3.46558 32.2425 3.46558H39.105C45.72 3.46558 48.8025 6.23308 49.725 13.0281L50.355 19.2831C50.625 21.9381 49.815 24.4582 48.0825 26.3707C46.35 28.2832 43.92 29.3406 41.2425 29.3406ZM34.1099 6.84058L35.5051 20.7679C35.7976 23.5804 38.43 25.9656 41.2425 25.9656C42.9525 25.9656 44.4825 25.3132 45.585 24.1207C46.665 22.9282 47.16 21.3307 47.0025 19.6207L46.3725 13.4332C45.675 8.3482 44.0325 6.84058 39.105 6.84058H34.1099Z" fill="#7366AE"/>
<path d="M12.757 29.3406C10.0795 29.3406 7.64959 28.2832 5.91709 26.3707C4.18459 24.4582 3.37456 21.9381 3.64456 19.2831L4.27463 13.0956C5.21963 6.23314 8.30209 3.46558 14.9171 3.46558H21.7796C22.2521 3.46558 22.7021 3.66808 23.0396 4.02808C23.3546 4.38808 23.5121 4.86048 23.4671 5.33298L21.892 21.1055C21.397 25.6505 17.302 29.3406 12.757 29.3406ZM14.8946 6.84058C9.96706 6.84058 8.32459 8.32547 7.60459 13.478L6.99704 19.5982C6.81704 21.3082 7.33455 22.9057 8.41455 24.0982C9.49455 25.2907 11.047 25.9431 12.757 25.9431C15.592 25.9431 18.2245 23.5582 18.4945 20.7457L19.8896 6.81805H14.8946V6.84058Z" fill="#7366AE"/>
<path d="M11.25 54.0906C8.1 54.0906 5.15253 52.718 3.12753 50.3105C3.10503 50.288 3.01499 50.198 2.94749 50.0855C2.60999 49.6805 2.31748 49.2757 2.09248 48.8482C1.10248 47.2507 0.5625 45.3606 0.5625 43.3806C0.5625 40.0956 2.02507 37.0581 4.56757 35.0331C5.01757 34.6731 5.51251 34.3355 6.05251 34.043C7.60501 33.1655 9.4275 32.6705 11.25 32.6705C13.86 32.6705 16.2676 33.5706 18.2026 35.2581C18.4501 35.4381 18.7875 35.7756 19.08 36.0906C20.9025 38.0931 21.915 40.658 21.915 43.3355C21.915 45.293 21.375 47.2057 20.3625 48.8482C19.8675 49.7032 19.26 50.4456 18.585 51.0306C18.45 51.1656 18.315 51.3007 18.1575 51.4132C16.38 53.1457 13.8825 54.0906 11.25 54.0906ZM5.57996 47.9932C5.64746 48.0607 5.75994 48.1729 5.84995 48.3304C7.08745 49.7929 9.1125 50.7381 11.25 50.7381C13.0275 50.7381 14.7375 50.0855 16.0425 48.9155C16.11 48.8255 16.2 48.7355 16.3125 48.668C16.7625 48.2855 17.1451 47.7904 17.5051 47.2054C18.2026 46.0579 18.585 44.7756 18.585 43.4256C18.585 41.6031 17.8875 39.8257 16.6275 38.4532C16.47 38.2732 16.3124 38.093 16.1099 37.958C13.6799 35.8655 10.35 35.5507 7.69496 37.0582C7.33496 37.2607 7.01998 37.463 6.72748 37.7105C4.97248 39.1055 3.96002 41.1756 3.96002 43.4256C3.96002 44.7531 4.31996 46.0582 5.01746 47.1832C5.19746 47.4982 5.37746 47.7456 5.57996 47.9706C5.55746 47.9706 5.57996 47.9707 5.57996 47.9932Z" fill="#7366AE"/>
<path d="M14.6245 45.0455H7.89697C6.97447 45.0455 6.20947 44.2805 6.20947 43.358C6.20947 42.4355 6.97447 41.6705 7.89697 41.6705H14.6245C15.547 41.6705 16.312 42.4355 16.312 43.358C16.312 44.2805 15.547 45.0455 14.6245 45.0455Z" fill="#7366AE"/>
<path d="M11.25 48.4881C10.3275 48.4881 9.5625 47.7231 9.5625 46.8006V40.0731C9.5625 39.1506 10.3275 38.3856 11.25 38.3856C12.1725 38.3856 12.9375 39.1506 12.9375 40.0731V46.8006C12.9375 47.7456 12.1725 48.4881 11.25 48.4881Z" fill="#7366AE"/>
</svg>
